<svg width="34" height="36" viewBox="0 0 34 36" fill="none" xmlns="http://www.w3.org/2000/svg" id="CBAccoundCardRightArrow">

                        <path
                            d="M17.8797 35.26C17.6797 35.26 17.4697 35.19 17.3097 35.04C16.9597 34.73 16.9297 34.19 17.2497 33.84L31.4497 18.09L17.2397 1.40999C16.9397 1.04999 16.9797 0.51999 17.3397 0.20999C17.6997 -0.0900104 18.2297 -0.0500196 18.5397 0.30998L33.2297 17.55C33.5097 17.87 33.4997 18.35 33.2097 18.67L18.5197 34.97C18.3497 35.17 18.1197 35.26 17.8797 35.26Z"
                            fill="white" />
                        <path
                            d="M1.29962 35.26C1.09962 35.26 0.889647 35.19 0.729647 35.04C0.379647 34.73 0.349649 34.19 0.669649 33.84L14.8696 18.09L0.659639 1.40999C0.359639 1.04999 0.399645 0.51999 0.759645 0.20999C1.11965 -0.0900104 1.64963 -0.0500196 1.95963 0.30998L16.6496 17.55C16.9296 17.87 16.9196 18.35 16.6296 18.67L1.93964 34.97C1.75964 35.17 1.52962 35.26 1.29962 35.26Z"
                            fill="white" />
                    </svg>