<svg width="31" height="41" viewBox="0 0 31 41" fill="none" xmlns="http://www.w3.org/2000/svg" id="CBAccountStatements">
<path d="M30.8002 40.95H0.970215V0.840027H24.0502L30.8002 7.59003V40.96V40.95ZM2.55021 39.38H29.2402V8.23003L23.4102 2.40003H2.55021V39.37V39.38Z" fill="#005896"/>
<path d="M30.0202 8.69003H22.9502V1.62003H24.5202V7.12003H30.0202V8.69003Z" fill="#005896"/>
<path d="M25.1598 17.1H19.8198V32.61H25.1598V17.1Z" fill="#259CEE"/>
<path d="M25.1499 13.23H6.62988V17.11H25.1499V13.23Z" fill="#F58027"/>
<path d="M25.9401 33.4H5.8501V27.95H25.9401V33.4ZM7.4101 31.83H24.3601V29.52H7.4101V31.83Z" fill="#005896"/>
<path d="M25.9401 29.52H5.8501V24.07H25.9401V29.52ZM7.4101 27.95H24.3601V25.64H7.4101V27.95Z" fill="#005896"/>
<path d="M25.9401 25.64H5.8501V20.19H25.9401V25.64ZM7.4101 24.07H24.3601V21.76H7.4101V24.07Z" fill="#005896"/>
<path d="M25.9401 21.77H5.8501V16.32H25.9401V21.77ZM7.4101 20.2H24.3601V17.89H7.4101V20.2Z" fill="#005896"/>
<path d="M25.9401 17.89H5.8501V12.44H25.9401V17.89ZM7.4101 16.32H24.3601V14.01H7.4101V16.32Z" fill="#005896"/>
<path d="M20.6002 16.32H19.0302V33.4H20.6002V16.32Z" fill="#005896"/>
<path d="M12.7298 7.12H5.83984V8.68999H12.7298V7.12Z" fill="#005896"/>
<path d="M20.5398 9.75999H5.83984V11.33H20.5398V9.75999Z" fill="#005896"/>
<path d="M25.9398 34.51H19.0498V36.08H25.9398V34.51Z" fill="#005896"/>
</svg>
