<svg width="26" height="26" viewBox="0 0 26 26" fill="none" xmlns="http://www.w3.org/2000/svg" id="CBAddIcon">
                            <path
                                d="M13.0002 21.84C8.11216 21.84 4.16016 17.888 4.16016 13C4.16016 8.11197 8.11216 4.15997 13.0002 4.15997C17.8882 4.15997 21.8402 8.11197 21.8402 13C21.8402 17.888 17.8882 21.84 13.0002 21.84ZM13.0002 5.19997C8.68416 5.19997 5.20016 8.68397 5.20016 13C5.20016 17.316 8.68416 20.8 13.0002 20.8C17.3162 20.8 20.8002 17.316 20.8002 13C20.8002 8.68397 17.3162 5.19997 13.0002 5.19997Z"
                                fill="#177DC8" />
                            <path d="M8.32031 12.48H17.6803V13.52H8.32031V12.48Z" fill="#0C79C9" />
                            <path d="M12.4805 8.32001H13.5205V17.68H12.4805V8.32001Z" fill="#0C79C9" />
                        </svg>