<svg width="46" height="21" viewBox="0 0 46 21" fill="none" xmlns="http://www.w3.org/2000/svg" id="CBAdHocPayment">
<path d="M28.4002 13.47H27.6102C27.1102 13.47 26.6402 13.28 26.2802 12.92C25.9202 12.56 25.7302 12.09 25.7302 11.59H27.1102C27.1102 11.72 27.1602 11.85 27.2602 11.94C27.3502 12.03 27.4802 12.08 27.6102 12.08H28.4002C28.5302 12.08 28.6602 12.03 28.7502 11.93C28.8402 11.84 28.8902 11.71 28.8902 11.58C28.8902 11.45 28.8402 11.32 28.7502 11.23C28.6602 11.14 28.5302 11.08 28.4002 11.08H27.6102C27.1102 11.08 26.6402 10.88 26.2802 10.53C25.9302 10.18 25.7302 9.70998 25.7302 9.19998C25.7302 8.69998 25.9202 8.23 26.2802 7.87C26.6402 7.51 27.1102 7.31998 27.6102 7.31998H28.4002C28.9002 7.31998 29.3702 7.51 29.7302 7.87C30.0802 8.23 30.2802 8.69998 30.2802 9.19998H28.9002C28.9002 9.06998 28.8502 8.93998 28.7602 8.84998C28.6702 8.75998 28.5402 8.70999 28.4102 8.70999H27.6202C27.4902 8.70999 27.3602 8.75999 27.2702 8.85999C27.1802 8.94999 27.1302 9.07999 27.1302 9.20999C27.1302 9.33999 27.1802 9.47 27.2702 9.56C27.3602 9.65 27.4902 9.70999 27.6202 9.70999H28.4102C28.9102 9.70999 29.3802 9.90998 29.7402 10.26C30.0902 10.61 30.2902 11.08 30.2902 11.59C30.2902 12.09 30.1002 12.56 29.7402 12.92C29.3702 13.28 28.9002 13.47 28.4002 13.47Z" fill="#045896"/>
<path d="M28.6902 6.81998H27.3102V8.03998H28.6902V6.81998Z" fill="#045896"/>
<path d="M28.6902 12.78H27.3102V14H28.6902V12.78Z" fill="#045896"/>
<path d="M40.0003 9.68997H36.1403V11.13H40.0003V9.68997Z" fill="#045896"/>
<path d="M23.5702 0.75V2.12997H43.8702V18.69H23.5702V20.07H45.2502V0.75H23.5702Z" fill="#045896"/>
<path d="M39.1802 3.37H23.5702V7.12997C24.5802 5.76997 26.1802 4.88998 28.0002 4.88998C31.0502 4.88998 33.5202 7.35997 33.5202 10.41C33.5202 13.46 31.0502 15.93 28.0002 15.93C26.1802 15.93 24.5802 15.05 23.5702 13.69V17.45H39.1802C39.1802 15.54 40.7202 14 42.6302 14V6.81998C40.7302 6.81998 39.1802 5.27 39.1802 3.37Z" fill="#259CEE"/>
<path d="M22.9603 0.75H7.65027V2.09998H22.9603V0.75Z" fill="#F58027"/>
<path d="M22.9702 3.34H-0.00976562V4.68997H22.9702V3.34Z" fill="#F58027"/>
<path d="M22.9702 5.93997H10.2302V7.28998H22.9702V5.93997Z" fill="#F58027"/>
<path d="M7.98024 5.93997H2.61023V7.28998H7.98024V5.93997Z" fill="#F58027"/>
<path d="M22.3002 8.53H13.8602V9.87997H22.3002V8.53Z" fill="#F58027"/>
<path d="M11.4703 8.53H7.65027V9.87997H11.4703V8.53Z" fill="#F58027"/>
<path d="M21.8902 10.93H6.97021V12.28H21.8902V10.93Z" fill="#F58027"/>
<path d="M22.9702 13.53H11.8602V14.88H22.9702V13.53Z" fill="#F58027"/>
<path d="M22.9602 16.12H13.8602V17.47H22.9602V16.12Z" fill="#F58027"/>
<path d="M13.0002 16.12H8.4502V17.47H13.0002V16.12Z" fill="#F58027"/>
<path d="M22.9702 18.72H8.4502V20.07H22.9702V18.72Z" fill="#F58027"/>
<path d="M6.97017 18.72H3.67017V20.07H6.97017V18.72Z" fill="#F58027"/>
<path d="M40.0003 9.68997H36.1403V11.13H40.0003V9.68997Z" fill="#045896"/>
</svg>
