<svg width="13" height="21" viewBox="0 0 13 21" fill="none" xmlns="http://www.w3.org/2000/svg" id="CBAddress">
                            <path
                                d="M6.809 20.0275C6.709 20.0275 6.619 19.9675 6.569 19.8775L1.629 9.32751C0.818998 7.55751 0.939 5.49751 1.959 3.82751C2.949 2.18751 4.609 1.1975 6.489 1.0975C6.699 1.0875 6.909 1.0875 7.119 1.0975C9.009 1.1975 10.659 2.18751 11.649 3.82751C12.669 5.49751 12.789 7.55751 11.979 9.32751L7.039 19.8775C6.999 19.9675 6.909 20.0275 6.809 20.0275ZM6.809 1.6175C6.709 1.6175 6.619 1.61751 6.519 1.62751C4.809 1.71751 3.309 2.6175 2.409 4.0975C1.489 5.6175 1.369 7.48751 2.109 9.10751L6.809 19.1475L11.509 9.10751C12.249 7.49751 12.129 5.62751 11.209 4.10751C10.309 2.61751 8.809 1.7175 7.099 1.6375C6.999 1.6275 6.909 1.6175 6.809 1.6175Z"
                                fill="#0061A7" stroke="#0061A7" stroke-width="0.7" stroke-miterlimit="10" />
                            <path
                                d="M6.809 20.1275C6.669 20.1275 6.53901 20.0475 6.47901 19.9175L1.539 9.3675C0.719004 7.5675 0.839006 5.4775 1.86901 3.7775C2.87901 2.1175 4.55901 1.0975 6.47901 1.0075C6.68901 0.9975 6.90901 0.9975 7.11901 1.0075C9.03901 1.1075 10.719 2.1175 11.729 3.7775C12.759 5.4775 12.889 7.5675 12.069 9.3675L7.129 19.9175C7.079 20.0475 6.949 20.1275 6.809 20.1275ZM6.809 1.1975C6.709 1.1975 6.599 1.1975 6.499 1.2075C4.649 1.2975 3.02901 2.2775 2.04901 3.8875C1.04901 5.5275 0.929007 7.54751 1.72901 9.29751L6.66901 19.8475C6.71901 19.9575 6.909 19.9575 6.969 19.8475L11.909 9.29751C12.699 7.55751 12.579 5.5375 11.579 3.8975C10.599 2.2875 8.979 1.31751 7.129 1.21751C7.019 1.19751 6.909 1.1975 6.809 1.1975ZM6.809 19.2475C6.769 19.2475 6.739 19.2275 6.719 19.1875L2.019 9.1475C1.269 7.5075 1.37901 5.59751 2.32901 4.04751C3.24901 2.53751 4.779 1.6175 6.519 1.5275C6.709 1.5175 6.909 1.5175 7.109 1.5275C8.849 1.6175 10.379 2.53751 11.299 4.04751C12.239 5.59751 12.359 7.5075 11.609 9.1475L6.909 19.1975C6.879 19.2275 6.849 19.2475 6.809 19.2475ZM6.809 1.71751C6.709 1.71751 6.61901 1.7175 6.52901 1.7275C4.84901 1.8175 3.389 2.69751 2.499 4.15751C1.589 5.64751 1.479 7.48751 2.199 9.07751L6.809 18.9275L11.419 9.07751C12.139 7.49751 12.029 5.6575 11.119 4.1675C10.229 2.7075 8.769 1.8275 7.089 1.7375C6.999 1.7175 6.899 1.71751 6.809 1.71751Z"
                                fill="#0061A7" stroke="#0061A7" stroke-width="0.7" stroke-miterlimit="10" />
                            <path
                                d="M6.80902 9.9575C5.07902 9.9575 3.67902 8.55751 3.67902 6.82751C3.67902 5.09751 5.07902 3.69751 6.80902 3.69751C8.53902 3.69751 9.93902 5.09751 9.93902 6.82751C9.93902 8.55751 8.53902 9.9575 6.80902 9.9575ZM6.80902 4.21751C5.36902 4.21751 4.19902 5.38751 4.19902 6.82751C4.19902 8.26751 5.36902 9.43752 6.80902 9.43752C8.24902 9.43752 9.41902 8.26751 9.41902 6.82751C9.41902 5.38751 8.24902 4.21751 6.80902 4.21751Z"
                                fill="#0061A7" stroke="#0061A7" stroke-width="0.7" stroke-miterlimit="10" />
                            <path
                                d="M6.80901 10.0575C5.02901 10.0575 3.57901 8.60751 3.57901 6.82751C3.57901 5.04751 5.02901 3.5975 6.80901 3.5975C8.58901 3.5975 10.039 5.04751 10.039 6.82751C10.039 8.60751 8.58901 10.0575 6.80901 10.0575ZM6.80901 3.79752C5.13901 3.79752 3.77901 5.15751 3.77901 6.82751C3.77901 8.49751 5.13901 9.85751 6.80901 9.85751C8.47901 9.85751 9.83901 8.49751 9.83901 6.82751C9.83901 5.15751 8.47901 3.79752 6.80901 3.79752ZM6.80901 9.53751C5.31901 9.53751 4.10901 8.32751 4.10901 6.83751C4.10901 5.34751 5.31901 4.13751 6.80901 4.13751C8.29901 4.13751 9.50901 5.34751 9.50901 6.83751C9.50901 8.32751 8.29901 9.53751 6.80901 9.53751ZM6.80901 4.3175C5.42901 4.3175 4.29901 5.44751 4.29901 6.82751C4.29901 8.20751 5.42901 9.33751 6.80901 9.33751C8.18901 9.33751 9.31901 8.20751 9.31901 6.82751C9.31901 5.44751 8.18901 4.3175 6.80901 4.3175Z"
                                fill="#0061A7" stroke="#0061A7" stroke-width="0.7" stroke-miterlimit="10" />
                        </svg>