<svg width="19" height="22" viewBox="0 0 19 22" fill="none" xmlns="http://www.w3.org/2000/svg" id="CBAnnouncements">
								<g clip-path="url(#clip0_0_1)">
									<path
										d="M12.2799 5.17998L3.73986 9.37998C3.64986 9.41998 3.54986 9.44998 3.44986 9.44998H0.769863C0.399863 9.44998 0.109863 9.74998 0.109863 10.11V15.32C0.109863 15.69 0.409863 15.98 0.769863 15.98H3.32986C3.43986 15.98 3.55986 16.01 3.64986 16.06L12.2399 20.88C12.6799 21.13 13.2299 20.81 13.2299 20.3V5.76998C13.2299 5.27998 12.7199 4.95998 12.2799 5.17998ZM3.32986 15.4H0.689863V10.04H3.31986V15.4H3.32986ZM12.6499 20.44L3.90986 15.54V9.93998L12.6499 5.64998V20.45V20.44Z"
										fill="#787878" />
									<path
										d="M12.57 21.09C12.44 21.09 12.31 21.06 12.19 20.99L3.6 16.16C3.52 16.11 3.42 16.09 3.33 16.09H0.77C0.34 16.09 0 15.74 0 15.32V10.11C0 9.68002 0.35 9.34001 0.77 9.34001H3.44C3.52 9.34001 3.61 9.32001 3.68 9.28001L12.23 5.08001C12.47 4.96001 12.75 4.98001 12.98 5.12001C13.21 5.26001 13.34 5.51001 13.34 5.78001V20.32C13.34 20.6 13.2 20.85 12.96 20.99C12.84 21.06 12.7 21.1 12.57 21.1V21.09ZM0.77 9.56001C0.47 9.56001 0.22 9.81001 0.22 10.11V15.32C0.22 15.62 0.47 15.87 0.77 15.87H3.33C3.46 15.87 3.59 15.9 3.71 15.97L12.3 20.79C12.47 20.89 12.68 20.89 12.85 20.79C13.02 20.69 13.12 20.51 13.12 20.31V5.77001C13.12 5.58001 13.02 5.40001 12.86 5.30001C12.7 5.20001 12.5 5.19001 12.32 5.27001L3.78 9.48001C3.67 9.53001 3.56 9.56001 3.44 9.56001H0.77ZM12.65 20.55C12.65 20.55 12.61 20.55 12.6 20.54L3.86 15.64C3.86 15.64 3.8 15.58 3.8 15.54V9.94001C3.8 9.94001 3.82 9.86001 3.86 9.84001L12.6 5.55001C12.6 5.55001 12.67 5.53001 12.71 5.55001C12.74 5.57001 12.76 5.61001 12.76 5.64001V20.44C12.76 20.44 12.74 20.51 12.71 20.53C12.69 20.54 12.67 20.55 12.65 20.55ZM4.02 15.48L12.53 20.26V5.83001L4.02 10.01V15.47V15.48ZM3.33 15.51H0.69C0.63 15.51 0.58 15.46 0.58 15.4V10.04C0.58 9.98001 0.63 9.93001 0.69 9.93001H3.32C3.38 9.93001 3.43 9.98001 3.43 10.04V15.4C3.43 15.46 3.38 15.51 3.32 15.51H3.33ZM0.8 15.29H3.21V10.14H0.8V15.29Z"
										fill="#787878" />
								</g>

							</svg>