<svg  width="15" height="23" viewBox="0 0 11 18" fill="" xmlns="http://www.w3.org/2000/svg" id="CBATMLocator">
                        <path
                            d="M9.99064 7.92999L5.77067 17.1C5.73067 17.18 5.6506 17.23 5.5706 17.23C5.4906 17.23 5.40065 17.18 5.37065 17.1L1.15068 7.92999C0.460677 6.38999 0.560706 4.59996 1.43071 3.14996C2.28071 1.72996 3.6907 0.859968 5.3007 0.779968C5.4807 0.779968 5.66062 0.779968 5.84062 0.779968C7.45062 0.859968 8.86061 1.72996 9.71061 3.14996C10.5806 4.59996 10.6806 6.38999 9.99064 7.92999ZM9.3206 3.38995C8.5506 2.09995 7.27071 1.31005 5.81071 1.24005C5.73071 1.24005 5.65071 1.24005 5.56071 1.24005C5.47071 1.24005 5.40071 1.24005 5.31071 1.24005C3.85071 1.31005 2.5707 2.09995 1.8007 3.38995C1.0107 4.70995 0.910692 6.34005 1.54069 7.74005L5.56071 16.47L9.58061 7.74005C10.2106 6.34005 10.1106 4.70995 9.3206 3.38995ZM10.0607 7.96002L5.84062 17.14C5.79062 17.25 5.68071 17.32 5.56071 17.32C5.44071 17.32 5.33068 17.25 5.28068 17.14L1.06071 7.97003C0.360711 6.40003 0.460618 4.59005 1.34062 3.11005C2.20062 1.66005 3.64068 0.780012 5.28068 0.700012C5.46068 0.700012 5.65061 0.700012 5.83061 0.700012C7.47061 0.780012 8.91067 1.66005 9.77067 3.11005C10.6507 4.59005 10.7607 6.40003 10.0607 7.97003V7.96002ZM9.63066 3.19C8.79066 1.79 7.4106 0.940046 5.8206 0.860046C5.7306 0.860046 5.64071 0.860046 5.56071 0.860046C5.48071 0.860046 5.3807 0.860046 5.3007 0.860046C3.7207 0.940046 2.33064 1.79 1.49064 3.19C0.640643 4.62 0.530613 6.37995 1.21061 7.88995L5.43071 17.06C5.48071 17.16 5.64071 17.16 5.68071 17.06L9.90068 7.88995C10.5807 6.37995 10.4706 4.62 9.62065 3.19H9.63066ZM5.64067 16.5001C5.64067 16.5001 5.60071 16.55 5.56071 16.55C5.52071 16.55 5.50063 16.5301 5.48063 16.5001L1.46061 7.76996C0.820614 6.33996 0.920623 4.68003 1.72062 3.34003C2.51062 2.02003 3.8107 1.22996 5.3007 1.14996C5.4707 1.14996 5.6307 1.14996 5.8007 1.14996C7.2907 1.22996 8.59066 2.03003 9.38066 3.34003C10.1907 4.69003 10.2807 6.33996 9.64067 7.76996L5.62065 16.5001H5.64067ZM9.25065 3.42999C8.49065 2.15999 7.2407 1.39001 5.8007 1.32001C5.7207 1.32001 5.64071 1.32001 5.56071 1.32001C5.48071 1.32001 5.4006 1.32001 5.3206 1.32001C3.8906 1.39001 2.63065 2.15999 1.87065 3.42999C1.09065 4.72999 1.00065 6.33001 1.62065 7.70001L5.56071 16.2599L9.50065 7.69C10.1207 6.32 10.0207 4.71998 9.25065 3.41998V3.42999ZM5.56071 8.48004C4.08071 8.48004 2.88066 7.25995 2.88066 5.75995C2.88066 4.25995 4.08071 3.03998 5.56071 3.03998C7.04071 3.03998 8.24064 4.25995 8.24064 5.75995C8.24064 7.25995 7.04071 8.48004 5.56071 8.48004ZM5.56071 3.49005C4.33071 3.49005 3.33061 4.51006 3.33061 5.75006C3.33061 6.99006 4.33071 8.01996 5.56071 8.01996C6.79071 8.01996 7.79069 7.00006 7.79069 5.75006C7.79069 4.50006 6.79071 3.49005 5.56071 3.49005ZM5.56071 8.56C4.04071 8.56 2.8007 7.30006 2.8007 5.75006C2.8007 4.20006 4.04071 2.94 5.56071 2.94C7.08071 2.94 8.3206 4.20006 8.3206 5.75006C8.3206 7.30006 7.08071 8.56 5.56071 8.56ZM5.56071 3.12006C4.13071 3.12006 2.97062 4.29995 2.97062 5.75995C2.97062 7.21995 4.13071 8.39996 5.56071 8.39996C6.99071 8.39996 8.15068 7.21995 8.15068 5.75995C8.15068 4.29995 6.99071 3.12006 5.56071 3.12006ZM5.56071 8.11005C4.28071 8.11005 3.25065 7.05995 3.25065 5.75995C3.25065 4.45995 4.29071 3.40997 5.56071 3.40997C6.83071 3.40997 7.87065 4.45995 7.87065 5.75995C7.87065 7.05995 6.83071 8.11005 5.56071 8.11005ZM5.56071 3.58002C4.38071 3.58002 3.4207 4.55995 3.4207 5.75995C3.4207 6.95995 4.38071 7.94 5.56071 7.94C6.74071 7.94 7.7006 6.95995 7.7006 5.75995C7.7006 4.55995 6.74071 3.58002 5.56071 3.58002Z"
                            fill="#075896" />
</svg>