<svg width="17" height="18" viewBox="0 0 17 18" fill="none" xmlns="http://www.w3.org/2000/svg" id="CBBackIcon">
                    <path d="M8.19264 17.308C8.08264 17.308 7.97264 17.258 7.89264 17.168L1.09264 9.188C0.962644 9.038 0.972644 8.81799 1.10264 8.66799L7.90264 1.128C8.05264 0.967999 8.29264 0.958001 8.46265 1.098C8.62264 1.248 8.63264 1.488 8.49264 1.658L1.92264 8.938L8.49264 16.648C8.63264 16.818 8.61264 17.058 8.45264 17.198C8.37264 17.278 8.28264 17.308 8.19264 17.308Z" fill="#787878" stroke="#787878" stroke-miterlimit="10"/>
                    <path d="M15.8626 17.308C15.7526 17.308 15.6426 17.258 15.5626 17.168L8.76257 9.188C8.63257 9.038 8.64257 8.81799 8.77257 8.66799L15.5726 1.128C15.7226 0.967999 15.9626 0.958001 16.1326 1.098C16.2926 1.248 16.3026 1.488 16.1626 1.658L9.59257 8.938L16.1626 16.648C16.3026 16.818 16.2826 17.058 16.1226 17.198C16.0426 17.278 15.9526 17.308 15.8626 17.308Z" fill="#787878" stroke="#787878" stroke-miterlimit="10"/>
                </svg>