<svg width="15" height="19" viewBox="0 0 15 19" fill="none" xmlns="http://www.w3.org/2000/svg" id="CBBin">
                            <path
                                d="M3.57011 17.88H11.6001C11.8007 17.88 11.9662 17.7166 11.97 17.517L13.1593 3.1862C13.1755 3.05982 13.1185 2.96041 13.0672 2.89629C12.9985 2.8104 12.8953 2.75997 12.7801 2.75997H2.37013C2.26868 2.75997 2.15393 2.80761 2.08299 2.89629C2.03169 2.96041 1.97473 3.05982 1.99095 3.1862L3.18057 17.5215L3.33012 17.51L3.18064 17.5224L3.18061 17.522C3.19732 17.7358 3.37799 17.88 3.57011 17.88ZM11.2321 17.1H3.91821L2.7931 3.53998H12.3572L11.2321 17.1Z"
                                fill="#0074C8" stroke="#0073C2" stroke-width="0.3" />
                            <path
                                d="M1.23999 3.53998H13.78C13.9887 3.53998 14.17 3.37691 14.17 3.14999C14.17 2.93718 13.9929 2.75997 13.78 2.75997H1.23999C1.02712 2.75997 0.85 2.93718 0.85 3.14999C0.85 3.36284 1.02715 3.53998 1.23999 3.53998Z"
                                fill="#0074C8" stroke="#0073C2" stroke-width="0.3" />
                            <path
                                d="M7.18984 16.2C7.18984 16.4128 7.36697 16.59 7.57983 16.59C7.7927 16.59 7.96982 16.4128 7.96982 16.2V4.80997C7.96982 4.59715 7.7927 4.41995 7.57983 4.41995C7.36697 4.41995 7.18984 4.59715 7.18984 4.80997V16.2Z"
                                fill="#0074C8" stroke="#0073C2" stroke-width="0.3" />
                            <path
                                d="M9.56807 16.5695L9.56804 16.5699L9.82958 16.1999L9.979 16.2131L9.97903 16.2127C9.97904 16.2126 9.97905 16.2125 9.97906 16.2124L10.979 4.86307L10.979 4.86307L10.9791 4.86141C10.9953 4.65127 10.8361 4.45691 10.6211 4.44036C10.4112 4.42422 10.2171 4.58296 10.2001 4.79756C10.2001 4.79785 10.2001 4.79813 10.2 4.79842L9.21014 16.1469H9.21014L9.21002 16.1484C9.19386 16.3585 9.35302 16.5529 9.56807 16.5695Z"
                                fill="#0074C8" stroke="#0073C2" stroke-width="0.3" />
                            <path
                                d="M4.18023 4.86141L4.18023 4.86141L4.18036 4.86294L5.17022 16.2114C5.17025 16.2117 5.17027 16.212 5.17029 16.2123C5.18717 16.4259 5.3678 16.5699 5.5598 16.5699H5.55986H5.55992H5.55998H5.56004H5.5601H5.56015H5.56021H5.56027H5.56033H5.56039H5.56045H5.56051H5.56056H5.56062H5.56068H5.56074H5.5608H5.56086H5.56092H5.56097H5.56103H5.56109H5.56115H5.56121H5.56127H5.56133H5.56138H5.56144H5.5615H5.56156H5.56162H5.56168H5.56174H5.56179H5.56185H5.56191H5.56197H5.56203H5.56209H5.56215H5.5622H5.56226H5.56232H5.56238H5.56244H5.5625H5.56256H5.56261H5.56267H5.56273H5.56279H5.56285H5.56291H5.56297H5.56302H5.56308H5.56314H5.5632H5.56326H5.56332H5.56338H5.56343H5.56349H5.56355H5.56361H5.56367H5.56373H5.56379H5.56384H5.5639H5.56396H5.56402H5.56408H5.56414H5.5642H5.56426H5.56431H5.56437H5.56443H5.56449H5.56455H5.56461H5.56467H5.56472H5.56478H5.56484H5.5649H5.56496H5.56502H5.56508H5.56513H5.56519H5.56525H5.56531H5.56537H5.56543H5.56549H5.56554H5.5656H5.56566H5.56572H5.56578H5.56584H5.5659H5.56595H5.56601H5.56607H5.56613H5.56619H5.56625H5.56631H5.56636H5.56642H5.56648H5.56654H5.5666H5.56666H5.56672H5.56677H5.56683H5.56689H5.56695H5.56701H5.56707H5.56713H5.56718H5.56724H5.5673H5.56736H5.56742H5.56748H5.56754H5.56759H5.56765H5.56771H5.56777H5.56783H5.56789H5.56795H5.568H5.56806H5.56812H5.56818H5.56824H5.5683H5.56836H5.56842H5.56847H5.56853H5.56859H5.56865H5.56871H5.56877H5.56883H5.56888H5.56894H5.569H5.56906H5.56912H5.56918H5.56924H5.56929H5.56935H5.56941H5.56947H5.56953H5.56959H5.56965H5.5697H5.56976H5.56982H5.56988H5.56994H5.57H5.57006H5.57011H5.57017H5.57023H5.57029H5.57035H5.57041H5.57047H5.57052H5.57058H5.57064H5.5707H5.57076H5.57082H5.57088H5.57093H5.57099H5.57105H5.57111H5.57117H5.57123H5.57129H5.57134H5.5714H5.57146H5.57152H5.57158H5.57164H5.5717H5.57175H5.57181H5.57187H5.57193H5.57199H5.57205H5.57211H5.57216H5.57222H5.57228H5.57234H5.5724H5.57246H5.57252H5.57257H5.57263H5.57269H5.57275H5.57281H5.57287H5.57293H5.57299H5.57304H5.5731H5.57316H5.57322H5.57328H5.57334H5.5734H5.57345H5.57351H5.57357H5.57363H5.57369H5.57375H5.57381H5.57386H5.57392H5.57398H5.57404H5.5741H5.57416H5.57422H5.57427H5.57433H5.57439H5.57445H5.57451H5.57457H5.57463H5.57468H5.57474H5.5748H5.57486H5.57492H5.57498H5.57504H5.57509H5.57515H5.57521H5.57527H5.57533H5.57539H5.57545H5.5755H5.57556H5.57562H5.57568H5.57574H5.5758H5.57586H5.57591H5.57597H5.57603H5.57609H5.57615H5.57621H5.57627H5.57632H5.57638H5.57644H5.5765H5.57656H5.57662H5.57668H5.57673H5.57679H5.57685H5.57691H5.57697H5.57703H5.57709H5.57715H5.5772H5.57726H5.57732H5.57738H5.57744H5.5775H5.57756H5.57761H5.57767H5.57773H5.57779H5.57785H5.57791H5.57797H5.57802H5.57808H5.57814H5.5782H5.57826H5.57832H5.57838H5.57843H5.57849H5.57855H5.57861H5.57867H5.57873H5.57879H5.57884H5.5789H5.57896H5.57902H5.57908H5.57914H5.5792H5.57925H5.57931H5.57937H5.57943H5.57949H5.57955H5.57961H5.57966H5.57972H5.57978H5.57984H5.5799H5.57996H5.58002H5.58007H5.58013H5.58019H5.58025H5.58031H5.58037H5.58043H5.58048H5.58054H5.5806H5.58066H5.58072H5.58078H5.58084H5.58089H5.58095H5.58101H5.58107H5.58113H5.58119H5.58125H5.58131H5.58136H5.58142H5.58148H5.58154H5.5816H5.58166H5.58172H5.58177H5.58183H5.58189H5.58195H5.58201H5.58207H5.58213H5.58218H5.58224H5.5823H5.58236H5.58242H5.58248H5.58254H5.58259H5.58265H5.58271H5.58277H5.58283H5.58289H5.58295H5.583H5.58306H5.58312H5.58318H5.58324H5.5833H5.58336H5.58341H5.58347H5.58353H5.58359H5.58365H5.58371H5.58377H5.58382H5.58388H5.58394H5.584H5.58406H5.58412H5.58418H5.58423H5.58429H5.58435H5.58441H5.58447H5.58453H5.58459H5.58464H5.5847H5.58476H5.58482H5.58488H5.58494H5.585H5.58505H5.58511H5.58517H5.58523H5.58529H5.58535H5.58541H5.58546H5.58552H5.58558H5.58564H5.5857H5.58576H5.58582H5.58588H5.58593H5.58599H5.58605H5.58611H5.58617H5.58623H5.58629H5.58634H5.5864H5.58646H5.58652H5.58658H5.58664H5.5867H5.58675H5.58681H5.58687H5.58693H5.58699H5.58705H5.58711H5.58716H5.58722H5.58728H5.58734H5.5874H5.58746H5.58752H5.58757H5.58763H5.58769H5.58775H5.58781H5.58787H5.58793H5.58798H5.58804H5.5881H5.58816H5.58822H5.58828H5.58834H5.58839H5.58845H5.58851H5.58857H5.58863H5.58869H5.58875H5.5888H5.58886H5.58892H5.58898H5.58904H5.5891H5.58916H5.58921H5.58927H5.58933H5.58939H5.58945H5.58951H5.58957H5.58963H5.58968H5.58974H5.5898V16.5704L5.60131 16.5695C5.81636 16.5529 5.97552 16.3585 5.95936 16.1484L5.95937 16.1484L5.95922 16.1467L4.95936 4.79842C4.95934 4.79811 4.95931 4.7978 4.95929 4.79749C4.94226 4.5829 4.7481 4.42423 4.53829 4.44036C4.32325 4.45691 4.16407 4.65127 4.18023 4.86141Z"
                                fill="#0074C8" stroke="#0073C2" stroke-width="0.3" />
                            <path
                                d="M10.0895 3.16068L10.0898 3.16071V3.14999V1.64999C10.0898 1.20714 9.73266 0.85 9.28983 0.85H5.73984C5.29699 0.85 4.93984 1.20715 4.93984 1.64999V3.14999C4.93984 3.36284 5.11699 3.53998 5.32983 3.53998C5.54268 3.53998 5.71982 3.36284 5.71982 3.14999V1.64999C5.71982 1.6497 5.72034 1.64411 5.72715 1.6373C5.73395 1.6305 5.73954 1.62998 5.73984 1.62998H9.28983C9.29012 1.62998 9.29571 1.6305 9.30252 1.6373C9.30932 1.64411 9.30984 1.6497 9.30984 1.64999V3.14999C9.30984 3.36284 9.48699 3.53998 9.69983 3.53998C9.91806 3.53998 10.0746 3.3693 10.0895 3.16068Z"
                                fill="#0074C8" stroke="#0073C2" stroke-width="0.3" />
                        </svg>