<svg width="33" height="33" viewBox="0 0 33 33" fill="none" xmlns="http://www.w3.org/2000/svg" id="CBBioMetric">
                                    <path fill-rule="evenodd" clip-rule="evenodd" d="M16.32 0C25.33 0 32.64 7.30998 32.64 16.32C32.64 25.33 25.33 32.64 16.32 32.64C7.31 32.64 0 25.33 0 16.32C0 7.30998 7.31 0 16.32 0Z" fill="#E3EFF8"/>
                                    <path d="M26.8497 16.67C26.6597 16.67 26.5097 16.52 26.5097 16.33C26.5097 14.04 25.7697 11.8699 24.3597 10.0699C24.2397 9.91995 24.2697 9.70997 24.4197 9.58997C24.5697 9.46997 24.7797 9.49996 24.8997 9.64996C26.3997 11.57 27.1897 13.89 27.1897 16.33C27.1897 16.52 27.0397 16.67 26.8497 16.67ZM22.4397 7.74997C22.3697 7.84997 22.2697 7.89996 22.1597 7.89996C22.0997 7.89996 22.0297 7.87997 21.9697 7.83997C20.2897 6.71997 18.3397 6.12997 16.3097 6.12997C14.2997 6.12997 12.3497 6.71995 10.6797 7.81995C10.5197 7.92995 10.3097 7.87997 10.2097 7.71997C10.1097 7.55997 10.1497 7.34997 10.3097 7.24997C12.0897 6.06997 14.1697 5.44995 16.3097 5.44995C18.4697 5.44995 20.5597 6.07997 22.3497 7.27997C22.4997 7.37997 22.5397 7.58997 22.4397 7.74997ZM9.20969 9.00995C7.20969 10.9499 6.10969 13.55 6.10969 16.33C6.10969 16.52 5.95969 16.67 5.76969 16.67C5.57969 16.67 5.42969 16.52 5.42969 16.33C5.42969 13.36 6.59969 10.59 8.72969 8.51996C8.85969 8.38996 9.07969 8.38997 9.20969 8.52997C9.33969 8.65997 9.33969 8.87995 9.20969 9.00995ZM22.6697 25.15C22.5997 25.23 22.5097 25.27 22.4097 25.27C22.3297 25.27 22.2597 25.24 22.1897 25.19C22.0497 25.07 22.0297 24.85 22.1497 24.71C22.9697 23.73 23.5597 22.3 23.9197 20.45C23.9597 20.27 24.1297 20.15 24.3197 20.18C24.4997 20.22 24.6197 20.39 24.5897 20.58C24.2097 22.54 23.5697 24.08 22.6697 25.15ZM24.9397 17.69C24.9297 17.87 24.7797 18.0099 24.5997 18.0099C24.5897 18.0099 24.5897 18.0099 24.5797 18.0099C24.3897 17.9999 24.2497 17.84 24.2597 17.65C24.2897 17.04 24.2897 16.57 24.2897 16.34C24.2897 13.22 22.4597 10.3699 19.6397 9.06995C19.4697 8.98995 19.3997 8.78996 19.4697 8.61996C19.5497 8.44996 19.7497 8.36995 19.9197 8.44995C22.9797 9.85995 24.9597 12.95 24.9597 16.33C24.9697 16.58 24.9697 17.05 24.9397 17.69ZM16.3097 8.34998C11.9097 8.34998 8.32969 11.93 8.32969 16.33C8.32969 17.72 8.16969 19.42 6.95969 20.22C6.89969 20.26 6.83969 20.28 6.76969 20.28C6.65969 20.28 6.54969 20.23 6.48969 20.13C6.38969 19.97 6.42969 19.76 6.58969 19.66C7.53969 19.04 7.65969 17.56 7.65969 16.34C7.65969 11.56 11.5497 7.67996 16.3197 7.67996C16.5097 7.67996 16.6597 7.82996 16.6597 8.01996C16.6597 8.20996 16.4997 8.34998 16.3097 8.34998ZM19.3697 26.61C19.2997 26.68 19.2197 26.71 19.1297 26.71C19.0397 26.71 18.9597 26.68 18.8897 26.61C18.7597 26.48 18.7497 26.26 18.8797 26.13C21.6597 23.27 22.0797 18.7599 22.0797 16.3199C22.0797 13.1399 19.4897 10.56 16.3197 10.56C15.2897 10.56 14.2897 10.83 13.4097 11.35C13.2497 11.45 13.0397 11.3899 12.9397 11.2299C12.8397 11.07 12.8997 10.86 13.0597 10.77C14.0397 10.19 15.1697 9.88995 16.3197 9.88995C19.8697 9.88995 22.7597 12.78 22.7597 16.33C22.7497 18.87 22.3097 23.58 19.3697 26.61ZM11.8597 12.66C11.0097 13.69 10.5397 14.99 10.5397 16.33C10.5397 16.52 10.3897 16.67 10.1997 16.67C10.0097 16.67 9.85969 16.52 9.85969 16.33C9.85969 14.84 10.3797 13.38 11.3297 12.2299C11.4497 12.0799 11.6597 12.07 11.8097 12.18C11.9597 12.31 11.9897 12.52 11.8597 12.66ZM7.64969 22.5399C7.61969 22.5499 7.58969 22.55 7.55969 22.55C7.40969 22.55 7.26969 22.45 7.22969 22.3C7.17969 22.12 7.28969 21.93 7.46969 21.88C8.90969 21.48 9.47969 19.42 9.68969 18.2299C9.71969 18.04 9.89969 17.92 10.0797 17.95C10.2697 17.98 10.3897 18.16 10.3597 18.34C10.1297 19.71 9.44969 22.0499 7.64969 22.5399ZM16.1497 27.14C16.0897 27.19 16.0197 27.21 15.9497 27.21C15.8497 27.21 15.7397 27.1599 15.6797 27.0699C15.5697 26.9199 15.5997 26.71 15.7497 26.59C18.6897 24.41 19.5697 20.79 19.7897 18.13C19.8097 17.94 19.9697 17.7999 20.1597 17.8199C20.3497 17.8399 20.4897 18 20.4697 18.19C20.2397 20.99 19.3097 24.81 16.1497 27.14ZM19.9697 14.97C19.7997 15.05 19.5997 14.98 19.5197 14.81C18.9397 13.58 17.6797 12.7899 16.3197 12.7899C14.3697 12.7899 12.7797 14.38 12.7797 16.33C12.7797 18.02 12.5097 23.6 9.03969 24.2299C9.01969 24.2299 8.99969 24.24 8.97969 24.24C8.81969 24.24 8.67969 24.13 8.64969 23.96C8.61969 23.77 8.73969 23.6 8.91969 23.56C11.9397 23 12.0997 17.44 12.0997 16.33C12.0997 14 13.9897 12.11 16.3197 12.11C17.9397 12.11 19.4397 13.06 20.1397 14.52C20.2097 14.69 20.1397 14.89 19.9697 14.97ZM16.2497 23.74C15.4997 25.1 14.4697 26.05 13.0897 26.64C13.0497 26.66 12.9997 26.67 12.9597 26.67C12.8297 26.67 12.6997 26.59 12.6497 26.46C12.5797 26.29 12.6597 26.0899 12.8297 26.0099C14.0597 25.4799 14.9897 24.63 15.6597 23.41C15.7497 23.25 15.9597 23.18 16.1197 23.27C16.2797 23.37 16.3397 23.58 16.2497 23.74ZM17.0997 21.88C17.0397 22.01 16.9197 22.08 16.7897 22.08C16.7397 22.08 16.6897 22.07 16.6497 22.05C16.4797 21.97 16.3997 21.77 16.4797 21.6C17.5497 19.25 17.6297 16.97 17.6297 16.33C17.6297 15.6 17.0397 15 16.2997 15C15.5697 15 14.9797 15.6 14.9797 16.33C14.9797 16.52 14.8297 16.67 14.6397 16.67C14.4497 16.67 14.2997 16.52 14.2997 16.33C14.2997 15.22 15.1997 14.3199 16.2997 14.3199C17.4097 14.3199 18.3097 15.22 18.3097 16.33C18.3197 17.01 18.2297 19.41 17.0997 21.88ZM10.5097 25.47C10.4997 25.47 10.4997 25.47 10.4897 25.47C10.3097 25.47 10.1597 25.33 10.1497 25.15C10.1397 24.96 10.2897 24.7999 10.4697 24.7899C12.7397 24.6799 13.6697 21.76 14.0497 19.34C14.0797 19.15 14.2497 19.03 14.4397 19.06C14.6297 19.09 14.7497 19.26 14.7197 19.45C14.1397 23.28 12.6797 25.36 10.5097 25.47ZM26.4597 20.28C26.4097 20.42 26.2797 20.5 26.1397 20.5C26.0997 20.5 26.0597 20.49 26.0197 20.4799C25.8397 20.41 25.7597 20.2199 25.8297 20.0399C26.2897 18.8599 26.5197 17.62 26.5197 16.34C26.5197 16.15 26.6697 16 26.8597 16C27.0497 16 27.1997 16.15 27.1997 16.34C27.1897 17.69 26.9397 19.02 26.4597 20.28Z" fill="#0062A7"/>
                                </svg> 