<svg width="23" height="24" viewBox="0 0 23 24" fill="none" xmlns="http://www.w3.org/2000/svg" id="CBCardRotate">
						<mask id="path-1-outside-1_1093_21438" maskUnits="userSpaceOnUse" x="-0.757812" y="-0.577148"
							width="24" height="25" fill="black">
							<rect fill="white" x="-0.757812" y="-0.577148" width="24" height="25" />
							<path
								d="M17.0601 1.11966L13.5701 1.80967L15.2901 4.87966C15.3701 5.01966 15.3201 5.19967 15.1801 5.27967C15.1301 5.29967 15.0801 5.31966 15.0401 5.31966C14.9401 5.31966 14.8401 5.26967 14.7801 5.16967L12.8601 1.74967C12.8101 1.66967 12.8101 1.56966 12.8501 1.48966C12.8901 1.40966 12.9701 1.33967 13.0601 1.32967L16.9501 0.559667C17.1101 0.529667 17.2701 0.629663 17.3001 0.789663C17.3201 0.929663 17.2101 1.08966 17.0601 1.11966ZM17.0801 1.21967L13.7401 1.87966L15.3901 4.81966C15.4401 4.90966 15.4601 5.01966 15.4301 5.12966C15.4001 5.22966 15.3301 5.31966 15.2401 5.36966C15.1801 5.39966 15.1101 5.41967 15.0401 5.41967C14.8901 5.41967 14.7601 5.33966 14.6801 5.20966L12.7601 1.78966C12.7001 1.67966 12.6901 1.53966 12.7501 1.42966C12.8001 1.30966 12.9101 1.22967 13.0401 1.19967L16.9201 0.429662C17.1401 0.389662 17.3501 0.529669 17.4001 0.749669C17.4401 0.969669 17.3001 1.17967 17.0801 1.21967ZM17.0001 0.649663C16.9901 0.649663 16.9801 0.649663 16.9601 0.649663L13.0801 1.41967C13.0201 1.42967 12.9701 1.46966 12.9501 1.51966C12.9301 1.56966 12.9301 1.62967 12.9601 1.68967L14.8801 5.10967C14.9301 5.18967 15.0401 5.22966 15.1301 5.17966C15.1701 5.15966 15.2001 5.11966 15.2201 5.06966C15.2301 5.01966 15.2301 4.96966 15.2001 4.92966L13.4801 1.85967C13.4601 1.82967 13.4601 1.78966 13.4801 1.75966C13.5001 1.72966 13.5201 1.70967 13.5601 1.69967L17.0501 1.00966C17.1501 0.989664 17.2101 0.889672 17.2001 0.799672C17.1601 0.709672 17.0801 0.649663 17.0001 0.649663ZM9.77009 22.5497C9.73009 22.6297 9.6501 22.6997 9.5601 22.7097L5.68009 23.4797C5.66009 23.4797 5.6401 23.4897 5.6201 23.4897C5.4801 23.4897 5.36009 23.3897 5.33009 23.2597C5.30009 23.0997 5.4001 22.9497 5.5601 22.9197L9.05009 22.2297L7.33009 19.1597C7.25009 19.0197 7.3001 18.8397 7.4401 18.7597C7.5801 18.6797 7.7601 18.7297 7.8401 18.8697L9.76011 22.2897C9.81011 22.3697 9.81009 22.4597 9.77009 22.5497ZM9.8701 22.5897C9.8201 22.7097 9.71009 22.7897 9.58009 22.8197L5.6901 23.5897C5.6601 23.5997 5.64009 23.5997 5.61009 23.5997C5.42009 23.5997 5.25009 23.4597 5.21009 23.2797C5.19009 23.1797 5.21009 23.0697 5.27009 22.9797C5.33009 22.8897 5.4201 22.8297 5.5301 22.8097L8.8701 22.1497L7.2201 19.2097C7.1701 19.1197 7.16009 19.0097 7.18009 18.8997C7.21009 18.7997 7.2801 18.7097 7.3701 18.6597C7.5601 18.5497 7.81011 18.6197 7.92011 18.8197L9.8401 22.2397C9.9201 22.3397 9.9201 22.4797 9.8701 22.5897ZM9.6601 22.3397L7.74009 18.9197C7.71009 18.8597 7.64009 18.8297 7.58009 18.8297C7.55009 18.8297 7.52009 18.8397 7.49009 18.8497C7.45009 18.8697 7.42009 18.9097 7.40009 18.9597C7.39009 19.0097 7.39011 19.0597 7.42011 19.0997L9.14009 22.1697C9.16009 22.1997 9.16009 22.2397 9.14009 22.2697C9.12008 22.2997 9.1001 22.3197 9.0601 22.3297L5.57011 23.0197C5.52011 23.0297 5.48011 23.0597 5.45011 23.0997C5.42011 23.1397 5.41011 23.1897 5.42011 23.2397C5.44011 23.3397 5.53009 23.3997 5.64009 23.3797L9.52009 22.6097C9.58009 22.5997 9.63009 22.5597 9.65009 22.5097C9.69009 22.4497 9.6901 22.3897 9.6601 22.3397ZM9.42011 2.00966C7.28011 2.38966 5.34009 3.40967 3.83009 4.94967C-0.119912 8.97967 9.75132e-05 15.4297 4.0901 19.3197C5.5701 20.7297 7.41011 21.6597 9.42011 22.0097C9.58011 22.0397 9.6901 22.1897 9.6601 22.3497C9.63011 22.4897 9.5101 22.5897 9.3701 22.5897C9.3501 22.5897 9.34011 22.5897 9.32011 22.5897C7.19011 22.2097 5.24009 21.2297 3.68009 19.7397C-0.639906 15.6197 -0.759895 8.80966 3.4101 4.53966C5.01011 2.89966 7.06011 1.82966 9.32011 1.42966C9.48011 1.39966 9.63011 1.50967 9.6601 1.65967C9.6901 1.82967 9.58011 1.97966 9.42011 2.00966ZM9.4401 2.10967C7.3201 2.47967 5.4101 3.48966 3.9101 5.01966C0.0101049 9.00966 0.120105 15.3897 4.1601 19.2297C5.6201 20.6197 7.4401 21.5397 9.4401 21.8897C9.6601 21.9297 9.81009 22.1397 9.77009 22.3597C9.74009 22.5497 9.5701 22.6897 9.3701 22.6897C9.3501 22.6897 9.32009 22.6897 9.30009 22.6797C7.15009 22.2997 5.18011 21.3097 3.60011 19.7997C-0.769892 15.6397 -0.889912 8.75967 3.33009 4.44967C4.95009 2.79967 7.01009 1.70967 9.30009 1.30967C9.52009 1.26967 9.73009 1.41966 9.77009 1.62966C9.79009 1.73966 9.77011 1.83966 9.70011 1.92966C9.64011 2.03966 9.5501 2.09967 9.4401 2.10967ZM9.3701 1.53966C9.3601 1.53966 9.3501 1.53966 9.3401 1.53966C7.1001 1.93966 5.07009 2.99966 3.49009 4.61966C-0.639909 8.83966 -0.519889 15.5897 3.76011 19.6597C5.30011 21.1297 7.2401 22.1097 9.3401 22.4797C9.4401 22.4997 9.54009 22.4297 9.55009 22.3297C9.57009 22.2297 9.5001 22.1397 9.40009 22.1197C7.3601 21.7597 5.50011 20.8197 4.01011 19.3997C-0.119889 15.4697 -0.239899 8.94966 3.7501 4.87966C5.2801 3.31966 7.23009 2.28966 9.40009 1.89966C9.4501 1.88966 9.49009 1.86967 9.52009 1.82967C9.55009 1.78967 9.56009 1.73967 9.55009 1.68967C9.53009 1.59967 9.4501 1.53966 9.3701 1.53966ZM19.0801 19.4697C17.4801 21.1097 15.4301 22.1797 13.1701 22.5797C13.1501 22.5797 13.1301 22.5797 13.1201 22.5797C12.9801 22.5797 12.8501 22.4797 12.8301 22.3397C12.8001 22.1797 12.9101 22.0297 13.0701 21.9997C15.2101 21.6197 17.1501 20.6097 18.6601 19.0597C20.5701 17.1097 21.6001 14.5397 21.5501 11.8197C21.5001 9.09966 20.3901 6.56967 18.4101 4.68967C16.9301 3.27967 15.0901 2.34967 13.0801 1.99967C12.9201 1.96967 12.8101 1.81967 12.8401 1.65967C12.8701 1.49967 13.0201 1.38967 13.1801 1.41967C15.3101 1.78967 17.2601 2.77966 18.8201 4.26966C20.9101 6.25966 22.0901 8.93967 22.1401 11.8097C22.1801 14.6897 21.1001 17.4097 19.0801 19.4697ZM19.1601 19.5497C17.5401 21.1997 15.4801 22.2897 13.1901 22.6897C13.1701 22.6897 13.1401 22.6997 13.1201 22.6997C12.9201 22.6997 12.7601 22.5597 12.7201 22.3697C12.7001 22.2597 12.7201 22.1597 12.7901 22.0697C12.8501 21.9797 12.9401 21.9197 13.0501 21.9097C15.1701 21.5397 17.0801 20.5297 18.5801 18.9997C20.4701 17.0697 21.4901 14.5297 21.4401 11.8397C21.3901 9.15967 20.2901 6.64967 18.3301 4.77967C16.8701 3.38967 15.0501 2.46966 13.0501 2.11966C12.8301 2.07966 12.6801 1.86966 12.7201 1.64966C12.7401 1.53966 12.8001 1.44967 12.8901 1.38967C12.9801 1.32967 13.0901 1.30967 13.1901 1.32967C15.3401 1.70967 17.3101 2.69966 18.8901 4.20966C21.0001 6.21966 22.2001 8.92967 22.2501 11.8297C22.2901 14.7197 21.2001 17.4597 19.1601 19.5497ZM18.7301 4.35967C17.1901 2.88967 15.2501 1.90966 13.1501 1.53966C13.1401 1.53966 13.1301 1.53966 13.1201 1.53966C13.0801 1.53966 13.0501 1.54966 13.0101 1.56966C12.9701 1.59966 12.9401 1.63967 12.9301 1.68967C12.9201 1.73967 12.9301 1.78967 12.9601 1.82967C12.9901 1.86967 13.0301 1.89967 13.0801 1.90967C15.1101 2.26967 16.9801 3.20966 18.4701 4.62966C20.4701 6.53966 21.6001 9.09967 21.6501 11.8397C21.7001 14.5797 20.6601 17.1797 18.7301 19.1597C17.2001 20.7197 15.2501 21.7497 13.0801 22.1297C13.0301 22.1397 12.9901 22.1697 12.9601 22.2097C12.9301 22.2497 12.9201 22.2997 12.9301 22.3497C12.9501 22.4497 13.0401 22.5197 13.1401 22.4997C15.3801 22.0997 17.4101 21.0397 18.9901 19.4197C20.9901 17.3797 22.0601 14.6897 22.0101 11.8497C21.9701 8.97966 20.8001 6.32967 18.7301 4.35967Z" />
						</mask>
						<path
							d="M17.0601 1.11966L13.5701 1.80967L15.2901 4.87966C15.3701 5.01966 15.3201 5.19967 15.1801 5.27967C15.1301 5.29967 15.0801 5.31966 15.0401 5.31966C14.9401 5.31966 14.8401 5.26967 14.7801 5.16967L12.8601 1.74967C12.8101 1.66967 12.8101 1.56966 12.8501 1.48966C12.8901 1.40966 12.9701 1.33967 13.0601 1.32967L16.9501 0.559667C17.1101 0.529667 17.2701 0.629663 17.3001 0.789663C17.3201 0.929663 17.2101 1.08966 17.0601 1.11966ZM17.0801 1.21967L13.7401 1.87966L15.3901 4.81966C15.4401 4.90966 15.4601 5.01966 15.4301 5.12966C15.4001 5.22966 15.3301 5.31966 15.2401 5.36966C15.1801 5.39966 15.1101 5.41967 15.0401 5.41967C14.8901 5.41967 14.7601 5.33966 14.6801 5.20966L12.7601 1.78966C12.7001 1.67966 12.6901 1.53966 12.7501 1.42966C12.8001 1.30966 12.9101 1.22967 13.0401 1.19967L16.9201 0.429662C17.1401 0.389662 17.3501 0.529669 17.4001 0.749669C17.4401 0.969669 17.3001 1.17967 17.0801 1.21967ZM17.0001 0.649663C16.9901 0.649663 16.9801 0.649663 16.9601 0.649663L13.0801 1.41967C13.0201 1.42967 12.9701 1.46966 12.9501 1.51966C12.9301 1.56966 12.9301 1.62967 12.9601 1.68967L14.8801 5.10967C14.9301 5.18967 15.0401 5.22966 15.1301 5.17966C15.1701 5.15966 15.2001 5.11966 15.2201 5.06966C15.2301 5.01966 15.2301 4.96966 15.2001 4.92966L13.4801 1.85967C13.4601 1.82967 13.4601 1.78966 13.4801 1.75966C13.5001 1.72966 13.5201 1.70967 13.5601 1.69967L17.0501 1.00966C17.1501 0.989664 17.2101 0.889672 17.2001 0.799672C17.1601 0.709672 17.0801 0.649663 17.0001 0.649663ZM9.77009 22.5497C9.73009 22.6297 9.6501 22.6997 9.5601 22.7097L5.68009 23.4797C5.66009 23.4797 5.6401 23.4897 5.6201 23.4897C5.4801 23.4897 5.36009 23.3897 5.33009 23.2597C5.30009 23.0997 5.4001 22.9497 5.5601 22.9197L9.05009 22.2297L7.33009 19.1597C7.25009 19.0197 7.3001 18.8397 7.4401 18.7597C7.5801 18.6797 7.7601 18.7297 7.8401 18.8697L9.76011 22.2897C9.81011 22.3697 9.81009 22.4597 9.77009 22.5497ZM9.8701 22.5897C9.8201 22.7097 9.71009 22.7897 9.58009 22.8197L5.6901 23.5897C5.6601 23.5997 5.64009 23.5997 5.61009 23.5997C5.42009 23.5997 5.25009 23.4597 5.21009 23.2797C5.19009 23.1797 5.21009 23.0697 5.27009 22.9797C5.33009 22.8897 5.4201 22.8297 5.5301 22.8097L8.8701 22.1497L7.2201 19.2097C7.1701 19.1197 7.16009 19.0097 7.18009 18.8997C7.21009 18.7997 7.2801 18.7097 7.3701 18.6597C7.5601 18.5497 7.81011 18.6197 7.92011 18.8197L9.8401 22.2397C9.9201 22.3397 9.9201 22.4797 9.8701 22.5897ZM9.6601 22.3397L7.74009 18.9197C7.71009 18.8597 7.64009 18.8297 7.58009 18.8297C7.55009 18.8297 7.52009 18.8397 7.49009 18.8497C7.45009 18.8697 7.42009 18.9097 7.40009 18.9597C7.39009 19.0097 7.39011 19.0597 7.42011 19.0997L9.14009 22.1697C9.16009 22.1997 9.16009 22.2397 9.14009 22.2697C9.12008 22.2997 9.1001 22.3197 9.0601 22.3297L5.57011 23.0197C5.52011 23.0297 5.48011 23.0597 5.45011 23.0997C5.42011 23.1397 5.41011 23.1897 5.42011 23.2397C5.44011 23.3397 5.53009 23.3997 5.64009 23.3797L9.52009 22.6097C9.58009 22.5997 9.63009 22.5597 9.65009 22.5097C9.69009 22.4497 9.6901 22.3897 9.6601 22.3397ZM9.42011 2.00966C7.28011 2.38966 5.34009 3.40967 3.83009 4.94967C-0.119912 8.97967 9.75132e-05 15.4297 4.0901 19.3197C5.5701 20.7297 7.41011 21.6597 9.42011 22.0097C9.58011 22.0397 9.6901 22.1897 9.6601 22.3497C9.63011 22.4897 9.5101 22.5897 9.3701 22.5897C9.3501 22.5897 9.34011 22.5897 9.32011 22.5897C7.19011 22.2097 5.24009 21.2297 3.68009 19.7397C-0.639906 15.6197 -0.759895 8.80966 3.4101 4.53966C5.01011 2.89966 7.06011 1.82966 9.32011 1.42966C9.48011 1.39966 9.63011 1.50967 9.6601 1.65967C9.6901 1.82967 9.58011 1.97966 9.42011 2.00966ZM9.4401 2.10967C7.3201 2.47967 5.4101 3.48966 3.9101 5.01966C0.0101049 9.00966 0.120105 15.3897 4.1601 19.2297C5.6201 20.6197 7.4401 21.5397 9.4401 21.8897C9.6601 21.9297 9.81009 22.1397 9.77009 22.3597C9.74009 22.5497 9.5701 22.6897 9.3701 22.6897C9.3501 22.6897 9.32009 22.6897 9.30009 22.6797C7.15009 22.2997 5.18011 21.3097 3.60011 19.7997C-0.769892 15.6397 -0.889912 8.75967 3.33009 4.44967C4.95009 2.79967 7.01009 1.70967 9.30009 1.30967C9.52009 1.26967 9.73009 1.41966 9.77009 1.62966C9.79009 1.73966 9.77011 1.83966 9.70011 1.92966C9.64011 2.03966 9.5501 2.09967 9.4401 2.10967ZM9.3701 1.53966C9.3601 1.53966 9.3501 1.53966 9.3401 1.53966C7.1001 1.93966 5.07009 2.99966 3.49009 4.61966C-0.639909 8.83966 -0.519889 15.5897 3.76011 19.6597C5.30011 21.1297 7.2401 22.1097 9.3401 22.4797C9.4401 22.4997 9.54009 22.4297 9.55009 22.3297C9.57009 22.2297 9.5001 22.1397 9.40009 22.1197C7.3601 21.7597 5.50011 20.8197 4.01011 19.3997C-0.119889 15.4697 -0.239899 8.94966 3.7501 4.87966C5.2801 3.31966 7.23009 2.28966 9.40009 1.89966C9.4501 1.88966 9.49009 1.86967 9.52009 1.82967C9.55009 1.78967 9.56009 1.73967 9.55009 1.68967C9.53009 1.59967 9.4501 1.53966 9.3701 1.53966ZM19.0801 19.4697C17.4801 21.1097 15.4301 22.1797 13.1701 22.5797C13.1501 22.5797 13.1301 22.5797 13.1201 22.5797C12.9801 22.5797 12.8501 22.4797 12.8301 22.3397C12.8001 22.1797 12.9101 22.0297 13.0701 21.9997C15.2101 21.6197 17.1501 20.6097 18.6601 19.0597C20.5701 17.1097 21.6001 14.5397 21.5501 11.8197C21.5001 9.09966 20.3901 6.56967 18.4101 4.68967C16.9301 3.27967 15.0901 2.34967 13.0801 1.99967C12.9201 1.96967 12.8101 1.81967 12.8401 1.65967C12.8701 1.49967 13.0201 1.38967 13.1801 1.41967C15.3101 1.78967 17.2601 2.77966 18.8201 4.26966C20.9101 6.25966 22.0901 8.93967 22.1401 11.8097C22.1801 14.6897 21.1001 17.4097 19.0801 19.4697ZM19.1601 19.5497C17.5401 21.1997 15.4801 22.2897 13.1901 22.6897C13.1701 22.6897 13.1401 22.6997 13.1201 22.6997C12.9201 22.6997 12.7601 22.5597 12.7201 22.3697C12.7001 22.2597 12.7201 22.1597 12.7901 22.0697C12.8501 21.9797 12.9401 21.9197 13.0501 21.9097C15.1701 21.5397 17.0801 20.5297 18.5801 18.9997C20.4701 17.0697 21.4901 14.5297 21.4401 11.8397C21.3901 9.15967 20.2901 6.64967 18.3301 4.77967C16.8701 3.38967 15.0501 2.46966 13.0501 2.11966C12.8301 2.07966 12.6801 1.86966 12.7201 1.64966C12.7401 1.53966 12.8001 1.44967 12.8901 1.38967C12.9801 1.32967 13.0901 1.30967 13.1901 1.32967C15.3401 1.70967 17.3101 2.69966 18.8901 4.20966C21.0001 6.21966 22.2001 8.92967 22.2501 11.8297C22.2901 14.7197 21.2001 17.4597 19.1601 19.5497ZM18.7301 4.35967C17.1901 2.88967 15.2501 1.90966 13.1501 1.53966C13.1401 1.53966 13.1301 1.53966 13.1201 1.53966C13.0801 1.53966 13.0501 1.54966 13.0101 1.56966C12.9701 1.59966 12.9401 1.63967 12.9301 1.68967C12.9201 1.73967 12.9301 1.78967 12.9601 1.82967C12.9901 1.86967 13.0301 1.89967 13.0801 1.90967C15.1101 2.26967 16.9801 3.20966 18.4701 4.62966C20.4701 6.53966 21.6001 9.09967 21.6501 11.8397C21.7001 14.5797 20.6601 17.1797 18.7301 19.1597C17.2001 20.7197 15.2501 21.7497 13.0801 22.1297C13.0301 22.1397 12.9901 22.1697 12.9601 22.2097C12.9301 22.2497 12.9201 22.2997 12.9301 22.3497C12.9501 22.4497 13.0401 22.5197 13.1401 22.4997C15.3801 22.0997 17.4101 21.0397 18.9901 19.4197C20.9901 17.3797 22.0601 14.6897 22.0101 11.8497C21.9701 8.97966 20.8001 6.32967 18.7301 4.35967Z"
							fill="white" />
						<path
							d="M17.0601 1.11966L13.5701 1.80967L15.2901 4.87966C15.3701 5.01966 15.3201 5.19967 15.1801 5.27967C15.1301 5.29967 15.0801 5.31966 15.0401 5.31966C14.9401 5.31966 14.8401 5.26967 14.7801 5.16967L12.8601 1.74967C12.8101 1.66967 12.8101 1.56966 12.8501 1.48966C12.8901 1.40966 12.9701 1.33967 13.0601 1.32967L16.9501 0.559667C17.1101 0.529667 17.2701 0.629663 17.3001 0.789663C17.3201 0.929663 17.2101 1.08966 17.0601 1.11966ZM17.0801 1.21967L13.7401 1.87966L15.3901 4.81966C15.4401 4.90966 15.4601 5.01966 15.4301 5.12966C15.4001 5.22966 15.3301 5.31966 15.2401 5.36966C15.1801 5.39966 15.1101 5.41967 15.0401 5.41967C14.8901 5.41967 14.7601 5.33966 14.6801 5.20966L12.7601 1.78966C12.7001 1.67966 12.6901 1.53966 12.7501 1.42966C12.8001 1.30966 12.9101 1.22967 13.0401 1.19967L16.9201 0.429662C17.1401 0.389662 17.3501 0.529669 17.4001 0.749669C17.4401 0.969669 17.3001 1.17967 17.0801 1.21967ZM17.0001 0.649663C16.9901 0.649663 16.9801 0.649663 16.9601 0.649663L13.0801 1.41967C13.0201 1.42967 12.9701 1.46966 12.9501 1.51966C12.9301 1.56966 12.9301 1.62967 12.9601 1.68967L14.8801 5.10967C14.9301 5.18967 15.0401 5.22966 15.1301 5.17966C15.1701 5.15966 15.2001 5.11966 15.2201 5.06966C15.2301 5.01966 15.2301 4.96966 15.2001 4.92966L13.4801 1.85967C13.4601 1.82967 13.4601 1.78966 13.4801 1.75966C13.5001 1.72966 13.5201 1.70967 13.5601 1.69967L17.0501 1.00966C17.1501 0.989664 17.2101 0.889672 17.2001 0.799672C17.1601 0.709672 17.0801 0.649663 17.0001 0.649663ZM9.77009 22.5497C9.73009 22.6297 9.6501 22.6997 9.5601 22.7097L5.68009 23.4797C5.66009 23.4797 5.6401 23.4897 5.6201 23.4897C5.4801 23.4897 5.36009 23.3897 5.33009 23.2597C5.30009 23.0997 5.4001 22.9497 5.5601 22.9197L9.05009 22.2297L7.33009 19.1597C7.25009 19.0197 7.3001 18.8397 7.4401 18.7597C7.5801 18.6797 7.7601 18.7297 7.8401 18.8697L9.76011 22.2897C9.81011 22.3697 9.81009 22.4597 9.77009 22.5497ZM9.8701 22.5897C9.8201 22.7097 9.71009 22.7897 9.58009 22.8197L5.6901 23.5897C5.6601 23.5997 5.64009 23.5997 5.61009 23.5997C5.42009 23.5997 5.25009 23.4597 5.21009 23.2797C5.19009 23.1797 5.21009 23.0697 5.27009 22.9797C5.33009 22.8897 5.4201 22.8297 5.5301 22.8097L8.8701 22.1497L7.2201 19.2097C7.1701 19.1197 7.16009 19.0097 7.18009 18.8997C7.21009 18.7997 7.2801 18.7097 7.3701 18.6597C7.5601 18.5497 7.81011 18.6197 7.92011 18.8197L9.8401 22.2397C9.9201 22.3397 9.9201 22.4797 9.8701 22.5897ZM9.6601 22.3397L7.74009 18.9197C7.71009 18.8597 7.64009 18.8297 7.58009 18.8297C7.55009 18.8297 7.52009 18.8397 7.49009 18.8497C7.45009 18.8697 7.42009 18.9097 7.40009 18.9597C7.39009 19.0097 7.39011 19.0597 7.42011 19.0997L9.14009 22.1697C9.16009 22.1997 9.16009 22.2397 9.14009 22.2697C9.12008 22.2997 9.1001 22.3197 9.0601 22.3297L5.57011 23.0197C5.52011 23.0297 5.48011 23.0597 5.45011 23.0997C5.42011 23.1397 5.41011 23.1897 5.42011 23.2397C5.44011 23.3397 5.53009 23.3997 5.64009 23.3797L9.52009 22.6097C9.58009 22.5997 9.63009 22.5597 9.65009 22.5097C9.69009 22.4497 9.6901 22.3897 9.6601 22.3397ZM9.42011 2.00966C7.28011 2.38966 5.34009 3.40967 3.83009 4.94967C-0.119912 8.97967 9.75132e-05 15.4297 4.0901 19.3197C5.5701 20.7297 7.41011 21.6597 9.42011 22.0097C9.58011 22.0397 9.6901 22.1897 9.6601 22.3497C9.63011 22.4897 9.5101 22.5897 9.3701 22.5897C9.3501 22.5897 9.34011 22.5897 9.32011 22.5897C7.19011 22.2097 5.24009 21.2297 3.68009 19.7397C-0.639906 15.6197 -0.759895 8.80966 3.4101 4.53966C5.01011 2.89966 7.06011 1.82966 9.32011 1.42966C9.48011 1.39966 9.63011 1.50967 9.6601 1.65967C9.6901 1.82967 9.58011 1.97966 9.42011 2.00966ZM9.4401 2.10967C7.3201 2.47967 5.4101 3.48966 3.9101 5.01966C0.0101049 9.00966 0.120105 15.3897 4.1601 19.2297C5.6201 20.6197 7.4401 21.5397 9.4401 21.8897C9.6601 21.9297 9.81009 22.1397 9.77009 22.3597C9.74009 22.5497 9.5701 22.6897 9.3701 22.6897C9.3501 22.6897 9.32009 22.6897 9.30009 22.6797C7.15009 22.2997 5.18011 21.3097 3.60011 19.7997C-0.769892 15.6397 -0.889912 8.75967 3.33009 4.44967C4.95009 2.79967 7.01009 1.70967 9.30009 1.30967C9.52009 1.26967 9.73009 1.41966 9.77009 1.62966C9.79009 1.73966 9.77011 1.83966 9.70011 1.92966C9.64011 2.03966 9.5501 2.09967 9.4401 2.10967ZM9.3701 1.53966C9.3601 1.53966 9.3501 1.53966 9.3401 1.53966C7.1001 1.93966 5.07009 2.99966 3.49009 4.61966C-0.639909 8.83966 -0.519889 15.5897 3.76011 19.6597C5.30011 21.1297 7.2401 22.1097 9.3401 22.4797C9.4401 22.4997 9.54009 22.4297 9.55009 22.3297C9.57009 22.2297 9.5001 22.1397 9.40009 22.1197C7.3601 21.7597 5.50011 20.8197 4.01011 19.3997C-0.119889 15.4697 -0.239899 8.94966 3.7501 4.87966C5.2801 3.31966 7.23009 2.28966 9.40009 1.89966C9.4501 1.88966 9.49009 1.86967 9.52009 1.82967C9.55009 1.78967 9.56009 1.73967 9.55009 1.68967C9.53009 1.59967 9.4501 1.53966 9.3701 1.53966ZM19.0801 19.4697C17.4801 21.1097 15.4301 22.1797 13.1701 22.5797C13.1501 22.5797 13.1301 22.5797 13.1201 22.5797C12.9801 22.5797 12.8501 22.4797 12.8301 22.3397C12.8001 22.1797 12.9101 22.0297 13.0701 21.9997C15.2101 21.6197 17.1501 20.6097 18.6601 19.0597C20.5701 17.1097 21.6001 14.5397 21.5501 11.8197C21.5001 9.09966 20.3901 6.56967 18.4101 4.68967C16.9301 3.27967 15.0901 2.34967 13.0801 1.99967C12.9201 1.96967 12.8101 1.81967 12.8401 1.65967C12.8701 1.49967 13.0201 1.38967 13.1801 1.41967C15.3101 1.78967 17.2601 2.77966 18.8201 4.26966C20.9101 6.25966 22.0901 8.93967 22.1401 11.8097C22.1801 14.6897 21.1001 17.4097 19.0801 19.4697ZM19.1601 19.5497C17.5401 21.1997 15.4801 22.2897 13.1901 22.6897C13.1701 22.6897 13.1401 22.6997 13.1201 22.6997C12.9201 22.6997 12.7601 22.5597 12.7201 22.3697C12.7001 22.2597 12.7201 22.1597 12.7901 22.0697C12.8501 21.9797 12.9401 21.9197 13.0501 21.9097C15.1701 21.5397 17.0801 20.5297 18.5801 18.9997C20.4701 17.0697 21.4901 14.5297 21.4401 11.8397C21.3901 9.15967 20.2901 6.64967 18.3301 4.77967C16.8701 3.38967 15.0501 2.46966 13.0501 2.11966C12.8301 2.07966 12.6801 1.86966 12.7201 1.64966C12.7401 1.53966 12.8001 1.44967 12.8901 1.38967C12.9801 1.32967 13.0901 1.30967 13.1901 1.32967C15.3401 1.70967 17.3101 2.69966 18.8901 4.20966C21.0001 6.21966 22.2001 8.92967 22.2501 11.8297C22.2901 14.7197 21.2001 17.4597 19.1601 19.5497ZM18.7301 4.35967C17.1901 2.88967 15.2501 1.90966 13.1501 1.53966C13.1401 1.53966 13.1301 1.53966 13.1201 1.53966C13.0801 1.53966 13.0501 1.54966 13.0101 1.56966C12.9701 1.59966 12.9401 1.63967 12.9301 1.68967C12.9201 1.73967 12.9301 1.78967 12.9601 1.82967C12.9901 1.86967 13.0301 1.89967 13.0801 1.90967C15.1101 2.26967 16.9801 3.20966 18.4701 4.62966C20.4701 6.53966 21.6001 9.09967 21.6501 11.8397C21.7001 14.5797 20.6601 17.1797 18.7301 19.1597C17.2001 20.7197 15.2501 21.7497 13.0801 22.1297C13.0301 22.1397 12.9901 22.1697 12.9601 22.2097C12.9301 22.2497 12.9201 22.2997 12.9301 22.3497C12.9501 22.4497 13.0401 22.5197 13.1401 22.4997C15.3801 22.0997 17.4101 21.0397 18.9901 19.4197C20.9901 17.3797 22.0601 14.6897 22.0101 11.8497C21.9701 8.97966 20.8001 6.32967 18.7301 4.35967Z"
							stroke="white" stroke-width="0.4" mask="url(#path-1-outside-1_1093_21438)" />
					</svg>