<svg width="33" height="33" viewBox="0 0 33 33" fill="none" xmlns="http://www.w3.org/2000/svg" id="CBCardServices">
<path fill-rule="evenodd" clip-rule="evenodd" d="M16.32 0C25.33 0 32.64 7.31001 32.64 16.32C32.64 25.33 25.33 32.64 16.32 32.64C7.31 32.64 0 25.33 0 16.32C0 7.31001 7.31 0 16.32 0Z" fill="#E3EFF8"/>
<path d="M22.0202 18.7999H8.8402C8.0702 18.7999 7.4502 18.1699 7.4502 17.3899V9.56992C7.4502 8.78992 8.0802 8.15991 8.8402 8.15991H22.0202C22.7902 8.15991 23.4102 8.78992 23.4102 9.56992V17.3899C23.4102 18.1699 22.7802 18.7999 22.0202 18.7999ZM8.8402 8.7399C8.4002 8.7399 8.0402 9.10991 8.0402 9.55991V17.3799C8.0402 17.8299 8.4002 18.1999 8.8402 18.1999H22.0202C22.4602 18.1999 22.8202 17.8299 22.8202 17.3799V9.55991C22.8202 9.10991 22.4602 8.7399 22.0202 8.7399H8.8402Z" fill="#075896"/>
<path d="M22.9701 10.9598H7.88008C7.72008 10.9598 7.58008 10.8299 7.58008 10.6599C7.58008 10.4899 7.71008 10.3599 7.88008 10.3599H22.9701C23.1301 10.3599 23.2701 10.4899 23.2701 10.6599C23.2701 10.8299 23.1401 10.9598 22.9701 10.9598Z" fill="#075896"/>
<path d="M21.0498 17.0198H18.3898C18.0598 17.0198 17.7998 16.7498 17.7998 16.4298V14.9499C17.7998 14.6199 18.0698 14.3599 18.3898 14.3599H21.0498C21.3798 14.3599 21.6398 14.6299 21.6398 14.9499V16.4298C21.6398 16.7598 21.3698 17.0198 21.0498 17.0198ZM18.3898 14.9499V16.4298H21.0498V14.9499H18.3898Z" fill="#075896"/>
<path d="M25.0404 24.27H11.7304C10.9604 24.27 10.4004 23.71 10.4004 22.94V19.69C10.4004 19.53 10.5304 19.39 10.7004 19.39C10.8704 19.39 11.0004 19.52 11.0004 19.69V22.94C11.0004 23.38 11.3004 23.68 11.7404 23.68H25.0504C25.5104 23.68 25.7904 23.22 25.7904 22.79V15.17C25.7904 14.71 25.4704 14.36 25.0504 14.36H24.3104C24.1504 14.36 24.0104 14.23 24.0104 14.06C24.0104 13.89 24.1404 13.76 24.3104 13.76H25.0504C25.8004 13.76 26.3804 14.38 26.3804 15.16V22.78C26.3804 23.6 25.7804 24.26 25.0504 24.26L25.0404 24.27Z" fill="#075896"/>
<path d="M14.21 22.1999H12.84C12.68 22.1999 12.54 22.0698 12.54 21.8998C12.54 21.7298 12.67 21.5999 12.84 21.5999H14.21C14.37 21.5999 14.51 21.7298 14.51 21.8998C14.51 22.0698 14.38 22.1999 14.21 22.1999Z" fill="#075896"/>
<path d="M16.8702 22.1999H15.5002C15.3402 22.1999 15.2002 22.0698 15.2002 21.8998C15.2002 21.7298 15.3302 21.5999 15.5002 21.5999H16.8702C17.0302 21.5999 17.1702 21.7298 17.1702 21.8998C17.1702 22.0698 17.0402 22.1999 16.8702 22.1999Z" fill="#075896"/>
<path d="M19.5304 22.1999H18.1604C18.0004 22.1999 17.8604 22.0698 17.8604 21.8998C17.8604 21.7298 17.9904 21.5999 18.1604 21.5999H19.5304C19.6904 21.5999 19.8304 21.7298 19.8304 21.8998C19.8304 22.0698 19.7004 22.1999 19.5304 22.1999Z" fill="#075896"/>
<path d="M22.2298 22.1999H20.8098C20.6498 22.1999 20.5098 22.0698 20.5098 21.8998C20.5098 21.7298 20.6398 21.5999 20.8098 21.5999H22.2298C22.3898 21.5999 22.5298 21.7298 22.5298 21.8998C22.5298 22.0698 22.3998 22.1999 22.2298 22.1999Z" fill="#075896"/>
<path d="M22.9701 12.7299H7.88008C7.72008 12.7299 7.58008 12.5999 7.58008 12.4299C7.58008 12.2599 7.71008 12.1299 7.88008 12.1299H22.9701C23.1301 12.1299 23.2701 12.2599 23.2701 12.4299C23.2701 12.5999 23.1401 12.7299 22.9701 12.7299Z" fill="#075896"/>
</svg>
