<svg width="33" height="33" viewBox="0 0 33 33" fill="none" xmlns="http://www.w3.org/2000/svg" id="CBCards">
                                <g clip-path="url(#clip0_1888_7077)">
                                <path fill-rule="evenodd" clip-rule="evenodd" d="M16.32 0C25.33 0 32.64 7.31 32.64 16.32C32.64 25.33 25.33 32.64 16.32 32.64C7.31 32.64 0 25.33 0 16.32C0 7.31 7.31 0 16.32 0Z" fill="#E3EFF8"/>
                                <path d="M21.4304 18.91H8.25035C7.48035 18.91 6.86035 18.28 6.86035 17.5V9.68002C6.86035 8.90002 7.49035 8.27002 8.25035 8.27002H21.4304C22.2004 8.27002 22.8204 8.90002 22.8204 9.68002V17.5C22.8204 18.28 22.1904 18.91 21.4304 18.91ZM8.25035 8.85002C7.81035 8.85002 7.45035 9.22002 7.45035 9.67002V17.49C7.45035 17.94 7.81035 18.31 8.25035 18.31H21.4304C21.8704 18.31 22.2304 17.94 22.2304 17.49V9.67002C22.2304 9.22002 21.8704 8.85002 21.4304 8.85002H8.25035Z" fill="#075896"/>
                                <path d="M22.38 11.07H7.3C7.14 11.07 7 10.94 7 10.77C7 10.6 7.13 10.47 7.3 10.47H22.39C22.55 10.47 22.69 10.6 22.69 10.77C22.69 10.94 22.56 11.07 22.39 11.07H22.38Z" fill="#075896"/>
                                <path d="M20.46 17.13H17.8C17.47 17.13 17.21 16.86 17.21 16.54V15.06C17.21 14.73 17.48 14.47 17.8 14.47H20.46C20.79 14.47 21.05 14.74 21.05 15.06V16.54C21.05 16.87 20.78 17.13 20.46 17.13ZM17.8 15.06V16.54H20.46V15.06H17.8Z" fill="#075896"/>
                                <path d="M24.4505 24.3801H11.1405C10.3705 24.3801 9.81055 23.8201 9.81055 23.0501V19.8001C9.81055 19.6401 9.94055 19.5001 10.1105 19.5001C10.2805 19.5001 10.4105 19.6301 10.4105 19.8001V23.0501C10.4105 23.4901 10.7105 23.7901 11.1505 23.7901H24.4605C24.9205 23.7901 25.2005 23.3301 25.2005 22.9001V15.2801C25.2005 14.8201 24.8805 14.4701 24.4605 14.4701H23.7205C23.5605 14.4701 23.4205 14.3401 23.4205 14.1701C23.4205 14.0001 23.5505 13.8701 23.7205 13.8701H24.4605C25.2105 13.8701 25.7905 14.4901 25.7905 15.2701V22.8901C25.7905 23.7101 25.1905 24.3701 24.4605 24.3701L24.4505 24.3801Z" fill="#075896"/>
                                <path d="M13.6202 22.31H12.2502C12.0902 22.31 11.9502 22.18 11.9502 22.01C11.9502 21.84 12.0802 21.71 12.2502 21.71H13.6202C13.7802 21.71 13.9202 21.84 13.9202 22.01C13.9202 22.18 13.7902 22.31 13.6202 22.31Z" fill="#075896"/>
                                <path d="M16.2804 22.31H14.9104C14.7504 22.31 14.6104 22.18 14.6104 22.01C14.6104 21.84 14.7404 21.71 14.9104 21.71H16.2804C16.4404 21.71 16.5804 21.84 16.5804 22.01C16.5804 22.18 16.4504 22.31 16.2804 22.31Z" fill="#075896"/>
                                <path d="M18.9405 22.31H17.5705C17.4105 22.31 17.2705 22.18 17.2705 22.01C17.2705 21.84 17.4005 21.71 17.5705 21.71H18.9405C19.1005 21.71 19.2405 21.84 19.2405 22.01C19.2405 22.18 19.1105 22.31 18.9405 22.31Z" fill="#075896"/>
                                <path d="M21.6399 22.31H20.2199C20.0599 22.31 19.9199 22.18 19.9199 22.01C19.9199 21.84 20.0499 21.71 20.2199 21.71H21.6399C21.7999 21.71 21.9399 21.84 21.9399 22.01C21.9399 22.18 21.8099 22.31 21.6399 22.31Z" fill="#075896"/>
                                <path d="M22.38 12.84H7.3C7.14 12.84 7 12.71 7 12.54C7 12.37 7.13 12.24 7.3 12.24H22.39C22.55 12.24 22.69 12.37 22.69 12.54C22.69 12.71 22.56 12.84 22.39 12.84H22.38Z" fill="#075896"/>
                                </g>
                                <defs>
                                <clipPath id="clip0_1888_7077">
                                <rect width="32.64" height="32.64" fill="white"/>
                                </clipPath>
                                </defs>
                            </svg>