<svg width="33" height="33" viewBox="0 0 33 33" fill="none" xmlns="http://www.w3.org/2000/svg" id="CBChequebook">
                                <g clip-path="url(#clip0_1888_7089)">
                                <path fill-rule="evenodd" clip-rule="evenodd" d="M16.32 0C25.33 0 32.64 7.31 32.64 16.32C32.64 25.33 25.33 32.64 16.32 32.64C7.31 32.64 0 25.33 0 16.32C0 7.31 7.31 0 16.32 0Z" fill="#E3EFF8"/>
                                <path d="M24.3898 19.8C24.3898 19.8 23.9198 19.8 23.9198 19.44C23.9198 19.27 23.7798 19.13 23.6098 19.13C23.4398 19.13 23.2998 19.27 23.2998 19.44C23.2998 19.96 23.6598 20.28 24.0798 20.38V21.04C24.0798 21.21 24.2198 21.35 24.3898 21.35C24.5598 21.35 24.6998 21.21 24.6998 21.04V20.38C25.1198 20.28 25.4798 19.96 25.4798 19.44C25.4798 18.81 24.9598 18.52 24.5398 18.28C24.1498 18.06 23.9198 17.91 23.9198 17.66C23.9198 17.31 24.3698 17.3 24.3898 17.3C24.5198 17.3 24.6498 17.34 24.7398 17.4C24.8198 17.46 24.8598 17.54 24.8598 17.65C24.8598 17.82 24.9998 17.96 25.1698 17.96C25.3398 17.96 25.4798 17.82 25.4798 17.65C25.4798 17.13 25.1198 16.81 24.6998 16.71V16.05C24.6998 15.88 24.5598 15.74 24.3898 15.74C24.2198 15.74 24.0798 15.88 24.0798 16.05V16.71C23.6598 16.81 23.2998 17.13 23.2998 17.65C23.2998 18.28 23.8198 18.57 24.2398 18.81C24.6298 19.03 24.8598 19.18 24.8598 19.43C24.8598 19.78 24.4098 19.79 24.3898 19.79V19.8Z" fill="#075896"/>
                                <path d="M26.7301 13.5601H22.3301L25.9501 9.94006L26.2801 10.2701C26.4601 10.4501 26.4601 10.7501 26.2801 10.9301L24.6301 12.5801C24.5101 12.7001 24.5101 12.9001 24.6301 13.0201C24.6901 13.0801 24.7701 13.1101 24.8501 13.1101C24.9301 13.1101 25.0101 13.0801 25.0701 13.0201L26.7201 11.3701C27.1501 10.9401 27.1501 10.2501 26.7201 9.83006L26.3901 9.50006L26.7201 9.17006C26.9301 8.96006 27.0401 8.69006 27.0401 8.40006C27.0401 8.11006 26.9301 7.83006 26.7201 7.63006C26.5101 7.43006 26.2401 7.31006 25.9501 7.31006C25.6601 7.31006 25.3801 7.42006 25.1801 7.63006L22.4301 10.3801L19.2501 13.5601H13.0301V12.3101C13.0301 11.2801 12.1901 10.4401 11.1601 10.4401H4.93012C4.76012 10.4401 4.62012 10.5801 4.62012 10.7501V20.1001C4.62012 20.2701 4.76012 20.4101 4.93012 20.4101H7.73012V23.9901C7.73012 24.5901 8.22012 25.0801 8.82012 25.0801H26.7401C26.9101 25.0801 27.0501 24.9401 27.0501 24.7701V13.8601C27.0501 13.6901 26.9101 13.5501 26.7401 13.5501L26.7301 13.5601ZM18.1801 15.5101L18.2401 15.4501L18.9001 16.1101L18.8401 16.1701L17.8501 16.5001L18.1801 15.5101ZM19.3401 15.6701L18.6801 15.0101L19.3401 14.3501L20.0001 15.0101L19.3401 15.6701ZM20.4401 14.5701L19.7801 13.9101L22.6501 11.0401L23.3101 11.7001L20.4401 14.5701ZM25.6201 8.07006C25.8001 7.89006 26.1001 7.89006 26.2801 8.07006C26.3701 8.16006 26.4201 8.28006 26.4201 8.40006C26.4201 8.52006 26.3701 8.64006 26.2801 8.73006L23.7501 11.2601L23.0901 10.6001L25.6201 8.07006ZM18.6201 14.1901L17.6901 15.1201C17.6901 15.1201 17.6301 15.2001 17.6101 15.2401L17.0601 16.8901C17.0201 17.0001 17.0601 17.1301 17.1401 17.2101C17.2001 17.2701 17.2801 17.3001 17.3601 17.3001C17.3901 17.3001 17.4301 17.3001 17.4601 17.2801L19.1101 16.7301C19.1101 16.7301 19.2001 16.6901 19.2301 16.6501L21.7001 14.1801H26.4101V22.9101H12.5301C12.8301 22.5801 13.0101 22.1401 13.0101 21.6601V20.4101H20.4901C20.6601 20.4101 20.8001 20.2701 20.8001 20.1001C20.8001 19.9301 20.6601 19.7901 20.4901 19.7901H13.0101V18.8601H22.0501C22.2201 18.8601 22.3601 18.7201 22.3601 18.5501C22.3601 18.3801 22.2201 18.2401 22.0501 18.2401H13.0101V17.3101H15.8101C15.9801 17.3101 16.1201 17.1701 16.1201 17.0001C16.1201 16.8301 15.9801 16.6901 15.8101 16.6901H13.0101V14.2001H18.6101L18.6201 14.1901ZM5.22012 11.0701H11.1401C11.8301 11.0701 12.3901 11.6301 12.3901 12.3201V20.2801C12.0601 19.9801 11.6201 19.8001 11.1401 19.8001H5.22012V11.0701ZM11.1401 20.4201C11.8301 20.4201 12.3901 20.9801 12.3901 21.6701C12.3901 22.3601 11.8301 22.9201 11.1401 22.9201H8.34012V20.4301H11.1401V20.4201ZM8.81012 24.4701C8.55012 24.4701 8.34012 24.2601 8.34012 24.0001C8.34012 23.7401 8.55012 23.5301 8.81012 23.5301H26.4201V24.4601H8.81012V24.4701Z" fill="#075896"/>
                                </g>
                                <defs>
                                <clipPath id="clip0_1888_7089">
                                <rect width="32.64" height="32.64" fill="white"/>
                                </clipPath>
                                </defs>
                            </svg>