<svg width="33" height="33" viewBox="0 0 33 33" fill="none" xmlns="http://www.w3.org/2000/svg" id="CBChequingAccountOpening">
<path fill-rule="evenodd" clip-rule="evenodd" d="M16.32 0C25.33 0 32.64 7.30999 32.64 16.32C32.64 25.33 25.33 32.64 16.32 32.64C7.31 32.64 0 25.33 0 16.32C0 7.30999 7.31 0 16.32 0Z" fill="#E3EFF8"/>
<path d="M27.0504 12.77H22.6504L26.2704 9.15001L26.6004 9.48001C26.7804 9.66001 26.7804 9.96001 26.6004 10.14L24.9504 11.79C24.8304 11.91 24.8304 12.11 24.9504 12.23C25.0104 12.29 25.0904 12.32 25.1704 12.32C25.2504 12.32 25.3304 12.29 25.3904 12.23L27.0404 10.58C27.4704 10.15 27.4704 9.46001 27.0404 9.04001L26.7104 8.71001L27.0404 8.38002C27.2504 8.17002 27.3604 7.90002 27.3604 7.61002C27.3604 7.32002 27.2504 7.04001 27.0404 6.84001C26.8304 6.64001 26.5604 6.52002 26.2704 6.52002C25.9804 6.52002 25.7004 6.63001 25.5004 6.84001L22.7504 9.59001L19.5704 12.77H13.3504V11.52C13.3504 10.49 12.5104 9.65001 11.4804 9.65001H5.25043C5.08043 9.65001 4.94043 9.79001 4.94043 9.96001V19.31C4.94043 19.48 5.08043 19.62 5.25043 19.62H8.05043V23.2C8.05043 23.8 8.54043 24.29 9.14043 24.29H27.0604C27.2304 24.29 27.3704 24.15 27.3704 23.98V13.07C27.3704 12.9 27.2304 12.76 27.0604 12.76L27.0504 12.77ZM18.5004 14.72L18.5604 14.66L19.2204 15.32L19.1604 15.38L18.1704 15.71L18.5004 14.72ZM19.6604 14.88L19.0004 14.22L19.6604 13.56L20.3204 14.22L19.6604 14.88ZM20.7604 13.78L20.1004 13.12L22.9704 10.25L23.6304 10.91L20.7604 13.78ZM25.9404 7.28001C26.1204 7.10001 26.4204 7.10001 26.6004 7.28001C26.6904 7.37001 26.7404 7.49002 26.7404 7.61002C26.7404 7.73002 26.6904 7.85002 26.6004 7.94002L24.0704 10.47L23.4104 9.81001L25.9404 7.28001ZM18.9404 13.4L18.0104 14.33C18.0104 14.33 17.9504 14.41 17.9304 14.45L17.3804 16.1C17.3404 16.21 17.3804 16.34 17.4604 16.42C17.5204 16.48 17.6004 16.51 17.6804 16.51C17.7104 16.51 17.7504 16.51 17.7804 16.49L19.4304 15.94C19.4304 15.94 19.5204 15.9 19.5504 15.86L22.0204 13.39H26.7304V22.12H12.8504C13.1504 21.79 13.3304 21.35 13.3304 20.87V19.62H20.8104C20.9804 19.62 21.1204 19.48 21.1204 19.31C21.1204 19.14 20.9804 19 20.8104 19H13.3304V18.07H22.3704C22.5404 18.07 22.6804 17.93 22.6804 17.76C22.6804 17.59 22.5404 17.45 22.3704 17.45H13.3304V16.52H16.1304C16.3004 16.52 16.4404 16.38 16.4404 16.21C16.4404 16.04 16.3004 15.9 16.1304 15.9H13.3304V13.41H18.9304L18.9404 13.4ZM5.55043 10.28H11.4704C12.1604 10.28 12.7204 10.84 12.7204 11.53V19.49C12.3904 19.19 11.9504 19.01 11.4704 19.01H5.55043V10.28ZM11.4704 19.63C12.1604 19.63 12.7204 20.19 12.7204 20.88C12.7204 21.57 12.1604 22.13 11.4704 22.13H8.67043V19.64H11.4704V19.63ZM9.13043 23.68C8.87043 23.68 8.66043 23.47 8.66043 23.21C8.66043 22.95 8.87043 22.74 9.13043 22.74H26.7404V23.67H9.13043V23.68Z" fill="#075896"/>
</svg>
