<svg width="15" height="16" viewBox="0 0 15 16" fill="none" xmlns="http://www.w3.org/2000/svg" id="CBClock">
                            <path
                                d="M7.71001 14.71C4.05001 14.71 1.07001 11.65 1.07001 7.89001C1.07001 4.13001 4.05001 1.07001 7.71001 1.07001C11.37 1.07001 14.35 4.13001 14.35 7.89001C14.35 11.65 11.37 14.71 7.71001 14.71ZM7.71001 1.43002C4.25001 1.43002 1.43001 4.33 1.43001 7.88C1.43001 11.43 4.25001 14.33 7.71001 14.33C11.17 14.33 13.99 11.43 13.99 7.88C13.99 4.33 11.17 1.43002 7.71001 1.43002Z"
                                fill="#0061A7" stroke="#0061A7" stroke-width="0.7" stroke-miterlimit="10" />
                            <path
                                d="M7.71 14.78C4.01 14.78 1 11.69 1 7.89001C1 4.09001 4.01 1 7.71 1C11.41 1 14.42 4.09001 14.42 7.89001C14.42 11.69 11.41 14.78 7.71 14.78ZM7.71 1.13C4.09 1.13 1.14 4.16001 1.14 7.89001C1.14 11.61 4.09 14.65 7.71 14.65C11.33 14.65 14.28 11.62 14.28 7.89001C14.28 4.16001 11.33 1.13 7.71 1.13ZM7.71 14.41C4.21 14.41 1.36 11.48 1.36 7.89001C1.36 4.29001 4.21 1.37003 7.71 1.37003C11.21 1.37003 14.06 4.30001 14.06 7.89001C14.06 11.48 11.21 14.41 7.71 14.41ZM7.71 1.5C4.28 1.5 1.5 4.36001 1.5 7.89001C1.5 11.41 4.29 14.27 7.71 14.27C11.14 14.27 13.92 11.41 13.92 7.89001C13.92 4.37001 11.14 1.5 7.71 1.5Z"
                                fill="#0061A7" stroke="#0061A7" stroke-width="0.7" stroke-miterlimit="10" />
                            <path
                                d="M5.63999 10.1C5.58999 10.1 5.53999 10.08 5.50999 10.04C5.43999 9.97 5.43999 9.85002 5.51999 9.78002L7.12999 8.21001C7.19999 8.14001 7.31999 8.13999 7.37999 8.21999C7.44999 8.28999 7.44999 8.41 7.36999 8.48L5.75999 10.05C5.72999 10.08 5.67999 10.1 5.63999 10.1Z"
                                fill="#0061A7" stroke="#0061A7" stroke-width="0.7" stroke-miterlimit="10" />
                            <path
                                d="M5.64 10.16C5.57 10.16 5.51 10.13 5.46 10.08C5.41 10.03 5.39 9.97002 5.39 9.90002C5.39 9.83002 5.42 9.76999 5.47 9.71999L7.08 8.15002C7.13 8.10002 7.19 8.07001 7.26 8.08001C7.33 8.08001 7.39 8.11 7.43 8.16C7.48 8.21 7.5 8.27002 7.5 8.34002C7.5 8.41002 7.47 8.47001 7.42 8.52001L5.81 10.09C5.76 10.14 5.7 10.16 5.64 10.16ZM7.24 8.23C7.21 8.23 7.18 8.24 7.16 8.26L5.55 9.83001C5.53 9.85001 5.52 9.88 5.51 9.91C5.51 9.94 5.52 9.97001 5.54 9.99001C5.58 10.04 5.66 10.04 5.7 9.99001L7.31 8.42001C7.33 8.40001 7.34 8.37002 7.35 8.34002C7.35 8.31002 7.34 8.28 7.32 8.26C7.3 8.24 7.28 8.23 7.24 8.23Z"
                                fill="#0061A7" stroke="#0061A7" stroke-width="0.7" stroke-miterlimit="10" />
                            <path
                                d="M7.71 7.42001C7.61 7.42001 7.53 7.34001 7.53 7.23001V2.97C7.53 2.87 7.61 2.78003 7.71 2.78003C7.81 2.78003 7.89 2.86 7.89 2.97V7.23001C7.89 7.33001 7.81 7.42001 7.71 7.42001Z"
                                fill="#0061A7" stroke="#0061A7" stroke-width="0.7" stroke-miterlimit="10" />
                            <path
                                d="M7.70999 7.49002C7.56999 7.49002 7.45999 7.38002 7.45999 7.24002V2.98001C7.45999 2.84001 7.56999 2.73001 7.70999 2.73001C7.84999 2.73001 7.95999 2.84001 7.95999 2.98001V7.24002C7.95999 7.37002 7.84999 7.49002 7.70999 7.49002ZM7.70999 2.85001C7.64999 2.85001 7.59999 2.9 7.59999 2.97V7.23001C7.59999 7.29001 7.64999 7.35001 7.70999 7.35001C7.76999 7.35001 7.81999 7.30001 7.81999 7.23001V2.97C7.81999 2.91 7.76999 2.85001 7.70999 2.85001Z"
                                fill="#0061A7" stroke="#0061A7" stroke-width="0.7" stroke-miterlimit="10" />
                            <path
                                d="M7.70999 8.63C7.30999 8.63 6.98999 8.30001 6.98999 7.89001C6.98999 7.48001 7.30999 7.15002 7.70999 7.15002C8.10999 7.15002 8.42999 7.48001 8.42999 7.89001C8.42999 8.29001 8.10999 8.63 7.70999 8.63ZM7.70999 7.52002C7.50999 7.52002 7.34999 7.69001 7.34999 7.89001C7.34999 8.09001 7.50999 8.26001 7.70999 8.26001C7.90999 8.26001 8.06999 8.09001 8.06999 7.89001C8.06999 7.69001 7.90999 7.52002 7.70999 7.52002Z"
                                fill="#0061A7" stroke="#0061A7" stroke-width="0.7" stroke-miterlimit="10" />
                            <path
                                d="M7.71 8.70001C7.28 8.70001 6.92 8.34001 6.92 7.89001C6.92 7.44001 7.27 7.08002 7.71 7.08002C8.14 7.08002 8.5 7.44001 8.5 7.89001C8.5 8.33001 8.14 8.70001 7.71 8.70001ZM7.71 7.21002C7.35 7.21002 7.06 7.51 7.06 7.88C7.06 8.25 7.35 8.55002 7.71 8.55002C8.07 8.55002 8.36 8.25 8.36 7.88C8.36 7.52 8.07 7.21002 7.71 7.21002ZM7.71 8.33002C7.47 8.33002 7.28 8.13001 7.28 7.89001C7.28 7.65001 7.47 7.45001 7.71 7.45001C7.95 7.45001 8.14 7.65001 8.14 7.89001C8.14 8.13001 7.95 8.33002 7.71 8.33002ZM7.71 7.59003C7.55 7.59003 7.42 7.72001 7.42 7.89001C7.42 8.06001 7.55 8.19 7.71 8.19C7.87 8.19 8 8.06001 8 7.89001C8 7.72001 7.87 7.59003 7.71 7.59003Z"
                                fill="#0061A7" stroke="#0061A7" stroke-width="0.7" stroke-miterlimit="10" />
                        </svg>