<svg width="126" height="33" viewBox="0 0 126 33" fill="none" xmlns="http://www.w3.org/2000/svg" id="CBCompanyLogo">
					<path
						d="M19.6803 23.1099C16.2503 24.2399 11.5603 26.0799 6.03027 28.9999C11.5203 27.9599 18.7603 28.0099 24.5103 32.9499H24.5203C24.5203 32.9499 26.5603 27.8099 27.2103 21.1299C25.5803 21.4299 23.0103 22.0199 19.6803 23.1099Z"
						fill="#F48024" />
					<path
						d="M45.4599 24.01C45.2499 24.96 45.0399 25.97 44.8399 27.04C44.4999 27.04 43.8999 27.2 43.0099 27.36C41.8699 27.57 41.0099 27.59 40.4699 27.59C39.1199 27.59 37.9299 27.32 36.9099 26.79C35.8899 26.25 35.0899 25.49 34.5299 24.5C33.9599 23.51 33.6699 22.4 33.6699 21.19C33.6699 19.99 33.9699 18.89 34.5799 17.88C35.1799 16.87 36.0099 16.08 37.0699 15.52C38.1199 14.96 39.3099 14.67 40.6399 14.67C41.1999 14.67 41.9399 14.73 42.8799 14.85C43.6099 14.95 44.1399 14.99 44.4699 14.99C44.5499 15.82 44.6799 16.83 44.8799 18.02C44.8799 18.11 44.7899 18.16 44.5899 18.16C44.4699 18.16 44.3999 18.11 44.3799 18.02C44.1699 17.21 43.7099 16.55 42.9999 16.03C42.2999 15.51 41.4799 15.25 40.5599 15.25C39.1699 15.25 37.9999 15.82 37.0499 16.97C36.0999 18.12 35.6299 19.53 35.6299 21.2C35.6299 22.82 36.0999 24.2 37.0399 25.33C37.9799 26.46 39.1199 27.03 40.4699 27.03C42.5899 27.03 44.0899 26.03 44.9699 24.02C45.0099 23.92 45.0899 23.88 45.2099 23.88C45.3799 23.87 45.4599 23.91 45.4599 24.01Z"
						fill="#0061A7" />
					<path
						d="M58.1697 24.0199C57.8897 25.0599 57.6697 26.1599 57.5097 27.2899C55.2397 27.2199 53.6197 27.1799 52.6597 27.1799C51.7097 27.1799 50.1097 27.2199 47.8697 27.2899C47.7797 27.2899 47.7297 27.2099 47.7297 27.0399C47.7297 26.8899 47.7797 26.8099 47.8697 26.7999C48.5897 26.7199 49.0797 26.5799 49.3297 26.3999C49.5897 26.2099 49.7197 25.8499 49.7197 25.2999V16.9199C49.7197 16.5099 49.6697 16.2099 49.5597 16.0399C49.4497 15.8699 49.2697 15.7399 49.0097 15.6399C48.7497 15.5399 48.3697 15.4599 47.8597 15.3999C47.7697 15.3999 47.7197 15.3199 47.7197 15.1499C47.7197 14.9899 47.7697 14.9099 47.8597 14.9099C48.2597 14.9099 48.7297 14.9299 49.2797 14.9599C49.8097 14.9999 50.2497 15.0099 50.6197 15.0099C50.9797 15.0099 51.4197 14.9899 51.9497 14.9599C52.4997 14.9199 52.9697 14.9099 53.3697 14.9099C53.4597 14.9099 53.5097 14.9899 53.5097 15.1499C53.5097 15.3099 53.4597 15.3999 53.3697 15.3999C52.8697 15.4599 52.4897 15.5399 52.2297 15.6399C51.9697 15.7399 51.7897 15.8699 51.6897 16.0399C51.5897 16.2099 51.5397 16.4999 51.5397 16.9199V25.5599C51.5397 26.2599 51.8797 26.6099 52.5697 26.6099H54.3297C55.0597 26.6099 55.6697 26.4199 56.1797 26.0299C56.6897 25.6399 57.1797 24.9199 57.6797 23.8599C57.6997 23.8099 57.7597 23.7899 57.8497 23.7899C57.9297 23.7899 57.9997 23.8099 58.0697 23.8599C58.1397 23.9099 58.1697 23.9699 58.1697 24.0199Z"
						fill="#0061A7" />
					<path
						d="M72.3701 27.05C72.3701 27.22 72.3201 27.3 72.2301 27.3C71.8201 27.3 71.3601 27.28 70.8401 27.25C70.4001 27.21 70.0201 27.2 69.7001 27.2C69.3401 27.2 68.8901 27.22 68.3601 27.25C67.8001 27.28 67.3201 27.3 66.9201 27.3C66.8201 27.3 66.7801 27.22 66.7801 27.05C66.7801 26.89 66.8201 26.81 66.8901 26.81C67.4201 26.78 67.8001 26.72 68.0301 26.6C68.2601 26.48 68.3701 26.3 68.3701 26.06C68.3701 25.91 68.3101 25.66 68.1901 25.32L67.1801 22.34H63.5301L62.5101 25.1C62.3801 25.47 62.3201 25.75 62.3201 25.96C62.3201 26.48 62.8001 26.77 63.7601 26.82C63.8301 26.82 63.8701 26.9 63.8701 27.06C63.8701 27.22 63.8201 27.31 63.7301 27.31C63.3801 27.31 62.9801 27.29 62.5501 27.26C62.1401 27.22 61.7801 27.21 61.4501 27.21C61.2001 27.21 60.8801 27.23 60.4901 27.26C60.0801 27.29 59.7401 27.31 59.4601 27.31C59.3701 27.31 59.3301 27.24 59.3301 27.09C59.3301 26.92 59.4001 26.83 59.5301 26.82C60.0201 26.77 60.4101 26.64 60.7001 26.41C60.9901 26.19 61.2801 25.72 61.5901 25.03L65.7501 14.81C65.7901 14.72 65.8701 14.67 66.0001 14.67C66.1401 14.67 66.2301 14.71 66.2701 14.8L69.9401 25.03C70.1501 25.61 70.4301 26.03 70.7801 26.3C71.1301 26.57 71.6101 26.74 72.2001 26.82C72.3101 26.82 72.3701 26.9 72.3701 27.05ZM66.9801 21.77L65.4201 17.23L63.7401 21.77H66.9801Z"
						fill="#0061A7" />
					<path
						d="M86.7101 27.05C86.7101 27.22 86.6601 27.3 86.5701 27.3C86.3501 27.3 85.9901 27.28 85.4901 27.24C85.1301 27.21 84.8901 27.2 84.7701 27.2C84.6001 27.2 84.3301 27.22 83.9601 27.25C83.5901 27.28 83.3201 27.3 83.1501 27.3L80.4601 22.91C80.0801 22.3 79.7701 21.91 79.5401 21.74C79.3101 21.57 78.8401 21.48 78.1301 21.48V25.31C78.1301 25.72 78.1801 26.01 78.2901 26.18C78.4001 26.35 78.5801 26.48 78.8401 26.58C79.1001 26.68 79.4801 26.75 79.9801 26.81C80.0801 26.82 80.1301 26.9 80.1301 27.05C80.1301 27.22 80.0801 27.3 79.9901 27.3C79.5901 27.3 79.1201 27.28 78.5701 27.25C78.0401 27.21 77.6001 27.2 77.2301 27.2C76.8701 27.2 76.4301 27.22 75.9101 27.25C75.3601 27.28 74.8901 27.3 74.5001 27.3C74.4001 27.3 74.3601 27.22 74.3601 27.05C74.3601 26.9 74.4001 26.82 74.5001 26.81C74.9901 26.75 75.3701 26.67 75.6301 26.58C75.8901 26.48 76.0701 26.35 76.1701 26.18C76.2801 26.01 76.3301 25.72 76.3301 25.31V16.93C76.3301 16.52 76.2801 16.23 76.1801 16.06C76.0801 15.89 75.9101 15.76 75.6401 15.65C75.3801 15.55 75.0001 15.47 74.4901 15.41C74.3901 15.41 74.3501 15.33 74.3501 15.16C74.3501 15 74.3901 14.92 74.4901 14.92C74.8901 14.92 75.3601 14.94 75.9001 14.97C76.4201 15.01 76.8601 15.02 77.2201 15.02C77.5801 15.02 78.0301 15 78.5601 14.97C79.1101 14.93 79.5901 14.92 79.9801 14.92C81.3001 14.92 82.3301 15.2 83.0501 15.75C83.7701 16.3 84.1401 17.08 84.1401 18.08C84.1401 18.71 83.9001 19.3 83.4201 19.84C82.9401 20.38 82.3001 20.8 81.4801 21.09L84.2201 25.55C84.4601 25.94 84.7701 26.23 85.1401 26.41C85.5201 26.6 86.0001 26.73 86.6001 26.8C86.6701 26.82 86.7101 26.9 86.7101 27.05ZM82.1701 18.13C82.1701 16.39 81.4101 15.52 79.9001 15.52C79.4001 15.52 79.0201 15.56 78.7601 15.64C78.5001 15.72 78.3301 15.85 78.2501 16.02C78.1601 16.19 78.1201 16.5 78.1201 16.93V20.9C78.4701 20.95 78.9001 20.97 79.4201 20.97C80.3701 20.97 81.0701 20.75 81.5101 20.29C81.9601 19.84 82.1701 19.12 82.1701 18.13Z"
						fill="#0061A7" />
					<path
						d="M94.7297 27.0499C94.7297 27.2199 94.6797 27.2999 94.5897 27.2999C94.1897 27.2999 93.7197 27.2799 93.1797 27.2499C92.6597 27.2199 92.2197 27.1999 91.8497 27.1999C91.4897 27.1999 91.0497 27.2199 90.5297 27.2499C89.9797 27.2899 89.4997 27.2999 89.0997 27.2999C88.9997 27.2999 88.9597 27.2199 88.9597 27.0499C88.9597 26.8999 89.0097 26.8199 89.0997 26.8099C89.8197 26.7299 90.3097 26.5899 90.5597 26.4099C90.8197 26.2199 90.9497 25.8599 90.9497 25.2999V16.9199C90.9497 16.5099 90.8997 16.2099 90.7897 16.0399C90.6897 15.8699 90.5097 15.7399 90.2397 15.6399C89.9797 15.5399 89.5997 15.4599 89.0897 15.3999C88.9897 15.3999 88.9497 15.3199 88.9497 15.1499C88.9497 14.9899 88.9997 14.9099 89.0897 14.9099C89.4997 14.9099 89.9697 14.9299 90.5197 14.9599C91.0397 14.9999 91.4797 15.0199 91.8397 15.0199C92.1997 15.0199 92.6497 14.9999 93.1697 14.9599C93.7197 14.9199 94.1897 14.9099 94.5797 14.9099C94.6697 14.9099 94.7197 14.9899 94.7197 15.1499C94.7197 15.3099 94.6697 15.3999 94.5797 15.3999C94.0797 15.4599 93.6997 15.5399 93.4397 15.6399C93.1797 15.7399 92.9997 15.8699 92.8997 16.0399C92.7997 16.2099 92.7497 16.4999 92.7497 16.9199V25.2999C92.7497 25.7099 92.7997 25.9999 92.8997 26.1699C92.9997 26.3399 93.1797 26.4699 93.4397 26.5699C93.6997 26.6699 94.0797 26.7499 94.5797 26.8099C94.6797 26.8199 94.7297 26.8999 94.7297 27.0499Z"
						fill="#0061A7" />
					<path
						d="M108.74 24.3599C108.26 25.3899 107.87 26.3599 107.56 27.2999C105.33 27.2299 103.73 27.1899 102.78 27.1899C101.84 27.1899 100.25 27.2199 98.0101 27.2999C97.9101 27.2999 97.8701 27.2199 97.8701 27.0499C97.8701 26.8999 97.9201 26.8199 98.0101 26.8099C98.5001 26.7499 98.8801 26.6699 99.1401 26.5699C99.4001 26.4699 99.5801 26.3399 99.6901 26.1699C99.8001 25.9999 99.8501 25.7099 99.8501 25.2999V16.9199C99.8501 16.5099 99.8001 16.2199 99.7001 16.0499C99.6001 15.8799 99.4201 15.7499 99.1601 15.6399C98.9001 15.5399 98.5201 15.4599 98.0101 15.3999C97.9101 15.3999 97.8701 15.3199 97.8701 15.1499C97.8701 14.9899 97.9201 14.9099 98.0101 14.9099C99.5001 14.9799 101.04 15.0199 102.6 15.0199C104.18 15.0199 105.71 14.9799 107.2 14.9099C107.34 15.8299 107.53 16.7399 107.8 17.6299C107.8 17.7499 107.7 17.8099 107.49 17.8099C107.39 17.8099 107.32 17.7699 107.3 17.6899C106.86 16.2899 105.92 15.5899 104.49 15.5899H102.69C102 15.5899 101.66 15.9399 101.66 16.6599V20.6199H103.9C104.5 20.6199 104.9 20.4799 105.11 20.2099C105.32 19.9399 105.47 19.4499 105.56 18.7599C105.56 18.6599 105.64 18.6199 105.8 18.6199C105.96 18.6199 106.05 18.6699 106.05 18.7599C106.05 19.0499 106.03 19.4299 106 19.8799C105.96 20.3099 105.95 20.6699 105.95 20.9399C105.95 21.2199 105.97 21.5699 106 22.0099C106.04 22.4699 106.05 22.8499 106.05 23.1499C106.05 23.2399 105.97 23.2899 105.8 23.2899C105.64 23.2899 105.56 23.2399 105.56 23.1499C105.47 22.4299 105.31 21.9199 105.09 21.6299C104.87 21.3399 104.47 21.1999 103.9 21.1999H101.66V25.5799C101.66 26.2799 102 26.6299 102.69 26.6299H104.63C105.34 26.6299 106.03 26.3999 106.73 25.9399C107.43 25.4799 107.94 24.9099 108.26 24.2199C108.28 24.1699 108.33 24.1399 108.41 24.1399C108.49 24.1399 108.57 24.1599 108.63 24.2099C108.7 24.2399 108.74 24.2999 108.74 24.3599Z"
						fill="#0061A7" />
					<path
						d="M125.8 15.17C125.8 15.32 125.75 15.4 125.66 15.41C124.92 15.49 124.41 15.63 124.14 15.82C123.86 16.01 123.72 16.37 123.71 16.91L123.52 27.4C123.52 27.52 123.45 27.58 123.31 27.58C123.24 27.58 123.14 27.53 123.03 27.44L113.86 17.07L113.74 25.3C113.73 25.35 113.73 25.39 113.73 25.43C113.73 25.88 113.87 26.2 114.16 26.38C114.45 26.57 114.96 26.71 115.7 26.79C115.8 26.8 115.84 26.88 115.84 27.03C115.84 27.2 115.8 27.28 115.7 27.28C115.39 27.28 114.97 27.26 114.43 27.23C113.92 27.19 113.54 27.18 113.26 27.18C112.96 27.18 112.56 27.2 112.06 27.23C111.57 27.26 111.2 27.28 110.93 27.28C110.83 27.28 110.79 27.2 110.79 27.03C110.79 26.88 110.84 26.8 110.95 26.79C111.68 26.7 112.19 26.56 112.46 26.38C112.73 26.19 112.88 25.83 112.89 25.29L113.2 16.91V16.83C113.2 16.35 113.06 16.02 112.78 15.82C112.5 15.63 111.98 15.49 111.22 15.39C111.14 15.39 111.1 15.31 111.1 15.14C111.1 14.98 111.15 14.9 111.24 14.9C111.45 14.9 111.74 14.92 112.11 14.95C112.44 14.99 112.69 15 112.86 15C113.07 15 113.32 14.98 113.61 14.95C113.91 14.91 114.16 14.9 114.38 14.9L122.94 24.48V16.89C122.94 16.38 122.8 16.03 122.51 15.82C122.22 15.62 121.69 15.47 120.91 15.38C120.82 15.37 120.77 15.29 120.77 15.14C120.77 14.97 120.82 14.89 120.91 14.89C121.23 14.89 121.66 14.91 122.19 14.94C122.69 14.98 123.07 14.99 123.35 14.99C123.65 14.99 124.05 14.97 124.55 14.94C125.04 14.9 125.42 14.89 125.68 14.89C125.75 14.92 125.8 15.01 125.8 15.17Z"
						fill="#0061A7" />
					<path
						d="M0.140137 30.32C13.4901 22.33 23.5201 19.98 27.3601 19.33C27.5301 16.32 27.3801 13.07 26.6301 9.88995C24.8601 10.86 22.3401 12.34 19.2801 14.42C14.5601 17.62 7.74014 22.8 0.140137 30.32Z"
						fill="#F48024" />
					<path
						d="M18.35 12.95C21.68 10.69 24.35 9.13995 26.16 8.16995C25.3 5.39995 23.94 2.71996 21.88 0.329956C13.93 12.22 9.03002 18.92 7.27002 21.42C11.57 17.76 15.37 14.96 18.35 12.95Z"
						fill="#F48024" />
				</svg>