<svg width="40" height="29" viewBox="0 0 40 29" fill="none" xmlns="http://www.w3.org/2000/svg" id="CBCreditCards">
<path d="M36.9799 23.6044V5.58562C36.9799 4.99028 36.7399 4.42471 36.3199 3.99806C35.8899 3.58132 35.3299 3.34322 34.7299 3.34322H5.90991C5.30991 3.34322 4.73991 3.58132 4.31991 3.99806C3.88991 4.42471 3.65991 4.99028 3.65991 5.58562V23.6044C3.65991 24.1898 3.89991 24.7752 4.31991 25.1919C4.73991 25.6087 5.30991 25.8468 5.91991 25.8468H34.7299C35.3399 25.8468 35.9099 25.6186 36.3199 25.1919C36.7399 24.7752 36.9799 24.1898 36.9799 23.6044ZM5.29991 4.98038C5.45991 4.82162 5.67991 4.73232 5.90991 4.73232H34.7199C34.9499 4.73232 35.1699 4.82162 35.3299 4.98038C35.4999 5.14905 35.5899 5.36734 35.5899 5.59555V6.49848H5.04991V5.59555C5.04991 5.35742 5.13991 5.13913 5.29991 4.98038ZM35.3299 24.2196C35.1699 24.3783 34.9499 24.4676 34.7199 24.4676H5.91991C5.68991 24.4676 5.46991 24.3783 5.30991 24.2196C5.14991 24.0608 5.04991 23.8326 5.04991 23.6044V7.87765H35.5899V23.6143C35.5899 23.8326 35.4999 24.0509 35.3299 24.2196Z" fill="#045896"/>
<path d="M12.6798 21.3123H7.81982V22.6916H12.6798V21.3123Z" fill="#259CEE"/>
<path d="M19.3899 21.3123H14.5299V22.6916H19.3899V21.3123Z" fill="#259CEE"/>
<path d="M26.0999 21.3123H21.2399V22.6916H26.0999V21.3123Z" fill="#259CEE"/>
<path d="M32.8098 21.3123H27.9498V22.6916H32.8098V21.3123Z" fill="#259CEE"/>
<path d="M2.26988 1.964H4.34988V0.594727H0.879883V4.03774H2.26988V1.964Z" fill="#045896"/>
<path d="M2.26988 25.1522H0.879883V28.5952H4.34988V27.2161H2.26988V25.1522Z" fill="#045896"/>
<path d="M36.2899 0.594727V1.964H38.3699V4.03774H39.7599V0.594727H36.2899Z" fill="#045896"/>
<path d="M38.3699 27.2161H36.2899V28.5952H39.7599V25.1522H38.3699V27.2161Z" fill="#045896"/>
<path d="M4.34985 11.1818L36.2899 10.9635" stroke="#005896" stroke-width="1.25" stroke-miterlimit="10"/>
</svg>
