<svg width="57" height="39" viewBox="0 0 57 39"  xmlns="http://www.w3.org/2000/svg" id="CBDashboard">
                    <path d="M2.26 38.8289H0V32.9252H2.3C4.43 32.9252 5.66 34.1357 5.66 35.8423V35.8622C5.65 37.5688 4.4 38.8289 2.26 38.8289ZM3.96 35.8721C3.96 34.9295 3.31 34.3739 2.32 34.3739H1.65V37.3803H2.32C3.31 37.3803 3.96 36.8445 3.96 35.8919V35.8721ZM10.49 38.8289L10.06 37.7772H7.76L7.34 38.8289H5.6L8.13 32.8756H9.72L12.25 38.8289H10.49ZM8.91 34.8303L8.24 36.5071H9.57L8.91 34.8303ZM15.27 35.1577C16.64 35.4554 17.49 35.892 17.49 36.9933V37.0131C17.49 38.2237 16.53 38.9381 15.08 38.9381C14.03 38.9381 13.02 38.6106 12.29 37.9558L13.21 36.8644C13.8 37.3307 14.45 37.5688 15.14 37.5688C15.58 37.5688 15.82 37.42 15.82 37.162V37.1421C15.82 36.8941 15.63 36.7651 14.82 36.5766C13.55 36.2888 12.58 35.9316 12.58 34.7211V34.7013C12.58 33.5999 13.45 32.8161 14.88 32.8161C15.89 32.8161 16.68 33.0839 17.33 33.5999L16.51 34.7509C15.97 34.3739 15.37 34.1655 14.84 34.1655C14.44 34.1655 14.24 34.3342 14.24 34.5425V34.5624C14.24 34.8501 14.45 34.9692 15.27 35.1577ZM22.06 38.8289V36.5865H19.94V38.8289H18.29V32.9252H19.94V35.1379H22.06V32.9252H23.71V38.8289H22.06ZM30.08 37.1917V37.2116C30.08 38.2237 29.25 38.8389 27.83 38.8389H24.76V32.9351H27.81C28.56 32.9351 29.09 33.1236 29.43 33.4709C29.67 33.709 29.81 34.0167 29.81 34.4235V34.4433C29.81 35.128 29.42 35.5347 28.89 35.7629C29.62 35.9812 30.08 36.388 30.08 37.1917ZM28.18 34.7509C28.18 34.4334 27.92 34.2449 27.43 34.2449H26.36V35.2867H27.4C27.9 35.2867 28.18 35.118 28.18 34.7707V34.7509ZM28.43 36.9635C28.43 36.646 28.17 36.4377 27.62 36.4377H26.36V37.5291H27.64C28.14 37.5291 28.43 37.3307 28.43 36.9933V36.9635ZM33.83 38.948C31.99 38.948 30.63 37.5886 30.63 35.8919V35.8721C30.63 34.1754 32.01 32.7962 33.84 32.7962C35.67 32.7962 37.04 34.1556 37.04 35.8523V35.8721C37.04 37.5788 35.66 38.948 33.83 38.948ZM35.36 35.8821C35.36 35.0287 34.74 34.2845 33.83 34.2845C32.93 34.2845 32.33 35.0089 32.33 35.8622V35.8821C32.33 36.7354 32.95 37.4795 33.85 37.4795C34.76 37.4795 35.36 36.7552 35.36 35.9019V35.8821ZM41.93 38.8289L41.5 37.7772H39.2L38.77 38.8289H37.04L39.57 32.8756H41.16L43.69 38.8289H41.93ZM40.36 34.8303L39.69 36.5071H41.02L40.36 34.8303ZM48.33 36.775L49.75 38.8389H47.85L46.65 37.0529H45.93V38.8389H44.27V32.9351H47.08C47.99 32.9351 48.62 33.1733 49.02 33.5801C49.37 33.9175 49.55 34.3738 49.55 34.9592V34.9791C49.55 35.8622 49.07 36.4575 48.33 36.775ZM47.89 35.0486C47.89 34.5822 47.55 34.354 47 34.354H45.92V35.7729H47.01C47.57 35.7729 47.89 35.505 47.89 35.0684V35.0486ZM52.65 38.8289H50.39V32.9252H52.69C54.82 32.9252 56.05 34.1357 56.05 35.8423V35.8622C56.04 37.5688 54.79 38.8289 52.65 38.8289ZM54.35 35.8721C54.35 34.9295 53.7 34.3739 52.71 34.3739H52.04V37.3803H52.71C53.7 37.3803 54.35 36.8445 54.35 35.8919V35.8721Z" />
                    <path fill-rule="evenodd" clip-rule="evenodd" d="M37.6494 24.531H16.0494C14.7194 24.531 13.6494 23.4693 13.6494 22.1497V15.9582C13.6494 14.6386 14.7194 13.5769 16.0494 13.5769H37.6494C38.9794 13.5769 40.0494 14.6386 40.0494 15.9582V22.1497C40.0494 23.4693 38.9694 24.531 37.6494 24.531ZM17.9694 17.387C17.1794 17.387 16.5294 18.0221 16.5294 18.8158C16.5294 19.6096 17.1794 20.2446 17.9694 20.2446C18.7694 20.2446 19.4094 19.6096 19.4094 18.8158C19.4094 18.0221 18.7694 17.387 17.9694 17.387ZM35.3794 17.7046H22.6094C21.9094 17.7046 21.3294 18.2701 21.3294 18.9746C21.3294 19.679 21.8994 20.2446 22.6094 20.2446H35.3894C36.0994 20.2446 36.6694 19.679 36.6694 18.9746C36.6594 18.28 36.0894 17.7046 35.3794 17.7046ZM37.6494 11.6718H16.0494C14.7194 11.6718 13.6494 10.6101 13.6494 9.29047V3.09901C13.6494 1.77935 14.7194 0.717712 16.0494 0.717712H37.6494C38.9794 0.717712 40.0494 1.78928 40.0494 3.09901V9.29047C40.0494 10.6101 38.9694 11.6718 37.6494 11.6718ZM17.9694 4.52781C17.1794 4.52781 16.5294 5.16284 16.5294 5.95661C16.5294 6.75039 17.1794 7.38542 17.9694 7.38542C18.7694 7.38542 19.4094 6.75039 19.4094 5.95661C19.4094 5.16284 18.7694 4.52781 17.9694 4.52781ZM35.3794 4.84533H22.6094C21.9094 4.84533 21.3294 5.41093 21.3294 6.1154C21.3294 6.80996 21.8994 7.38542 22.6094 7.38542H35.3894C36.0994 7.38542 36.6694 6.81988 36.6694 6.1154C36.6594 5.42085 36.0894 4.84533 35.3794 4.84533Z" />
                </svg>