<svg width="33" height="33" viewBox="0 0 33 33" fill="none" xmlns="http://www.w3.org/2000/svg" id="CBDarkTheme">
                                    <path fill-rule="evenodd" clip-rule="evenodd" d="M16.32 0C25.33 0 32.64 7.30999 32.64 16.32C32.64 25.33 25.33 32.64 16.32 32.64C7.31 32.64 0 25.33 0 16.32C0 7.30999 7.31 0 16.32 0Z" fill="#E3EFF8"/>
                                    <path d="M25.1198 16.31C25.1198 11.38 21.1098 7.35999 16.1898 7.35999C11.2698 7.35999 7.25977 11.38 7.25977 16.31C7.25977 18.02 7.73976 19.61 8.56976 20.97C10.1298 23.55 12.9598 25.28 16.1898 25.28V25.26C21.1198 25.26 25.1198 21.24 25.1198 16.31ZM16.1998 24.38V8.23997C20.6398 8.23997 24.2498 11.86 24.2498 16.31C24.2398 20.76 20.6298 24.38 16.1998 24.38Z" fill="#0062A7"/>
                                </svg>