 <svg width="20" height="18" viewBox="0 0 20 18" fill="none" xmlns="http://www.w3.org/2000/svg" id="CBEditIcon">
                            <path
                                d="M1.26001 17.3372H19.42C19.639 17.3372 19.83 17.1638 19.83 16.9272C19.83 16.6906 19.6391 16.5172 19.42 16.5172H1.26001C1.02717 16.5172 0.85 16.6943 0.85 16.9272C0.85 17.1638 1.04099 17.3372 1.26001 17.3372Z"
                                fill="#0767AD" stroke="#0767AD" stroke-width="0.3" />
                            <path
                                d="M5.60058 15.4363L5.60027 15.4363L5.60146 15.4458C5.61499 15.554 5.67006 15.6813 5.78801 15.7528C5.86189 15.8049 5.94499 15.8172 6.01031 15.8172C6.05951 15.8172 6.11691 15.804 6.16609 15.7689L8.92333 14.7275L8.92334 14.7275L8.92604 14.7264C9.001 14.6965 9.06829 14.6475 9.11747 14.5668L16.3528 3.39406C16.4232 3.30108 16.4318 3.18685 16.4188 3.09599C16.4011 2.97199 16.3278 2.88856 16.2435 2.83239L16.2435 2.83238L16.2419 2.83135L13.2819 0.911342L13.2819 0.911337L13.2808 0.910636C13.101 0.796159 12.8501 0.847143 12.7255 1.034L12.7255 1.03399L12.7244 1.03567L5.48442 12.2157L5.48434 12.2156L5.4817 12.22C5.43315 12.3009 5.42031 12.3905 5.42031 12.4572H5.42004L5.42059 12.4663L5.60058 15.4363ZM6.24316 12.5572L13.1947 1.82469L15.4729 3.30146L8.52118 14.0244L6.38717 14.8348L6.24316 12.5572Z"
                                fill="#0767AD" stroke="#0767AD" stroke-width="0.3" />
                        </svg>