<svg width="34" height="35" viewBox="0 0 34 35" fill="none" xmlns="http://www.w3.org/2000/svg" id="CBEnableDisableBiometric">
<path d="M14.3968 27.3189C16.128 25.2589 17.2789 22.8007 17.7379 20.1831C17.7379 19.3766 18.5461 17.1478 17.3242 17C16.2296 17.0554 16.8342 19.2103 16.4842 19.9799C16.1232 22.0449 15.2932 24.0067 14.0541 25.724C12.815 27.4413 11.1976 28.8713 9.31845 29.911C9.17289 29.9922 9.06643 30.1258 9.02232 30.2827C8.97821 30.4396 9.00002 30.607 9.08298 30.7483C9.95484 32.0166 13.7159 28.1193 14.3968 27.3189Z" fill="#034D83"/>
<path d="M16.85 27.7803C18.918 25.0146 22.8283 15.1007 16.7193 15C15.971 15.0568 15.272 15.3937 14.7628 15.943C14.2535 16.4923 13.9716 17.2133 13.9738 17.9611C13.9774 19.939 13.4545 21.8825 12.4584 23.5932C11.2787 25.6269 9.49231 27.2437 7.34774 28.2185C7.27672 28.2508 7.21278 28.2967 7.15957 28.3536C7.10635 28.4105 7.0649 28.4773 7.03758 28.5502C6.98242 28.6973 6.98817 28.8603 7.05358 29.0033C7.11899 29.1462 7.23869 29.2574 7.38636 29.3123C7.53402 29.3673 7.69756 29.3616 7.84098 29.2964C9.4105 28.5815 10.815 27.5513 11.9664 26.2703C13.1178 24.9893 13.9914 23.4852 14.5324 21.8521C14.9531 20.5958 15.1659 19.2796 15.1623 17.9552C15.1619 17.4961 15.3399 17.0546 15.659 16.7234C15.9781 16.3922 16.4134 16.1969 16.8738 16.1785C21.0336 16.297 17.3611 25.3403 15.8754 27.0992C14.8262 28.6038 13.5257 29.9179 12.0305 30.9843C11.9667 31.0296 11.9125 31.0871 11.8711 31.1533C11.8297 31.2196 11.8018 31.2934 11.7891 31.3705C11.7764 31.4475 11.7791 31.5263 11.7971 31.6024C11.8151 31.6784 11.848 31.7501 11.8939 31.8134C12.8447 32.9445 16.2617 28.5976 16.85 27.7803Z" fill="#034D83"/>
<path d="M20.9897 24.5401C21.6912 22.4495 22.032 20.2546 21.9976 18.0495C21.9092 13.8483 16.5397 11.435 13.3274 14.1492C9.54338 17.3119 13.2154 21.6666 7.43329 25.6494C6.80232 26.0827 6.1165 26.43 5.39393 26.682C5.32067 26.7078 5.25321 26.7478 5.19545 26.7998C5.13768 26.8518 5.09074 26.9147 5.05733 26.9848C5.02392 27.055 5.00469 27.1311 5.00076 27.2088C4.99682 27.2864 5.00825 27.3641 5.03439 27.4373C5.71811 28.7944 9.38424 25.7379 9.98544 24.9591C11.6163 23.1294 12.5146 20.7613 12.5081 18.3091C12.5085 17.6872 12.6492 17.0734 12.9196 16.5135C13.1901 15.9536 13.5833 15.4621 14.0701 15.0756C16.5692 12.9455 20.7599 14.8219 20.8247 18.1026C20.8555 20.7241 20.3231 23.3217 19.2634 25.7192C18.2038 28.1167 16.6417 30.2581 14.683 31.9984C14.5659 32.1018 14.4946 32.2475 14.4846 32.4034C14.4747 32.5594 14.527 32.713 14.63 32.8304C15.4729 33.6801 17.0878 31.0897 17.7126 30.5233C19.1473 28.7369 20.2566 26.7116 20.9897 24.5401Z" fill="#034D83"/>
<path d="M24.9993 17.8793C25.0946 10.3495 15.2339 7.07908 10.9261 13.1952C9.93402 14.5473 9.40075 16.1914 9.40677 17.8793C9.39736 19.3655 8.90633 20.8069 8.00995 21.9798C7.11357 23.1526 5.862 23.9913 4.44957 24.3655C4.37296 24.3852 4.30098 24.4203 4.23781 24.4687C4.17463 24.517 4.12154 24.5777 4.08162 24.6472C4.0417 24.7166 4.01574 24.7935 4.00526 24.8732C3.99478 24.953 3.99999 25.0341 4.02059 25.1118C4.45553 26.2586 6.45748 24.8206 7.13075 24.4626C12.5765 20.8767 8.59646 15.6707 13.5358 12.3275C17.7065 9.29373 23.9805 12.7037 23.8077 17.8975C23.8036 23.083 21.9365 28.0879 18.5585 31.9681C18.475 32.0547 18.4189 32.1649 18.3975 32.2844C18.3761 32.4038 18.3904 32.5271 18.4385 32.6382C18.4866 32.7493 18.5664 32.8431 18.6675 32.9075C18.7685 32.972 18.8862 33.004 19.0054 32.9996C23.0748 29.3894 24.9099 23.2915 24.9993 17.8793Z" fill="#034D83"/>
<path d="M23.0364 10.0591C18.2776 6.17573 10.5651 8.01584 7.98647 13.6437C6.199 16.7743 8.1447 21.3566 3.49728 22.3065C3.42032 22.3195 3.34661 22.3477 3.28037 22.3897C3.21412 22.4317 3.15664 22.4866 3.1112 22.5512C3.06576 22.6158 3.03325 22.689 3.01553 22.7664C2.99781 22.8438 2.99523 22.9241 3.00792 23.0025C3.02062 23.081 3.04836 23.1561 3.08954 23.2237C3.13072 23.2912 3.18455 23.3498 3.24795 23.3961C3.31135 23.4424 3.38308 23.4756 3.45904 23.4936C3.53501 23.5117 3.61372 23.5143 3.69068 23.5014C4.9236 23.2865 6.04289 22.6358 6.85204 21.6635C7.66119 20.6911 8.10848 19.4593 8.1154 18.1842C8.12009 16.3207 8.68964 14.5042 9.74608 12.9834C10.8025 11.4626 12.2942 10.3119 14.017 9.68866C19.5083 7.52594 26.0135 12.1441 25.826 18.1663C25.829 22.7634 24.4952 27.2582 21.9932 31.0829C21.9503 31.1483 21.9205 31.2217 21.9055 31.299C21.8905 31.3762 21.8907 31.4557 21.9059 31.5328C21.9212 31.61 21.9512 31.6834 21.9944 31.7486C22.0375 31.8139 22.0929 31.8699 22.1573 31.9133C23.2122 32.6661 24.7477 28.2928 25.1989 27.4684C27.3966 21.8823 28.4867 14.0918 23.0364 10.0591Z" fill="#034D83"/>
<path d="M2.65636 11.7326C2.19989 12.6181 0.0856743 16.919 1.45511 17.2383C1.53497 17.2547 1.61734 17.2547 1.69719 17.2382C1.77704 17.2217 1.85271 17.1891 1.91958 17.1423C1.98646 17.0955 2.04313 17.0356 2.08616 16.9661C2.12918 16.8967 2.15766 16.8192 2.16985 16.7383C2.5637 14.3824 3.56132 12.1696 5.06488 10.317C13.2214 0.209121 29.7987 6.01 29.7987 19.0514C29.799 20.4653 29.5843 21.8709 29.1621 23.2199C29.1378 23.2954 29.1287 23.375 29.1352 23.4541C29.1417 23.5332 29.1637 23.6102 29.2 23.6807C29.2363 23.7513 29.2861 23.8139 29.3466 23.8651C29.4071 23.9162 29.477 23.9549 29.5525 23.9789C30.8799 24.3403 30.9339 19.961 31 19.0514C30.8859 3.51014 10.2363 -1.76667 2.65636 11.7326Z" fill="#034D83"/>
<path d="M24.7068 8.95459C18.3933 3.22263 7.2347 6.2572 4.79154 14.3842C4.37855 15.6181 4.16837 16.9096 4.169 18.2094C4.17031 18.6497 4.00334 19.0742 3.7016 19.3977C3.39986 19.7211 2.98568 19.9197 2.54219 19.9534C2.38643 19.9658 2.242 20.0388 2.14067 20.1566C2.03934 20.2743 1.98942 20.4271 2.00188 20.5813C2.01434 20.7355 2.08816 20.8784 2.20712 20.9787C2.32607 21.079 2.4804 21.1284 2.63616 21.1161C6.15994 20.7266 4.98535 17.0816 5.9074 14.7505C11.6218 0.217134 34.9962 7.36173 25.7228 28.2142C25.6699 28.3536 25.673 28.5077 25.7316 28.6448C25.7901 28.782 25.8995 28.8917 26.0373 28.9513C26.1752 29.011 26.3308 29.016 26.4723 28.9654C26.6137 28.9147 26.7302 28.8123 26.7976 28.6793C28.258 25.3805 29.008 21.8168 28.9999 18.2152C29.0028 16.4563 28.6204 14.7176 27.8793 13.1189C27.1382 11.5202 26.0558 10.0995 24.7068 8.95459Z" fill="#034D83"/>
<path d="M0.6 6C0.75913 6 0.911742 5.93679 1.02426 5.82426C1.13679 5.71174 1.2 5.55913 1.2 5.4V1.2H5.4C5.55913 1.2 5.71174 1.13679 5.82426 1.02426C5.93679 0.911742 6 0.75913 6 0.6C6 0.44087 5.93679 0.288258 5.82426 0.175736C5.71174 0.0632141 5.55913 0 5.4 0H0.6C0.44087 0 0.288258 0.0632141 0.175736 0.175736C0.0632141 0.288258 0 0.44087 0 0.6V5.4C0 5.55913 0.0632141 5.71174 0.175736 5.82426C0.288258 5.93679 0.44087 6 0.6 6Z" fill="#279CEE"/>
<path d="M33.4 0H28.6C28.4409 0 28.2883 0.0632141 28.1757 0.175736C28.0632 0.288258 28 0.44087 28 0.6C28 0.75913 28.0632 0.911742 28.1757 1.02426C28.2883 1.13679 28.4409 1.2 28.6 1.2H32.8V5.4C32.8 5.55913 32.8632 5.71174 32.9757 5.82426C33.0883 5.93679 33.2409 6 33.4 6C33.5591 6 33.7117 5.93679 33.8243 5.82426C33.9368 5.71174 34 5.55913 34 5.4V0.6C34 0.44087 33.9368 0.288258 33.8243 0.175736C33.7117 0.0632141 33.5591 0 33.4 0Z" fill="#279CEE"/>
<path d="M33.4 29C33.2409 29 33.0883 29.0632 32.9757 29.1757C32.8632 29.2883 32.8 29.4409 32.8 29.6V33.8H28.6C28.4409 33.8 28.2883 33.8632 28.1757 33.9757C28.0632 34.0883 28 34.2409 28 34.4C28 34.5591 28.0632 34.7117 28.1757 34.8243C28.2883 34.9368 28.4409 35 28.6 35H33.4C33.5591 35 33.7117 34.9368 33.8243 34.8243C33.9368 34.7117 34 34.5591 34 34.4V29.6C34 29.4409 33.9368 29.2883 33.8243 29.1757C33.7117 29.0632 33.5591 29 33.4 29Z" fill="#279CEE"/>
<path d="M5.4 33.8H1.2V29.6C1.2 29.4409 1.13679 29.2883 1.02426 29.1757C0.911742 29.0632 0.75913 29 0.6 29C0.44087 29 0.288258 29.0632 0.175736 29.1757C0.0632141 29.2883 0 29.4409 0 29.6V34.4C0 34.5591 0.0632141 34.7117 0.175736 34.8243C0.288258 34.9368 0.44087 35 0.6 35H5.4C5.55913 35 5.71174 34.9368 5.82426 34.8243C5.93679 34.7117 6 34.5591 6 34.4C6 34.2409 5.93679 34.0883 5.82426 33.9757C5.71174 33.8632 5.55913 33.8 5.4 33.8Z" fill="#279CEE"/>
</svg>