<svg width="26" height="26" viewBox="0 0 26 26" fill="none" xmlns="http://www.w3.org/2000/svg" id="CBError">
                    <path opacity="0.4" d="M23.8332 12.9998C23.8332 18.9842 18.9831 23.8332 12.9999 23.8332C7.01664 23.8332 2.16656 18.9842 2.16656 12.9998C2.16656 7.01767 7.01664 2.1665 12.9999 2.1665C18.9831 2.1665 23.8332 7.01767 23.8332 12.9998" stroke="#0767AD"/>
                    <path fill-rule="evenodd" clip-rule="evenodd" d="M13.9425 13.6833C13.9425 14.2054 13.5168 14.6312 12.9946 14.6312C12.4724 14.6312 12.0467 14.2054 12.0467 13.6833V8.89494C12.0467 8.37277 12.4724 7.94702 12.9946 7.94702C13.5168 7.94702 13.9425 8.37277 13.9425 8.89494V13.6833ZM12.0521 17.1205C12.0521 16.5983 12.4757 16.1726 12.9946 16.1726C13.5287 16.1726 13.9533 16.5983 13.9533 17.1205C13.9533 17.6426 13.5287 18.0684 13.0054 18.0684C12.48 18.0684 12.0521 17.6426 12.0521 17.1205Z" fill="#0767AD"/>
                </svg>  