<svg  width="23" height="23" viewBox="0 0 15 15" fill="" xmlns="http://www.w3.org/2000/svg" id="CBExchangeRates">
                        <path
                            d="M7.55042 14.69C3.72042 14.69 0.610352 11.5801 0.610352 7.75006C0.610352 3.92006 3.72042 0.809998 7.55042 0.809998C11.3804 0.809998 14.4904 3.92006 14.4904 7.75006C14.4904 11.5801 11.3804 14.69 7.55042 14.69ZM7.55042 1.48004C4.10041 1.48004 1.29041 4.29005 1.29041 7.74005C1.29041 11.1901 4.10041 14.0001 7.55042 14.0001C11.0004 14.0001 13.8104 11.1901 13.8104 7.74005C13.8104 4.29005 11.0004 1.48004 7.55042 1.48004ZM9.18042 6.54999C8.99042 6.54999 8.84033 6.40002 8.84033 6.21002C8.84033 5.91002 8.73037 5.67995 8.50037 5.50995C8.28037 5.34995 7.97039 5.25006 7.65039 5.25006C7.05039 5.25006 6.40039 5.56996 6.40039 6.26996C6.40039 6.78996 6.9204 7.03006 7.7804 7.37006C8.6504 7.71006 9.63037 8.08996 9.63037 9.14996C9.63037 9.70996 9.40035 10.1701 8.98035 10.4901C8.69035 10.7101 8.3204 10.85 7.9104 10.89V11.41C7.9104 11.6 7.76031 11.7501 7.57031 11.7501C7.38031 11.7501 7.23035 11.6 7.23035 11.41V10.8799C6.32035 10.7399 5.51038 10.14 5.51038 9.10004C5.51038 8.91004 5.66034 8.75995 5.85034 8.75995C6.04034 8.75995 6.19043 8.91004 6.19043 9.10004C6.19043 9.84004 6.91036 10.23 7.62036 10.23C7.99036 10.23 8.32031 10.13 8.57031 9.95001C8.82031 9.76001 8.95032 9.48996 8.95032 9.14996C8.95032 8.59996 8.42041 8.34995 7.54041 8.00995C6.69041 7.67995 5.73035 7.29997 5.73035 6.27997C5.73035 5.32997 6.43035 4.76005 7.23035 4.61005V4.07001C7.23035 3.88001 7.38031 3.73004 7.57031 3.73004C7.76031 3.73004 7.9104 3.88001 7.9104 4.07001V4.58002C8.7604 4.67002 9.54041 5.23002 9.54041 6.21002C9.54041 6.40002 9.39032 6.54999 9.20032 6.54999H9.18042Z"
                            fill="#075896" />
</svg>