CBFaceBiometric.svg
<svg width="46" height="47" viewBox="0 0 46 47" fill="none" xmlns="http://www.w3.org/2000/svg" id="CBFaceBiometric">
								<path
									d="M0.119313 9.32991C0.119313 10.7899 0.119313 12.2599 0.119313 13.7199C0.119313 14.2999 0.449317 14.74 0.999317 14.63C1.33932 14.56 1.63942 14.1099 1.85942 13.7699C1.96942 13.5999 1.88933 13.2899 1.88933 13.0499C1.88933 10.7599 1.88933 8.4699 1.88933 6.1899C1.88933 3.5299 2.99938 2.4399 5.68938 2.4399C8.09938 2.4399 10.5094 2.4399 12.9194 2.4399C13.5394 2.4399 14.0494 2.25988 14.0494 1.54988C14.0494 0.839882 13.5394 0.649857 12.9194 0.649857C10.2394 0.649857 7.54931 0.599877 4.86931 0.669877C2.11931 0.739877 0.149313 2.81991 0.119313 5.57991C0.109313 6.82991 0.119313 8.07991 0.119313 9.32991Z"
									fill="#104275" />
								<path
									d="M33.1292 2.43997C35.5992 2.43997 38.0693 2.43997 40.5393 2.43997C42.7293 2.43997 43.9293 3.66 43.9393 5.85C43.9393 8.38 43.9393 10.91 43.9393 13.45C43.9393 14.1 44.1093 14.6699 44.8593 14.6599C45.6193 14.6599 45.7393 14.0699 45.7293 13.4199C45.7093 12.1099 45.7293 10.8 45.7293 9.49002C45.7293 8.21002 45.7293 6.92993 45.7293 5.64993C45.7093 2.74993 43.6893 0.69995 40.7693 0.66995C38.2093 0.63995 35.6493 0.66995 33.0793 0.66995C32.4193 0.66995 31.7793 0.760003 31.7993 1.6C31.8193 2.45 32.4792 2.46999 33.1292 2.45999V2.43997Z"
									fill="#104275" />
								<path
									d="M13.1393 44.6899C12.9593 44.5799 12.6593 44.6599 12.4193 44.6599C10.0393 44.6599 7.65931 44.6699 5.28931 44.6599C3.09931 44.6499 1.90929 43.44 1.89929 41.25C1.89929 38.78 1.89929 36.3099 1.89929 33.8399C1.89929 33.1699 1.87936 32.4499 0.96936 32.4599C0.11936 32.4599 0.109375 33.1499 0.109375 33.7899C0.109375 36.3499 0.109375 38.91 0.109375 41.47C0.129375 44.37 2.15934 46.3899 5.06934 46.4299C6.28934 46.4399 7.50937 46.4299 8.72937 46.4299C10.1894 46.4299 11.6593 46.4299 13.1193 46.4199C13.6893 46.4199 14.1393 46.0899 13.9993 45.5199C13.9193 45.1899 13.4693 44.8999 13.1293 44.6899H13.1393Z"
									fill="#104275" />
								<path
									d="M45.7193 37.71C45.7193 36.28 45.7193 34.8399 45.7193 33.4099C45.7193 32.8399 45.4593 32.4599 44.8593 32.4399C44.2593 32.4199 43.9993 32.81 43.9493 33.37C43.9293 33.61 43.9393 33.86 43.9393 34.1C43.9393 36.42 43.9393 38.7299 43.9393 41.0499C43.9393 43.4899 42.7892 44.6399 40.3692 44.6499C37.8992 44.6499 35.4293 44.6499 32.9593 44.6499C32.3593 44.6499 31.8193 44.78 31.7993 45.51C31.7793 46.23 32.2793 46.4199 32.8993 46.4199C35.6393 46.4199 38.3892 46.4699 41.1292 46.3999C43.7392 46.3299 45.6793 44.2599 45.7193 41.6499C45.7393 40.3399 45.7193 39.03 45.7193 37.72V37.71Z"
									fill="#104275" />
								<path
									d="M31.6893 33.1C31.4093 32.58 30.9393 32.5199 30.4293 32.7699C30.2093 32.8799 29.9993 33 29.7893 33.12C26.6993 34.76 23.4194 35.48 19.9794 34.63C18.4394 34.25 17.0093 33.41 15.4993 32.87C15.1293 32.74 14.4892 32.7899 14.2392 33.0299C13.7892 33.4599 14.0393 33.9899 14.5293 34.3299C14.8293 34.5399 15.1393 34.7299 15.4693 34.8999C17.7493 36.1199 20.1693 36.7399 22.7593 36.7999C23.7293 36.6899 24.7393 36.7299 25.6493 36.4399C27.5493 35.8299 29.4093 35.0699 31.2693 34.3199C31.7893 34.1099 31.9593 33.61 31.6893 33.1Z"
									fill="#104275" />
								<path
									d="M21.9093 28.46C23.3493 27.51 24.0393 26.1499 24.0793 24.4499C24.1093 23.1999 24.0793 21.9499 24.0793 20.6999C24.0793 19.4199 24.0793 18.14 24.0793 16.86C24.0793 16.2 24.0093 15.5499 23.1893 15.5399C22.3693 15.5299 22.2792 16.17 22.2792 16.84C22.2892 19.25 22.2692 21.6599 22.2792 24.0699C22.2892 25.3199 21.9193 26.3399 20.8193 27.0299C20.2893 27.3599 20.0193 27.8299 20.4393 28.4099C20.8593 28.9899 21.3792 28.81 21.8892 28.47L21.9093 28.46Z"
									fill="#104275" />
								<path
									d="M30.9493 15.2C31.2393 15.2 31.6693 14.72 31.7693 14.37C31.9093 13.89 31.8093 13.34 31.8093 12.83C31.8093 12.31 31.9193 11.7599 31.7693 11.2899C31.6593 10.9399 31.2393 10.4499 30.9493 10.4399C30.6493 10.4399 30.1193 10.92 30.0793 11.23C29.9693 12.29 29.9693 13.3699 30.0793 14.4199C30.1093 14.7299 30.6493 15.21 30.9493 15.2Z"
									fill="#104275" />
								<path
									d="M14.0394 14.33C14.0394 14.9 14.3694 15.34 14.9294 15.22C15.2694 15.14 15.6593 14.71 15.7593 14.36C15.8993 13.89 15.7994 13.33 15.7994 12.82C15.7994 12.33 15.9093 11.8101 15.7693 11.3701C15.6393 10.9901 15.2694 10.5 14.9194 10.42C14.3894 10.3 14.0394 10.74 14.0394 11.32C14.0294 12.33 14.0294 13.33 14.0394 14.34V14.33Z"
									fill="#104275" />
							</svg>