<svg width="33" height="34" viewBox="0 0 33 34" fill="none" xmlns="http://www.w3.org/2000/svg" id="CBFeedbackRateUs">
                                <path fill-rule="evenodd" clip-rule="evenodd" d="M16.4099 0.388062C25.4199 0.388062 32.7299 7.69807 32.7299 16.7081C32.7299 25.7181 25.4199 33.028 16.4099 33.028C7.39985 33.028 0.0898438 25.7181 0.0898438 16.7081C0.0998437 7.69807 7.39985 0.388062 16.4099 0.388062Z" fill="#E3EFF8"/>
                                <path d="M24.4601 20.238H19.4501C18.5601 20.238 17.8301 19.508 17.8301 18.618V14.438C17.8301 13.828 18.1701 13.268 18.7201 12.988C19.2101 12.738 19.6001 12.388 19.9701 11.858C20.1101 11.658 20.2301 11.468 20.3401 11.278C20.5601 10.908 20.6701 10.488 20.6701 10.058V9.48804C20.6701 8.72804 21.2901 8.10803 22.0601 8.10803C22.4301 8.10803 22.7801 8.24804 23.0401 8.51804C23.3001 8.77804 23.4501 9.12802 23.4501 9.49802C23.4501 10.728 23.4501 10.748 23.4501 10.758C23.4401 10.988 23.3801 12.048 22.7801 12.828H25.4701C25.9101 12.828 26.3201 13.008 26.5901 13.318C26.8101 13.578 26.9101 13.908 26.8501 14.248C26.8301 14.378 26.0701 18.718 26.0401 18.898C25.8301 19.728 25.2401 20.238 24.4601 20.238ZM22.0501 8.54803C21.5301 8.54803 21.1101 8.96804 21.1101 9.48804V10.058C21.1101 10.568 20.9701 11.068 20.7201 11.498C20.6101 11.698 20.4701 11.898 20.3301 12.108C19.9201 12.708 19.4801 13.098 18.9201 13.388C18.5201 13.588 18.2701 13.988 18.2701 14.438V18.618C18.2701 19.268 18.8001 19.788 19.4401 19.788H24.4501C25.0201 19.788 25.4401 19.418 25.5701 18.798C25.8401 17.248 26.3601 14.268 26.3801 14.158C26.4201 13.888 26.3201 13.708 26.2201 13.588C26.0401 13.378 25.7401 13.248 25.4401 13.248H22.2301C22.1401 13.248 22.0501 13.188 22.0201 13.098C21.9901 13.008 22.0201 12.908 22.0901 12.848C22.9201 12.178 22.9801 10.858 22.9801 10.708C22.9801 10.668 22.9801 9.94802 22.9801 9.46802C22.9801 9.21802 22.8801 8.98801 22.7001 8.80801C22.5401 8.64801 22.3001 8.54803 22.0501 8.54803Z" fill="#045896" stroke="#075896" stroke-width="0.4" stroke-miterlimit="10"/>
                                <path d="M15.2304 20.238C14.3404 20.238 13.6104 19.508 13.6104 18.618V14.328C13.6104 13.438 14.3404 12.708 15.2304 12.708C16.1204 12.708 16.8503 13.438 16.8503 14.328V18.618C16.8503 19.518 16.1204 20.238 15.2304 20.238ZM15.2304 13.158C14.5804 13.158 14.0504 13.688 14.0504 14.338V18.628C14.0504 19.278 14.5804 19.808 15.2304 19.808C15.8804 19.808 16.4104 19.278 16.4104 18.628V14.338C16.4004 13.688 15.8804 13.158 15.2304 13.158Z" fill="#045896" stroke="#075896" stroke-width="0.4" stroke-miterlimit="10"/>
                                <path d="M25.0201 21.328V23.278C25.0201 23.328 24.9802 23.368 24.9302 23.368H16.6202C16.5802 23.368 16.5501 23.378 16.5201 23.408L12.6102 26.988C12.5902 27.008 12.5702 27.008 12.5502 27.008C12.5402 27.008 12.5302 27.008 12.5102 26.998C12.4802 26.988 12.4602 26.948 12.4602 26.918V23.508C12.4602 23.428 12.3902 23.358 12.3102 23.358H8.31015C8.26015 23.358 8.22015 23.318 8.22015 23.268V10.808C8.22015 10.758 8.26015 10.718 8.31015 10.718H18.2602V10.418H8.06015C7.98015 10.418 7.91016 10.488 7.91016 10.568V23.508C7.91016 23.588 7.98015 23.658 8.06015 23.658H12.0602C12.1102 23.658 12.1502 23.698 12.1502 23.748V27.458C12.1502 27.518 12.1902 27.568 12.2402 27.598C12.2902 27.618 12.3602 27.608 12.4002 27.568L16.6402 23.678C16.6602 23.658 16.6801 23.658 16.7001 23.658H25.1602C25.2402 23.658 25.3102 23.588 25.3102 23.508V21.318H25.0201V21.328Z" fill="#045896" stroke="#075896" stroke-width="0.5" stroke-miterlimit="10"/>
                            </svg> 