<svg width="21" height="25" viewBox="0 0 21 25" fill="none" xmlns="http://www.w3.org/2000/svg" id="CBFilter">
						<path
							d="M10.5207 0.189604C13.6432 0.189604 16.7763 0.189604 19.8987 0.189604C20.6045 0.189604 21.075 0.633135 20.9894 1.27139C20.9574 1.5202 20.829 1.76901 20.6793 1.97455C18.4124 5.19826 16.1347 8.40034 13.8677 11.624C13.7287 11.8188 13.6432 12.1 13.6432 12.338C13.6218 15.129 13.6218 17.9092 13.6432 20.7002C13.6432 21.3925 13.3865 21.8036 12.7556 22.0633C11.4617 22.6041 10.1892 23.1883 8.90606 23.7508C8.06129 24.1186 7.409 23.6859 7.409 22.734C7.409 19.2614 7.409 15.7997 7.39831 12.3272C7.39831 12.0892 7.30207 11.808 7.17375 11.6132C4.90678 8.38952 2.63981 5.17662 0.362144 1.96373C0.0841188 1.57429 -0.0655876 1.18484 0.148278 0.730496C0.372836 0.265329 0.768487 0.167969 1.23899 0.167969C4.34004 0.167969 7.43039 0.167969 10.5314 0.167969L10.5207 0.189604ZM19.61 1.41202H1.43147C1.5384 1.57429 1.60257 1.68246 1.67742 1.79064C3.85884 4.88454 6.05096 7.97844 8.24308 11.0615C8.48902 11.4077 8.59595 11.7539 8.59595 12.1758C8.59595 15.4752 8.59595 18.7746 8.59595 22.0741V22.5609C8.77774 22.4851 8.90606 22.4527 9.02368 22.3986C10.0288 21.9551 11.034 21.4899 12.0499 21.068C12.3386 20.949 12.4455 20.7976 12.4455 20.4622C12.4241 17.7037 12.4455 14.9451 12.4348 12.1866C12.4348 11.7647 12.5418 11.4077 12.7877 11.0723C14.6911 8.40034 16.5838 5.72833 18.4658 3.05633C18.8401 2.53707 19.2037 2.007 19.61 1.43365V1.41202Z"
							fill="#0061A4" />
					</svg>