<svg width="14" height="15" viewBox="0 0 14 15" fill="none" xmlns="http://www.w3.org/2000/svg" id="CBHeaderLogOut">
							<path
								d="M9.63007 1.90689C9.25007 1.96642 8.86008 1.92673 8.48008 1.92673C6.61008 1.92673 4.74005 1.92673 2.86005 1.92673C1.89005 1.92673 1.55006 2.25417 1.55006 3.2067C1.55006 6.28259 1.55006 9.3684 1.55006 12.4443C1.55006 13.3274 1.91006 13.6846 2.80006 13.6846C4.91006 13.6945 7.01007 13.6846 9.12006 13.6846C9.25006 13.6846 9.39006 13.6746 9.52006 13.6846C9.99006 13.7243 10.2501 13.9723 10.2201 14.3593C10.1901 14.7959 9.90006 14.9348 9.49006 14.9348C8.10006 14.9248 6.72006 14.9348 5.33006 14.9348C4.46006 14.9348 3.59007 14.9447 2.72007 14.9348C1.41007 14.9248 0.470061 14.012 0.460061 12.7023C0.440061 11.0552 0.460061 9.40809 0.460061 7.761C0.460061 6.21313 0.460061 4.66527 0.460061 3.1174C0.460061 1.60922 1.34008 0.726145 2.85008 0.726145C5.04008 0.726145 7.23008 0.716221 9.42008 0.736065C9.65008 0.736065 9.93006 0.815446 10.0801 0.96428C10.2001 1.07342 10.2301 1.40085 10.1501 1.54969C10.0801 1.71836 9.83007 1.87712 9.63007 1.90689ZM13.6201 8.36626C12.6101 9.37832 11.5901 10.3904 10.5701 11.4025C10.2401 11.7299 9.85005 11.7597 9.61005 11.4719C9.33006 11.1445 9.41008 10.827 9.70008 10.5491C10.3801 9.89427 11.0601 9.23941 11.7501 8.58455C11.7201 8.53494 11.6901 8.4754 11.6501 8.42579C10.4301 8.42579 9.22007 8.42579 8.00007 8.42579C7.33007 8.42579 6.66007 8.40595 6.00007 8.43571C5.54007 8.44563 5.37006 8.22735 5.37006 7.80069C5.37006 7.38396 5.57006 7.2252 5.99006 7.2252C7.88006 7.23512 9.77006 7.23512 11.7401 7.23512C11.6301 7.08629 11.5701 6.98706 11.4801 6.89776C10.8901 6.31235 10.3001 5.72694 9.71006 5.13161C9.37006 4.78433 9.34005 4.43706 9.61005 4.16916C9.89005 3.89133 10.2101 3.9211 10.5701 4.26838C11.5901 5.28044 12.6101 6.28259 13.6201 7.30458C14.0301 7.70147 14.0301 7.95945 13.6201 8.36626Z"
								fill="#787878" />
						</svg>