<svg width="24" height="24" viewBox="0 0 14 15" fill="" xmlns="http://www.w3.org/2000/svg" id="CBHelp">
                        <path fill-rule="evenodd" clip-rule="evenodd"
                            d="M7.14038 14.56C3.38038 14.56 0.320312 11.5 0.320312 7.73999C0.320312 3.97999 3.38038 0.919983 7.14038 0.919983C10.9004 0.919983 13.9603 3.97999 13.9603 7.73999C13.9603 11.5 10.9004 14.56 7.14038 14.56ZM7.14038 1.41998C3.66038 1.41998 0.830322 4.24998 0.830322 7.72998C0.830322 11.21 3.66038 14.04 7.14038 14.04C10.6204 14.04 13.4503 11.21 13.4503 7.72998C13.4503 4.24998 10.6204 1.41998 7.14038 1.41998ZM7.19043 8.58002L7.11035 9.73999C7.10035 9.86999 7.03043 9.92999 6.94043 9.92999H6.92041C6.84041 9.92999 6.76037 9.86999 6.75037 9.73999L6.64038 8.39001C6.63038 8.25001 6.72037 8.14001 6.88037 8.13C8.05037 8.06 8.85034 7.48003 8.85034 6.47003V6.45001C8.85034 5.59001 8.18036 4.87 7.12036 4.87C6.33036 4.87 5.72033 5.24001 5.21033 5.82001C5.16033 5.88001 5.08037 5.91998 5.00037 5.91998C4.86037 5.91998 4.76038 5.83 4.76038 5.69C4.76038 5.63 4.78031 5.57001 4.82031 5.51001C5.37031 4.85001 6.08038 4.38 7.14038 4.38C8.52038 4.38 9.4104 5.29998 9.4104 6.41998V6.44C9.4104 7.73 8.41032 8.42001 7.20032 8.57001L7.19043 8.58002ZM6.93042 10.87C7.13042 10.87 7.27039 11.02 7.27039 11.21V11.49C7.27039 11.69 7.12042 11.83 6.93042 11.83C6.74042 11.83 6.59033 11.68 6.59033 11.49V11.21C6.59033 11.01 6.74042 10.87 6.93042 10.87Z"
                            fill="#075896" />
</svg>