<svg width="22" height="15" viewBox="0 0 22 15" fill="none" xmlns="http://www.w3.org/2000/svg" id="CBHidePassword">
										<path
											d="M3.39924 10.6801C2.33924 9.75009 1.44929 8.73011 0.699288 7.58011C0.659288 7.52011 0.669298 7.39011 0.709298 7.33011C2.7193 4.34011 5.31927 2.1901 8.92927 1.4401C10.1493 1.1901 11.3892 1.17016 12.6492 1.38016C12.5992 1.44016 12.5692 1.50007 12.5292 1.54007C11.9692 2.10007 11.4193 2.66011 10.8593 3.20011C10.7693 3.28011 10.6392 3.35014 10.5192 3.36014C8.64923 3.57014 7.12924 5.09012 6.89924 6.96012C6.88924 7.07012 6.85925 7.20005 6.78925 7.27005C5.66925 8.40005 4.53924 9.53009 3.39924 10.6801Z"
											fill="#A6C4D8" />
										<path
											d="M18.3915 1.55142L16.9631 0.123047L3.71904 13.3671L5.14741 14.7955L18.3915 1.55142Z"
											fill="#2F6996" />
										<path
											d="M10.1293 9.81006C10.3893 9.90006 10.6794 9.95008 10.9694 9.96008C12.3594 9.96008 13.4694 8.88012 13.4694 7.50012C13.4694 7.19012 13.4193 6.89012 13.3193 6.62012L10.1193 9.82007L10.1293 9.81006Z"
											fill="#2F6996" />
										<path
											d="M21.2493 7.29004C20.3593 5.92004 19.2894 4.70009 17.9794 3.72009C17.6094 3.44009 17.2294 3.18007 16.8494 2.95007L14.5093 5.29004C14.9093 5.93004 15.1293 6.6801 15.1293 7.4801C15.1293 9.7601 13.2494 11.6201 10.9694 11.6101C10.1794 11.6101 9.43933 11.3801 8.80933 10.9901L6.89929 12.9C8.15929 13.41 9.51936 13.6801 10.9694 13.7001C12.0394 13.7001 13.0993 13.5501 14.1193 13.2301C17.2193 12.2601 19.5093 10.2501 21.2693 7.59009C21.3093 7.53009 21.2893 7.37005 21.2393 7.30005L21.2493 7.29004Z"
											fill="#A6C4D8" />
</svg>