<svg width="14" height="14" viewBox="0 0 14 14" fill="none" xmlns="http://www.w3.org/2000/svg" id="CBHideCardNumber">
                                    <path d="M7 9.50977C5.35 9.50977 4 8.15977 4 6.50977C4 4.85977 5.35 3.50977 7 3.50977C8.65 3.50977 10 4.85977 10 6.50977C10 8.15977 8.65 9.50977 7 9.50977ZM7 4.50977C5.9 4.50977 5 5.40977 5 6.50977C5 7.60977 5.9 8.50977 7 8.50977C8.1 8.50977 9 7.60977 9 6.50977C9 5.40977 8.1 4.50977 7 4.50977Z" fill="white"/>
                                    <path d="M6.99998 11.5098C3.80998 11.5098 1.00998 9.56977 0.0299757 6.66977C-0.00999191 6.56684 -0.00999191 6.45269 0.0299757 6.34977C1.00998 3.45977 3.81998 1.50977 6.99998 1.50977C10.18 1.50977 12.99 3.44977 13.97 6.34977C14.01 6.44977 14.01 6.56977 13.97 6.66977C12.99 9.55977 10.18 11.5098 6.99998 11.5098ZM1.02998 6.50977C1.91998 8.90977 4.29998 10.5098 6.99998 10.5098C9.69998 10.5098 12.07 8.90977 12.97 6.50977C12.08 4.10977 9.69998 2.50977 6.99998 2.50977C4.29998 2.50977 1.92998 4.10977 1.02998 6.50977Z" fill="white"/>
</svg>