<svg width="34" height="33" viewBox="0 0 34 33" fill="none" xmlns="http://www.w3.org/2000/svg" id="CBIInvest">
                    <path fill-rule="evenodd" clip-rule="evenodd" d="M17.2302 0.235474C26.2402 0.235474 33.5502 7.54547 33.5502 16.5555C33.5502 25.5655 26.2402 32.8755 17.2302 32.8755C8.22016 32.8755 0.910156 25.5655 0.910156 16.5555C0.910156 7.53547 8.21016 0.235474 17.2302 0.235474Z" fill="#E3EFF8"/>
                    <g clip-path="url(#clip0_0_1)">
                    <path d="M16.2433 12.2286C16.1648 12.0054 16.019 11.8122 15.8259 11.6754C15.6329 11.5387 15.4022 11.4652 15.1656 11.4652H14.2799C14.0287 11.4659 13.7865 11.5592 13.5998 11.7274C13.4131 11.8955 13.295 12.1267 13.2681 12.3765C13.2412 12.6263 13.3074 12.8773 13.454 13.0813C13.6007 13.2854 13.8174 13.4281 14.0628 13.4823L15.4091 13.7772C15.6845 13.8373 15.9281 13.9971 16.0928 14.2259C16.2576 14.4547 16.3319 14.7364 16.3016 15.0167C16.2712 15.297 16.1383 15.5562 15.9284 15.7445C15.7185 15.9328 15.4464 16.0368 15.1645 16.0366H14.4022C14.1659 16.0367 13.9354 15.9635 13.7424 15.8272C13.5494 15.6909 13.4034 15.4982 13.3245 15.2754M14.7851 11.4652V10.3223M14.7851 17.1794V16.0366M16.9645 23.4274V17.4274C16.9645 17.0486 17.115 16.6852 17.3829 16.4173C17.6508 16.1494 18.0142 15.9989 18.3931 15.9989C18.7719 15.9989 19.1353 16.1494 19.4032 16.4173C19.6711 16.6852 19.8216 17.0486 19.8216 17.4274V20.5703H22.1073C22.7136 20.5703 23.2949 20.8111 23.7236 21.2398C24.1522 21.6684 24.3931 22.2498 24.3931 22.856V23.4274" stroke="#006394" stroke-linecap="round" stroke-linejoin="round"/>
                    <path d="M14.7862 18.9303C13.7318 18.9301 12.7025 18.6081 11.8361 18.0072C10.9696 17.4064 10.3072 16.5553 9.93746 15.5678C9.56771 14.5804 9.50822 13.5036 9.76696 12.4814C10.0257 11.4592 10.5903 10.5403 11.3853 9.84768C12.1803 9.15503 13.1679 8.72159 14.2159 8.60531C15.2638 8.48902 16.3224 8.69544 17.2499 9.19696C18.1774 9.69847 18.9297 10.4712 19.4062 11.4118C19.8828 12.3524 20.0608 13.4161 19.9165 14.4606" stroke="#006394" stroke-linecap="round"/>
                    </g>
                    <defs>
                    <clipPath id="clip0_0_1">
                    <rect width="16" height="16" fill="white" transform="translate(9 8)"/>
                    </clipPath>
                    </defs>
                </svg> 