<svg slot="inbox" width="24" height="17" viewBox="0 0 24 17" fill="none"
								xmlns="http://www.w3.org/2000/svg" id="CBInbox">
								<path
									d="M8.43999 16.5776C6.39999 16.5776 4.36998 16.5776 2.32998 16.5776C1.34998 16.5776 0.529978 15.9723 0.269978 15.0495C0.219978 14.861 0.189991 14.6626 0.189991 14.4641C0.179991 11.805 0.189991 9.14582 0.189991 6.48666C0.189991 5.30592 1.13 4.37323 2.32 4.37323C4.2 4.37323 6.07 4.37323 7.95 4.37323C10.15 4.37323 12.34 4.37323 14.54 4.37323C15.65 4.37323 16.51 5.10748 16.69 6.189C16.71 6.29814 16.71 6.39736 16.71 6.50651C16.71 9.14582 16.71 11.7951 16.71 14.4344C16.71 15.6449 15.78 16.5676 14.56 16.5676C12.51 16.5875 10.47 16.5776 8.43999 16.5776ZM1.04 6.40728C1.04 6.47674 1.02999 6.50651 1.02999 6.53627C1.02999 9.17559 1.02999 11.8248 1.02999 14.4641C1.02999 15.1885 1.59 15.7342 2.32 15.7342C6.4 15.7342 10.48 15.7342 14.56 15.7342C15.29 15.7342 15.85 15.1785 15.85 14.4641C15.85 11.8248 15.85 9.18551 15.85 6.5462C15.85 6.50651 15.84 6.46682 15.84 6.40728C15.78 6.4569 15.75 6.48666 15.71 6.51643C13.8 8.20321 11.9 9.88998 9.98998 11.5867C9.10998 12.3606 7.76998 12.3705 6.89998 11.5966C5.35998 10.2373 3.83 8.868 2.29 7.50866C1.88 7.15146 1.47 6.79425 1.04 6.40728ZM1.46999 5.53413C1.52999 5.58374 1.57999 5.63335 1.62999 5.68296C3.57999 7.40943 5.53998 9.14582 7.48998 10.8723C8.04998 11.3684 8.83998 11.3684 9.39998 10.8723C11.28 9.20536 13.16 7.53842 15.04 5.87148C15.17 5.76234 15.29 5.65319 15.42 5.53413C15.15 5.30592 14.86 5.21662 14.53 5.21662C12.33 5.21662 10.14 5.21662 7.93999 5.21662C6.07999 5.21662 4.21997 5.21662 2.35997 5.21662C2.02997 5.21662 1.73999 5.30592 1.46999 5.53413Z"
									fill="#787878" />
							</svg>