 <svg width="33" height="33" viewBox="0 0 33 33" fill="none" xmlns="http://www.w3.org/2000/svg" id="CBIPortfolio">
                    <path fill-rule="evenodd" clip-rule="evenodd" d="M16.32 0C25.33 0 32.64 7.30999 32.64 16.32C32.64 25.33 25.33 32.64 16.32 32.64C7.31 32.64 0 25.33 0 16.32C0 7.29999 7.3 0 16.32 0Z" fill="#E3EFF8"/>
                    <path d="M12.8 12.5H10.546C10.287 12.5 10.028 12.724 10.063 13.088L11.155 20.081C11.155 20.081 12.45 14.929 12.702 13.69C12.779 13.319 13.129 13.2 13.388 13.2H17C17 13.2 16.51 11.744 16.461 11.583C16.377 11.275 16.223 11.1 15.915 11.1H13.598C13.346 11.1 13.108 11.261 13.038 11.548C12.975 11.828 12.8 12.5 12.8 12.5ZM16.216 12.5H13.416C13.416 12.5 13.71 11.8 14.025 11.8H15.516C15.852 11.8 16.216 12.5 16.216 12.5ZM11.869 20.375C11.652 20.704 11.337 20.9 10.987 20.9H21.998C22.376 20.9 22.642 20.683 22.719 20.319C23.027 18.786 23.895 14.411 23.895 14.411C23.944 14.061 23.685 13.9 23.461 13.9H21.2V12.871C21.2 12.759 21.018 12.5 20.738 12.5H18.106C17.742 12.5 17.497 12.906 17.497 12.906L17 13.9H13.913C13.689 13.9 13.472 14.033 13.43 14.25C13.43 14.25 12.317 18.94 12.226 19.381C12.177 19.64 12.072 20.074 11.869 20.375ZM20.766 13.9H17.7C17.7 13.9 18.106 13.2 18.491 13.2H20.094C20.591 13.2 20.766 13.9 20.766 13.9Z" fill="#006394"/>
                </svg> 