<svg width="33" height="33" viewBox="0 0 33 33" fill="none" xmlns="http://www.w3.org/2000/svg" id="CBIssueChequeBook">
                                <path fill-rule="evenodd" clip-rule="evenodd" d="M16.32 0C25.33 0 32.64 7.31001 32.64 16.32C32.64 25.33 25.33 32.64 16.32 32.64C7.31001 32.64 0 25.33 0 16.32C0.01 7.31001 7.31001 0 16.32 0Z" fill="#E3EFF8"/>
                                <path d="M23.3636 20.5357H23.6136V20.2857V12.5714V12.3214H23.3636H8.63636H8.38636V12.5714V20.2857V20.5357H8.63636H23.3636ZM21.4773 17.9643V18.3214H10.5227V17.9643H21.4773ZM7.25 10.25H24.75V21.75H7.25V10.25ZM10.5227 14.5357H15.75V15.75H10.5227V14.5357Z" stroke="#006394" stroke-width="0.5"/>
                            </svg>