<svg width="34" height="33" viewBox="0 0 34 33" fill="none" xmlns="http://www.w3.org/2000/svg" id="CBITrade">
                    <path fill-rule="evenodd" clip-rule="evenodd" d="M17.2302 0.0854492C26.2402 0.0854492 33.5502 7.39546 33.5502 16.4055C33.5502 25.4155 26.2402 32.7254 17.2302 32.7254C8.22016 32.7254 0.910156 25.4155 0.910156 16.4055C0.910156 7.39546 8.21016 0.0854492 17.2302 0.0854492Z" fill="#E3EFF8"/>
                    <path d="M8.52271 23.9067H25.4792V17.9035M9.40729 22.2737L16.2777 15.4042L18.6189 17.7453L25.4792 10.885V15.9523M20.3729 10.8846H25.4792" stroke="#006394" stroke-linecap="round" stroke-linejoin="round"/>
                    <path d="M13.539 10.6843H9.52038C8.9683 10.6843 8.52075 11.1318 8.52075 11.6839V14.8904C8.52075 15.4425 8.9683 15.89 9.52038 15.89H13.539C14.0911 15.89 14.5387 15.4425 14.5387 14.8904V11.6839C14.5387 11.1318 14.0911 10.6843 13.539 10.6843Z" stroke="#006394" stroke-linecap="round" stroke-linejoin="round"/>
                    <path d="M9.92417 12.4195H14.5382M8.52075 14.1547H13.1348" stroke="#006394" stroke-linecap="round" stroke-linejoin="round"/>
                    <path d="M11.5257 9.77996C11.9915 9.77996 12.369 9.40239 12.369 8.93663C12.369 8.47087 11.9915 8.09329 11.5257 8.09329C11.0599 8.09329 10.6824 8.47087 10.6824 8.93663C10.6824 9.40239 11.0599 9.77996 11.5257 9.77996Z" stroke="#006394" stroke-linecap="round" stroke-linejoin="round"/>
                </svg>  