<svg width="18" height="18" viewBox="0 0 18 18" fill="none" xmlns="http://www.w3.org/2000/svg" id="CBLogOut">
                    <path d="M12.26 1.48044C11.7524 1.55493 11.2315 1.50527 10.724 1.50527C8.22626 1.50527 5.72853 1.50527 3.21747 1.50527C1.92187 1.50527 1.46775 1.91496 1.46775 3.10676C1.46775 6.9553 1.46775 10.8163 1.46775 14.6648C1.46775 15.7697 1.94859 16.2166 3.13733 16.2166C5.9556 16.229 8.76051 16.2166 11.5788 16.2166C11.7524 16.2166 11.9394 16.2042 12.113 16.2166C12.7408 16.2663 13.0881 16.5766 13.048 17.0608C13.0079 17.6071 12.6206 17.7809 12.073 17.7809C10.2164 17.7685 8.37315 17.7809 6.51657 17.7809C5.35454 17.7809 4.19253 17.7933 3.0305 17.7809C1.28077 17.7685 0.0252293 16.6263 0.0118726 14.9876C-0.0148408 12.9267 0.0118726 10.8659 0.0118726 8.80508C0.0118726 6.8684 0.0118726 4.93172 0.0118726 2.99503C0.0118726 1.10801 1.18728 0.0031047 3.20414 0.0031047C6.12926 0.0031047 9.05438 -0.00931202 11.9795 0.0155173C12.2867 0.0155173 12.6607 0.114838 12.861 0.301058C13.0213 0.437619 13.0614 0.847297 12.9545 1.03352C12.861 1.24457 12.5271 1.4432 12.26 1.48044ZM17.5893 9.56238C16.2403 10.8287 14.8779 12.095 13.5155 13.3613C13.0747 13.7709 12.5538 13.8082 12.2332 13.4482C11.8592 13.0385 11.9661 12.6412 12.3535 12.2936C13.2617 11.4742 14.17 10.6549 15.0916 9.8355C15.0515 9.77343 15.0114 9.69893 14.958 9.63686C13.3285 9.63686 11.7123 9.63686 10.0828 9.63686C9.18793 9.63686 8.29303 9.61203 7.41149 9.64928C6.79708 9.66169 6.57001 9.38857 6.57001 8.85474C6.57001 8.33333 6.83714 8.13469 7.39812 8.13469C9.92253 8.14711 12.4469 8.14711 15.0782 8.14711C14.9313 7.96089 14.8512 7.83674 14.731 7.72501C13.9429 6.99254 13.1549 6.26008 12.3668 5.5152C11.9127 5.08069 11.8726 4.64618 12.2332 4.31099C12.6072 3.96338 13.0347 4.00062 13.5155 4.43513C14.8779 5.70142 16.2403 6.9553 17.5893 8.23401C18.1369 8.7306 18.1369 9.05338 17.5893 9.56238Z" fill="#787878"/>
</svg>