<svg width="33" height="33" viewBox="0 0 33 33" fill="none" xmlns="http://www.w3.org/2000/svg" id="CBLoans">
                                <g clip-path="url(#clip0_1888_7064)">
                                <path fill-rule="evenodd" clip-rule="evenodd" d="M16.32 0C25.33 0 32.64 7.31 32.64 16.32C32.64 25.33 25.33 32.64 16.32 32.64C7.31 32.64 0 25.33 0 16.32C0 7.31 7.31 0 16.32 0Z" fill="#E3EFF8"/>
                                <path d="M9.45988 13.0601H4.62988V22.8601H9.45988V13.0601Z" stroke="#075896" stroke-width="0.67" stroke-miterlimit="10"/>
                                <path d="M8.62027 20.55H7.78027V21.39H8.62027V20.55Z" fill="#075896" stroke="#075896" stroke-width="0.13" stroke-miterlimit="10"/>
                                <path d="M18.35 24.09C17.99 24.09 17.63 24.03 17.29 23.9L11.02 21.39H9.45996V20.55H11.18L17.59 23.12C17.9 23.24 18.24 23.28 18.58 23.24C18.92 23.2 19.24 23.09 19.53 22.91L27.42 17.74C27.56 17.64 27.65 17.48 27.68 17.31C27.71 17.13 27.66 16.96 27.55 16.82V16.8C27.44 16.67 27.29 16.58 27.13 16.55C26.97 16.52 26.8 16.55 26.66 16.64L22.46 19.26L22.02 18.55L26.22 15.93C26.54 15.73 26.91 15.66 27.28 15.73C27.65 15.8 27.97 16 28.2 16.3V16.32C28.46 16.64 28.56 17.04 28.5 17.44C28.44 17.84 28.23 18.19 27.9 18.43H27.88L19.98 23.62C19.57 23.88 19.13 24.03 18.66 24.08C18.55 24.09 18.45 24.1 18.34 24.1L18.35 24.09Z" fill="#075896"/>
                                <path d="M15.4 20.22H14.56C14.56 19.41 15.22 18.75 16.03 18.75H21.55C21.9 18.75 22.18 18.47 22.18 18.12C22.18 17.77 21.9 17.49 21.55 17.49H15.91L13.88 16.19C13.47 15.93 13.03 15.73 12.56 15.59C12.1 15.45 11.61 15.38 11.13 15.38H9.45996V14.54H11.13C11.69 14.54 12.26 14.62 12.8 14.78C13.34 14.94 13.86 15.17 14.33 15.48L16.15 16.65H21.55C22.36 16.65 23.02 17.31 23.02 18.12C23.02 18.93 22.36 19.59 21.55 19.59H16.03C15.68 19.59 15.4 19.87 15.4 20.22Z" fill="#075896"/>
                                <path d="M19.62 14.87C21.3652 14.87 22.78 13.4553 22.78 11.71C22.78 9.96483 21.3652 8.55005 19.62 8.55005C17.8747 8.55005 16.46 9.96483 16.46 11.71C16.46 13.4553 17.8747 14.87 19.62 14.87Z" stroke="#075896" stroke-width="0.67" stroke-miterlimit="10"/>
                                <path d="M19.83 13.2901H19.41C19.16 13.2901 18.92 13.1901 18.74 13.0101C18.56 12.8301 18.46 12.5901 18.46 12.3401H19.11C19.11 12.4201 19.14 12.5001 19.2 12.5601C19.26 12.6201 19.33 12.6501 19.42 12.6501H19.84C19.92 12.6501 20 12.6201 20.06 12.5601C20.12 12.5001 20.15 12.4301 20.15 12.3401C20.15 12.2501 20.12 12.1801 20.06 12.1201C20 12.0601 19.93 12.0301 19.84 12.0301H19.42C19.17 12.0301 18.93 11.9301 18.75 11.7501C18.57 11.5701 18.47 11.3301 18.47 11.0801C18.47 10.8301 18.57 10.5901 18.75 10.4101C18.93 10.2301 19.17 10.1301 19.42 10.1301H19.84C20.09 10.1301 20.33 10.2301 20.51 10.4101C20.69 10.5901 20.79 10.8301 20.79 11.0801H20.14C20.14 11.0001 20.11 10.9201 20.05 10.8601C19.99 10.8001 19.92 10.7701 19.83 10.7701H19.41C19.33 10.7701 19.25 10.8001 19.19 10.8601C19.13 10.9201 19.1 10.9901 19.1 11.0801C19.1 11.1701 19.13 11.2401 19.19 11.3001C19.25 11.3601 19.32 11.3901 19.41 11.3901H19.83C20.08 11.3901 20.32 11.4901 20.5 11.6701C20.68 11.8501 20.78 12.0901 20.78 12.3401C20.78 12.5901 20.68 12.8301 20.5 13.0101C20.32 13.1901 20.08 13.2901 19.83 13.2901Z" fill="#075896"/>
                                <path d="M19.94 9.82007H19.29V10.4501H19.94V9.82007Z" fill="#075896"/>
                                <path d="M19.94 12.97H19.29V13.6H19.94V12.97Z" fill="#075896"/>
                                </g>
                                <defs>
                                <clipPath id="clip0_1888_7064">
                                <rect width="32.64" height="32.64" fill="white"/>
                                </clipPath>
                                </defs>
                            </svg>