<svg class="clarien-logo" width="39" height="46" viewBox="0 0 39 46" fill="none"
							xmlns="http://www.w3.org/2000/svg" id="CBLoginFormCompanyLogo">
							<path
								d="M38.17 26.7699C32.86 27.6599 18.98 30.88 0.52002 41.84C11.04 31.53 20.48 24.4199 26.99 20.0299C31.23 17.1799 34.71 15.1499 37.16 13.8099C38.19 18.1799 38.4 22.63 38.17 26.76V26.7699ZM34.26 45.46C26.31 38.68 16.3001 38.6199 8.70007 40.0399C16.3501 36.0399 22.8401 33.51 27.5801 31.96C32.1801 30.46 35.74 29.66 38 29.24C37.09 38.41 34.27 45.46 34.27 45.46H34.26ZM25.7101 18.0199C21.6001 20.7899 16.34 24.62 10.39 29.63C12.82 26.19 19.6001 16.9999 30.6001 0.689941C33.4501 3.96994 35.33 7.64995 36.52 11.45C34.02 12.79 30.3301 14.9199 25.7201 18.0199H25.7101Z"
								fill="#F5801F" />
						</svg>