<svg class="clarien" width="128" height="18" viewBox="0 0 128 18" fill="none" xmlns="http://www.w3.org/2000/svg" id="CBLoginFormCompanyName">
							<path
								d="M15.5701 17.0101C15.1001 17.0101 14.28 17.2301 13.05 17.4501C11.48 17.7301 10.29 17.77 9.54004 17.77C7.67004 17.77 6.04 17.4101 4.63 16.6801C3.22001 15.9501 2.12009 14.91 1.34009 13.54C0.560088 12.18 0.160034 10.6701 0.160034 9.01013C0.160034 7.35013 0.580034 5.8601 1.41003 4.4801C2.24003 3.0901 3.38009 2.02012 4.84009 1.25012C6.30009 0.480122 7.94001 0.0900879 9.76001 0.0900879C10.53 0.0900879 11.5601 0.170078 12.8601 0.330078C13.8701 0.460078 14.6001 0.530029 15.0601 0.530029C15.1701 1.67003 15.35 3.05004 15.62 4.67004C15.62 4.80004 15.4901 4.86011 15.2301 4.86011C15.0701 4.86011 14.9701 4.79004 14.9401 4.67004C14.6501 3.57004 14.01 2.66006 13.04 1.94006C12.07 1.23006 10.9401 0.870117 9.68005 0.870117C7.76005 0.870117 6.14009 1.6501 4.84009 3.2301C3.54009 4.8001 2.88 6.73013 2.88 9.01013C2.88 11.2901 3.53007 13.11 4.82007 14.67C6.11007 16.22 7.69006 17.0001 9.56006 17.0001C12.4801 17.0001 14.55 15.6301 15.77 12.8801C15.83 12.7501 15.9401 12.6901 16.1001 12.6901C16.3301 12.6901 16.4401 12.7501 16.4401 12.8801C16.1501 14.1801 15.8601 15.56 15.5801 17.02L15.5701 17.0101ZM33.0601 17.3701C29.9201 17.2801 27.69 17.2201 26.37 17.2201C25.05 17.2201 22.86 17.2701 19.76 17.3701C19.63 17.3701 19.5601 17.26 19.5601 17.03C19.5601 16.83 19.63 16.7201 19.76 16.7001C20.75 16.5901 21.42 16.4 21.78 16.15C22.14 15.9 22.3101 15.39 22.3101 14.64V3.18005C22.3101 2.61005 22.2401 2.2101 22.1001 1.9801C21.9501 1.7501 21.7001 1.56005 21.3501 1.43005C20.9901 1.30005 20.46 1.19011 19.77 1.11011C19.64 1.11011 19.5701 1.00002 19.5701 0.77002C19.5701 0.54002 19.64 0.440063 19.77 0.440063C20.32 0.440063 20.9701 0.460132 21.7301 0.510132C22.4601 0.560132 23.0701 0.580078 23.5701 0.580078C24.0701 0.580078 24.68 0.560132 25.4 0.510132C26.15 0.460132 26.8001 0.440063 27.3501 0.440063C27.4801 0.440063 27.54 0.55002 27.54 0.77002C27.54 0.99002 27.4801 1.11011 27.3501 1.11011C26.6601 1.19011 26.14 1.30005 25.78 1.43005C25.42 1.56005 25.17 1.74009 25.03 1.97009C24.89 2.20009 24.8201 2.60005 24.8201 3.18005V15.0101C24.8201 15.9701 25.29 16.4501 26.24 16.4501H28.67C29.68 16.4501 30.5301 16.18 31.2201 15.65C31.9201 15.12 32.61 14.13 33.29 12.67C33.32 12.61 33.4 12.5701 33.52 12.5701C33.63 12.5701 33.7301 12.6 33.8201 12.67C33.9201 12.73 33.9601 12.81 33.9601 12.89C33.5801 14.32 33.2701 15.8101 33.05 17.3701H33.0601ZM53.37 17.3801C52.8 17.3801 52.1701 17.3501 51.4501 17.3101C50.8401 17.2601 50.31 17.2401 49.88 17.2401C49.38 17.2401 48.76 17.2601 48.02 17.3101C47.24 17.3601 46.58 17.3801 46.03 17.3801C45.9 17.3801 45.8301 17.27 45.8301 17.04C45.8301 16.81 45.8801 16.7101 45.9801 16.7101C46.7101 16.6801 47.23 16.58 47.55 16.42C47.87 16.26 48.03 16.0101 48.03 15.6801C48.03 15.4701 47.95 15.13 47.79 14.66L46.39 10.5801H41.3501L39.9501 14.3601C39.7701 14.8601 39.6801 15.26 39.6801 15.53C39.6801 16.25 40.34 16.6401 41.67 16.7001C41.77 16.7001 41.8201 16.81 41.8201 17.03C41.8201 17.25 41.76 17.3701 41.63 17.3701C41.14 17.3701 40.6 17.34 40 17.3C39.43 17.25 38.93 17.2301 38.49 17.2301C38.14 17.2301 37.7 17.25 37.17 17.3C36.61 17.35 36.14 17.3701 35.74 17.3701C35.62 17.3701 35.5601 17.2701 35.5601 17.0701C35.5601 16.8401 35.6501 16.7201 35.8401 16.7001C36.5201 16.6401 37.0601 16.45 37.4601 16.14C37.8601 15.83 38.2701 15.2001 38.6901 14.2501L44.4401 0.260132C44.4901 0.130132 44.6 0.0700684 44.78 0.0700684C44.98 0.0700684 45.1 0.130122 45.15 0.250122L50.2201 14.2501C50.5001 15.0401 50.89 15.6201 51.38 15.9901C51.87 16.3701 52.5201 16.6001 53.3401 16.7001C53.5001 16.7201 53.5901 16.83 53.5901 17.03C53.5901 17.26 53.53 17.3701 53.39 17.3701L53.37 17.3801ZM43.9701 3.6001L41.65 9.81006H46.13L43.9701 3.6001ZM73.17 17.3801C72.87 17.3801 72.3701 17.35 71.6901 17.29C71.1901 17.25 70.8601 17.2301 70.6901 17.2301C70.4601 17.2301 70.0801 17.26 69.5701 17.3C69.0601 17.35 68.6901 17.3701 68.4501 17.3701L64.7301 11.3601C64.2101 10.5301 63.7801 10.0001 63.4601 9.76013C63.1401 9.52013 62.49 9.40002 61.51 9.40002V14.64C61.51 15.2 61.5801 15.6001 61.7301 15.8201C61.8801 16.0501 62.13 16.2401 62.49 16.3701C62.85 16.5001 63.3801 16.6101 64.0601 16.6901C64.2001 16.7101 64.27 16.82 64.27 17.02C64.27 17.25 64.2101 17.3601 64.0701 17.3601C63.5201 17.3601 62.8701 17.33 62.1101 17.29C61.3801 17.24 60.77 17.2201 60.27 17.2201C59.77 17.2201 59.1601 17.25 58.4401 17.29C57.6901 17.34 57.03 17.3601 56.49 17.3601C56.36 17.3601 56.3 17.25 56.3 17.02C56.3 16.82 56.36 16.7101 56.49 16.6901C57.17 16.6101 57.69 16.5001 58.05 16.3701C58.41 16.2301 58.66 16.0601 58.8 15.8301C58.9501 15.6001 59.02 15.21 59.02 14.64V3.18005C59.02 2.62005 58.9501 2.22011 58.8101 1.99011C58.6801 1.76011 58.4301 1.57005 58.0701 1.43005C57.7101 1.29005 57.18 1.1801 56.49 1.1001C56.36 1.1001 56.3 0.990132 56.3 0.760132C56.3 0.530132 56.36 0.430054 56.49 0.430054C57.04 0.430054 57.6901 0.450122 58.4401 0.500122C59.1601 0.550122 59.77 0.570068 60.27 0.570068C60.77 0.570068 61.3801 0.550122 62.1101 0.500122C62.8701 0.450122 63.5301 0.430054 64.0701 0.430054C65.9001 0.430054 67.3101 0.810059 68.3101 1.56006C69.3101 2.32006 69.8101 3.38012 69.8101 4.75012C69.8101 5.61012 69.4801 6.42003 68.8101 7.16003C68.1501 7.90003 67.26 8.47012 66.14 8.87012L69.92 14.9701C70.25 15.5001 70.6701 15.9 71.1901 16.15C71.7101 16.41 72.3801 16.5801 73.2001 16.6801C73.3101 16.7001 73.37 16.8101 73.37 17.0101C73.37 17.2401 73.31 17.3501 73.17 17.3501V17.3801ZM66.1901 7.80005C66.8001 7.18005 67.1001 6.19008 67.1001 4.83008C67.1001 2.45008 66.0601 1.26013 63.9701 1.26013C63.2801 1.26013 62.76 1.32005 62.4 1.43005C62.04 1.54005 61.8101 1.71007 61.6901 1.95007C61.5701 2.19007 61.51 2.60006 61.51 3.19006V8.63013C61.99 8.69013 62.5801 8.7301 63.3101 8.7301C64.6301 8.7301 65.5901 8.42006 66.1901 7.81006V7.80005ZM84.2301 1.11011C83.5401 1.19011 83.02 1.30005 82.66 1.43005C82.3 1.56005 82.05 1.74009 81.91 1.97009C81.77 2.20009 81.7001 2.60005 81.7001 3.18005V14.64C81.7001 15.2 81.77 15.6001 81.91 15.8301C82.05 16.0601 82.3 16.2401 82.65 16.3801C83.01 16.5101 83.5301 16.6201 84.2201 16.7001C84.3601 16.7201 84.4301 16.82 84.4301 17.03C84.4301 17.26 84.37 17.3701 84.24 17.3701C83.69 17.3701 83.04 17.35 82.29 17.3C81.57 17.25 80.9601 17.2301 80.4601 17.2301C79.9601 17.2301 79.35 17.26 78.63 17.3C77.87 17.35 77.21 17.3701 76.65 17.3701C76.52 17.3701 76.4501 17.26 76.4501 17.03C76.4501 16.83 76.52 16.7201 76.65 16.7001C77.64 16.5901 78.31 16.4 78.67 16.15C79.02 15.9 79.2001 15.39 79.2001 14.64V3.18005C79.2001 2.61005 79.1301 2.2101 78.9801 1.9801C78.8401 1.7501 78.5901 1.57005 78.2301 1.43005C77.8701 1.29005 77.34 1.19011 76.64 1.11011C76.51 1.11011 76.4401 1.00002 76.4401 0.77002C76.4401 0.54002 76.51 0.440063 76.64 0.440063C77.2 0.440063 77.85 0.460132 78.62 0.510132C79.34 0.560132 79.9501 0.590088 80.4501 0.590088C80.9501 0.590088 81.56 0.560132 82.28 0.510132C83.03 0.460132 83.6801 0.440063 84.2301 0.440063C84.3601 0.440063 84.42 0.55002 84.42 0.77002C84.42 0.99002 84.3601 1.11011 84.2301 1.11011ZM102.14 17.3801C99.06 17.2801 96.86 17.2301 95.55 17.2301C94.2401 17.2301 92.0601 17.2801 88.9701 17.3801C88.8401 17.3801 88.77 17.27 88.77 17.04C88.77 16.84 88.8401 16.7301 88.9701 16.7101C89.6501 16.6301 90.17 16.52 90.53 16.39C90.89 16.26 91.14 16.0801 91.29 15.8501C91.44 15.6201 91.51 15.23 91.51 14.66V3.20007C91.51 2.64007 91.4401 2.24013 91.3101 2.01013C91.1801 1.78013 90.9301 1.59007 90.5701 1.45007C90.2101 1.31007 89.68 1.20012 88.99 1.12012C88.86 1.12012 88.79 1.01003 88.79 0.780029C88.79 0.550029 88.86 0.450073 88.99 0.450073C91.05 0.550073 93.1701 0.590088 95.3301 0.590088C97.4901 0.590088 99.6301 0.540073 101.68 0.450073C101.87 1.71007 102.14 2.95004 102.5 4.17004C102.5 4.33004 102.35 4.41003 102.07 4.41003C101.93 4.41003 101.84 4.35011 101.81 4.24011C101.21 2.32011 99.9101 1.37012 97.9301 1.37012H95.4501C94.5001 1.37012 94.02 1.86008 94.02 2.83008V8.25012H97.1101C97.9401 8.25012 98.5 8.06006 98.78 7.69006C99.07 7.32006 99.28 6.66008 99.4 5.71008C99.4 5.58008 99.5101 5.51013 99.7301 5.51013C99.9501 5.51013 100.07 5.57008 100.07 5.71008C100.07 6.11008 100.05 6.63011 99.99 7.24011C99.94 7.83011 99.92 8.32006 99.92 8.69006C99.92 9.06006 99.94 9.56002 99.99 10.15C100.04 10.78 100.07 11.3001 100.07 11.7101C100.07 11.8401 99.9601 11.9 99.7301 11.9C99.5001 11.9 99.4 11.8301 99.4 11.7101C99.27 10.7201 99.06 10.0301 98.75 9.63013C98.44 9.23013 97.9001 9.03003 97.1101 9.03003H94.02V15.02C94.02 15.98 94.4901 16.4601 95.4501 16.4601H98.13C99.11 16.4601 100.07 16.1501 101.03 15.5101C101.99 14.8901 102.69 14.1 103.14 13.15C103.17 13.08 103.24 13.04 103.35 13.04C103.46 13.04 103.57 13.0701 103.66 13.1301C103.75 13.1901 103.8 13.2701 103.8 13.3501C103.13 14.7501 102.59 16.0901 102.17 17.3701L102.14 17.3801ZM127.12 1.11011C126.1 1.22011 125.4 1.41004 125.02 1.67004C124.63 1.93004 124.44 2.43004 124.42 3.17004L124.15 17.52C124.15 17.68 124.05 17.7601 123.85 17.7601C123.75 17.7601 123.62 17.7001 123.46 17.5701L110.8 3.39001L110.63 14.65C110.63 14.71 110.62 14.7701 110.62 14.8301C110.62 15.4501 110.82 15.88 111.21 16.14C111.61 16.4 112.31 16.5801 113.34 16.7101C113.47 16.7301 113.53 16.84 113.53 17.04C113.53 17.27 113.47 17.3801 113.34 17.3801C112.92 17.3801 112.33 17.3501 111.59 17.3101C110.89 17.2601 110.35 17.2301 109.98 17.2301C109.57 17.2301 109.02 17.2601 108.32 17.3101C107.65 17.3601 107.13 17.3801 106.76 17.3801C106.63 17.3801 106.57 17.27 106.57 17.04C106.57 16.84 106.64 16.7301 106.79 16.7101C107.8 16.5901 108.5 16.4 108.88 16.14C109.25 15.89 109.45 15.39 109.48 14.65L109.91 3.19006V3.08008C109.91 2.42008 109.72 1.97008 109.33 1.71008C108.95 1.45008 108.23 1.26013 107.18 1.13013C107.07 1.13013 107.01 1.02004 107.01 0.790039C107.01 0.560039 107.07 0.460083 107.21 0.460083C107.49 0.460083 107.9 0.480029 108.41 0.530029C108.87 0.580029 109.21 0.600098 109.44 0.600098C109.72 0.600098 110.07 0.580029 110.47 0.530029C110.88 0.480029 111.23 0.460083 111.53 0.460083L123.35 13.5701V3.19006C123.35 2.50006 123.15 2.0101 122.76 1.7301C122.36 1.4501 121.63 1.25013 120.56 1.13013C120.43 1.11013 120.37 1.00005 120.37 0.800049C120.37 0.570049 120.43 0.460083 120.56 0.460083C121 0.460083 121.59 0.480029 122.33 0.530029C123.01 0.580029 123.55 0.600098 123.92 0.600098C124.33 0.600098 124.88 0.580029 125.58 0.530029C126.25 0.480029 126.78 0.460083 127.14 0.460083C127.27 0.460083 127.34 0.570049 127.34 0.800049C127.34 1.00005 127.28 1.11013 127.14 1.13013L127.12 1.11011Z"
								fill="white" />
</svg>