<svg width="33" height="33" viewBox="0 0 33 33" fill="none" xmlns="http://www.w3.org/2000/svg" id="CBModifyDebitCardLimit">
<g clip-path="url(#clip0_1888_7874)">
<path fill-rule="evenodd" clip-rule="evenodd" d="M16.32 0C25.33 0 32.64 7.31 32.64 16.32C32.64 25.33 25.33 32.64 16.32 32.64C7.31 32.64 0 25.33 0 16.32C0 7.31 7.31 0 16.32 0Z" fill="#E3EFF8"/>
<path d="M15.8101 21.29H9.05008C8.10008 21.29 7.33008 20.52 7.33008 19.57V10.01C7.33008 9.06004 8.10008 8.29004 9.05008 8.29004H23.7501C24.7001 8.29004 25.4701 9.06004 25.4701 10.01V19.57C25.4701 19.67 25.4701 19.78 25.4401 19.87C25.4201 19.99 25.3001 20.07 25.1801 20.05C25.0601 20.03 24.9801 19.91 25.0001 19.79C25.0101 19.72 25.0201 19.64 25.0201 19.57V10.01C25.0201 9.31004 24.4501 8.73004 23.7401 8.73004H9.04008C8.34008 8.73004 7.76008 9.30004 7.76008 10.01V19.57C7.76008 20.27 8.33008 20.85 9.04008 20.85H15.8001C15.9201 20.85 16.0201 20.95 16.0201 21.07C16.0201 21.19 15.9201 21.29 15.8001 21.29H15.8101Z" fill="#075896"/>
<path d="M25.1303 10.95H7.56031C7.43031 10.95 7.32031 10.85 7.32031 10.73C7.32031 10.61 7.43031 10.51 7.56031 10.51H25.1303C25.2603 10.51 25.3703 10.61 25.3703 10.73C25.3703 10.85 25.2603 10.95 25.1303 10.95Z" fill="#075896"/>
<path d="M25.1303 13.3699H7.56031C7.43031 13.3699 7.32031 13.2699 7.32031 13.1499C7.32031 13.0299 7.43031 12.9299 7.56031 12.9299H25.1303C25.2603 12.9299 25.3703 13.0299 25.3703 13.1499C25.3703 13.2699 25.2603 13.3699 25.1303 13.3699Z" fill="#075896"/>
<path d="M13.9802 16.4H9.9202C9.8002 16.4 9.7002 16.3 9.7002 16.18C9.7002 16.06 9.8002 15.96 9.9202 15.96H13.9802C14.1002 15.96 14.2002 16.06 14.2002 16.18C14.2002 16.3 14.1002 16.4 13.9802 16.4Z" fill="#075896"/>
<path d="M11.9502 17.95H9.9202C9.8002 17.95 9.7002 17.85 9.7002 17.73C9.7002 17.61 9.8002 17.51 9.9202 17.51H11.9502C12.0702 17.51 12.1702 17.61 12.1702 17.73C12.1702 17.85 12.0702 17.95 11.9502 17.95Z" fill="#075896"/>
<path d="M23.3901 24.9H18.3101C17.6001 24.9 16.9601 24.53 16.6001 23.91C16.2401 23.29 16.2401 22.55 16.6001 21.93L19.1401 17.53C19.5001 16.91 20.1401 16.54 20.8501 16.54C21.5601 16.54 22.2001 16.91 22.5601 17.53L25.1001 21.93C25.4601 22.55 25.4601 23.29 25.1001 23.91C24.7401 24.53 24.1001 24.9 23.3901 24.9ZM20.8601 17C20.3101 17 19.8101 17.29 19.5301 17.77L16.9901 22.17C16.7101 22.65 16.7101 23.22 16.9901 23.7C17.2701 24.18 17.7601 24.47 18.3201 24.47H23.4001C23.9501 24.47 24.4501 24.18 24.7301 23.7C25.0101 23.22 25.0101 22.65 24.7301 22.17L22.1901 17.77C21.9101 17.29 21.4201 17 20.8601 17Z" fill="#075896"/>
<path d="M20.8596 21.85C20.7396 21.85 20.6396 21.75 20.6396 21.63V18.7C20.6396 18.58 20.7396 18.48 20.8596 18.48C20.9796 18.48 21.0796 18.58 21.0796 18.7V21.63C21.0796 21.75 20.9796 21.85 20.8596 21.85Z" fill="#075896"/>
<path d="M20.8596 23.2699C20.7396 23.2699 20.6396 23.1699 20.6396 23.0499V22.8299C20.6396 22.7099 20.7396 22.6099 20.8596 22.6099C20.9796 22.6099 21.0796 22.7099 21.0796 22.8299V23.0499C21.0796 23.1699 20.9796 23.2699 20.8596 23.2699Z" fill="#075896"/>
</g>
<defs>
<clipPath id="clip0_1888_7874">
<rect width="32.64" height="32.64" fill="white"/>
</clipPath>
</defs>
</svg>
