<svg width="64" height="64" viewBox="0 0 64 64" fill="none" xmlns="http://www.w3.org/2000/svg">
                    <g clip-path="url(#clip0_2367_7767)">
                    <path d="M31.89 63.78C49.5024 63.78 63.78 49.5024 63.78 31.89C63.78 14.2776 49.5024 0 31.89 0C14.2776 0 0 14.2776 0 31.89C0 49.5024 14.2776 63.78 31.89 63.78Z" fill="#E3EEF8"/>
                    <path d="M13.95 17.29C13.91 17.29 13.87 17.3 13.83 17.31C13.81 17.31 13.78 17.31 13.75 17.33C13.73 17.34 13.71 17.36 13.69 17.37C13.66 17.39 13.62 17.41 13.59 17.44C13.57 17.46 13.57 17.48 13.55 17.5C13.53 17.53 13.51 17.56 13.49 17.6C13.48 17.64 13.47 17.67 13.47 17.71C13.47 17.73 13.46 17.76 13.46 17.78V44.01C13.46 44.29 13.68 44.51 13.96 44.51H33.48C33.76 44.51 33.98 44.29 33.98 44.01C33.98 43.73 33.75 43.51 33.48 43.51H14.46V18.93L31.56 34.72C31.66 34.81 31.78 34.85 31.9 34.85C32.02 34.85 32.14 34.81 32.24 34.72L49.34 18.93V43.51H47.71C47.43 43.51 47.21 43.74 47.21 44.01C47.21 44.28 47.44 44.51 47.71 44.51H49.84C50.12 44.51 50.34 44.29 50.34 44.01V17.78C50.34 17.78 50.33 17.73 50.33 17.71C50.33 17.67 50.33 17.63 50.31 17.6C50.3 17.56 50.27 17.53 50.25 17.5C50.24 17.48 50.23 17.46 50.21 17.44C50.18 17.41 50.15 17.39 50.12 17.37C50.1 17.36 50.08 17.34 50.05 17.33C50.03 17.32 50 17.32 49.98 17.31C49.94 17.3 49.9 17.29 49.86 17.29H13.95ZM31.89 33.68L15.24 18.29H48.55L31.9 33.68H31.89Z" fill="#0668AD"/>
                    <path d="M49.8298 44.7096H47.6998C47.3198 44.7096 47.0098 44.3996 47.0098 44.0196C47.0098 43.6396 47.3198 43.3296 47.6998 43.3296H49.1398V19.3696L32.3598 34.8696C32.0998 35.1096 31.6798 35.1096 31.4198 34.8696L14.6398 19.3696V43.3296H33.4698C33.8498 43.3296 34.1598 43.6396 34.1598 44.0196C34.1598 44.3996 33.8498 44.7096 33.4698 44.7096H13.9498C13.5698 44.7096 13.2598 44.3996 13.2598 44.0196V17.7896C13.2598 17.7896 13.2598 17.7096 13.2698 17.6996C13.2798 17.6296 13.2898 17.5896 13.3098 17.5396C13.3298 17.4896 13.3598 17.4496 13.3798 17.4196C13.3998 17.3896 13.4098 17.3496 13.4398 17.3196C13.4398 17.3196 13.4598 17.2996 13.4698 17.2896C13.5098 17.2596 13.5398 17.2396 13.5598 17.2196C13.5598 17.2196 13.6598 17.1596 13.6698 17.1496C13.6998 17.1296 13.7398 17.1296 13.7598 17.1296C13.8298 17.1096 13.8698 17.0996 13.9298 17.0996H13.9398H49.8198C49.8198 17.0996 49.8398 17.0996 49.8498 17.0996C49.8998 17.0996 49.9398 17.1096 49.9798 17.1196C49.9798 17.1196 50.0898 17.1496 50.0998 17.1496C50.1298 17.1696 50.1598 17.1896 50.1798 17.1996C50.2398 17.2396 50.2798 17.2696 50.3198 17.2996C50.3598 17.3396 50.3698 17.3696 50.3798 17.3896C50.4098 17.4396 50.4398 17.4796 50.4598 17.5296C50.4798 17.5796 50.4898 17.6296 50.4898 17.6596C50.4898 17.6796 50.5098 17.7596 50.5098 17.7796V44.0096C50.5098 44.3896 50.1998 44.6996 49.8198 44.6996L49.8298 44.7096ZM47.6998 43.6996C47.5298 43.6996 47.3898 43.8396 47.3898 44.0096C47.3898 44.1796 47.5298 44.3196 47.6998 44.3196H49.8298C49.9998 44.3196 50.1398 44.1796 50.1398 44.0096V17.7796C50.1398 17.7796 50.1398 17.7496 50.1298 17.7296C50.1298 17.6896 50.1298 17.6696 50.1198 17.6596C50.1198 17.6496 50.0998 17.6296 50.0898 17.6196C50.0898 17.6196 50.0598 17.5696 50.0498 17.5596C50.0498 17.5596 50.0198 17.5396 50.0098 17.5296L49.9498 17.4896C49.9498 17.4896 49.9198 17.4896 49.8998 17.4796C49.7998 17.4496 49.7998 17.4596 49.7798 17.4496H13.9698C13.9698 17.4496 13.9498 17.4496 13.8998 17.4696L13.7898 17.5096C13.7898 17.5096 13.7398 17.5396 13.7298 17.5496C13.7298 17.5596 13.7098 17.5896 13.7098 17.5896C13.6898 17.6196 13.6698 17.6396 13.6698 17.6496L13.6598 17.7196C13.6598 17.7396 13.6598 17.7496 13.6498 17.7696V43.9896C13.6498 44.1596 13.7898 44.2996 13.9598 44.2996H33.4798C33.6498 44.2996 33.7898 44.1596 33.7898 43.9896C33.7898 43.8196 33.6498 43.6796 33.4798 43.6796H14.4598C14.3598 43.6796 14.2698 43.5996 14.2698 43.4896V18.9096C14.2698 18.8396 14.3098 18.7696 14.3798 18.7396C14.4498 18.7096 14.5298 18.7196 14.5798 18.7696L31.6798 34.5596C31.7998 34.6696 31.9898 34.6696 32.1098 34.5596L49.2098 18.7696C49.2698 18.7196 49.3398 18.7096 49.4098 18.7396C49.4798 18.7696 49.5198 18.8396 49.5198 18.9096V43.4896C49.5198 43.5896 49.4398 43.6796 49.3298 43.6796H47.6998V43.6996ZM31.8898 33.8696C31.8898 33.8696 31.7998 33.8496 31.7598 33.8196L15.1098 18.4296C15.0498 18.3796 15.0298 18.2896 15.0598 18.2196C15.0898 18.1496 15.1598 18.0996 15.2398 18.0996H48.5498C48.6298 18.0996 48.6998 18.1496 48.7298 18.2196C48.7598 18.2896 48.7298 18.3696 48.6798 18.4296L32.0298 33.8196C32.0298 33.8196 31.9498 33.8696 31.8998 33.8696H31.8898ZM15.7198 18.4796L31.8898 33.4196L48.0598 18.4796H15.7198Z" fill="#0668AD"/>
                    <path d="M40.5207 50.6C36.7707 50.6 33.7207 47.55 33.7207 43.8C33.7207 40.05 36.7707 37 40.5207 37C44.2707 37 47.3207 40.05 47.3207 43.8C47.3207 47.55 44.2707 50.6 40.5207 50.6ZM40.5207 37.37C36.9707 37.37 34.0907 40.26 34.0907 43.8C34.0907 47.34 36.9807 50.23 40.5207 50.23C44.0607 50.23 46.9507 47.34 46.9507 43.8C46.9507 40.26 44.0607 37.37 40.5207 37.37Z" fill="#0668AD"/>
                    <path d="M40.5203 50.7896C36.6703 50.7896 33.5303 47.6496 33.5303 43.7996C33.5303 39.9496 36.6703 36.8096 40.5203 36.8096C44.3703 36.8096 47.5103 39.9496 47.5103 43.7996C47.5103 47.6496 44.3703 50.7896 40.5203 50.7896ZM40.5203 37.5596C37.0803 37.5596 34.2803 40.3596 34.2803 43.7996C34.2803 47.2396 37.0803 50.0396 40.5203 50.0396C43.9603 50.0396 46.7603 47.2396 46.7603 43.7996C46.7603 40.3596 43.9603 37.5596 40.5203 37.5596Z" fill="#0668AD"/>
                    <path d="M40.5203 50.7896C36.6703 50.7896 33.5303 47.6496 33.5303 43.7996C33.5303 39.9496 36.6703 36.8096 40.5203 36.8096C44.3703 36.8096 47.5103 39.9496 47.5103 43.7996C47.5103 47.6496 44.3703 50.7896 40.5203 50.7896ZM40.5203 37.5596C37.0803 37.5596 34.2803 40.3596 34.2803 43.7996C34.2803 47.2396 37.0803 50.0396 40.5203 50.0396C43.9603 50.0396 46.7603 47.2396 46.7603 43.7996C46.7603 40.3596 43.9603 37.5596 40.5203 37.5596Z" fill="#0668AD"/>
                    <path d="M40.5198 50.9791C36.5598 50.9791 33.3398 47.7591 33.3398 43.7991C33.3398 39.8391 36.5598 36.6191 40.5198 36.6191C44.4798 36.6191 47.6998 39.8391 47.6998 43.7991C47.6998 47.7591 44.4798 50.9791 40.5198 50.9791ZM40.5198 36.9991C36.7698 36.9991 33.7198 40.0491 33.7198 43.7991C33.7198 47.5491 36.7698 50.5991 40.5198 50.5991C44.2698 50.5991 47.3198 47.5491 47.3198 43.7991C47.3198 40.0491 44.2698 36.9991 40.5198 36.9991ZM40.5198 50.2391C36.9698 50.2391 34.0898 47.3491 34.0898 43.8091C34.0898 40.2691 36.9798 37.3791 40.5198 37.3791C44.0598 37.3791 46.9498 40.2691 46.9498 43.8091C46.9498 47.3491 44.0598 50.2391 40.5198 50.2391ZM40.5198 37.7491C37.1798 37.7491 34.4598 40.4691 34.4598 43.8091C34.4598 47.1491 37.1798 49.8691 40.5198 49.8691C43.8598 49.8691 46.5798 47.1491 46.5798 43.8091C46.5798 40.4691 43.8598 37.7491 40.5198 37.7491Z" fill="#0668AD"/>
                    <path d="M40.5208 47.9293C40.4208 47.9293 40.3408 47.8493 40.3408 47.7493V39.9593C40.3408 39.8593 40.4208 39.7793 40.5208 39.7793C40.6208 39.7793 40.7008 39.8593 40.7008 39.9593V47.7493C40.7008 47.8493 40.6208 47.9293 40.5208 47.9293Z" fill="#0668AD"/>
                    <path d="M40.5204 48.1189C40.3104 48.1189 40.1504 47.9489 40.1504 47.7489V39.9589C40.1504 39.7489 40.3204 39.5889 40.5204 39.5889C40.7204 39.5889 40.8904 39.7589 40.8904 39.9589V47.7489C40.8904 47.9589 40.7204 48.1189 40.5204 48.1189Z" fill="#0668AD"/>
                    <path d="M40.5204 48.1189C40.3104 48.1189 40.1504 47.9489 40.1504 47.7489V39.9589C40.1504 39.7489 40.3204 39.5889 40.5204 39.5889C40.7204 39.5889 40.8904 39.7589 40.8904 39.9589V47.7489C40.8904 47.9589 40.7204 48.1189 40.5204 48.1189Z" fill="#0668AD"/>
                    <path d="M40.52 48.2987C40.21 48.2987 39.96 48.0487 39.96 47.7387V39.9487C39.96 39.6387 40.21 39.3887 40.52 39.3887C40.83 39.3887 41.08 39.6387 41.08 39.9487V47.7387C41.08 48.0487 40.83 48.2987 40.52 48.2987ZM40.52 39.7687C40.42 39.7687 40.34 39.8487 40.34 39.9587V47.7487C40.34 47.8487 40.42 47.9287 40.52 47.9287C40.62 47.9287 40.7 47.8487 40.7 47.7487V39.9587C40.7 39.8587 40.62 39.7687 40.52 39.7687Z" fill="#0668AD"/>
                    <path d="M44.4212 44.0299H36.6312C36.5312 44.0299 36.4512 43.9499 36.4512 43.8499C36.4512 43.7499 36.5312 43.6699 36.6312 43.6699H44.4212C44.5212 43.6699 44.6012 43.7499 44.6012 43.8499C44.6012 43.9499 44.5212 44.0299 44.4212 44.0299Z" fill="#0668AD"/>
                    <path d="M44.4207 44.2195H36.6307C36.4207 44.2195 36.2607 44.0495 36.2607 43.8495C36.2607 43.6495 36.4307 43.4795 36.6307 43.4795H44.4207C44.6307 43.4795 44.7907 43.6495 44.7907 43.8495C44.7907 44.0495 44.6207 44.2195 44.4207 44.2195Z" fill="#0668AD"/>
                    <path d="M44.4207 44.2195H36.6307C36.4207 44.2195 36.2607 44.0495 36.2607 43.8495C36.2607 43.6495 36.4307 43.4795 36.6307 43.4795H44.4207C44.6307 43.4795 44.7907 43.6495 44.7907 43.8495C44.7907 44.0495 44.6207 44.2195 44.4207 44.2195Z" fill="#0668AD"/>
                    <path d="M44.4203 44.4091H36.6303C36.3203 44.4091 36.0703 44.1591 36.0703 43.8491C36.0703 43.5391 36.3203 43.2891 36.6303 43.2891H44.4203C44.7303 43.2891 44.9803 43.5391 44.9803 43.8491C44.9803 44.1591 44.7303 44.4091 44.4203 44.4091ZM36.6303 43.6591C36.5303 43.6591 36.4503 43.7391 36.4503 43.8491C36.4503 43.9591 36.5303 44.0291 36.6303 44.0291H44.4203C44.5203 44.0291 44.6003 43.9491 44.6003 43.8491C44.6003 43.7491 44.5203 43.6591 44.4203 43.6591H36.6303Z" fill="#0668AD"/>
                    </g>
                    <defs>
                    <clipPath id="clip0_2367_7767">
                    <rect width="63.78" height="63.78" fill="white"/>
                    </clipPath>
                    </defs>
                    </svg>