<svg width="18" height="19" viewBox="0 0 18 19" fill="none"
								xmlns="http://www.w3.org/2000/svg" id="CBNotifications">
								<path
									d="M9.01965 18.5046C8.75965 18.4451 8.48965 18.4054 8.23965 18.3161C7.23965 17.9391 6.61966 17.2346 6.37966 16.1928C6.36966 16.1431 6.34965 16.0935 6.33965 16.034C6.25965 16.034 6.17964 16.034 6.10964 16.034C4.91964 16.034 3.71966 16.034 2.52966 16.034C1.75966 16.034 1.14966 15.5677 0.999658 14.8533C0.869658 14.2381 1.06966 13.732 1.55966 13.3352C1.77966 13.1566 2.00965 12.9978 2.23965 12.8291C2.49965 12.6307 2.66966 12.3727 2.71966 12.0453C2.98966 10.4279 3.27965 8.82055 3.51965 7.1933C3.78965 5.36761 4.64965 3.91897 6.23965 2.93667C6.58965 2.71838 6.96966 2.56954 7.34966 2.41079C7.49966 2.35126 7.55967 2.29173 7.56967 2.12305C7.57967 1.26974 8.16965 0.585103 8.95965 0.475959C9.98965 0.337048 10.8497 1.05145 10.8697 2.1032C10.8697 2.29172 10.9396 2.35126 11.1096 2.42071C13.2296 3.22441 14.4997 4.75243 14.8797 6.97501C15.1697 8.66179 15.4497 10.3585 15.7297 12.0453C15.7797 12.3628 15.9397 12.6208 16.1997 12.8192C16.3997 12.978 16.6097 13.1268 16.8197 13.2855C17.4097 13.7221 17.6297 14.3671 17.4197 15.012C17.2097 15.657 16.6397 16.0439 15.9097 16.0439C14.7197 16.0439 13.5297 16.0439 12.3497 16.0439C12.2697 16.0439 12.1997 16.0439 12.1197 16.0439C12.0797 16.1928 12.0596 16.3217 12.0196 16.4507C11.6896 17.562 10.7197 18.3558 9.56967 18.4848C9.52967 18.4848 9.47966 18.5046 9.43966 18.5146C9.27966 18.5046 9.14965 18.5046 9.01965 18.5046ZM9.21966 15.2105C10.0597 15.2005 10.8996 15.2005 11.7396 15.2005C13.1296 15.2005 14.5297 15.2105 15.9197 15.2005C16.2797 15.2005 16.5197 15.0319 16.6197 14.7342C16.7197 14.4365 16.6197 14.1587 16.3397 13.9404C16.1097 13.7618 15.8697 13.5931 15.6497 13.4145C15.2597 13.1069 15.0097 12.7001 14.9197 12.204C14.8097 11.5888 14.7096 10.9836 14.6096 10.3684C14.4096 9.16783 14.2397 7.96723 13.9997 6.76664C13.4597 4.03803 10.7297 2.38102 8.08965 3.03589C6.14965 3.52208 4.88966 4.75244 4.46966 6.67735C4.09966 8.3542 3.85964 10.0707 3.60964 11.7674C3.48964 12.5711 3.16966 13.2161 2.46966 13.6527C2.30966 13.7519 2.15965 13.871 2.01965 13.99C1.71965 14.248 1.68965 14.6846 1.95965 14.9624C2.12965 15.141 2.33967 15.1807 2.56967 15.1807C4.78967 15.2105 7.00966 15.2105 9.21966 15.2105ZM7.20965 16.0439C7.38965 16.9965 8.27965 17.691 9.26965 17.6612C10.2296 17.6414 11.0997 16.9171 11.2197 16.0439C9.88966 16.0439 8.54965 16.0439 7.20965 16.0439ZM8.40966 2.11312C8.95966 2.11312 9.49966 2.11312 10.0297 2.11312C10.0397 1.62693 9.67966 1.26973 9.18966 1.27966C8.72966 1.27966 8.37966 1.6567 8.40966 2.11312Z"
									fill="#787878" />

</svg>