<svg width="38" height="36" viewBox="0 0 38 36" fill="none" xmlns="http://www.w3.org/2000/svg" id="CBOffers">
<g clip-path="url(#clip0_1465_6618)">
<path d="M13.1924 22.0007V21.399C13.5196 21.399 13.8533 21.3328 14.1151 21.1345C14.246 21.0683 14.3114 20.9361 14.3768 20.8038C14.4423 20.6716 14.5077 20.4732 14.5077 20.2682C14.5077 19.7987 14.3114 19.468 13.8468 19.2697C13.5196 19.1374 13.2513 19.0713 13.1859 19.0713V18.3372C13.3167 18.3372 13.3822 18.4034 13.4476 18.4034C13.5785 18.4695 13.7748 18.5356 13.9122 18.6018C13.9777 18.6018 13.9777 18.6679 13.9777 18.6679L14.3703 17.9339C14.2394 17.8677 14.0431 17.7355 13.8402 17.6694C13.6439 17.6032 13.4476 17.5371 13.1793 17.5371V17.0015H12.7867V17.5371C12.2566 17.6032 11.864 17.8016 11.6677 18.2711C11.5368 18.5356 11.5368 18.939 11.6023 19.1374C11.6677 19.4019 11.864 19.5342 12.1323 19.673C12.3941 19.8053 12.7278 19.8714 12.8587 19.9375V20.6716C12.7278 20.6716 12.5969 20.6054 12.466 20.6054C12.2697 20.5393 12.0734 20.4732 11.8706 20.3409C11.8051 20.2748 11.7397 20.2748 11.7397 20.2748L11.347 21.0749C11.7397 21.3395 12.2697 21.4717 12.7343 21.5445V22.1462L13.1989 22.014L13.1924 22.0007ZM13.127 19.9375C13.2578 20.0037 13.3233 20.0037 13.4542 20.0698C13.5196 20.1359 13.585 20.2021 13.585 20.2682C13.585 20.4666 13.4542 20.5327 13.1924 20.5327V19.9309H13.127V19.9375ZM12.6035 18.8001C12.538 18.734 12.538 18.6679 12.538 18.6018C12.538 18.4034 12.6689 18.3372 12.9307 18.2711V18.939C12.7998 18.939 12.6689 18.8729 12.6035 18.8068V18.8001Z" fill="#F68A33"/>
<path d="M17.4851 19.5342C17.4851 17.0015 15.4369 14.9978 12.996 14.9978C10.5552 14.9978 8.50696 17.061 8.50696 19.5342C8.50696 22.0073 10.5552 24.0705 12.996 24.0705C15.4369 24.0705 17.4851 22.0007 17.4851 19.5342ZM10.0971 19.5342C10.0971 17.9339 11.3535 16.6708 12.9371 16.6708C14.5207 16.6708 15.7706 17.9339 15.7706 19.5342C15.7706 21.1345 14.5142 22.3975 12.9371 22.3975C11.3601 22.3975 10.0971 21.0617 10.0971 19.5342Z" fill="#F58027"/>
<path d="M37.1428 29.2682H36.2855V18.4034C36.2855 18.1389 36.1546 17.8677 35.9583 17.7355C28.8975 12.399 29.3622 12.7362 29.2967 12.6701C29.1658 12.604 29.035 12.5378 28.9041 12.5378H19.0753C18.6106 11.8699 18.0217 11.2682 17.4262 10.8053C17.7534 10.4747 17.8908 10.0051 17.8908 9.46951C17.8908 8.33872 16.9681 7.46584 15.9146 7.46584H10.1102C8.99122 7.46584 8.13398 8.39824 8.13398 9.46951C8.13398 10.0051 8.33029 10.468 8.59859 10.8053C6.48493 12.4056 5.16962 15.1367 4.96676 18.205L4.43671 26.9405C3.38316 27.1389 2.65679 28.1374 2.85311 29.2748H0.857241C0.39263 29.2748 0 29.6782 0 30.1411C0 33.3417 2.57172 36.0066 5.80437 36.0066H32.1956C35.3628 36.0066 38 33.4078 38 30.1411C38 29.6054 37.6074 29.2748 37.1428 29.2748V29.2682ZM34.7019 29.2682H32.1956V22.6025C32.1956 22.1396 31.803 21.7362 31.3384 21.7362H26.3913C25.9266 21.7362 25.534 22.1396 25.534 22.6025V29.2682H23.0277V18.8663L28.8321 14.4688L34.6365 18.8663V29.2682H34.7019ZM30.5466 29.2682H27.2485V23.4026H30.5466V29.2682ZM19.7951 29.2682V27.6018H21.4441V29.2682H19.7951ZM4.48907 28.9375C4.48907 28.7392 4.61994 28.6069 4.81626 28.6069H5.20889C5.6735 28.6069 6.00069 28.2763 6.00069 27.8068L6.59618 18.3373C6.79249 15.335 8.24522 12.7362 10.4898 11.6054C10.8824 11.4071 11.0198 11.0037 10.9544 10.6069C10.8889 10.2035 10.4898 9.93902 10.0971 9.93902C9.90081 9.93902 9.76993 9.80676 9.76993 9.60838C9.76993 9.40999 9.90081 9.27774 10.0971 9.27774H15.9015C16.0978 9.27774 16.2287 9.40999 16.2287 9.60838C16.2287 9.80676 16.0978 9.93902 15.9015 9.93902C15.5089 9.93902 15.1097 10.2035 15.0443 10.6069C14.9788 11.0037 15.1097 11.4071 15.5089 11.6054C16.0389 11.8699 16.497 12.2072 16.8962 12.6701H14.0561C13.5915 12.6701 13.1989 13.0735 13.1989 13.5364C13.1989 13.9993 13.5915 14.4026 14.0561 14.4026H18.2115C18.5387 15.0044 18.8724 15.6657 19.0687 16.3997C19.1996 16.8626 19.6642 17.1337 20.0568 17.0015C20.5214 16.8692 20.7832 16.3997 20.6523 16.0029C20.5214 15.4673 20.3251 14.9383 20.0568 14.4026H26.4567L22.0331 17.7355H19.854C19.3894 17.7355 18.9967 18.1323 18.9967 18.6018C18.9967 19.0713 19.3894 19.468 19.854 19.468H21.503V26.1337H19.854V21.9346C19.854 21.4651 19.4613 21.0683 18.9967 21.0683C18.5321 21.0683 18.1395 21.4651 18.1395 21.9346V26.1337H10.7515C10.2869 26.1337 9.89427 26.5305 9.89427 27C9.89427 27.4695 10.2869 27.8663 10.7515 27.8663H18.2049V29.5327H4.81626C4.61994 29.2682 4.48907 29.0632 4.48907 28.9309V28.9375ZM32.1956 34.2675H5.80437C3.82814 34.2675 2.17909 32.7994 1.77992 30.9346H36.2201C35.8274 32.7994 34.1719 34.2675 32.1956 34.2675Z" fill="#034B7F"/>
<path d="M27.2485 19.2697C26.7839 19.2697 26.3912 19.673 26.3912 20.1359C26.3912 20.5988 26.7839 21.0022 27.2485 21.0022H30.5466C31.0112 21.0022 31.4038 20.6054 31.4038 20.1359C31.4038 19.6664 31.0112 19.2697 30.5466 19.2697H27.2485Z" fill="#F68A33"/>
<path d="M27.2485 17.6032C27.2485 18.0727 27.6412 18.4695 28.1058 18.4695H29.7548C30.2194 18.4695 30.6121 18.0727 30.6121 17.6032C30.6121 17.1337 30.2194 16.737 29.7548 16.737H28.1058C27.6412 16.737 27.2485 17.1337 27.2485 17.6032Z" fill="#F68A33"/>
<path d="M4.15534 13.4041C4.61995 13.4041 5.01258 13.0007 5.01258 12.5378V7.53857C5.01258 7.06907 4.6134 6.6723 4.15534 6.6723C3.69727 6.6723 3.2981 7.07568 3.2981 7.53857V12.5378C3.2981 13.0735 3.69073 13.4041 4.15534 13.4041Z" fill="#279CEE"/>
<path d="M1.6491 21.7362C2.11371 21.7362 2.50634 21.3395 2.50634 20.8699V10.8714C2.50634 10.4019 2.11371 10.0051 1.6491 10.0051C1.18449 10.0051 0.8573 10.468 0.8573 10.9375V20.9361C0.8573 21.4056 1.24993 21.7362 1.6491 21.7362Z" fill="#279CEE"/>
<path d="M30.1539 10.9375C31.2729 10.9375 32.2021 10.0051 32.2021 8.86775C32.2021 7.73035 31.2795 6.80456 30.1539 6.80456C29.0284 6.80456 28.1057 7.73696 28.1057 8.86775C28.1057 9.99853 29.0284 10.9375 30.1539 10.9375ZM30.1539 8.39824C30.3502 8.39824 30.5466 8.59662 30.5466 8.79501C30.5466 8.99339 30.3502 9.19839 30.1539 9.19839C29.9576 9.19839 29.7613 9 29.7613 8.79501C29.7613 8.59001 29.8922 8.39824 30.1539 8.39824Z" fill="#279CEE"/>
<path d="M7.85254 4.26525C8.97153 4.26525 9.90076 3.33284 9.90076 2.19544C9.90076 1.05805 8.97153 0.132256 7.85254 0.132256C6.73354 0.132256 5.80432 1.06466 5.80432 2.19544C5.80432 3.32623 6.727 4.26525 7.85254 4.26525ZM7.85254 1.73255C8.04885 1.73255 8.25171 1.93093 8.25171 2.12932C8.25171 2.3277 8.0554 2.5327 7.85254 2.5327C7.64968 2.5327 7.45991 2.40044 7.45991 2.12932C7.45991 1.93093 7.65622 1.73255 7.85254 1.73255Z" fill="#279CEE"/>
<path d="M20.6523 5.93167C22.0396 5.93167 23.1586 4.80088 23.1586 3.39897C23.1586 1.99706 22.0396 0.866276 20.6523 0.866276C19.265 0.866276 18.146 1.99706 18.146 3.39897C18.146 4.80088 19.265 5.93167 20.6523 5.93167ZM20.6523 2.59883C21.1169 2.59883 21.5095 2.99559 21.5095 3.4651C21.5095 3.93461 21.1169 4.33138 20.6523 4.33138C20.1877 4.33138 19.795 3.93461 19.795 3.4651C19.795 2.92946 20.1877 2.59883 20.6523 2.59883Z" fill="#279CEE"/>
<path d="M34.702 3.39897C35.1666 3.39897 35.5592 2.99559 35.5592 2.53269C35.5592 2.0698 35.1666 1.66642 34.702 1.66642C34.2374 1.66642 33.8447 2.13593 33.8447 2.59882C33.8447 3.06172 34.2374 3.39897 34.702 3.39897Z" fill="#279CEE"/>
<path d="M36.351 12.604C36.8156 12.604 37.2083 12.2006 37.2083 11.7377C37.2083 11.2748 36.8156 10.8714 36.351 10.8714C35.8864 10.8714 35.4938 11.2682 35.4938 11.7377C35.4938 12.2072 35.8864 12.604 36.351 12.604Z" fill="#279CEE"/>
<path d="M25.5994 5.93167C26.064 5.93167 26.4567 5.52829 26.4567 5.06539C26.4567 4.6025 26.064 4.19912 25.5994 4.19912C25.1348 4.19912 24.7422 4.59589 24.7422 5.06539C24.7422 5.5349 25.1348 5.93167 25.5994 5.93167Z" fill="#279CEE"/>
<path d="M21.4441 8.39824C21.4441 8.86775 21.8367 9.26451 22.3013 9.26451C22.7659 9.26451 23.1586 8.86113 23.1586 8.39824C23.1586 7.93534 22.7659 7.53196 22.3013 7.53196C21.8367 7.53196 21.4441 7.92873 21.4441 8.39824Z" fill="#279CEE"/>
<path d="M1.6491 24.2689C2.11371 24.2689 2.50634 23.8722 2.50634 23.4027C2.50634 22.9331 2.11371 22.5364 1.6491 22.5364C1.18449 22.5364 0.8573 22.9331 0.8573 23.4027C0.8573 23.8722 1.24993 24.2689 1.6491 24.2689Z" fill="#279CEE"/>
<path d="M8.24518 25.9353C7.78057 25.9353 7.38794 26.3387 7.38794 26.8016C7.38794 27.2645 7.78057 27.6679 8.24518 27.6679C8.70979 27.6679 9.10242 27.2645 9.10242 26.8016C9.10242 26.266 8.70979 25.9353 8.24518 25.9353Z" fill="black"/>
</g>
<defs>
<clipPath id="clip0_1465_6618">
<rect width="38" height="36" fill="white"/>
</clipPath>
</defs>
</svg>
