<svg width="33" height="33" viewBox="0 0 33 33" fill="none" xmlns="http://www.w3.org/2000/svg" id="CBOnlineActivites">
                                <path fill-rule="evenodd" clip-rule="evenodd" d="M16.32 0C25.33 0 32.64 7.31001 32.64 16.32C32.64 25.33 25.33 32.64 16.32 32.64C7.31 32.64 0 25.33 0 16.32C0 7.31001 7.3 0 16.32 0Z" fill="#E3EFF8"/>
                                <path d="M6.62207 22.8401V21.9235H25.3771V22.8401H6.62207ZM9.22999 21.0068C8.80832 21.0068 8.45632 20.8653 8.17399 20.5824C7.89104 20.3001 7.74957 19.9478 7.74957 19.5255V10.5696C7.74957 10.148 7.89104 9.79598 8.17399 9.51365C8.45693 9.23132 8.80893 9.09015 9.22999 9.09015H22.7692C23.1908 9.09015 23.5428 9.23132 23.8252 9.51365C24.1081 9.79659 24.2496 10.1489 24.2496 10.5706V19.5264C24.2496 19.9481 24.1084 20.3001 23.8261 20.5824C23.5437 20.8647 23.1914 21.0062 22.7692 21.0068H9.22999ZM9.22999 20.0901H22.7692C22.9097 20.0901 23.039 20.0312 23.1569 19.9132C23.2742 19.7959 23.3329 19.6666 23.3329 19.5255V10.5696C23.3329 10.4291 23.2742 10.3001 23.1569 10.1828C23.039 10.0655 22.9097 10.0068 22.7692 10.0068H9.22999C9.08943 10.0068 8.96018 10.0655 8.84224 10.1828C8.7249 10.3001 8.66624 10.4294 8.66624 10.5706V19.5264C8.66624 19.667 8.7249 19.7959 8.84224 19.9132C8.96018 20.0312 9.08943 20.0901 9.22999 20.0901Z" fill="#045896"/>
                            </svg>  