<svg width="20" height="25" viewBox="0 0 20 25" fill="none" xmlns="http://www.w3.org/2000/svg" id="CBPdf">
						<path
							d="M6.10585 14.074C5.56049 14.074 5.13276 14.1281 4.86543 14.1822V18.4336H5.78505V16.9083H6.10585C6.65121 16.9083 7.07894 16.746 7.39974 16.4756C7.6136 16.2592 7.78469 15.8806 7.78469 15.4371C7.78469 14.9935 7.62429 14.669 7.35696 14.4526C7.07894 14.193 6.70467 14.074 6.10585 14.074ZM6.10585 16.1402H5.78505V14.8854C5.78505 14.8854 5.99892 14.8313 6.17001 14.8313C6.59774 14.8313 6.87577 15.0476 6.87577 15.4803C6.87577 15.859 6.59774 16.1294 6.11654 16.1294L6.10585 16.1402ZM9.33521 14.074C8.90748 14.074 8.4156 14.1281 8.0948 14.1822V18.4336C8.30866 18.4877 8.64015 18.4877 9.12135 18.4877C9.92334 18.4877 10.5222 18.3254 10.9499 17.936C11.3349 17.6115 11.5915 17.0057 11.5915 16.1835C11.5915 15.4154 11.3242 14.8745 10.8857 14.55C10.5756 14.2363 10.0944 14.074 9.32452 14.074H9.33521ZM9.33521 17.7304H9.01442V14.8962C9.01442 14.8962 9.22828 14.8421 9.44215 14.8421C10.2014 14.8421 10.6826 15.3289 10.6826 16.2051C10.6826 17.2328 10.1479 17.7304 9.33521 17.7304ZM12.4683 18.4336H13.388V16.6811H14.8422V15.8698H13.388V14.8962H14.8957V14.0848H12.4576V18.4444L12.4683 18.4336ZM14.0296 0.973633H2.16004C0.973087 0.973633 0 1.95806 0 3.15883V22.804C0 24.0048 0.973087 24.9892 2.16004 24.9892H17.2696C18.4566 24.9892 19.4297 24.0048 19.4297 22.804V6.97753L14.0296 0.973633ZM18.3389 22.804C18.3389 23.399 17.8577 23.8966 17.2589 23.8966H2.16004C1.57191 23.8966 1.08002 23.4098 1.08002 22.804V3.15883C1.08002 2.56385 1.56122 2.06623 2.16004 2.06623H11.8695V7.51842C11.8695 8.1134 12.3507 8.61102 12.9495 8.61102H18.3389V22.7932V22.804ZM12.9495 7.52924V2.06623H13.4949L18.3496 7.51842H12.9495V7.52924Z"
							fill="#0061A4" />
					</svg>