<svg width="34" height="33" viewBox="0 0 34 33" fill="none" xmlns="http://www.w3.org/2000/svg" id="CBPhoneIcon">
                                <path fill-rule="evenodd" clip-rule="evenodd" d="M17.2302 0.235474C26.2402 0.235474 33.5502 7.54547 33.5502 16.5555C33.5502 25.5655 26.2402 32.8755 17.2302 32.8755C8.22016 32.8755 0.910156 25.5655 0.910156 16.5555C0.910156 7.53547 8.21016 0.235474 17.2302 0.235474Z" fill="#E3EFF8"/>
                                <path d="M24.4361 19.4788L20.747 17.828C20.604 17.7662 20.4478 17.7409 20.2926 17.7545C20.1374 17.7682 19.988 17.8203 19.858 17.9062C19.8476 17.9128 19.8376 17.9201 19.8283 17.928L17.8907 19.5796C17.8476 19.6059 17.7987 19.6212 17.7483 19.624C17.6978 19.6269 17.6475 19.6173 17.6017 19.596C16.3329 18.9835 15.0196 17.6804 14.4071 16.4265C14.3854 16.381 14.3754 16.3309 14.3778 16.2806C14.3803 16.2302 14.3952 16.1813 14.4212 16.1382L16.0774 14.1686C16.0852 14.1593 16.0923 14.1491 16.0993 14.1389C16.1849 14.0091 16.2369 13.86 16.2505 13.7051C16.2642 13.5501 16.2391 13.3942 16.1774 13.2514L14.5235 9.56858C14.4437 9.38205 14.3055 9.22646 14.1296 9.12517C13.9538 9.02388 13.7499 8.98237 13.5485 9.00685C12.5653 9.13648 11.663 9.61957 11.01 10.3659C10.357 11.1122 9.99795 12.0707 10 13.0624C10 19.0937 14.9063 24 20.9377 24C21.9293 24.002 22.8878 23.643 23.6342 22.99C24.3805 22.337 24.8636 21.4347 24.9932 20.4515C25.0175 20.251 24.9764 20.048 24.876 19.8728C24.7757 19.6975 24.6214 19.5593 24.4361 19.4788ZM24.3752 20.3734C24.2649 21.206 23.8551 21.9699 23.2224 22.5224C22.5898 23.0748 21.7776 23.3779 20.9377 23.375C15.2516 23.375 10.625 18.7484 10.625 13.0624C10.6221 12.2225 10.9252 11.4103 11.4776 10.7776C12.0301 10.145 12.794 9.73515 13.6266 9.62483C13.6391 9.62405 13.6516 9.62405 13.6641 9.62483C13.7258 9.62535 13.7859 9.64411 13.8369 9.67872C13.8879 9.71334 13.9276 9.76227 13.9508 9.81936L15.6001 13.5022C15.6193 13.5472 15.6277 13.5961 15.6246 13.645C15.6215 13.6938 15.6069 13.7413 15.5821 13.7835L13.9266 15.7522C13.9188 15.7624 13.911 15.7718 13.904 15.7827C13.8158 15.9176 13.7638 16.0729 13.7532 16.2337C13.7425 16.3945 13.7734 16.5553 13.843 16.7007C14.5219 18.0905 15.922 19.4804 17.3275 20.1593C17.4738 20.2285 17.6355 20.2585 17.797 20.2466C17.9584 20.2347 18.114 20.1812 18.2486 20.0914L18.2775 20.0695L20.2173 18.4195C20.2588 18.3941 20.3058 18.379 20.3542 18.3753C20.4027 18.3716 20.4514 18.3795 20.4962 18.3984L24.1846 20.0515C24.2468 20.0774 24.299 20.1228 24.3334 20.1808C24.3677 20.2388 24.3824 20.3064 24.3752 20.3734Z" fill="#045896"/>
                            </svg>