<svg width="33" height="34" viewBox="0 0 33 34" fill="none" xmlns="http://www.w3.org/2000/svg" id="CBProfileSettings">
                                <path fill-rule="evenodd" clip-rule="evenodd" d="M16.4099 0.788025C25.4199 0.788025 32.7299 8.09803 32.7299 17.108C32.7299 26.118 25.4199 33.428 16.4099 33.428C7.39985 33.428 0.0898438 26.118 0.0898438 17.108C0.0998437 8.09803 7.39985 0.788025 16.4099 0.788025Z" fill="#E3EFF8"/>
                                <path d="M25.1007 18.8281H24.2107C23.8007 18.8281 23.4407 19.0881 23.3107 19.4781C23.2107 19.7881 23.0807 20.0881 22.9407 20.3881C22.7607 20.7481 22.8307 21.1781 23.1107 21.4581L23.7507 22.0981C24.0307 22.3781 24.0307 22.8281 23.7507 23.1081L22.3207 24.5381C22.0407 24.8181 21.5907 24.8181 21.3107 24.5381L20.6807 23.9081C20.4007 23.628 19.9707 23.5581 19.6007 23.7381C19.3107 23.8881 19.0007 24.0081 18.7007 24.1181C18.3107 24.2581 18.0407 24.618 18.0407 25.028V25.8881C18.0407 26.2781 17.7207 26.5981 17.3307 26.5981H15.3007C14.9107 26.5981 14.5907 26.2781 14.5907 25.8881V25.028C14.5907 24.618 14.3307 24.2481 13.9307 24.1181C13.6207 24.0181 13.3207 23.8881 13.0307 23.7381C12.6707 23.5581 12.2407 23.628 11.9507 23.9081L11.3207 24.5381C11.0507 24.8081 10.5807 24.8081 10.3107 24.5381L8.8807 23.1081C8.6007 22.8281 8.6007 22.3781 8.8807 22.0981L9.5207 21.4581C9.8007 21.1781 9.8707 20.7481 9.6907 20.3881C9.5407 20.0981 9.4207 19.7881 9.3207 19.4781C9.1907 19.0881 8.8307 18.8281 8.4207 18.8281H7.5307C7.1407 18.8281 6.8207 18.5081 6.8207 18.1181V16.0981C6.8207 15.7081 7.1407 15.3881 7.5307 15.3881H8.4307C8.8407 15.3881 9.2007 15.1281 9.3307 14.7381C9.4307 14.4381 9.5607 14.1381 9.7007 13.8481C9.8807 13.4881 9.8107 13.058 9.5307 12.778L8.8807 12.1181C8.7507 11.9881 8.6707 11.8081 8.6707 11.6181C8.6707 11.4281 8.7407 11.2481 8.8807 11.1181L10.3107 9.68805C10.5807 9.41805 11.0507 9.41805 11.3207 9.68805L11.9807 10.3481C12.2607 10.6281 12.6907 10.6981 13.0507 10.5181C13.3407 10.3781 13.6407 10.2481 13.9407 10.1481C14.3307 10.0181 14.5807 9.65806 14.5807 9.25806V8.32806C14.5807 7.93806 14.9007 7.61807 15.2907 7.61807H17.3107C17.7007 7.61807 18.0207 7.93806 18.0207 8.32806V9.25806C18.0207 9.65806 18.2807 10.0181 18.6607 10.1481C18.9607 10.2481 19.2607 10.3781 19.5507 10.5181C19.9107 10.6981 20.3407 10.6281 20.6207 10.3481L21.2807 9.68805C21.5607 9.40805 22.0107 9.40805 22.2907 9.68805L23.7207 11.1181C23.8607 11.2481 23.9307 11.4281 23.9307 11.6181C23.9307 11.8081 23.8607 11.9881 23.7207 12.1181L23.0707 12.778C22.7907 13.058 22.7207 13.4881 22.9007 13.8481C23.0407 14.1381 23.1707 14.4381 23.2707 14.7381C23.4007 15.1281 23.7707 15.3881 24.1707 15.3881H25.0707C25.4607 15.3881 25.7807 15.7081 25.7807 16.0981V18.1181C25.8107 18.5081 25.4907 18.8281 25.1007 18.8281ZM25.2807 16.0981C25.2807 15.9981 25.2007 15.9181 25.1007 15.9181H24.2007C23.5707 15.9181 23.0007 15.5181 22.8007 14.9081C22.7007 14.6281 22.5907 14.348 22.4507 14.088C22.1707 13.518 22.2807 12.8481 22.7207 12.3981L23.3807 11.748C23.4107 11.718 23.4307 11.6681 23.4307 11.6181C23.4307 11.5681 23.4107 11.5281 23.3807 11.4881L21.9507 10.058C21.8807 9.98804 21.7607 9.98804 21.6907 10.058L21.0307 10.718C20.5907 11.158 19.9107 11.2681 19.3507 10.9881C19.0807 10.8581 18.8107 10.7381 18.5307 10.6481C17.9307 10.4481 17.5307 9.88806 17.5307 9.25806V8.32806C17.5307 8.22806 17.4507 8.14807 17.3507 8.14807H15.3007C15.2007 8.14807 15.1207 8.22806 15.1207 8.32806V9.25806C15.1207 9.88806 14.7207 10.4481 14.1207 10.6481C13.8407 10.7481 13.5607 10.8581 13.3007 10.9881C12.7407 11.2681 12.0607 11.158 11.6207 10.718L10.9607 10.058C10.8907 9.98804 10.7707 9.98804 10.7007 10.058L9.2707 11.4881C9.2407 11.5181 9.2207 11.5681 9.2207 11.6181C9.2207 11.6681 9.2407 11.708 9.2707 11.748L9.9207 12.3981C10.3607 12.8381 10.4707 13.518 10.1907 14.088C10.0607 14.358 9.9407 14.6281 9.8407 14.9181C9.6307 15.5181 9.0707 15.9281 8.4407 15.9281H7.5407C7.4407 15.9281 7.3607 16.0081 7.3607 16.1081V18.1281C7.3607 18.2281 7.4407 18.308 7.5407 18.308H8.4307C9.0707 18.308 9.6307 18.7181 9.8407 19.3281C9.9407 19.6081 10.0507 19.8981 10.1907 20.1681C10.4707 20.7281 10.3607 21.4081 9.9207 21.8481L9.2807 22.4881C9.2507 22.5181 9.23071 22.5681 9.23071 22.6181C9.23071 22.6681 9.2507 22.708 9.2807 22.748L10.7107 24.1781C10.7807 24.2481 10.9007 24.2481 10.9707 24.1781L11.6007 23.5481C11.8807 23.2681 12.2507 23.1181 12.6307 23.1181C12.8507 23.1181 13.0807 23.1681 13.2907 23.2681C13.5607 23.4081 13.8407 23.5181 14.1307 23.6181C14.7407 23.8281 15.1507 24.398 15.1507 25.028V25.8881C15.1507 25.9881 15.2307 26.0681 15.3307 26.0681H17.3507C17.4507 26.0681 17.5307 25.9881 17.5307 25.8881V25.028C17.5307 24.388 17.9407 23.8181 18.5507 23.6181C18.8307 23.5181 19.1207 23.3981 19.3907 23.2681C19.9607 22.9881 20.6307 23.0981 21.0807 23.5381L21.7107 24.1681C21.7807 24.2381 21.9007 24.2381 21.9707 24.1681L23.4007 22.7381C23.4307 22.7081 23.4507 22.6581 23.4507 22.6081C23.4507 22.5581 23.4307 22.5181 23.4007 22.4781L22.7607 21.838C22.3207 21.398 22.2107 20.7181 22.4907 20.1581C22.6207 19.8881 22.7407 19.6081 22.8407 19.3181C23.0407 18.7081 23.6107 18.2981 24.2507 18.2981H25.1407C25.2407 18.2981 25.3207 18.2181 25.3207 18.1181V16.0981H25.2807ZM25.1007 18.9281H24.2107C23.8407 18.9281 23.5207 19.1681 23.4007 19.5181C23.2907 19.8281 23.1707 20.138 23.0207 20.438C22.8607 20.758 22.9207 21.1481 23.1707 21.3981L23.8107 22.0381C24.1307 22.3581 24.1307 22.868 23.8107 23.188L22.3807 24.6181C22.0607 24.9381 21.5507 24.9381 21.2307 24.6181L20.6007 23.9881C20.3507 23.7381 19.9607 23.678 19.6407 23.838C19.3507 23.988 19.0407 24.118 18.7207 24.218C18.3707 24.338 18.1307 24.6681 18.1307 25.0381V25.8981C18.1307 26.3481 17.7707 26.7081 17.3207 26.7081H15.3007C14.8507 26.7081 14.4907 26.3481 14.4907 25.8981V25.0381C14.4907 24.6681 14.2507 24.338 13.9007 24.218C13.5907 24.108 13.2807 23.988 12.9807 23.838C12.6607 23.678 12.2707 23.7381 12.0207 23.9881L11.3907 24.6181C11.2407 24.7681 11.0307 24.8481 10.8207 24.8481C10.6007 24.8481 10.3907 24.7681 10.2507 24.6181L8.8207 23.188C8.5007 22.868 8.5007 22.3581 8.8207 22.0381L9.4607 21.3981C9.7107 21.1481 9.7707 20.758 9.6107 20.438C9.4607 20.138 9.34071 19.8281 9.23071 19.5181C9.11071 19.1681 8.7907 18.9281 8.4207 18.9281H7.5307C7.0807 18.9281 6.7207 18.5681 6.7207 18.1181V16.0981C6.7207 15.6481 7.0807 15.2881 7.5307 15.2881H8.4307C8.7907 15.2881 9.1207 15.0581 9.2407 14.7081C9.3507 14.3981 9.4707 14.098 9.6207 13.808C9.7807 13.488 9.7207 13.0981 9.4707 12.8481L8.8207 12.188C8.6707 12.038 8.5807 11.8281 8.5807 11.6181C8.5807 11.4081 8.6607 11.1981 8.8207 11.0481L10.2507 9.61807C10.4007 9.46807 10.6107 9.38806 10.8207 9.38806C11.0407 9.38806 11.2507 9.46807 11.3907 9.61807L12.0507 10.278C12.3007 10.528 12.6907 10.5881 13.0107 10.4281C13.3007 10.2881 13.6007 10.158 13.9107 10.058C14.2507 9.93804 14.4907 9.61806 14.4907 9.25806V8.32806C14.4907 7.87806 14.8507 7.51807 15.3007 7.51807H17.3207C17.7707 7.51807 18.1307 7.87806 18.1307 8.32806V9.25806C18.1307 9.61806 18.3607 9.93804 18.7107 10.058C19.0207 10.158 19.3207 10.2881 19.6107 10.4281C19.9307 10.5881 20.3207 10.528 20.5707 10.278L21.2307 9.61807C21.5507 9.29807 22.0607 9.29807 22.3807 9.61807L23.8107 11.0481C23.9607 11.1981 24.0507 11.4081 24.0507 11.6181C24.0507 11.8281 23.9707 12.038 23.8107 12.188L23.1607 12.8481C22.9107 13.0981 22.8507 13.488 23.0107 13.808C23.1607 14.098 23.2807 14.4081 23.3907 14.7081C23.5107 15.0581 23.8307 15.2881 24.2007 15.2881H25.1007C25.5507 15.2881 25.9107 15.6481 25.9107 16.0981V18.1181C25.9107 18.5681 25.5507 18.9281 25.1007 18.9281ZM25.7107 16.0981C25.7107 15.7581 25.4407 15.4881 25.1007 15.4881H24.2007C23.7507 15.4881 23.3507 15.1981 23.2007 14.7681C23.1007 14.4681 22.9707 14.1781 22.8307 13.8881C22.6307 13.4881 22.7107 13.0081 23.0207 12.6981L23.6707 12.0481C23.7907 11.9381 23.8507 11.7781 23.8507 11.6181C23.8507 11.4581 23.7907 11.298 23.6707 11.188L22.2407 9.75806C22.0007 9.51806 21.6107 9.51806 21.3707 9.75806L20.7107 10.4181C20.4007 10.7281 19.9207 10.8081 19.5207 10.6081C19.2407 10.4681 18.9407 10.348 18.6407 10.248C18.2107 10.108 17.9307 9.70806 17.9307 9.25806V8.32806C17.9307 7.98806 17.6607 7.71805 17.3207 7.71805H15.3007C14.9607 7.71805 14.6907 7.99806 14.6907 8.32806V9.25806C14.6907 9.70806 14.4007 10.098 13.9807 10.248C13.6807 10.348 13.3907 10.4681 13.1007 10.6081C12.7007 10.8081 12.2207 10.7281 11.9107 10.4181L11.2507 9.75806C11.1407 9.64806 10.9807 9.58804 10.8207 9.58804C10.6607 9.58804 10.5007 9.64806 10.3907 9.75806L8.9607 11.188C8.8407 11.308 8.7807 11.4581 8.7807 11.6181C8.7807 11.7781 8.8407 11.9381 8.9607 12.0481L9.6107 12.6981C9.9207 13.0081 10.0007 13.4881 9.8007 13.8881C9.6607 14.1681 9.5307 14.4681 9.4307 14.7681C9.2807 15.1981 8.8807 15.4881 8.4307 15.4881H7.5307C7.1907 15.4881 6.9207 15.7681 6.9207 16.0981V18.1181C6.9207 18.4581 7.1907 18.7281 7.5307 18.7281H8.4207C8.8707 18.7281 9.2707 19.0181 9.4207 19.4481C9.5207 19.7481 9.6507 20.048 9.7907 20.338C9.9907 20.738 9.9107 21.208 9.6007 21.528L8.9607 22.1681C8.7207 22.4081 8.7207 22.7981 8.9607 23.0381L10.3907 24.468C10.5007 24.578 10.6607 24.6381 10.8207 24.6381C10.9807 24.6381 11.1407 24.578 11.2507 24.468L11.8807 23.838C12.0807 23.638 12.3407 23.5381 12.6107 23.5381C12.7707 23.5381 12.9307 23.5781 13.0707 23.6481C13.3607 23.7881 13.6607 23.9181 13.9607 24.0181C14.3907 24.1681 14.6907 24.568 14.6907 25.028V25.8881C14.6907 26.2281 14.9607 26.498 15.3007 26.498H17.3207C17.6607 26.498 17.9307 26.2281 17.9307 25.8881V25.028C17.9307 24.578 18.2207 24.1681 18.6607 24.0181C18.9607 23.9181 19.2607 23.7881 19.5507 23.6481C19.9507 23.4481 20.4307 23.528 20.7407 23.838L21.3707 24.468C21.6107 24.708 22.0007 24.708 22.2407 24.468L23.6707 23.0381C23.9107 22.7981 23.9107 22.4081 23.6707 22.1681L23.0307 21.528C22.7207 21.218 22.6407 20.738 22.8407 20.338C22.9807 20.048 23.1107 19.7481 23.2107 19.4481C23.3607 19.0181 23.7607 18.7281 24.2107 18.7281H25.1007C25.4407 18.7281 25.7107 18.4581 25.7107 18.1181V16.0981ZM25.1007 18.3981H24.2107C23.6207 18.3981 23.0907 18.7781 22.9007 19.3481C22.8007 19.6381 22.6807 19.9281 22.5507 20.1981C22.2907 20.7281 22.3907 21.3581 22.8007 21.7681L23.4407 22.4081C23.4907 22.4581 23.5207 22.5281 23.5207 22.6081C23.5207 22.6781 23.4907 22.758 23.4407 22.808L22.0107 24.2381C21.9007 24.3481 21.7207 24.3481 21.6107 24.2381L20.9807 23.6081C20.5707 23.1981 19.9407 23.0981 19.4107 23.3581C19.1407 23.4981 18.8507 23.618 18.5607 23.718C17.9907 23.908 17.6107 24.4481 17.6107 25.0381V25.8981C17.6107 26.0481 17.4807 26.1781 17.3307 26.1781H15.3007C15.1507 26.1781 15.0207 26.0481 15.0207 25.8981V25.0381C15.0207 24.4381 14.6407 23.908 14.0707 23.718C13.7807 23.618 13.4907 23.4981 13.2207 23.3581C13.0307 23.2581 12.8207 23.2081 12.6107 23.2081C12.2507 23.2081 11.9107 23.3481 11.6507 23.6081L11.0207 24.2381C10.9707 24.2881 10.9007 24.3181 10.8207 24.3181C10.7507 24.3181 10.6707 24.2881 10.6207 24.2381L9.1907 22.808C9.1407 22.758 9.1107 22.6881 9.1107 22.6081C9.1107 22.5381 9.1407 22.4581 9.1907 22.4081L9.8307 21.7681C10.2407 21.3581 10.3407 20.7281 10.0807 20.1981C9.9407 19.9281 9.83071 19.6381 9.73071 19.3481C9.54071 18.7781 9.0107 18.3981 8.4207 18.3981H7.5307C7.3807 18.3981 7.2507 18.2681 7.2507 18.1181V16.0981C7.2507 15.9481 7.3807 15.8181 7.5307 15.8181H8.4307C9.0207 15.8181 9.5507 15.4381 9.7407 14.8781C9.8407 14.5981 9.9607 14.3081 10.0907 14.0381C10.3507 13.5081 10.2507 12.878 9.8407 12.468L9.1807 11.8181C9.1307 11.7681 9.1007 11.6981 9.1007 11.6181C9.1007 11.5481 9.1307 11.4681 9.1807 11.4181L10.6107 9.98807C10.7107 9.88807 10.9007 9.88807 11.0107 9.98807L11.6707 10.6481C12.0807 11.0581 12.7107 11.1581 13.2407 10.8981C13.5107 10.7681 13.7907 10.6481 14.0807 10.5481C14.6407 10.3581 15.0207 9.83805 15.0207 9.24805V8.31805C15.0207 8.16805 15.1507 8.03806 15.3007 8.03806H17.3207C17.4707 8.03806 17.6007 8.16805 17.6007 8.31805V9.24805C17.6007 9.83805 17.9807 10.3581 18.5407 10.5481C18.8207 10.6481 19.1107 10.7581 19.3807 10.8981C19.9107 11.1581 20.5407 11.0581 20.9507 10.6481L21.6107 9.98807C21.6607 9.93807 21.7307 9.90805 21.8107 9.90805C21.8807 9.90805 21.9607 9.93807 22.0107 9.98807L23.4407 11.4181C23.4907 11.4681 23.5207 11.5381 23.5207 11.6181C23.5207 11.6881 23.4907 11.7681 23.4407 11.8181L22.7907 12.468C22.3807 12.878 22.2807 13.5081 22.5407 14.0381C22.6707 14.3081 22.7907 14.5881 22.8907 14.8781C23.0807 15.4381 23.6107 15.8181 24.2007 15.8181H25.1007C25.2507 15.8181 25.3807 15.9481 25.3807 16.0981V18.1181C25.3807 18.2781 25.2507 18.3981 25.1007 18.3981ZM25.1807 16.0981C25.1807 16.0481 25.1407 16.0181 25.1007 16.0181H24.2007C23.5307 16.0181 22.9207 15.5881 22.7007 14.9481C22.6007 14.6681 22.4907 14.3981 22.3607 14.1381C22.0607 13.5281 22.1707 12.808 22.6507 12.338L23.3007 11.688C23.3207 11.668 23.3207 11.6481 23.3207 11.6281C23.3207 11.6081 23.3107 11.5881 23.3007 11.5681L21.8707 10.1381C21.8507 10.1181 21.8307 10.1181 21.8107 10.1181C21.7907 10.1181 21.7707 10.1281 21.7507 10.1381L21.0907 10.7981C20.6207 11.2681 19.9007 11.388 19.2907 11.088C19.0307 10.958 18.7507 10.848 18.4807 10.748C17.8407 10.528 17.4107 9.92806 17.4107 9.25806V8.32806C17.4107 8.28806 17.3707 8.24805 17.3307 8.24805H15.3007C15.2507 8.24805 15.2207 8.28806 15.2207 8.32806V9.25806C15.2207 9.92806 14.7907 10.528 14.1507 10.748C13.8707 10.838 13.6007 10.958 13.3407 11.088C12.7407 11.388 12.0207 11.2681 11.5407 10.7981L10.8807 10.1381C10.8507 10.1081 10.7907 10.1081 10.7607 10.1381L9.3307 11.5681C9.3107 11.5881 9.3107 11.6081 9.3107 11.6281C9.3107 11.6481 9.3207 11.668 9.3307 11.688L9.98071 12.338C10.4507 12.808 10.5707 13.5381 10.2707 14.1381C10.1407 14.3981 10.0207 14.6781 9.9307 14.9481C9.7107 15.5881 9.1107 16.0181 8.4307 16.0181H7.5307C7.4907 16.0181 7.4507 16.0581 7.4507 16.0981V18.1181C7.4507 18.1681 7.4907 18.1981 7.5307 18.1981H8.4207C9.1007 18.1981 9.7007 18.638 9.9207 19.278C10.0207 19.558 10.1307 19.8381 10.2607 20.1081C10.5607 20.7081 10.4407 21.4281 9.9707 21.8981L9.3307 22.5381C9.3107 22.5581 9.3107 22.5681 9.3107 22.5981C9.3107 22.6181 9.3207 22.6381 9.3307 22.6581L10.7607 24.088C10.7807 24.098 10.8007 24.1081 10.8207 24.1081C10.8407 24.1081 10.8607 24.098 10.8807 24.088L11.5107 23.4581C11.8007 23.1681 12.1907 23.0081 12.6107 23.0081C12.8507 23.0081 13.0907 23.0681 13.3107 23.1781C13.5807 23.3081 13.8507 23.428 14.1407 23.528C14.7907 23.748 15.2207 24.3581 15.2207 25.0381V25.8981C15.2207 25.9481 15.2607 25.9781 15.3007 25.9781H17.3207C17.3707 25.9781 17.4007 25.9381 17.4007 25.8981V25.0381C17.4007 24.3581 17.8407 23.748 18.4907 23.528C18.7707 23.428 19.0507 23.3181 19.3207 23.1781C19.9207 22.8781 20.6507 22.988 21.1207 23.468L21.7507 24.0981C21.7807 24.1281 21.8307 24.1281 21.8707 24.0981L23.3007 22.6681C23.3207 22.6481 23.3207 22.6281 23.3207 22.6081C23.3207 22.5881 23.3107 22.5681 23.3007 22.5481L22.6607 21.9081C22.1907 21.4381 22.0707 20.7181 22.3707 20.1181C22.5007 19.8481 22.6207 19.5781 22.7107 19.2881C22.9307 18.6381 23.5307 18.2081 24.2107 18.2081H25.1007C25.1507 18.2081 25.1807 18.1681 25.1807 18.1281V16.0981ZM16.3207 22.4081C13.4007 22.4081 11.0207 20.0281 11.0207 17.1081C11.0207 14.1881 13.4007 11.808 16.3207 11.808C19.2407 11.808 21.6207 14.1881 21.6207 17.1081C21.6107 20.0281 19.2407 22.4081 16.3207 22.4081ZM16.3207 12.338C13.6907 12.338 11.5507 14.4781 11.5507 17.1081C11.5507 19.7381 13.6907 21.8781 16.3207 21.8781C18.9507 21.8781 21.0907 19.7381 21.0907 17.1081C21.0807 14.4781 18.9507 12.338 16.3207 12.338ZM16.3207 22.5081C13.3407 22.5081 10.9207 20.0881 10.9207 17.1081C10.9207 14.1281 13.3407 11.7081 16.3207 11.7081C19.3007 11.7081 21.7207 14.1281 21.7207 17.1081C21.7107 20.0881 19.2907 22.5081 16.3207 22.5081ZM16.3207 11.9081C13.4507 11.9081 11.1207 14.2381 11.1207 17.1081C11.1207 19.9781 13.4507 22.308 16.3207 22.308C19.1907 22.308 21.5207 19.9781 21.5207 17.1081C21.5207 14.2381 19.1807 11.9081 16.3207 11.9081ZM16.3207 21.9781C13.6407 21.9781 11.4507 19.7981 11.4507 17.1081C11.4507 14.4181 13.6307 12.2381 16.3207 12.2381C19.0007 12.2381 21.1907 14.4181 21.1907 17.1081C21.1907 19.7981 19.0007 21.9781 16.3207 21.9781ZM16.3207 12.438C13.7407 12.438 11.6507 14.5281 11.6507 17.1081C11.6507 19.6781 13.7407 21.778 16.3207 21.778C18.8907 21.778 20.9907 19.6881 20.9907 17.1081C20.9807 14.5381 18.8907 12.438 16.3207 12.438Z" fill="#075896"/>
                            </svg>