<svg width="40" height="42" fill="none" viewBox="0 0 40 42" xmlns="http://www.w3.org/2000/svg" id="CBProfile">
                    <path d="M34.9101 27.283C34.7901 27.9081 34.3001 28.3942 33.7001 28.5034C33.1201 28.6026 32.5401 28.7217 31.9601 28.8308C31.4401 28.9301 30.9301 29.0193 30.4101 29.1086C29.8501 29.1979 29.2901 29.2872 28.7301 29.3567C28.0901 29.446 27.4401 29.5254 26.8001 29.5948C26.2801 29.6543 25.7601 29.694 25.2501 29.7337C24.9201 29.7635 24.5901 29.7833 24.2601 29.8032C24.0301 29.8131 23.8001 29.823 23.5701 29.8329C23.1901 29.8528 22.8201 29.8727 22.4401 29.8826C22.1401 29.8925 21.8401 29.8925 21.5401 29.9024C21.5201 29.9024 21.5101 29.9024 21.5001 29.9123C20.8501 29.9123 20.2001 29.9123 19.5501 29.9123C19.5201 29.9123 19.4801 29.9024 19.4501 29.9024C19.2201 29.8925 19.0001 29.8925 18.7701 29.8826C18.3301 29.8627 17.8901 29.8528 17.4401 29.8329C17.2201 29.823 17.0001 29.8131 16.7701 29.8032C16.3301 29.7734 15.8801 29.7437 15.4301 29.704C14.9801 29.6643 14.5201 29.6345 14.0701 29.575C13.2501 29.4758 12.4301 29.3766 11.6101 29.2575C10.8401 29.1483 10.0701 29.0094 9.31012 28.8705C8.66012 28.7514 8.00013 28.6324 7.35013 28.5034C6.84013 28.4042 6.47012 28.1164 6.25012 27.6402C6.19012 27.5112 6.16012 27.3722 6.12012 27.2333C6.12012 26.9555 6.12012 26.6876 6.12012 26.4197C6.13012 26.3999 6.13014 26.3899 6.14014 26.3701C6.16014 26.1716 6.17012 25.9832 6.19012 25.7847C6.28012 24.9612 6.46013 24.1575 6.73013 23.3736C7.04013 22.4806 7.45012 21.6471 7.97012 20.8633C8.54012 20 9.22012 19.2261 10.0001 18.5514C10.8401 17.8171 11.7701 17.2218 12.7901 16.7654C13.7101 16.3486 14.6701 16.0708 15.6801 15.9121C15.7201 15.9022 15.7601 15.922 15.7901 15.9418C15.9401 16.0609 16.0901 16.1899 16.2401 16.2991C16.9201 16.7952 17.6601 17.1722 18.4701 17.4103C19.0401 17.579 19.6301 17.6782 20.2301 17.708C20.4701 17.7179 20.7101 17.708 20.9401 17.6981C21.2101 17.6782 21.4701 17.6584 21.7401 17.6187C22.5001 17.4897 23.2201 17.2416 23.9101 16.8844C24.4001 16.6265 24.8601 16.3089 25.2801 15.9418C25.3101 15.922 25.3601 15.9022 25.3901 15.9121C25.7401 15.9815 26.1001 16.041 26.4501 16.1303C27.6401 16.428 28.7501 16.9142 29.7901 17.5889C30.6701 18.1545 31.4601 18.8391 32.1501 19.6329C32.7701 20.3374 33.2901 21.1014 33.7101 21.9249C34.0601 22.6096 34.3401 23.324 34.5401 24.0681C34.7201 24.7428 34.8401 25.4374 34.9001 26.132C34.9101 26.2411 34.9201 26.3403 34.9301 26.4495C34.9301 26.6975 34.9301 26.9555 34.9301 27.2036C34.9201 27.2333 34.9201 27.2532 34.9101 27.283ZM27.8601 10.2663C27.6601 11.0502 27.3401 11.7844 26.8901 12.469C26.6201 12.8759 26.3201 13.2529 25.9901 13.6002C25.3301 14.2848 24.5701 14.8206 23.7101 15.2175C23.0401 15.5251 22.3401 15.7335 21.6101 15.8327C21.1401 15.9021 20.6701 15.922 20.2001 15.9022C19.5601 15.8823 18.9301 15.7732 18.3201 15.5846C17.6601 15.3862 17.0401 15.0985 16.4601 14.7313C15.9801 14.4237 15.5401 14.0665 15.1401 13.6597C14.6201 13.1338 14.1901 12.5485 13.8501 11.8936C13.5101 11.2586 13.2701 10.5938 13.1301 9.89922C13.0401 9.46264 12.9901 9.00624 12.9801 8.55974C12.9601 7.85527 13.0401 7.17061 13.2201 6.48597C13.5001 5.39453 14.0101 4.41221 14.7401 3.54897C15.3601 2.80481 16.1001 2.19954 16.9601 1.74312C17.7001 1.34623 18.4901 1.07835 19.3201 0.949357C19.5301 0.91959 19.7501 0.899789 19.9601 0.870023C19.9701 0.870023 19.9901 0.860081 20.0001 0.850159C20.3601 0.850159 20.7201 0.850159 21.0801 0.850159C21.1901 0.860081 21.2901 0.879904 21.4001 0.889826C22.1601 0.969204 22.8901 1.16767 23.5801 1.47526C24.3201 1.79277 24.9901 2.22934 25.5901 2.76514C26.3501 3.43985 26.9501 4.23365 27.3801 5.1465C27.7601 5.93035 27.9901 6.76382 28.0701 7.62705C28.0901 7.8255 28.1001 8.02393 28.1001 8.23229C28.1101 8.92685 28.0301 9.60155 27.8601 10.2663Z" />
                    <path d="M0.558 41V34.7H3.258C4.851 34.7 5.877 35.519 5.877 36.914V36.932C5.877 38.417 4.734 39.2 3.168 39.2H2.304V41H0.558ZM2.304 37.832H3.132C3.753 37.832 4.131 37.508 4.131 37.013V36.995C4.131 36.455 3.753 36.167 3.123 36.167H2.304V37.832ZM6.61366 41V34.7H9.59266C10.5557 34.7 11.2217 34.952 11.6447 35.384C12.0137 35.744 12.2027 36.23 12.2027 36.851V36.869C12.2027 37.832 11.6897 38.471 10.9067 38.804L12.4097 41H10.3937L9.12466 39.092H8.35966V41H6.61366ZM8.35966 37.724H9.51166C10.1057 37.724 10.4477 37.436 10.4477 36.977V36.959C10.4477 36.464 10.0877 36.212 9.50266 36.212H8.35966V37.724ZM16.2504 41.126C14.3064 41.126 12.8664 39.677 12.8664 37.868V37.85C12.8664 36.041 14.3244 34.574 16.2684 34.574C18.2124 34.574 19.6524 36.023 19.6524 37.832V37.85C19.6524 39.659 18.1944 41.126 16.2504 41.126ZM16.2684 39.551C17.2314 39.551 17.8704 38.777 17.8704 37.868V37.85C17.8704 36.941 17.2134 36.149 16.2504 36.149C15.2964 36.149 14.6574 36.923 14.6574 37.832V37.85C14.6574 38.759 15.3144 39.551 16.2684 39.551ZM20.5619 41V34.7H25.6019V36.23H22.3079V37.301H25.2869V38.75H22.3079V41H20.5619ZM26.4338 41V34.7H28.1888V41H26.4338ZM29.3422 41V34.7H31.0882V39.47H34.1392V41H29.3422ZM34.8881 41V34.7H39.9551V36.185H36.6161V37.139H39.6401V38.516H36.6161V39.515H40.0001V41H34.8881Z" />
                </svg>