<svg width="36" height="37" viewBox="0 0 36 37" fill="none" xmlns="http://www.w3.org/2000/svg" id="CBQRCode">
<path d="M4.95972 31.8802C8.64972 31.8802 12.2597 31.8802 15.8697 31.8802C15.8697 28.199 15.8697 24.5973 15.8697 20.9757C12.1897 20.9757 8.60972 20.9757 4.95972 20.9757C4.95972 24.6965 4.95972 28.2685 4.95972 31.8802ZM6.53972 22.5831C9.12972 22.5831 11.6597 22.5831 14.2797 22.5831C14.2797 25.1232 14.2797 27.6632 14.2797 30.2728C11.6997 30.2728 9.16972 30.2728 6.53972 30.2728C6.53972 27.6434 6.53972 25.1629 6.53972 22.5831Z" fill="#045896"/>
<path d="M4.96973 15.8161C8.66973 15.8161 12.2697 15.8161 15.9297 15.8161C15.9297 12.1945 15.9297 8.65226 15.9297 5.00089C12.2097 5.00089 8.57973 5.00089 4.96973 5.00089C4.96973 8.67211 4.96973 12.2441 4.96973 15.8161ZM6.53973 6.58845C9.09973 6.58845 11.6297 6.58845 14.2697 6.58845C14.2697 9.08885 14.2697 11.619 14.2697 14.2484C11.7497 14.2484 9.21973 14.2484 6.53973 14.2484C6.53973 11.6587 6.53973 9.17815 6.53973 6.58845Z" fill="#045896"/>
<path d="M32.0497 4.98105C28.3797 4.98105 24.7697 4.98105 21.0897 4.98105C21.0897 8.60266 21.0897 12.1747 21.0897 15.8657C24.7997 15.8657 28.3997 15.8657 32.0497 15.8657C32.0497 12.2044 32.0497 8.6225 32.0497 4.98105ZM30.4597 14.2682C27.8597 14.2682 25.3297 14.2682 22.7197 14.2682C22.7197 11.7281 22.7197 9.21781 22.7197 6.59835C25.2597 6.59835 27.8097 6.59835 30.4597 6.59835C30.4597 9.12851 30.4597 11.6686 30.4597 14.2682Z" fill="#045896"/>
<path d="M1.97969 2.42112C5.27969 2.42112 8.41968 2.42112 11.5897 2.42112C11.5897 1.84563 11.5897 1.40904 11.5897 0.922852C7.85968 0.922852 4.17969 0.922852 0.429688 0.922852C0.429688 4.38571 0.429688 7.78903 0.429688 11.2221C0.949687 11.2221 1.38969 11.2221 1.97969 11.2221C1.97969 8.29507 1.97969 5.42755 1.97969 2.42112Z" fill="#045896"/>
<path d="M1.88969 35.0057C1.88969 32.0191 1.88969 29.1913 1.88969 26.3237C1.33969 26.3237 0.909697 26.3237 0.439697 26.3237C0.439697 29.7866 0.439697 33.1899 0.439697 36.6131C4.2097 36.6131 7.87969 36.6131 11.6397 36.6131C11.6197 36.0673 11.5897 35.6109 11.5697 35.0156C8.2797 35.0057 5.13969 35.0057 1.88969 35.0057Z" fill="#045896"/>
<path d="M24.8896 0.932861C24.8896 1.43889 24.8896 1.89533 24.8896 2.50059C28.1296 2.50059 31.2697 2.50059 34.5097 2.50059C34.5097 5.4971 34.5097 8.33484 34.5097 11.2321C35.0497 11.2321 35.4796 11.2321 35.9996 11.2321C35.9996 7.72959 35.9996 4.36595 35.9996 0.932861C32.2496 0.932861 28.5696 0.932861 24.8896 0.932861Z" fill="#045896"/>
<path d="M34.4796 35.1049C31.1796 35.1049 28.0396 35.1049 24.8796 35.1049C24.8796 35.7102 24.8796 36.1666 24.8796 36.5833C28.6596 36.5833 32.3296 36.5833 35.9996 36.5833C35.9996 33.1105 35.9996 29.737 35.9996 26.3634C35.4596 26.3634 34.9996 26.3634 34.4796 26.3634C34.4796 29.2607 34.4796 32.0687 34.4796 35.1049Z" fill="#045896"/>
<path d="M7.76965 29.0523C9.56965 29.0523 11.3096 29.0523 13.1096 29.0523C13.1096 27.2862 13.1096 25.5895 13.1096 23.7539C11.2696 23.7539 9.55965 23.7539 7.76965 23.7539C7.76965 25.5399 7.76965 27.2663 7.76965 29.0523Z" fill="#045896"/>
<path d="M7.79968 13.0379C9.60968 13.0379 11.3197 13.0379 13.0597 13.0379C13.0597 11.2519 13.0597 9.52542 13.0597 7.77911C11.2497 7.77911 9.53968 7.77911 7.79968 7.77911C7.79968 9.57504 7.79968 11.3015 7.79968 13.0379Z" fill="#045896"/>
<path d="M29.1997 7.78903C27.3797 7.78903 25.6697 7.78903 23.9797 7.78903C23.9797 9.6048 23.9797 11.3313 23.9797 13.0577C25.7697 13.0577 27.4497 13.0577 29.1997 13.0577C29.1997 11.1924 29.1997 9.46589 29.1997 7.78903Z" fill="#045896"/>
<path d="M30.6297 30.7392C27.9197 30.7392 25.3197 30.7392 22.5497 30.7392C22.5497 28.0602 22.5497 25.3811 22.5497 22.5732C25.1597 22.5732 27.8097 22.5732 30.6297 22.5732C30.6297 25.1827 30.6297 27.8518 30.6297 30.7392Z" fill="#F58027"/>
</svg>
