<svg width="59" height="57" viewBox="0 0 59 57" fill="none" xmlns="http://www.w3.org/2000/svg" id="CBReusableModelSuccessfull">
                    <path d="M29.5 57C45.7924 57 59 44.2401 59 28.5C59 12.7599 45.7924 0 29.5 0C13.2076 0 0 12.7599 0 28.5C0 44.2401 13.2076 57 29.5 57Z" fill="#F58027"/>
                    <path d="M42.2416 18.1329C41.1108 17.284 39.4755 17.4805 38.5968 18.5731L25.9296 34.3086L20.4217 27.4626C19.5431 26.3701 17.9078 26.1736 16.7769 27.0225C15.6461 27.8713 15.4427 29.4512 16.3213 30.5437L23.8875 39.9441C24.3838 40.5572 25.1404 40.9109 25.9377 40.9109C26.7431 40.9109 27.4998 40.5493 27.9879 39.9441L42.7054 21.6541C43.5759 20.5616 43.3725 18.9818 42.2416 18.1329Z" fill="white"/>
                </svg>