<svg width="33" height="33" viewBox="0 0 33 33" fill="none" xmlns="http://www.w3.org/2000/svg" id="CBRequestADraft">
<path fill-rule="evenodd" clip-rule="evenodd" d="M16.32 0C25.33 0 32.64 7.31001 32.64 16.32C32.64 25.33 25.33 32.64 16.32 32.64C7.31 32.64 0 25.33 0 16.32C0 7.31001 7.31 0 16.32 0Z" fill="#E3EFF8"/>
<path d="M12.4595 25.58C12.4595 25.58 12.3995 25.58 12.3695 25.57C11.4095 25.27 9.97949 24.26 9.97949 22.74V15.99C9.97949 15.18 10.6395 14.52 11.4495 14.52C12.2595 14.52 12.9195 15.18 12.9195 15.99V20.06C12.9195 20.46 13.5995 20.78 14.2495 21.1C15.0695 21.49 15.9095 21.9 15.9095 22.66C15.9095 22.82 15.7795 22.95 15.6195 22.95C15.4595 22.95 15.3295 22.82 15.3295 22.66C15.3295 22.26 14.6495 21.94 13.9995 21.62C13.1795 21.23 12.3395 20.82 12.3395 20.06V15.99C12.3395 15.5 11.9395 15.1 11.4495 15.1C10.9595 15.1 10.5595 15.5 10.5595 15.99V22.74C10.5595 24.1 11.9895 24.85 12.5395 25.02C12.6895 25.07 12.7795 25.23 12.7295 25.38C12.6895 25.5 12.5795 25.58 12.4495 25.58H12.4595Z" fill="#075896"/>
<path d="M25.2896 21.64H15.9796C15.8196 21.64 15.6896 21.5099 15.6896 21.3499C15.6896 21.1899 15.8196 21.0599 15.9796 21.0599H24.9996V12.5199H7.63957V21.0599H9.08957C9.24957 21.0599 9.37957 21.1899 9.37957 21.3499C9.37957 21.5099 9.24957 21.64 9.08957 21.64H7.34957C7.18957 21.64 7.05957 21.5099 7.05957 21.3499V12.2299C7.05957 12.0699 7.18957 11.9399 7.34957 11.9399H25.2896C25.4496 11.9399 25.5796 12.0699 25.5796 12.2299V21.3499C25.5796 21.5099 25.4496 21.64 25.2896 21.64Z" fill="#075896"/>
<path d="M19.0195 21.4998C18.8595 21.4998 18.7295 21.3698 18.7295 21.2098V12.3698C18.7295 12.2098 18.8595 12.0798 19.0195 12.0798C19.1795 12.0798 19.3095 12.2098 19.3095 12.3698V21.2098C19.3095 21.3698 19.1795 21.4998 19.0195 21.4998Z" fill="#075896"/>
<path d="M11.1699 14.1198C11.0099 14.1198 10.8799 13.9898 10.8799 13.8298V12.3598C10.8799 12.1998 11.0099 12.0698 11.1699 12.0698C11.3299 12.0698 11.4599 12.1998 11.4599 12.3598V13.8298C11.4599 13.9898 11.3299 14.1198 11.1699 14.1198Z" fill="#075896"/>
<path d="M23.78 13.79H20.5C20.34 13.79 20.21 13.66 20.21 13.5C20.21 13.34 20.34 13.21 20.5 13.21H23.78C23.94 13.21 24.07 13.34 24.07 13.5C24.07 13.66 23.94 13.79 23.78 13.79Z" fill="#075896"/>
<path d="M22.3292 20.29H20.4892C20.3292 20.29 20.1992 20.16 20.1992 20C20.1992 19.84 20.3292 19.71 20.4892 19.71H22.3292C22.4892 19.71 22.6192 19.84 22.6192 20C22.6192 20.16 22.4892 20.29 22.3292 20.29Z" fill="#075896"/>
<path d="M14.7992 11.6001C14.6392 11.6001 14.5092 11.4701 14.5092 11.3101V9.44009C14.5092 9.02009 14.1692 8.68008 13.7492 8.68008C13.3292 8.68008 12.9892 9.02009 12.9892 9.44009V11.3101C12.9892 11.4701 12.8592 11.6001 12.6992 11.6001C12.5392 11.6001 12.4092 11.4701 12.4092 11.3101V9.44009C12.4092 8.70009 13.0092 8.1001 13.7492 8.1001C14.4892 8.1001 15.0892 8.70009 15.0892 9.44009V11.3101C15.0892 11.4701 14.9592 11.6001 14.7992 11.6001Z" fill="#075896"/>
<path d="M16.8988 11.6001C16.7388 11.6001 16.6088 11.4701 16.6088 11.3101V8.40005C16.6088 7.98005 16.2688 7.64008 15.8488 7.64008C15.4288 7.64008 15.0888 7.98005 15.0888 8.40005V11.3101C15.0888 11.4701 14.9588 11.6001 14.7988 11.6001C14.6388 11.6001 14.5088 11.4701 14.5088 11.3101V8.40005C14.5088 7.66005 15.1088 7.06006 15.8488 7.06006C16.5888 7.06006 17.1888 7.66005 17.1888 8.40005V11.3101C17.1888 11.4701 17.0588 11.6001 16.8988 11.6001Z" fill="#075896"/>
<path d="M18.9994 11.6002C18.8394 11.6002 18.7094 11.4702 18.7094 11.3102V9.29019C18.7094 8.87019 18.3694 8.53018 17.9494 8.53018C17.5294 8.53018 17.1894 8.87019 17.1894 9.29019V11.3102C17.1894 11.4702 17.0594 11.6002 16.8994 11.6002C16.7394 11.6002 16.6094 11.4702 16.6094 11.3102V9.29019C16.6094 8.55019 17.2094 7.9502 17.9494 7.9502C18.6894 7.9502 19.2894 8.55019 19.2894 9.29019V11.3102C19.2894 11.4702 19.1594 11.6002 18.9994 11.6002Z" fill="#075896"/>
<path d="M21.1088 11.6001C20.9488 11.6001 20.8188 11.4701 20.8188 11.3101V10.9201C20.8188 10.5001 20.4788 10.1601 20.0588 10.1601C19.6388 10.1601 19.2987 10.5001 19.2987 10.9201V11.3101C19.2987 11.4701 19.1688 11.6001 19.0088 11.6001C18.8488 11.6001 18.7188 11.4701 18.7188 11.3101V10.9201C18.7188 10.1801 19.3188 9.58008 20.0588 9.58008C20.7988 9.58008 21.3988 10.1801 21.3988 10.9201V11.3101C21.3988 11.4701 21.2688 11.6001 21.1088 11.6001Z" fill="#075896"/>
<path d="M20.4396 25.5001C20.3396 25.5001 20.2496 25.4501 20.1896 25.3601C20.1096 25.2201 20.1496 25.0501 20.2796 24.9601C20.6396 24.7401 20.8496 24.4601 20.8496 24.3201V22.3401C20.8496 22.1801 20.9796 22.05 21.1396 22.05C21.2996 22.05 21.4296 22.1801 21.4296 22.3401V24.3201C21.4296 24.7601 20.9896 25.2001 20.5896 25.4501C20.5396 25.4801 20.4896 25.4901 20.4396 25.4901V25.5001Z" fill="#075896"/>
</svg>
