<svg width="33" height="33" viewBox="0 0 33 33" fill="none" xmlns="http://www.w3.org/2000/svg" id="CBSavingsAccountOpening">
<path fill-rule="evenodd" clip-rule="evenodd" d="M16.32 0.860107C25.33 0.860107 32.64 8.17011 32.64 17.1801C32.64 26.1901 25.33 33.5001 16.32 33.5001C7.31 33.5001 0 26.1901 0 17.1801C0 8.17011 7.31 0.860107 16.32 0.860107Z" fill="#E3EFF8"/>
<path d="M21.8102 25.89H18.9802L18.8202 24.79C18.4402 24.84 18.0602 24.88 17.6702 24.89H17.2702C17.1902 24.89 17.1102 24.89 17.0302 24.89C17.0002 24.89 16.9702 24.89 16.9402 24.89H16.8902C16.8302 24.89 16.7802 24.89 16.7202 24.89C16.6002 24.89 16.4802 24.88 16.3702 24.87H16.3202C16.0402 24.84 15.7602 24.81 15.5002 24.77L14.7202 25.89H11.8802V23.59C9.39016 22.29 7.46016 20.15 6.44016 17.54L6.41016 17.47V14.68H6.81016C7.95016 14.68 8.99016 14.23 9.68016 13.45C10.2102 12.85 10.7302 12.37 11.2702 11.98V9.23999H11.6702C12.8202 9.23999 13.9002 9.66999 14.7302 10.45C15.5502 10.26 16.4002 10.16 17.2602 10.16C22.2802 10.16 26.3702 13.46 26.3702 17.53C26.3702 19.73 25.1802 21.79 23.0902 23.19L21.7902 25.89H21.8102ZM19.6702 25.09H21.3002L22.4702 22.65L22.5602 22.59C24.4702 21.33 25.5702 19.49 25.5702 17.54C25.5702 13.92 21.8402 10.97 17.2602 10.97C16.3902 10.97 15.5302 11.08 14.7102 11.29L14.4802 11.35L14.3202 11.18C13.7102 10.55 12.9302 10.16 12.0702 10.07V12.41L11.8902 12.53C11.3402 12.9 10.8102 13.37 10.2702 13.98C9.51016 14.84 8.41016 15.37 7.20016 15.46V17.31C8.19016 19.78 10.0502 21.79 12.4502 22.98L12.6702 23.09V25.09H14.2902L15.1302 23.9L15.3802 23.94C15.6902 23.99 16.0302 24.04 16.3802 24.06H16.4302C16.5402 24.07 16.6502 24.08 16.7602 24.08C16.8102 24.08 16.8602 24.08 16.9102 24.08H16.9702C16.9702 24.08 17.0102 24.08 17.0402 24.08C17.0902 24.08 17.1302 24.08 17.1702 24.08H17.2602C17.8602 24.08 18.4702 24.03 19.0702 23.92L19.4702 23.85L19.6502 25.07L19.6702 25.09Z" fill="#075896"/>
<path d="M25.9805 17.9399V17.1399C26.6705 17.1399 27.2405 16.5799 27.2405 15.8799H28.0405C28.0405 17.0199 27.1205 17.9399 25.9805 17.9399Z" fill="#075896"/>
<path d="M11.9204 16.3101C11.2404 16.3101 10.6904 15.7601 10.6904 15.0801H11.4904C11.4904 15.3201 11.6804 15.5101 11.9204 15.5101C12.1604 15.5101 12.3504 15.3201 12.3504 15.0801H13.1504C13.1504 15.7601 12.6004 16.3101 11.9204 16.3101Z" fill="#075896"/>
<path d="M17.5799 19.7501H16.9699C16.6199 19.7501 16.2899 19.6101 16.0499 19.3701C15.7999 19.1201 15.6699 18.7901 15.6699 18.4401H16.4699C16.4699 18.5801 16.5199 18.7001 16.6199 18.8001C16.7199 18.9001 16.8399 18.9501 16.9799 18.9501H17.5899C17.7299 18.9501 17.8499 18.9001 17.9499 18.8001C18.0399 18.7101 18.0999 18.5801 18.0999 18.4401C18.0999 18.3001 18.0499 18.1801 17.9499 18.0801C17.8499 17.9801 17.7299 17.9301 17.5899 17.9301H16.9799C16.6299 17.9301 16.2999 17.7901 16.0499 17.5501C15.7999 17.3101 15.6699 16.9801 15.6699 16.6301C15.6699 16.2801 15.8099 15.9501 16.0499 15.7001C16.2999 15.4501 16.6299 15.3201 16.9799 15.3201H17.5899C17.9399 15.3201 18.2699 15.4601 18.5099 15.7001C18.7599 15.9501 18.8899 16.2801 18.8899 16.6301H18.0899C18.0899 16.4901 18.0399 16.3701 17.9399 16.2701C17.8399 16.1701 17.7199 16.1201 17.5799 16.1201H16.9699C16.8299 16.1201 16.7099 16.1701 16.6099 16.2701C16.5099 16.3701 16.4599 16.4901 16.4599 16.6301C16.4599 16.7701 16.5099 16.8901 16.6099 16.9901C16.7099 17.0901 16.8399 17.1401 16.9699 17.1401H17.5799C17.9299 17.1401 18.2599 17.2801 18.5099 17.5201C18.7599 17.7701 18.8899 18.0901 18.8899 18.4401C18.8899 18.7901 18.7499 19.1201 18.5099 19.3701C18.2599 19.6201 17.9299 19.7501 17.5799 19.7501Z" fill="#075896"/>
<path d="M17.6799 14.79H16.8799V15.72H17.6799V14.79Z" fill="#075896"/>
<path d="M17.6799 19.3501H16.8799V20.2801H17.6799V19.3501Z" fill="#075896"/>
</svg>
