<svg width="17" height="17" viewBox="0 0 17 17" fill="none"
								xmlns="http://www.w3.org/2000/svg" id="CBScanCode">
								<path
									d="M6.46036 7.62002C6.41036 7.63002 6.36035 7.63001 6.31035 7.63001C4.87035 7.63001 3.43036 7.63001 1.99036 7.63001C1.42036 7.63001 0.97035 7.38002 0.64035 6.91002C0.48035 6.68002 0.390346 6.43002 0.370346 6.15002C0.370346 6.14002 0.360352 6.13001 0.360352 6.13001C0.360352 4.62001 0.360352 3.11001 0.360352 1.60001C0.360352 1.58001 0.370346 1.56002 0.370346 1.54002C0.440346 0.860016 0.950346 0.280016 1.62035 0.130016C1.70035 0.110016 1.79035 0.100015 1.87035 0.0900154C3.38035 0.0900154 4.89034 0.0900154 6.40034 0.0900154C6.46034 0.100015 6.51036 0.110016 6.57036 0.110016C7.26036 0.220016 7.82034 0.810014 7.90034 1.51001C7.91035 1.58001 7.91035 1.65001 7.91035 1.73001C7.91035 3.16001 7.91035 4.59001 7.91035 6.02001C7.92035 6.84001 7.29036 7.54002 6.46036 7.62002ZM6.84035 1.72002C6.84035 1.70002 6.84035 1.69001 6.84035 1.67001C6.83035 1.41001 6.60035 1.18001 6.33035 1.17001C6.17035 1.16001 6.01036 1.17001 5.85036 1.17001C4.57036 1.17001 3.29036 1.17001 2.02036 1.17001C1.90036 1.17001 1.78034 1.19002 1.68034 1.27002C1.52034 1.39002 1.45035 1.54002 1.45035 1.74002C1.45035 2.45002 1.45035 3.16001 1.45035 3.87001C1.45035 4.58001 1.45035 5.29002 1.45035 6.01002C1.45035 6.34002 1.71035 6.57001 2.00035 6.57001C3.43035 6.57001 4.87035 6.57001 6.30035 6.57001C6.36035 6.57001 6.41036 6.56002 6.46036 6.55002C6.69036 6.48002 6.84035 6.27001 6.84035 6.02001C6.84035 4.57001 6.84035 3.14002 6.84035 1.72002ZM16.5303 6.27001C16.4203 6.95001 15.9204 7.47001 15.2404 7.60001C15.1404 7.62001 15.0303 7.63001 14.9303 7.63001C13.4903 7.63001 12.0603 7.63001 10.6203 7.63001C9.80035 7.63001 9.11036 7.02001 9.02036 6.20001C9.00035 6.14001 9.00035 6.08002 9.00035 6.01002C9.00035 4.57002 9.00035 3.14002 9.00035 1.70002C9.00035 0.940016 9.52035 0.290014 10.2603 0.120014C10.3303 0.100014 10.4004 0.100015 10.4704 0.0900154C10.4804 0.0900154 10.4904 0.0900171 10.5004 0.0800171C12.0104 0.0800171 13.5203 0.0800171 15.0303 0.0800171C15.0803 0.0900171 15.1303 0.0900137 15.1803 0.100014C15.8303 0.200014 16.3604 0.700015 16.5004 1.34002C16.5204 1.42002 16.5303 1.50002 16.5403 1.58002C16.5403 3.09002 16.5403 4.60002 16.5403 6.11002C16.5403 6.17002 16.5403 6.22001 16.5303 6.27001ZM15.4704 3.86002C15.4704 3.15002 15.4704 2.44001 15.4704 1.73001C15.4704 1.53001 15.4004 1.37001 15.2404 1.26001C15.1404 1.19001 15.0203 1.16002 14.9003 1.16002C13.6703 1.16002 12.4404 1.16002 11.2104 1.16002C11.0204 1.16002 10.8303 1.16002 10.6404 1.16002C10.3204 1.15002 10.0804 1.42001 10.0804 1.71001C10.0804 3.14001 10.0804 4.58002 10.0804 6.01002C10.0804 6.07002 10.0904 6.13002 10.1104 6.19002C10.1804 6.41002 10.3904 6.55002 10.6304 6.55002C11.8004 6.55002 12.9704 6.55002 14.1404 6.55002C14.4004 6.55002 14.6703 6.55002 14.9303 6.55002C15.1203 6.55002 15.2603 6.47002 15.3703 6.33002C15.4503 6.23002 15.4704 6.11001 15.4704 5.99001C15.4704 5.28001 15.4704 4.57002 15.4704 3.86002ZM6.55035 16.24C6.51035 16.25 6.46035 16.25 6.42035 16.26C4.91035 16.26 3.40035 16.26 1.89035 16.26C1.88035 16.26 1.87035 16.25 1.87035 16.25C1.63035 16.23 1.40035 16.16 1.19035 16.04C0.790353 15.8 0.530349 15.45 0.420349 14.99C0.400349 14.91 0.390356 14.83 0.380356 14.75C0.380356 13.24 0.380356 11.73 0.380356 10.22C0.390356 10.17 0.390345 10.13 0.400345 10.08C0.510345 9.38002 1.05035 8.84002 1.75035 8.73002C1.83035 8.72002 1.90035 8.71001 1.98035 8.71001C3.42035 8.71001 4.86034 8.71001 6.29034 8.71001C7.02034 8.71001 7.64036 9.17002 7.85036 9.86002C7.90036 10.01 7.92035 10.16 7.92035 10.32C7.92035 11.76 7.92035 13.2 7.92035 14.64C7.92035 15.44 7.34035 16.12 6.55035 16.24ZM6.84035 10.33C6.84035 10.27 6.83035 10.21 6.81035 10.15C6.74035 9.93002 6.53034 9.79002 6.29034 9.79002C5.36034 9.79002 4.43036 9.79002 3.49036 9.79002C2.99036 9.79002 2.49036 9.79002 1.99036 9.79002C1.85036 9.79002 1.73036 9.83001 1.63036 9.92001C1.50036 10.04 1.44035 10.18 1.44035 10.36C1.44035 11.35 1.44035 12.35 1.44035 13.34C1.44035 13.77 1.44035 14.19 1.44035 14.62C1.44035 14.82 1.51035 14.97 1.67035 15.08C1.77035 15.15 1.89035 15.18 2.01035 15.18C2.72035 15.18 3.42036 15.18 4.13036 15.18C4.84036 15.18 5.55035 15.18 6.27036 15.18C6.60036 15.18 6.83035 14.92 6.83035 14.64C6.84035 13.2 6.84035 11.77 6.84035 10.33ZM14.4503 10.87C14.4303 10.87 14.4203 10.87 14.4003 10.87C14.4003 10.51 14.4003 10.15 14.4003 9.79002C14.4203 9.79002 14.4303 9.79002 14.4503 9.79002C14.7803 9.79002 15.1003 9.79002 15.4303 9.79002C15.4503 9.79002 15.4603 9.79002 15.4803 9.79002C15.4803 10.15 15.4803 10.51 15.4803 10.87C15.1303 10.87 14.7903 10.87 14.4503 10.87ZM10.1304 10.87C10.1104 10.87 10.1004 10.87 10.0804 10.87C10.0804 10.51 10.0804 10.15 10.0804 9.79002C10.1004 9.79002 10.1104 9.79002 10.1304 9.79002C10.4604 9.79002 10.7904 9.79002 11.1104 9.79002C11.1304 9.79002 11.1404 9.79002 11.1604 9.79002C11.1604 10.15 11.1604 10.51 11.1604 10.87C10.8104 10.87 10.4704 10.87 10.1304 10.87ZM3.61035 4.39001C3.61035 4.03001 3.61035 3.68002 3.61035 3.32001C3.97035 3.32001 4.32034 3.32001 4.68034 3.32001C4.68034 3.68002 4.68034 4.04001 4.68034 4.39001C4.32034 4.39001 3.97035 4.39001 3.61035 4.39001ZM12.2404 4.39001C12.2404 4.03001 12.2404 3.68002 12.2404 3.32001C12.6004 3.32001 12.9503 3.32001 13.3103 3.32001C13.3103 3.68002 13.3103 4.03001 13.3103 4.39001C12.9503 4.39001 12.5904 4.39001 12.2404 4.39001ZM10.0804 15.18C10.0804 14.82 10.0804 14.47 10.0804 14.11C10.4404 14.11 10.7903 14.11 11.1503 14.11C11.1503 14.47 11.1503 14.82 11.1503 15.18C10.8003 15.18 10.4404 15.18 10.0804 15.18ZM14.4003 15.18C14.4003 14.82 14.4003 14.47 14.4003 14.11C14.7603 14.11 15.1104 14.11 15.4704 14.11C15.4704 14.47 15.4704 14.82 15.4704 15.18C15.1204 15.18 14.7603 15.18 14.4003 15.18ZM12.2404 13.02C12.2404 12.66 12.2404 12.31 12.2404 11.95C12.6004 11.95 12.9503 11.95 13.3103 11.95C13.3103 12.31 13.3103 12.66 13.3103 13.02C12.9503 13.02 12.5904 13.02 12.2404 13.02ZM3.61035 13.02C3.61035 12.66 3.61035 12.31 3.61035 11.95C3.97035 11.95 4.32034 11.95 4.68034 11.95C4.68034 12.31 4.68034 12.66 4.68034 13.02C4.33034 13.02 3.97035 13.02 3.61035 13.02Z"
									fill="#777777" />
							</svg>