<svg width="33" height="33" viewBox="0 0 33 33" fill="none" xmlns="http://www.w3.org/2000/svg" id="CBScheduleAnRmAppointment">
<path fill-rule="evenodd" clip-rule="evenodd" d="M16.32 0C25.33 0 32.64 7.31001 32.64 16.32C32.64 25.33 25.33 32.64 16.32 32.64C7.31 32.64 0 25.33 0 16.32C0 7.31001 7.31 0 16.32 0Z" fill="#E3EFF8"/>
<path d="M18.3399 8.32999C18.3399 8.00999 18.6499 7.75 19.0499 7.75C19.4499 7.75 19.7599 8.00999 19.7599 8.32999V10.86C19.7599 11.18 19.4499 11.44 19.0499 11.44C18.6499 11.44 18.3399 11.18 18.3399 10.86V8.32999ZM21.4399 15.89C22.0499 15.89 22.6299 16.01 23.1599 16.23C23.7099 16.46 24.2099 16.79 24.6199 17.21C25.0299 17.62 25.3699 18.12 25.5999 18.67C25.8199 19.2 25.9399 19.78 25.9399 20.39C25.9399 21 25.8199 21.58 25.5999 22.11C25.3699 22.66 25.0399 23.16 24.6199 23.57C24.2099 23.98 23.7099 24.32 23.1599 24.55C22.6299 24.77 22.0499 24.89 21.4399 24.89C20.8299 24.89 20.2499 24.77 19.7199 24.55C19.1699 24.32 18.6699 23.99 18.2599 23.57C17.8499 23.16 17.5099 22.66 17.2799 22.11C17.0599 21.58 16.9399 21 16.9399 20.39C16.9399 19.78 17.0599 19.2 17.2799 18.67C17.5099 18.12 17.8399 17.62 18.2599 17.21C18.6699 16.8 19.1699 16.46 19.7199 16.23C20.2499 16.01 20.8299 15.89 21.4399 15.89ZM21.0999 18.51C21.0999 18.4 21.1399 18.3 21.2199 18.23C21.2899 18.16 21.3899 18.11 21.4999 18.11C21.6099 18.11 21.7099 18.15 21.7799 18.23C21.8499 18.31 21.8999 18.4 21.8999 18.51V20.61L23.4699 21.54H23.4799C23.5699 21.6 23.6199 21.69 23.6499 21.78C23.6699 21.88 23.6599 21.98 23.6099 22.07C23.6099 22.07 23.6099 22.08 23.6099 22.09C23.5499 22.18 23.4699 22.23 23.3799 22.26C23.2799 22.28 23.1799 22.27 23.0899 22.22L21.3299 21.18C21.2699 21.15 21.2199 21.1 21.1799 21.04C21.1399 20.98 21.1199 20.91 21.1199 20.84V18.51H21.0999ZM24.0599 17.77C23.7199 17.43 23.3099 17.15 22.8599 16.96C22.4199 16.78 21.9399 16.68 21.4399 16.68C20.9399 16.68 20.4599 16.78 20.0199 16.96C19.5699 17.15 19.1599 17.42 18.8199 17.77C18.4799 18.12 18.1999 18.52 18.0099 18.97C17.8299 19.41 17.7299 19.89 17.7299 20.39C17.7299 20.89 17.8299 21.37 18.0099 21.81C18.1999 22.26 18.4699 22.67 18.8199 23.01C19.1699 23.35 19.5699 23.63 20.0199 23.82C20.4599 24 20.9399 24.1 21.4399 24.1C21.9399 24.1 22.4199 24 22.8599 23.82C23.3099 23.63 23.7199 23.36 24.0599 23.01C24.7299 22.34 25.1499 21.41 25.1499 20.39C25.1499 19.89 25.0499 19.41 24.8699 18.97C24.6799 18.52 24.4099 18.11 24.0599 17.77ZM10.3099 15.94C10.3099 15.94 10.2299 15.76 10.2299 15.55C10.2299 15.34 10.2599 15.16 10.3099 15.16H12.2299C12.2299 15.16 12.3099 15.34 12.3099 15.55C12.3099 15.76 12.2799 15.94 12.2299 15.94H10.3099ZM13.3799 15.94C13.3799 15.94 13.2999 15.76 13.2999 15.55C13.2999 15.34 13.3299 15.16 13.3799 15.16H15.2999C15.2999 15.16 15.3799 15.34 15.3799 15.55C15.3799 15.76 15.3499 15.94 15.2999 15.94H13.3799ZM16.4499 15.94C16.4499 15.94 16.3699 15.76 16.3699 15.55C16.3699 15.34 16.3999 15.16 16.4499 15.16H18.3699C18.3699 15.16 18.4499 15.33 18.4499 15.55C18.2599 15.67 18.0699 15.8 17.8899 15.94H16.4499ZM10.3199 18.18C10.3199 18.18 10.2399 18 10.2399 17.79C10.2399 17.58 10.2699 17.4 10.3199 17.4H12.2399C12.2399 17.4 12.3199 17.58 12.3199 17.79C12.3199 18 12.2899 18.18 12.2399 18.18H10.3199ZM13.3799 18.18C13.3799 18.18 13.2999 18 13.2999 17.79C13.2999 17.58 13.3299 17.4 13.3799 17.4H15.2999C15.2999 17.4 15.3799 17.58 15.3799 17.79C15.3799 18 15.3499 18.18 15.2999 18.18H13.3799ZM10.3199 20.42C10.3199 20.42 10.2399 20.24 10.2399 20.03C10.2399 19.82 10.2699 19.64 10.3199 19.64H12.2399C12.2399 19.64 12.3199 19.82 12.3199 20.03C12.3199 20.24 12.2899 20.42 12.2399 20.42H10.3199ZM13.3899 20.42C13.3899 20.42 13.3099 20.24 13.3099 20.03C13.3099 19.82 13.3399 19.64 13.3899 19.64H15.3099C15.3099 19.64 15.3899 19.82 15.3899 20.03C15.3899 20.24 15.3599 20.42 15.3099 20.42H13.3899ZM11.9999 8.32999C11.9999 8.00999 12.3099 7.75 12.7099 7.75C13.1099 7.75 13.4199 8.00999 13.4199 8.32999V10.86C13.4199 11.18 13.0999 11.44 12.7099 11.44C12.3199 11.44 11.9999 11.18 11.9999 10.86V8.32999ZM9.16988 13.28H22.5999V10.37C22.5999 10.27 22.5599 10.18 22.4999 10.12C22.4399 10.06 22.3399 10.02 22.2499 10.02H20.9599C20.7399 10.02 20.5699 9.84 20.5699 9.63C20.5699 9.42 20.7499 9.23999 20.9599 9.23999H22.2499C22.5699 9.23999 22.8499 9.37001 23.0599 9.57001C23.2699 9.77001 23.3899 10.06 23.3899 10.38V15C23.1299 14.91 22.8699 14.84 22.5999 14.79V14.07H9.16988V21.61C9.16988 21.71 9.20988 21.8 9.26988 21.86C9.32988 21.92 9.42988 21.96 9.51988 21.96H15.8999C15.9699 22.23 16.0599 22.5 16.1699 22.75H9.51988C9.20988 22.75 8.91988 22.62 8.70988 22.42C8.49988 22.21 8.37988 21.93 8.37988 21.62V10.38C8.37988 10.07 8.50988 9.78001 8.70988 9.57001C8.91988 9.36001 9.19988 9.23999 9.51988 9.23999H10.8899C11.1099 9.23999 11.2799 9.42 11.2799 9.63C11.2799 9.84 11.0999 10.02 10.8899 10.02H9.51988C9.41988 10.02 9.32988 10.06 9.26988 10.12C9.20988 10.18 9.16988 10.28 9.16988 10.37V13.28ZM14.5399 10.01C14.3199 10.01 14.1499 9.83 14.1499 9.62C14.1499 9.41 14.3299 9.23001 14.5399 9.23001H17.1599C17.3799 9.23001 17.5499 9.41 17.5499 9.62C17.5499 9.83 17.3699 10.01 17.1599 10.01H14.5399Z" fill="#075896"/>
</svg>
