<svg width="18" height="17" viewBox="0 0 18 17" fill="none"
                                    xmlns="http://www.w3.org/2000/svg" id="CBSearchIcon">
                                    <path
                                        d="M12.5014 11.1708H11.7114L11.4314 10.918C12.0564 10.2384 12.5131 9.43782 12.769 8.57363C13.0248 7.70943 13.0735 6.80298 12.9114 5.91914C12.4414 3.31671 10.1214 1.23851 7.32144 0.920224C6.33706 0.803645 5.33723 0.899416 4.39846 1.20021C3.4597 1.501 2.60688 1.99885 1.90527 2.65564C1.20366 3.31244 0.671846 4.11079 0.350529 4.98959C0.0292113 5.86839 -0.0730946 6.80435 0.0514397 7.72586C0.39144 10.347 2.61144 12.5188 5.39144 12.9588C6.33559 13.1105 7.30389 13.065 8.22705 12.8255C9.15021 12.5859 10.0054 12.1584 10.7314 11.5733L11.0014 11.8355V12.575L15.2514 16.5535C15.6614 16.9373 16.3314 16.9373 16.7414 16.5535C17.1514 16.1697 17.1514 15.5425 16.7414 15.1587L12.5014 11.1708ZM6.50144 11.1708C4.01144 11.1708 2.00144 9.28919 2.00144 6.95823C2.00144 4.62728 4.01144 2.74567 6.50144 2.74567C8.99144 2.74567 11.0014 4.62728 11.0014 6.95823C11.0014 9.28919 8.99144 11.1708 6.50144 11.1708Z"
                                        fill="#848484" />
                                </svg>