<svg width="68" height="40" fill="none" viewBox="0 0 68 40" xmlns="http://www.w3.org/2000/svg" id="CBSendReceive">
                    <path d="M3.93996 35.1577C5.30996 35.4554 6.15997 35.892 6.15997 36.9933V37.0131C6.15997 38.2236 5.19996 38.938 3.74996 38.938C2.69996 38.938 1.68996 38.6106 0.959961 37.9558L1.87997 36.8643C2.46997 37.3307 3.11996 37.5688 3.80996 37.5688C4.24996 37.5688 4.48996 37.42 4.48996 37.162V37.1421C4.48996 36.8941 4.28996 36.7651 3.48996 36.5766C2.21996 36.2888 1.23996 35.9316 1.23996 34.7211V34.7013C1.23996 33.5999 2.11996 32.8161 3.53996 32.8161C4.54996 32.8161 5.33996 33.0839 5.98996 33.5999L5.16996 34.7509C4.62996 34.3739 4.02996 34.1655 3.49996 34.1655C3.09996 34.1655 2.89996 34.3341 2.89996 34.5425V34.5624C2.90996 34.8501 3.10996 34.9692 3.93996 35.1577ZM11.78 37.4398V38.8289H6.94997V32.9252H11.74V34.3143H8.58997V35.2073H11.45V36.4972H8.58997V37.4299H11.78V37.4398ZM16.8 38.8289L14.26 35.5843V38.8289H12.63V32.9252H14.17L16.62 36.0507V32.9252H18.25V38.8289H16.8ZM21.56 38.8289H19.3V32.9252H21.6C23.73 32.9252 24.96 34.1357 24.96 35.8423V35.8622C24.95 37.5688 23.7 38.8289 21.56 38.8289ZM23.26 35.8721C23.26 34.9295 22.61 34.3739 21.62 34.3739H20.95V37.3803H21.62C22.61 37.3803 23.26 36.8445 23.26 35.8919V35.8721ZM25.92 39.9105H24.61L28.38 32.1017H29.69L25.92 39.9105ZM34.06 36.775L35.48 38.8389H33.58L32.38 37.0529H31.66V38.8389H30.01V32.9351H32.82C33.73 32.9351 34.36 33.1733 34.76 33.5801C35.11 33.9174 35.29 34.3738 35.29 34.9592V34.9791C35.29 35.8622 34.8 36.4575 34.06 36.775ZM33.63 35.0486C33.63 34.5822 33.29 34.354 32.74 34.354H31.66V35.7729H32.75C33.31 35.7729 33.63 35.505 33.63 35.0684V35.0486ZM40.95 37.4398V38.8289H36.12V32.9252H40.91V34.3143H37.76V35.2073H40.62V36.4972H37.76V37.4299H40.95V37.4398ZM44.66 34.3044C43.83 34.3044 43.24 35.0089 43.24 35.8622V35.882C43.24 36.7651 43.83 37.4596 44.66 37.4596C45.28 37.4596 45.65 37.1719 46 36.7453L47.24 37.6184C46.68 38.3824 45.92 38.948 44.6 38.948C42.9 38.948 41.53 37.6581 41.53 35.8919V35.8721C41.53 34.1457 42.86 32.7962 44.67 32.7962C45.89 32.7962 46.67 33.3022 47.2 34.0265L45.96 34.9791C45.62 34.5723 45.23 34.3044 44.66 34.3044ZM52.78 37.4398V38.8289H47.95V32.9252H52.74V34.3143H49.59V35.2073H52.45V36.4972H49.59V37.4299H52.78V37.4398ZM53.65 38.8289V32.9252H55.31V38.8289H53.65ZM59.87 38.8785H58.34L55.92 32.9351H57.77L59.12 36.6758L60.47 32.9351H62.28L59.87 38.8785ZM67.69 37.4398V38.8289H62.86V32.9252H67.65V34.3143H64.5V35.2073H67.36V36.4972H64.5V37.4299H67.69V37.4398Z" fill="#787878"/>
                    <path d="M47.4298 14.2913C47.1298 16.2261 46.4198 17.9923 45.2898 19.5997C44.1698 21.1971 42.7298 22.4771 41.0098 23.4495C41.6098 24.0448 42.1998 24.6203 42.8198 25.2255C41.1698 25.2255 39.5598 25.2255 37.9398 25.2255C37.9398 23.638 37.9398 22.0604 37.9398 20.453C37.9998 20.5026 38.0398 20.5323 38.0698 20.572C38.6098 21.0979 39.1398 21.6238 39.6698 22.1497C39.7598 22.239 39.8198 22.2588 39.9398 22.1993C43.2498 20.3736 45.2598 17.635 45.8298 13.944C46.6498 8.61575 43.3598 3.44627 38.1398 1.78926C37.9798 1.73965 37.9198 1.68013 37.9198 1.50153C37.9398 1.0848 37.9298 0.658116 37.9298 0.23146C37.9298 0.181849 37.9298 0.122355 37.9298 0.0231323C42.4498 1.38248 45.5298 4.19043 46.9998 8.60582C47.6198 10.4613 47.7298 12.3664 47.4298 14.2913ZM29.6098 3.10893C29.5398 3.02955 29.4798 3.00973 29.3798 3.06926C26.0598 4.89495 24.0298 7.63345 23.4698 11.3444C22.6598 16.7123 25.9398 21.8222 31.1798 23.4991C31.3298 23.5487 31.3798 23.5983 31.3698 23.7571C31.3598 24.2433 31.3698 24.7195 31.3698 25.2057C28.0198 24.4318 23.8798 21.6536 22.3098 16.7222C21.4098 13.8646 21.5098 11.0268 22.6298 8.2387C23.7498 5.46048 25.6598 3.34709 28.2798 1.83892C27.6798 1.2535 27.0898 0.678016 26.5098 0.102527C26.5198 0.0926048 26.5198 0.0727216 26.5298 0.0627994C28.1398 0.0627994 29.7498 0.0627994 31.3698 0.0627994C31.3698 1.65035 31.3698 3.22799 31.3698 4.83539C31.3098 4.78577 31.2698 4.74609 31.2398 4.71632C30.6898 4.1706 30.1498 3.64473 29.6098 3.10893ZM34.6298 19.4211C30.8398 19.4211 27.7398 16.365 27.7398 12.6244C27.7398 8.87377 30.8398 5.8276 34.6398 5.81768C38.4598 5.81768 41.5598 8.86384 41.5598 12.6244C41.5598 16.3849 38.4498 19.431 34.6298 19.4211ZM34.3198 9.90563C34.7098 9.78656 35.1198 9.79652 35.5098 9.88582C35.8798 9.9652 36.2398 10.0941 36.6198 10.2132C36.7298 9.85601 36.8398 9.479 36.9598 9.07219C36.6598 8.97297 36.3898 8.86381 36.1098 8.80427C35.8198 8.73482 35.5198 8.70509 35.1998 8.65548C35.1998 8.28835 35.1998 7.91131 35.1998 7.53426C34.8398 7.53426 34.5098 7.53426 34.1498 7.53426C34.1498 7.89146 34.1498 8.24867 34.1498 8.59595C34.1498 8.70509 34.1298 8.75469 34.0098 8.77454C33.6198 8.85392 33.2598 9.00272 32.9298 9.24085C31.8598 10.0346 31.8198 11.5528 32.8498 12.3664C33.0098 12.4954 33.1798 12.6045 33.3598 12.6938C33.7298 12.8624 34.1098 13.0014 34.4798 13.18C34.7998 13.3388 35.1098 13.5074 35.3998 13.7059C35.5898 13.8348 35.6698 14.0531 35.6798 14.2814C35.7098 14.7775 35.4098 15.1446 34.8598 15.2736C34.2598 15.4125 33.6698 15.3132 33.0998 15.1148C32.8498 15.0255 32.6098 14.9164 32.3598 14.8072C32.2498 15.1743 32.1498 15.5316 32.0498 15.8987C32.0398 15.9384 32.0898 16.0078 32.1298 16.0376C32.3098 16.1269 32.4898 16.2261 32.6898 16.2757C33.1398 16.3948 33.5998 16.4742 34.0898 16.5833C34.0898 16.9405 34.0898 17.3275 34.0898 17.7243C34.4498 17.7243 34.7898 17.7243 35.1398 17.7243C35.1398 17.2977 35.1398 16.881 35.1398 16.4841C35.4198 16.3848 35.6998 16.3253 35.9598 16.2063C36.7498 15.8392 37.2198 15.224 37.2798 14.3508C37.3398 13.4975 36.9698 12.8426 36.2298 12.3961C35.9298 12.2175 35.5898 12.0786 35.2698 11.9298C34.8698 11.7413 34.4698 11.5626 34.0798 11.3444C33.8498 11.2253 33.7098 11.007 33.6898 10.7391C33.6698 10.3422 33.8998 10.0346 34.3198 9.90563Z" fill="#787878"/>
                </svg>