<svg width="53" height="31" viewBox="0 0 53 31" fill="none" xmlns="http://www.w3.org/2000/svg" id="CBSendMoney">
<path d="M35.4504 21.123H0.94043V22.4923H35.4504V21.123Z" fill="#045896"/>
<path d="M35.4504 23.7524H0.94043V25.1217H35.4504V23.7524Z" fill="#045896"/>
<path d="M35.4504 26.3719H0.94043V27.7412H35.4504V26.3719Z" fill="#045896"/>
<path d="M35.4504 29.0013H0.94043V30.3706H35.4504V29.0013Z" fill="#045896"/>
<path d="M35.4504 19.8728H0.94043V0.703125H35.4504V19.8728ZM2.32043 18.5036H34.0704V2.07237H2.32043V18.5036Z" fill="#045896"/>
<path d="M29.3705 3.29297H7.01054C7.01054 5.18811 5.47055 6.71615 3.56055 6.71615V13.8403C5.47055 13.8403 7.01054 15.3683 7.01054 17.2634H29.3705C29.3705 15.3683 30.9105 13.8403 32.8205 13.8403V6.71615C30.9205 6.71615 29.3705 5.18811 29.3705 3.29297ZM18.1905 15.7553C15.1405 15.7553 12.6705 13.3045 12.6705 10.2782C12.6705 7.25194 15.1405 4.80114 18.1905 4.80114C21.2405 4.80114 23.7105 7.25194 23.7105 10.2782C23.7105 13.3045 21.2405 15.7553 18.1905 15.7553Z" fill="#259CEE"/>
<path d="M18.5899 13.324H17.7999C17.2999 13.324 16.8299 13.1355 16.4699 12.7783C16.1099 12.4211 15.9199 11.9548 15.9199 11.4586H17.2999C17.2999 11.5876 17.3499 11.7166 17.4499 11.8059C17.5399 11.8952 17.6699 11.9448 17.7999 11.9448H18.5899C18.7199 11.9448 18.8499 11.8952 18.9399 11.796C19.0299 11.7067 19.0799 11.5777 19.0799 11.4487C19.0799 11.3197 19.0299 11.1907 18.9399 11.1014C18.8499 11.0121 18.7199 10.9526 18.5899 10.9526H17.7999C17.2999 10.9526 16.8299 10.7542 16.4699 10.4069C16.1199 10.0596 15.9199 9.59325 15.9199 9.08721C15.9199 8.5911 16.1099 8.12477 16.4699 7.76757C16.8299 7.41037 17.2999 7.22183 17.7999 7.22183H18.5899C19.0899 7.22183 19.5599 7.41037 19.9199 7.76757C20.2699 8.12477 20.4699 8.5911 20.4699 9.08721H19.0899C19.0899 8.95823 19.0399 8.82923 18.9499 8.73993C18.8599 8.65063 18.7299 8.60104 18.5999 8.60104H17.8099C17.6799 8.60104 17.5499 8.65064 17.4599 8.74986C17.3699 8.83916 17.3199 8.96816 17.3199 9.09715C17.3199 9.22614 17.3699 9.35513 17.4599 9.44443C17.5499 9.53373 17.6799 9.59326 17.8099 9.59326H18.5999C19.0999 9.59326 19.5699 9.79169 19.9299 10.139C20.2799 10.4862 20.4799 10.9526 20.4799 11.4586C20.4799 11.9548 20.2899 12.4211 19.9299 12.7783C19.5599 13.1256 19.0899 13.324 18.5899 13.324Z" fill="#045896"/>
<path d="M18.8799 6.71582H17.4999V7.92633H18.8799V6.71582Z" fill="#045896"/>
<path d="M18.8799 12.6394H17.4999V13.8499H18.8799V12.6394Z" fill="#045896"/>
<path d="M42.9102 8.19434L42.9402 11.3595L36.9902 11.4687V15.3681L42.9802 15.1994L43.0102 18.057L51.5702 13.0364L42.9102 8.19434Z" fill="#F58027"/>
<path d="M51.8005 12.1031L43.1405 7.26109C42.9805 7.17179 42.7805 7.1718 42.6205 7.27102C42.4605 7.36032 42.3605 7.53891 42.3705 7.71751L42.4005 10.3767L36.9805 10.466V11.4979L42.9405 11.3987C43.2305 11.3987 43.4505 11.1605 43.4505 10.8827L43.4305 8.6006L50.5305 12.5695L43.5205 16.6872L43.5005 14.7226C43.5005 14.5837 43.4405 14.4547 43.3405 14.3555C43.2405 14.2563 43.1105 14.2067 42.9705 14.2166L37.0005 14.3852V15.4172L42.4705 15.2683L42.4905 17.6001C42.4905 17.7886 42.5905 17.9572 42.7505 18.0465C42.9105 18.1358 43.1105 18.1358 43.2705 18.0366L51.8305 13.016C51.9905 12.9267 52.0905 12.7481 52.0805 12.5695C52.0605 12.3611 51.9605 12.1924 51.8005 12.1031Z" fill="#045896"/>
</svg>
