<svg width="33" height="34" viewBox="0 0 33 34" fill="none" xmlns="http://www.w3.org/2000/svg" id="CBSecuritySettings">
                                <path fill-rule="evenodd" clip-rule="evenodd" d="M16.4099 0.588013C25.4199 0.588013 32.7299 7.89802 32.7299 16.908C32.7299 25.918 25.4199 33.228 16.4099 33.228C7.39985 33.228 0.0898438 25.918 0.0898438 16.908C0.0998437 7.89802 7.39985 0.588013 16.4099 0.588013Z" fill="#E3EFF8"/>
                                <path d="M23.6696 9.84801C23.6596 9.62801 23.4996 9.42802 23.2796 9.38802L16.5196 7.91802C16.4496 7.89802 16.3796 7.89802 16.3096 7.91802L9.54963 9.38802C9.32963 9.43802 9.16963 9.62801 9.15963 9.84801L8.84962 18.478C8.76962 20.618 9.91962 22.578 11.8696 23.598L16.1896 25.858C16.2596 25.898 16.3396 25.918 16.4196 25.918C16.4996 25.918 16.5796 25.898 16.6496 25.858L20.9696 23.598C22.9096 22.578 24.0596 20.608 23.9896 18.478L23.6696 9.84801ZM20.5096 22.728L16.4196 24.868L12.3296 22.728C10.7196 21.888 9.76962 20.268 9.83962 18.508L10.1396 10.258L16.4196 8.88802L22.6996 10.258L22.9996 18.508C23.0596 20.268 22.1096 21.878 20.5096 22.728ZM20.0096 13.858L16.3796 17.868L13.8296 15.388C13.6396 15.198 13.3196 15.208 13.1296 15.398C12.9396 15.588 12.9396 15.908 13.1396 16.098L16.0596 18.938C16.1496 19.028 16.2796 19.078 16.3996 19.078C16.4096 19.078 16.4096 19.078 16.4196 19.078C16.5496 19.078 16.6796 19.018 16.7696 18.918L20.7496 14.528C20.9296 14.328 20.9196 14.018 20.7196 13.838C20.4996 13.648 20.1896 13.658 20.0096 13.858Z" fill="#075896"/>
                            </svg>