<svg width="44" height="42" fill="none" viewBox="0 0 44 42"  xmlns="http://www.w3.org/2000/svg" id="CBServices">
                    <path d="M3.31985 38.1577C4.68985 38.4554 5.53986 38.892 5.53986 39.9933V40.0131C5.53986 41.2237 4.57985 41.9381 3.12985 41.9381C2.07985 41.9381 1.06984 41.6106 0.339844 40.9558L1.25984 39.8644C1.84984 40.3307 2.49985 40.5688 3.18985 40.5688C3.62985 40.5688 3.86984 40.42 3.86984 40.162V40.1421C3.86984 39.8941 3.66984 39.7651 2.86984 39.5766C1.59984 39.2888 0.619843 38.9316 0.619843 37.7211V37.7013C0.619843 36.5999 1.49985 35.8161 2.91985 35.8161C3.92985 35.8161 4.71984 36.0839 5.36984 36.5999L4.54985 37.7509C4.00985 37.3739 3.40985 37.1655 2.87985 37.1655C2.47985 37.1655 2.27985 37.3342 2.27985 37.5425V37.5624C2.28985 37.8501 2.49985 37.9692 3.31985 38.1577ZM11.1698 40.4398V41.8289H6.33984V35.9252H11.1299V37.3143H7.96985V38.2073H10.8298V39.4972H7.96985V40.4299H11.1698V40.4398ZM16.0699 39.775L17.4899 41.8389H15.5798L14.3799 40.0529H13.6599V41.8389H12.0098V35.9351H14.8199C15.7299 35.9351 16.3598 36.1733 16.7598 36.5801C17.1098 36.9175 17.2899 37.3738 17.2899 37.9592V37.9791C17.2899 38.8622 16.7999 39.4575 16.0699 39.775ZM15.6299 38.0486C15.6299 37.5822 15.2899 37.354 14.7399 37.354H13.6599V38.7729H14.7498C15.3098 38.7729 15.6299 38.505 15.6299 38.0684V38.0486ZM21.4198 41.8785H19.8898L17.4698 35.9351H19.3098L20.6599 39.6758L22.0098 35.9351H23.8199L21.4198 41.8785ZM24.4398 41.8289V35.9252H26.0999V41.8289H24.4398ZM30.1099 37.3044C29.2799 37.3044 28.6898 38.0089 28.6898 38.8622V38.8821C28.6898 39.7651 29.2799 40.4597 30.1099 40.4597C30.7299 40.4597 31.0999 40.1719 31.4499 39.7453L32.6898 40.6184C32.1299 41.3825 31.3698 41.948 30.0498 41.948C28.3498 41.948 26.9799 40.6581 26.9799 38.8919V38.8721C26.9799 37.1457 28.3098 35.7962 30.1198 35.7962C31.3398 35.7962 32.1198 36.3022 32.6498 37.0265L31.4099 37.9791C31.0699 37.5723 30.6799 37.3044 30.1099 37.3044ZM38.2299 40.4398V41.8289H33.3998V35.9252H38.1898V37.3143H35.0399V38.2073H37.8998V39.4972H35.0399V40.4299H38.2299V40.4398ZM41.5898 38.1577C42.9598 38.4554 43.8098 38.892 43.8098 39.9933V40.0131C43.8098 41.2237 42.8498 41.9381 41.3998 41.9381C40.3498 41.9381 39.3399 41.6106 38.6099 40.9558L39.5298 39.8644C40.1198 40.3307 40.7698 40.5688 41.4598 40.5688C41.8998 40.5688 42.1399 40.42 42.1399 40.162V40.1421C42.1399 39.8941 41.9399 39.7651 41.1399 39.5766C39.8699 39.2888 38.8899 38.9316 38.8899 37.7211V37.7013C38.8899 36.5999 39.7699 35.8161 41.1898 35.8161C42.1998 35.8161 42.9899 36.0839 43.6399 36.5999L42.8199 37.7509C42.2799 37.3739 41.6798 37.1655 41.1498 37.1655C40.7498 37.1655 40.5498 37.3342 40.5498 37.5425V37.5624C40.5598 37.8501 40.7698 37.9692 41.5898 38.1577Z" />
                    <path d="M3.39941 28.5034V12.8859H11.1394V28.5034H3.39941ZM8.44942 26.1419V24.8025H9.78943V26.1419H8.44942ZM41.6994 19.8512C41.5994 20.4862 41.2594 21.0518 40.7294 21.4289L40.7094 21.4487L28.0294 29.704C27.3794 30.1109 26.6694 30.3589 25.9094 30.4383C25.7394 30.4581 25.5694 30.468 25.3994 30.468C24.8194 30.468 24.2494 30.3688 23.6994 30.1604L13.6494 26.1419H11.1394V24.8025H13.9094L24.1894 28.8904C24.6894 29.0789 25.2294 29.1483 25.7794 29.0888C26.3294 29.0293 26.8394 28.8507 27.3094 28.563L39.9594 20.3275C40.1894 20.1589 40.3294 19.9207 40.3694 19.6429C40.4094 19.3651 40.3394 19.0773 40.1694 18.859L40.1494 18.8293C39.9894 18.6209 39.7594 18.482 39.4994 18.4324C39.2394 18.3827 38.9694 18.4324 38.7494 18.5713L32.0094 22.7386L31.2994 21.6075L38.0394 17.4401C38.5494 17.1226 39.1494 17.0135 39.7494 17.1226C40.3394 17.2318 40.8594 17.5493 41.2294 18.0256L41.2494 18.0553C41.6294 18.5713 41.7894 19.2063 41.6994 19.8512ZM30.5294 23.2744H21.6794C21.1194 23.2744 20.6694 23.7308 20.6694 24.2865H19.3294C19.3294 22.9966 20.3894 21.9449 21.6894 21.9449H30.5394C31.0994 21.9449 31.5494 21.4983 31.5494 20.9427C31.5494 20.3871 31.0994 19.9306 30.5394 19.9306H21.4894L18.2394 17.8668C17.5894 17.45 16.8694 17.1326 16.1294 16.9143C15.3794 16.696 14.6094 16.5868 13.8294 16.5868H11.1494V15.2474H13.8294C14.7394 15.2474 15.6394 15.3764 16.4994 15.6244C17.3694 15.8725 18.1994 16.2495 18.9594 16.7357L21.8794 18.5911H30.5294C31.8294 18.5911 32.8894 19.6429 32.8894 20.9328C32.8894 22.2227 31.8294 23.2744 30.5294 23.2744ZM31.6094 9.48255C29.8194 9.78021 25.1194 10.8617 18.8794 14.5429C22.4394 11.08 25.6294 8.69866 27.8294 7.22025C29.2594 6.26772 30.4394 5.58311 31.2694 5.13661C31.6194 6.6051 31.6894 8.09344 31.6094 9.48255ZM30.2894 15.7534C27.5994 13.4812 24.2094 13.4613 21.6394 13.9376C24.2294 12.5981 26.4194 11.7448 28.0294 11.2288C29.5794 10.7228 30.7894 10.4549 31.5494 10.316C31.2394 13.3919 30.2894 15.7534 30.2894 15.7534ZM27.3994 6.54555C26.0094 7.46831 24.2294 8.7582 22.2194 10.445C23.0394 9.294 25.3294 6.20821 29.0494 0.73114C30.0094 1.83251 30.6494 3.06288 31.0494 4.34284C30.2094 4.78934 28.9594 5.50371 27.3994 6.54555Z" />
                </svg>