<svg width="115" height="30" viewBox="0 0 115 30" fill="none"
							xmlns="http://www.w3.org/2000/svg" id="CBSliderCompanyLogo">
							<path
								d="M17.7813 20.7289C14.6602 21.7572 10.3924 23.4315 5.36035 26.0886C10.356 25.1423 16.9442 25.1878 22.1764 29.683H22.1855C22.1855 29.683 24.0419 25.0058 24.6333 18.9272C23.1501 19.2002 20.8115 19.7371 17.7813 20.7289Z"
								fill="#F48024" />
							<path
								d="M41.2394 21.5479C41.0484 22.4123 40.8573 23.3314 40.6753 24.3051C40.3659 24.3051 39.8199 24.4507 39.01 24.5962C37.9727 24.7873 37.1901 24.8055 36.6987 24.8055C35.4703 24.8055 34.3874 24.5598 33.4593 24.0776C32.5311 23.5862 31.8031 22.8946 31.2936 21.9938C30.7749 21.0929 30.511 20.0828 30.511 18.9818C30.511 17.8898 30.784 16.8889 31.3391 15.9698C31.885 15.0507 32.6403 14.3319 33.6049 13.8223C34.5603 13.3127 35.6432 13.0488 36.8534 13.0488C37.363 13.0488 38.0364 13.1034 38.8917 13.2126C39.556 13.3036 40.0383 13.34 40.3386 13.34C40.4114 14.0953 40.5297 15.0143 40.7117 16.0972C40.7117 16.1791 40.6298 16.2246 40.4478 16.2246C40.3386 16.2246 40.2749 16.1791 40.2567 16.0972C40.0656 15.3601 39.647 14.7596 39.0009 14.2864C38.364 13.8132 37.6178 13.5766 36.7806 13.5766C35.5158 13.5766 34.4511 14.0953 33.5867 15.1417C32.7222 16.1882 32.2945 17.4712 32.2945 18.9909C32.2945 20.465 32.7222 21.7208 33.5776 22.749C34.4329 23.7773 35.4703 24.296 36.6987 24.296C38.6278 24.296 39.9928 23.386 40.7936 21.557C40.83 21.466 40.9028 21.4296 41.012 21.4296C41.1666 21.4205 41.2394 21.4569 41.2394 21.5479Z"
								fill="#0061A7" />
							<path
								d="M52.8055 21.5569C52.5507 22.5033 52.3505 23.5043 52.2049 24.5325C50.1393 24.4688 48.6652 24.4324 47.7916 24.4324C46.9271 24.4324 45.4712 24.4688 43.4329 24.5325C43.351 24.5325 43.3055 24.4597 43.3055 24.305C43.3055 24.1685 43.351 24.0957 43.4329 24.0866C44.088 24.0138 44.5339 23.8864 44.7614 23.7226C44.998 23.5498 45.1163 23.2222 45.1163 22.7217V15.0962C45.1163 14.7231 45.0708 14.4501 44.9707 14.2954C44.8706 14.1407 44.7068 14.0224 44.4702 13.9315C44.2336 13.8405 43.8879 13.7677 43.4238 13.7131C43.3419 13.7131 43.2964 13.6403 43.2964 13.4856C43.2964 13.34 43.3419 13.2672 43.4238 13.2672C43.7878 13.2672 44.2154 13.2854 44.7159 13.3127C45.1982 13.3491 45.5986 13.3582 45.9353 13.3582C46.2629 13.3582 46.6632 13.34 47.1455 13.3127C47.646 13.2763 48.0737 13.2672 48.4377 13.2672C48.5196 13.2672 48.5651 13.34 48.5651 13.4856C48.5651 13.6312 48.5196 13.7131 48.4377 13.7131C47.9827 13.7677 47.6369 13.8405 47.4003 13.9315C47.1637 14.0224 46.9999 14.1407 46.9089 14.2954C46.8179 14.4501 46.7724 14.714 46.7724 15.0962V22.9583C46.7724 23.5952 47.0818 23.9137 47.7097 23.9137H49.3112C49.9755 23.9137 50.5306 23.7408 50.9947 23.386C51.4587 23.0311 51.9046 22.3759 52.3596 21.4113C52.3778 21.3658 52.4324 21.3476 52.5143 21.3476C52.5871 21.3476 52.6508 21.3658 52.7145 21.4113C52.7782 21.4568 52.8055 21.5114 52.8055 21.5569Z"
								fill="#0061A7" />
							<path
								d="M65.7267 24.3142C65.7267 24.4689 65.6812 24.5416 65.5993 24.5416C65.2263 24.5416 64.8077 24.5234 64.3345 24.4961C63.9341 24.4598 63.5883 24.4506 63.2971 24.4506C62.9696 24.4506 62.5601 24.4689 62.0778 24.4961C61.5682 24.5234 61.1314 24.5416 60.7674 24.5416C60.6765 24.5416 60.6401 24.4689 60.6401 24.3142C60.6401 24.1686 60.6765 24.0958 60.7401 24.0958C61.2224 24.0685 61.5682 24.0139 61.7775 23.9047C61.9868 23.7955 62.0869 23.6317 62.0869 23.4133C62.0869 23.2768 62.0323 23.0493 61.9231 22.7399L61.004 20.0282H57.6827L56.7545 22.5397C56.6362 22.8764 56.5816 23.1312 56.5816 23.3223C56.5816 23.7955 57.0184 24.0594 57.892 24.1049C57.9557 24.1049 57.9921 24.1777 57.9921 24.3233C57.9921 24.4688 57.9466 24.5507 57.8647 24.5507C57.5462 24.5507 57.1822 24.5325 56.7909 24.5052C56.4178 24.4689 56.0902 24.4597 55.79 24.4597C55.5625 24.4597 55.2713 24.478 54.9164 24.5052C54.5433 24.5325 54.2339 24.5507 53.9791 24.5507C53.8972 24.5507 53.8608 24.487 53.8608 24.3506C53.8608 24.1959 53.9245 24.114 54.0428 24.1049C54.4887 24.0594 54.8436 23.9411 55.1075 23.7318C55.3714 23.5316 55.6353 23.1039 55.9173 22.476L59.7028 13.1762C59.7392 13.0943 59.812 13.0488 59.9303 13.0488C60.0577 13.0488 60.1396 13.0852 60.176 13.1671L63.5155 22.476C63.7066 23.0038 63.9614 23.386 64.2799 23.6317C64.5984 23.8774 65.0352 24.0321 65.572 24.1049C65.6721 24.1049 65.7267 24.1777 65.7267 24.3142ZM60.822 19.5096L59.4025 15.3783L57.8738 19.5096H60.822Z"
								fill="#0061A7" />
							<path
								d="M78.7754 24.3141C78.7754 24.4688 78.73 24.5416 78.6481 24.5416C78.4479 24.5416 78.1203 24.5234 77.6653 24.487C77.3377 24.4597 77.1193 24.4506 77.0101 24.4506C76.8554 24.4506 76.6097 24.4688 76.2731 24.4961C75.9364 24.5234 75.6907 24.5416 75.536 24.5416L73.0882 20.5469C72.7424 19.9918 72.4603 19.6369 72.251 19.4822C72.0417 19.3276 71.614 19.2457 70.968 19.2457V22.7308C70.968 23.1039 71.0135 23.3678 71.1136 23.5225C71.2137 23.6772 71.3774 23.7955 71.614 23.8865C71.8506 23.9775 72.1964 24.0412 72.6514 24.0958C72.7424 24.1049 72.7879 24.1777 72.7879 24.3141C72.7879 24.4688 72.7424 24.5416 72.6605 24.5416C72.2965 24.5416 71.8688 24.5234 71.3684 24.4961C70.8861 24.4597 70.4857 24.4506 70.149 24.4506C69.8214 24.4506 69.421 24.4688 68.9479 24.4961C68.4474 24.5234 68.0197 24.5416 67.6648 24.5416C67.5738 24.5416 67.5374 24.4688 67.5374 24.3141C67.5374 24.1777 67.5738 24.1049 67.6648 24.0958C68.1107 24.0412 68.4565 23.9684 68.6931 23.8865C68.9297 23.7955 69.0934 23.6772 69.1844 23.5225C69.2845 23.3678 69.33 23.1039 69.33 22.7308V15.1053C69.33 14.7322 69.2845 14.4684 69.1935 14.3137C69.1025 14.159 68.9479 14.0407 68.7022 13.9406C68.4656 13.8496 68.1198 13.7768 67.6557 13.7222C67.5647 13.7222 67.5283 13.6494 67.5283 13.4947C67.5283 13.3491 67.5647 13.2763 67.6557 13.2763C68.0197 13.2763 68.4474 13.2945 68.9388 13.3218C69.4119 13.3582 69.8123 13.3673 70.1399 13.3673C70.4675 13.3673 70.877 13.3491 71.3593 13.3218C71.8597 13.2854 72.2965 13.2763 72.6514 13.2763C73.8525 13.2763 74.7898 13.5311 75.445 14.0316C76.1002 14.5321 76.4368 15.2418 76.4368 16.1518C76.4368 16.7251 76.2184 17.2619 75.7817 17.7533C75.3449 18.2447 74.7625 18.6269 74.0163 18.8908L76.5096 22.9492C76.728 23.3041 77.0101 23.568 77.3468 23.7318C77.6926 23.9047 78.1294 24.023 78.6754 24.0867C78.739 24.1049 78.7754 24.1777 78.7754 24.3141ZM74.6442 16.1973C74.6442 14.6139 73.9526 13.8223 72.5786 13.8223C72.1236 13.8223 71.7778 13.8587 71.5412 13.9315C71.3047 14.0043 71.15 14.1226 71.0772 14.2773C70.9953 14.432 70.9589 14.714 70.9589 15.1053V18.7179C71.2774 18.7634 71.6686 18.7816 72.1418 18.7816C73.0063 18.7816 73.6433 18.5814 74.0436 18.1628C74.4531 17.7533 74.6442 17.0981 74.6442 16.1973Z"
								fill="#0061A7" />
							<path
								d="M86.0726 24.3141C86.0726 24.4688 86.0271 24.5416 85.9452 24.5416C85.5812 24.5416 85.1535 24.5234 84.6621 24.4961C84.1889 24.4688 83.7886 24.4506 83.4519 24.4506C83.1243 24.4506 82.7239 24.4688 82.2507 24.4961C81.7503 24.5325 81.3135 24.5416 80.9495 24.5416C80.8585 24.5416 80.8221 24.4688 80.8221 24.3141C80.8221 24.1776 80.8676 24.1048 80.9495 24.0957C81.6047 24.0229 82.0505 23.8955 82.278 23.7317C82.5146 23.5589 82.6329 23.2313 82.6329 22.7217V15.0962C82.6329 14.7231 82.5874 14.4501 82.4873 14.2954C82.3963 14.1407 82.2325 14.0224 81.9868 13.9315C81.7503 13.8405 81.4045 13.7677 80.9404 13.7131C80.8494 13.7131 80.813 13.6403 80.813 13.4856C80.813 13.34 80.8585 13.2672 80.9404 13.2672C81.3135 13.2672 81.7412 13.2854 82.2416 13.3127C82.7148 13.3491 83.1152 13.3673 83.4428 13.3673C83.7704 13.3673 84.1798 13.3491 84.653 13.3127C85.1535 13.2763 85.5812 13.2672 85.9361 13.2672C86.018 13.2672 86.0635 13.34 86.0635 13.4856C86.0635 13.6312 86.018 13.7131 85.9361 13.7131C85.4811 13.7677 85.1353 13.8405 84.8987 13.9315C84.6621 14.0224 84.4983 14.1407 84.4073 14.2954C84.3163 14.4501 84.2708 14.714 84.2708 15.0962V22.7217C84.2708 23.0948 84.3163 23.3587 84.4073 23.5134C84.4983 23.668 84.6621 23.7863 84.8987 23.8773C85.1353 23.9683 85.4811 24.0411 85.9361 24.0957C86.0271 24.1048 86.0726 24.1776 86.0726 24.3141Z"
								fill="#0061A7" />
							<path
								d="M98.8207 21.8663C98.384 22.8036 98.0291 23.6862 97.747 24.5416C95.7178 24.4779 94.2618 24.4415 93.3974 24.4415C92.542 24.4415 91.0952 24.4688 89.0568 24.5416C88.9658 24.5416 88.9294 24.4688 88.9294 24.3141C88.9294 24.1776 88.9749 24.1048 89.0568 24.0957C89.5027 24.0411 89.8485 23.9683 90.0851 23.8773C90.3217 23.7863 90.4855 23.668 90.5856 23.5134C90.6857 23.3587 90.7312 23.0948 90.7312 22.7217V15.0962C90.7312 14.7231 90.6857 14.4592 90.5947 14.3045C90.5037 14.1498 90.3399 14.0315 90.1033 13.9315C89.8667 13.8405 89.5209 13.7677 89.0568 13.7131C88.9658 13.7131 88.9294 13.6403 88.9294 13.4856C88.9294 13.34 88.9749 13.2672 89.0568 13.2672C90.4127 13.3309 91.814 13.3673 93.2336 13.3673C94.6713 13.3673 96.0635 13.3309 97.4194 13.2672C97.5468 14.1043 97.7197 14.9324 97.9654 15.7423C97.9654 15.8515 97.8744 15.9061 97.6833 15.9061C97.5923 15.9061 97.5286 15.8697 97.5104 15.7969C97.11 14.5229 96.2546 13.886 94.9534 13.886H93.3155C92.6876 13.886 92.3782 14.2044 92.3782 14.8596V18.4631H94.4165C94.9625 18.4631 95.3265 18.3357 95.5176 18.09C95.7087 17.8443 95.8452 17.3984 95.9271 16.7705C95.9271 16.6795 95.9999 16.6431 96.1454 16.6431C96.291 16.6431 96.3729 16.6886 96.3729 16.7705C96.3729 17.0344 96.3547 17.3802 96.3274 17.7897C96.291 18.181 96.2819 18.5086 96.2819 18.7543C96.2819 19.009 96.3001 19.3275 96.3274 19.7279C96.3638 20.1465 96.3729 20.4923 96.3729 20.7653C96.3729 20.8472 96.3001 20.8927 96.1454 20.8927C95.9999 20.8927 95.9271 20.8472 95.9271 20.7653C95.8452 20.1101 95.6996 19.646 95.4994 19.3821C95.2992 19.1182 94.9352 18.9908 94.4165 18.9908H92.3782V22.9765C92.3782 23.6135 92.6876 23.9319 93.3155 23.9319H95.0808C95.7269 23.9319 96.3547 23.7226 96.9917 23.3041C97.6287 22.8855 98.0928 22.3668 98.3839 21.7389C98.4021 21.6934 98.4477 21.6661 98.5204 21.6661C98.5932 21.6661 98.666 21.6843 98.7206 21.7298C98.7843 21.7571 98.8207 21.8117 98.8207 21.8663Z"
								fill="#0061A7" />
							<path
								d="M114.345 13.5038C114.345 13.6403 114.299 13.7131 114.217 13.7222C113.544 13.795 113.08 13.9224 112.834 14.0953C112.579 14.2682 112.452 14.5957 112.443 15.0871L112.27 24.6326C112.27 24.7418 112.206 24.7964 112.079 24.7964C112.015 24.7964 111.924 24.7509 111.824 24.669L103.48 15.2327L103.371 22.7217C103.362 22.7672 103.362 22.8036 103.362 22.84C103.362 23.2495 103.489 23.5407 103.753 23.7045C104.017 23.8773 104.481 24.0047 105.154 24.0775C105.245 24.0866 105.282 24.1594 105.282 24.2959C105.282 24.4506 105.245 24.5234 105.154 24.5234C104.872 24.5234 104.49 24.5052 103.999 24.4779C103.534 24.4415 103.189 24.4324 102.934 24.4324C102.661 24.4324 102.297 24.4506 101.842 24.4779C101.396 24.5052 101.059 24.5234 100.814 24.5234C100.723 24.5234 100.686 24.4506 100.686 24.2959C100.686 24.1594 100.732 24.0866 100.832 24.0775C101.496 23.9956 101.96 23.8682 102.206 23.7045C102.452 23.5316 102.588 23.204 102.597 22.7126L102.879 15.0871V15.0143C102.879 14.5775 102.752 14.2773 102.497 14.0953C102.242 13.9224 101.769 13.795 101.078 13.704C101.005 13.704 100.968 13.6312 100.968 13.4765C100.968 13.3309 101.014 13.2581 101.096 13.2581C101.287 13.2581 101.551 13.2763 101.887 13.3036C102.188 13.34 102.415 13.3491 102.57 13.3491C102.761 13.3491 102.988 13.3309 103.252 13.3036C103.525 13.2672 103.753 13.2581 103.953 13.2581L111.742 21.9755V15.0689C111.742 14.6048 111.615 14.2863 111.351 14.0953C111.087 13.9133 110.605 13.7768 109.895 13.6949C109.813 13.6858 109.768 13.613 109.768 13.4765C109.768 13.3218 109.813 13.249 109.895 13.249C110.186 13.249 110.578 13.2672 111.06 13.2945C111.515 13.3309 111.861 13.34 112.115 13.34C112.388 13.34 112.752 13.3218 113.207 13.2945C113.653 13.2581 113.999 13.249 114.236 13.249C114.299 13.2763 114.345 13.3582 114.345 13.5038Z"
								fill="#0061A7" />
							<path
								d="M0 27.2897C12.148 20.0191 21.2749 17.8807 24.7692 17.2893C24.9239 14.5503 24.7874 11.5929 24.1049 8.69922C22.4943 9.58188 20.2011 10.9286 17.4167 12.8213C13.1216 15.7332 6.91571 20.4468 0 27.2897Z"
								fill="#F48024" />
							<path
								d="M16.5714 11.4837C19.6016 9.4272 22.0312 8.01676 23.6782 7.1341C22.8956 4.6135 21.6581 2.17481 19.7836 0C12.5494 10.8194 8.09055 16.9162 6.48901 19.1911C10.4018 15.8606 13.8597 13.3127 16.5714 11.4837Z"
								fill="#F48024" />
						</svg>