<svg width="21" height="25" viewBox="0 0 21 25" fill="none" xmlns="http://www.w3.org/2000/svg" id="CBSortOrder">
						<path
							d="M21 21L21 19.1333L19.1739 19.1333L19.1739 21L21 21ZM5.47826 21L5.47826 3.55787L7.8467 5.97893L9.13044 4.66666L5.22261 0.6412L4.56522 -1.43677e-06L3.90783 0.642132L1.42791e-06 4.66666L1.28374 5.97893L3.65218 3.5588L3.65217 21L5.47826 21ZM21 17.2667L21 15.4L17.3478 15.4L17.3478 17.2667L21 17.2667ZM21 13.5333L21 11.6667L15.5217 11.6667L15.5217 13.5333L21 13.5333ZM21 9.8L21 7.93333L13.6957 7.93333L13.6957 9.8L21 9.8ZM21 6.06667L21 4.2L11.8696 4.2L11.8696 6.06667L21 6.06667ZM21 2.33333L21 0.466667L10.0435 0.466666L10.0435 2.33333L21 2.33333Z"
							fill="#006394" />
					</svg>