<svg width="33" height="33" viewBox="0 0 33 33" fill="none" xmlns="http://www.w3.org/2000/svg" id="CBStopPaperBasedStatements">
<path fill-rule="evenodd" clip-rule="evenodd" d="M16.32 0C25.33 0 32.64 7.30999 32.64 16.32C32.64 25.33 25.33 32.64 16.32 32.64C7.31 32.64 0 25.33 0 16.32C0 7.30999 7.31 0 16.32 0Z" fill="#E3EFF8"/>
<path d="M9.86023 7.19019C9.65023 7.21019 9.49023 7.39017 9.49023 7.60017V24.9002C9.49023 25.1302 9.67023 25.3102 9.90023 25.3102H22.6202C22.8502 25.3102 23.0302 25.1302 23.0302 24.9002V22.4902C24.9302 22.1702 26.3802 20.5202 26.3802 18.5302C26.3802 16.5502 24.9302 14.9002 23.0302 14.5802V11.7702C23.0302 11.6602 22.9902 11.5602 22.9102 11.4802L18.7802 7.31018C18.7002 7.23018 18.6002 7.19019 18.4802 7.19019H9.89023C9.89023 7.19019 9.86023 7.19019 9.85023 7.19019H9.86023ZM10.3102 8.01018H17.5802V11.2402C17.5802 11.7302 17.7402 12.1502 18.0702 12.3802C18.4002 12.6102 18.7802 12.6302 19.1902 12.6302H21.0202C21.2502 12.6302 21.4302 12.4502 21.4402 12.2202C21.4402 11.9902 21.2602 11.8102 21.0302 11.8002C21.0302 11.8002 21.0302 11.8002 21.0202 11.8002H19.1902C18.8402 11.8002 18.6202 11.7502 18.5402 11.7002C18.4602 11.6502 18.4002 11.5802 18.4002 11.2402V8.10017L22.2002 11.9402V14.5302C20.0602 14.6102 18.3302 16.3702 18.3302 18.5302C18.3302 20.6902 20.0602 22.4602 22.2002 22.5502V24.4902H10.3002V8.01018H10.3102ZM22.3602 15.3402C24.1302 15.3402 25.5502 16.7602 25.5502 18.5302C25.5502 19.2602 25.3002 19.9402 24.8902 20.4802L20.4102 16.0102C20.9502 15.6002 21.6202 15.3502 22.3602 15.3502V15.3402ZM19.8202 16.5902L24.3002 21.0602C23.7602 21.4702 23.0902 21.7202 22.3602 21.7202C20.5902 21.7202 19.1602 20.2902 19.1602 18.5302C19.1602 17.8002 19.4102 17.1202 19.8202 16.5902Z" fill="#075896"/>
</svg>
