<svg width="73" height="73" viewBox="0 0 73 73" fill="none" xmlns="http://www.w3.org/2000/svg" id="CBSuccessfull">
                    <path d="M36.26 72.52C56.2858 72.52 72.52 56.2858 72.52 36.26C72.52 16.2341 56.2858 0 36.26 0C16.2341 0 0 16.2341 0 36.26C0 56.2858 16.2341 72.52 36.26 72.52Z" fill="#F58027"/>
                    <path d="M51.92 23.07C50.53 21.99 48.52 22.24 47.44 23.63L31.87 43.65L25.1 34.94C24.02 33.55 22.01 33.3 20.62 34.38C19.23 35.46 18.98 37.47 20.06 38.86L29.36 50.82C29.97 51.6 30.9 52.05 31.88 52.05C32.87 52.05 33.8 51.59 34.4 50.82L52.49 27.55C53.56 26.16 53.31 24.15 51.92 23.07Z" fill="white"/>
                </svg>