<svg width="33" height="33" viewBox="0 0 33 33" fill="none" xmlns="http://www.w3.org/2000/svg" id="CBTimeDepositAccountOpening">
<path fill-rule="evenodd" clip-rule="evenodd" d="M16.32 0C25.33 0 32.64 7.31 32.64 16.32C32.64 25.33 25.33 32.64 16.32 32.64C7.31 32.64 0 25.33 0 16.32C0 7.31 7.31 0 16.32 0Z" fill="#E3EFF8"/>
<path d="M16.5201 24.8901C11.6101 24.8901 7.62012 20.9001 7.62012 15.9901C7.62012 11.0801 11.6101 7.09009 16.5201 7.09009C20.4001 7.09009 23.8001 9.57009 24.9901 13.2601C25.0301 13.3701 24.9601 13.5001 24.8501 13.5301C24.7401 13.5701 24.6101 13.5001 24.5801 13.3901C23.4501 9.88009 20.2101 7.52009 16.5201 7.52009C11.8501 7.52009 8.06012 11.3201 8.06012 15.9801C8.06012 20.6401 11.8601 24.4401 16.5201 24.4401C17.2601 24.4401 17.9901 24.3401 18.7001 24.1601C18.8201 24.1301 18.9301 24.2001 18.9701 24.3101C19.0001 24.4301 18.9301 24.5401 18.8201 24.5801C18.0801 24.7801 17.3101 24.8801 16.5301 24.8801L16.5201 24.8901Z" fill="#075896" stroke="#075896" stroke-width="0.25" stroke-miterlimit="10"/>
<path d="M16.5198 14.7201C16.3998 14.7201 16.2998 14.6201 16.2998 14.5001V10.7801C16.2998 10.6601 16.3998 10.5601 16.5198 10.5601C16.6398 10.5601 16.7398 10.6601 16.7398 10.7801V14.5001C16.7398 14.6201 16.6398 14.7201 16.5198 14.7201Z" fill="#075896" stroke="#075896" stroke-width="0.25" stroke-miterlimit="10"/>
<path d="M13.5401 19.1801C13.4801 19.1801 13.4301 19.1601 13.3901 19.1201C13.3101 19.0401 13.3101 18.9001 13.3901 18.8101L15.3101 16.8801C15.3901 16.8001 15.5301 16.8001 15.6201 16.8801C15.7001 16.9601 15.7001 17.1001 15.6201 17.1901L13.7001 19.1201C13.7001 19.1201 13.6001 19.1801 13.5501 19.1801H13.5401Z" fill="#075896" stroke="#075896" stroke-width="0.25" stroke-miterlimit="10"/>
<path d="M23.2398 24.8902C20.3598 24.8902 18.0098 22.5402 18.0098 19.6602C18.0098 16.7802 20.3598 14.4302 23.2398 14.4302C26.1198 14.4302 28.4698 16.7802 28.4698 19.6602C28.4698 22.5402 26.1198 24.8902 23.2398 24.8902ZM23.2398 14.8702C20.5998 14.8702 18.4498 17.0202 18.4498 19.6602C18.4498 22.3002 20.5998 24.4502 23.2398 24.4502C25.8798 24.4502 28.0298 22.3002 28.0298 19.6602C28.0298 17.0202 25.8798 14.8702 23.2398 14.8702Z" fill="#075896" stroke="#075896" stroke-width="0.25" stroke-miterlimit="10"/>
<path d="M23.4098 21.72C22.6398 21.72 22.0098 21.2 22.0098 20.56C22.0098 20.44 22.1098 20.34 22.2298 20.34C22.3498 20.34 22.4498 20.44 22.4498 20.56C22.4498 20.96 22.8798 21.28 23.4098 21.28C23.9398 21.28 24.3698 20.96 24.3698 20.56C24.3698 20.16 23.9398 19.84 23.4098 19.84C22.6398 19.84 22.0098 19.32 22.0098 18.68C22.0098 18.04 22.6398 17.52 23.4098 17.52C24.1798 17.52 24.8098 18.04 24.8098 18.68C24.8098 18.8 24.7098 18.9 24.5898 18.9C24.4698 18.9 24.3698 18.8 24.3698 18.68C24.3698 18.28 23.9398 17.96 23.4098 17.96C22.8798 17.96 22.4498 18.28 22.4498 18.68C22.4498 19.08 22.8798 19.4 23.4098 19.4C24.1798 19.4 24.8098 19.92 24.8098 20.56C24.8098 21.2 24.1798 21.72 23.4098 21.72Z" fill="#075896" stroke="#075896" stroke-width="0.25" stroke-miterlimit="10"/>
<path d="M23.4095 17.96C23.2895 17.96 23.1895 17.86 23.1895 17.74V17.24C23.1895 17.12 23.2895 17.02 23.4095 17.02C23.5295 17.02 23.6295 17.12 23.6295 17.24V17.74C23.6295 17.86 23.5295 17.96 23.4095 17.96Z" fill="#075896" stroke="#075896" stroke-width="0.25" stroke-miterlimit="10"/>
<path d="M23.4095 22.22C23.2895 22.22 23.1895 22.12 23.1895 22V21.5C23.1895 21.38 23.2895 21.28 23.4095 21.28C23.5295 21.28 23.6295 21.38 23.6295 21.5V22C23.6295 22.12 23.5295 22.22 23.4095 22.22Z" fill="#075896" stroke="#075896" stroke-width="0.25" stroke-miterlimit="10"/>
<path d="M14.5498 18.1701C14.4898 18.1701 14.4398 18.1501 14.3998 18.1101C14.3198 18.0301 14.3198 17.8901 14.3998 17.8001L16.3198 15.8701C16.3998 15.7901 16.5398 15.7901 16.6298 15.8701C16.7098 15.9501 16.7098 16.0901 16.6298 16.1801L14.7098 18.1101C14.7098 18.1101 14.6098 18.1701 14.5598 18.1701H14.5498Z" fill="#075896" stroke="#075896" stroke-width="0.25" stroke-miterlimit="10"/>
<path d="M16.5198 16.17C16.3998 16.17 16.2998 16.07 16.2998 15.95V12.23C16.2998 12.11 16.3998 12.01 16.5198 12.01C16.6398 12.01 16.7398 12.11 16.7398 12.23V15.95C16.7398 16.07 16.6398 16.17 16.5198 16.17Z" fill="#075896" stroke="#075896" stroke-width="0.25" stroke-miterlimit="10"/>
</svg>
