<svg width="33" height="33" viewBox="0 0 33 33" fill="none" xmlns="http://www.w3.org/2000/svg" id="CBTopUpAccountOpening">
<path fill-rule="evenodd" clip-rule="evenodd" d="M16.32 0.580078C25.33 0.580078 32.64 7.89008 32.64 16.9001C32.64 25.9101 25.33 33.2201 16.32 33.2201C7.31 33.2201 0 25.9101 0 16.9001C0 7.89008 7.31 0.580078 16.32 0.580078Z" fill="#E3EFF8"/>
<path d="M11.1301 13.6099C11.1301 13.6699 11.1001 13.7399 11.0501 13.7799C8.32014 15.9399 6.71014 19.1599 6.62014 22.6099C6.62014 22.7299 6.52014 22.8199 6.40014 22.8199C6.28014 22.8199 6.18014 22.7199 6.19014 22.5999C6.29014 19.0099 7.96014 15.6699 10.7901 13.4399C10.8801 13.3699 11.0201 13.3799 11.1001 13.4799C11.1301 13.5199 11.1501 13.5699 11.1501 13.6099H11.1301Z" fill="#075896" stroke="#075896" stroke-width="0.25" stroke-miterlimit="10"/>
<path d="M12.0006 15.94C12.0006 16 11.9806 16.06 11.9306 16.1C10.2106 17.69 9.17056 19.85 8.98056 22.16C8.98056 22.28 8.87056 22.37 8.75056 22.36C8.63056 22.36 8.54056 22.25 8.55056 22.13C8.75056 19.7 9.84056 17.45 11.6406 15.78C11.7306 15.7 11.8706 15.7 11.9506 15.79C11.9906 15.83 12.0106 15.89 12.0106 15.94H12.0006Z" fill="#075896" stroke="#075896" stroke-width="0.25" stroke-miterlimit="10"/>
<path d="M12.9101 18.3798C12.9101 18.3798 12.8901 18.4798 12.8601 18.5198C12.1101 19.4398 11.6001 20.5398 11.3901 21.7098C11.3701 21.8298 11.2601 21.9098 11.1401 21.8898C11.0201 21.8698 10.9401 21.7598 10.9601 21.6398C11.1801 20.3998 11.7201 19.2198 12.5201 18.2498C12.6001 18.1598 12.7301 18.1398 12.8301 18.2198C12.8801 18.2598 12.9101 18.3298 12.9101 18.3898V18.3798Z" fill="#075896" stroke="#075896" stroke-width="0.25" stroke-miterlimit="10"/>
<path d="M22.2203 17.8599V19.2199C22.2203 19.3399 22.1203 19.4399 22.0003 19.4399C21.8803 19.4399 21.7803 19.3399 21.7803 19.2199V17.8599C21.7803 17.7399 21.8803 17.6399 22.0003 17.6399C22.1203 17.6399 22.2203 17.7399 22.2203 17.8599Z" fill="#075896" stroke="#075896" stroke-width="0.25" stroke-miterlimit="10"/>
<path d="M24.98 12.64C24.98 12.64 24.98 12.69 24.96 12.72C24.93 12.8 24.85 12.86 24.76 12.86H22.22V16.17C22.22 16.29 22.12 16.39 22 16.39C21.88 16.39 21.78 16.29 21.78 16.17V12.64C21.78 12.52 21.88 12.42 22 12.42H24.21L18.19 6.75999L12.17 12.42H14.38C14.5 12.42 14.6 12.52 14.6 12.64V19.22C14.6 19.34 14.5 19.44 14.38 19.44C14.26 19.44 14.16 19.34 14.16 19.22V12.86H11.62C11.53 12.86 11.45 12.81 11.42 12.72C11.39 12.64 11.41 12.54 11.47 12.48L18.04 6.29999C18.12 6.21999 18.25 6.21999 18.34 6.29999L24.91 12.48C24.91 12.48 24.98 12.58 24.98 12.64Z" fill="#075896" stroke="#075896" stroke-width="0.25" stroke-miterlimit="10"/>
<path d="M18.1798 27.48C15.3798 27.48 13.0898 25.2 13.0898 22.39C13.0898 19.58 15.3698 17.3 18.1798 17.3C20.9898 17.3 23.2698 19.58 23.2698 22.39C23.2698 25.2 20.9898 27.48 18.1798 27.48ZM18.1798 17.74C15.6198 17.74 13.5298 19.83 13.5298 22.39C13.5298 24.95 15.6198 27.04 18.1798 27.04C20.7398 27.04 22.8298 24.95 22.8298 22.39C22.8298 19.83 20.7398 17.74 18.1798 17.74Z" fill="#075896" stroke="#075896" stroke-width="0.25" stroke-miterlimit="10"/>
<path d="M18.1803 24.9001C17.2703 24.9001 16.5303 24.2901 16.5303 23.5401C16.5303 23.4201 16.6303 23.3201 16.7503 23.3201C16.8703 23.3201 16.9703 23.4201 16.9703 23.5401C16.9703 24.0501 17.5203 24.4701 18.1903 24.4701C18.8603 24.4701 19.4103 24.0501 19.4103 23.5401C19.4103 23.0301 18.8603 22.6101 18.1903 22.6101C17.2803 22.6101 16.5403 22.0001 16.5403 21.2501C16.5403 20.5001 17.2803 19.8901 18.1903 19.8901C19.1003 19.8901 19.8403 20.5001 19.8403 21.2501C19.8403 21.3701 19.7403 21.4701 19.6203 21.4701C19.5003 21.4701 19.4003 21.3701 19.4003 21.2501C19.4003 20.7401 18.8503 20.3201 18.1803 20.3201C17.5103 20.3201 16.9603 20.7401 16.9603 21.2501C16.9603 21.7601 17.5103 22.1801 18.1803 22.1801C19.0903 22.1801 19.8303 22.7901 19.8303 23.5401C19.8303 24.2901 19.0903 24.9001 18.1803 24.9001Z" fill="#075896" stroke="#075896" stroke-width="0.25" stroke-miterlimit="10"/>
<path d="M18.18 20.32C18.06 20.32 17.96 20.22 17.96 20.1V19.49C17.96 19.37 18.06 19.27 18.18 19.27C18.3 19.27 18.4 19.37 18.4 19.49V20.1C18.4 20.22 18.3 20.32 18.18 20.32Z" fill="#075896" stroke="#075896" stroke-width="0.25" stroke-miterlimit="10"/>
<path d="M18.18 25.51C18.06 25.51 17.96 25.41 17.96 25.29V24.68C17.96 24.56 18.06 24.46 18.18 24.46C18.3 24.46 18.4 24.56 18.4 24.68V25.29C18.4 25.41 18.3 25.51 18.18 25.51Z" fill="#075896" stroke="#075896" stroke-width="0.25" stroke-miterlimit="10"/>
</svg>
