<svg width="33" height="33" viewBox="0 0 33 33" fill="none" xmlns="http://www.w3.org/2000/svg" id="CBTravelNotification">
<g clip-path="url(#clip0_3815_19434)">
<path fill-rule="evenodd" clip-rule="evenodd" d="M16.32 0C25.33 0 32.64 7.31 32.64 16.32C32.64 25.33 25.33 32.64 16.32 32.64C7.31 32.64 0 25.33 0 16.32C0 7.31 7.31 0 16.32 0Z" fill="#E3EFF8"/>
<path d="M15.8101 21.29H9.05008C8.10008 21.29 7.33008 20.52 7.33008 19.57V10.01C7.33008 9.06004 8.10008 8.29004 9.05008 8.29004H23.7501C24.7001 8.29004 25.4701 9.06004 25.4701 10.01V19.57C25.4701 19.67 25.4701 19.78 25.4401 19.87C25.4201 19.99 25.3001 20.07 25.1801 20.05C25.0601 20.03 24.9801 19.91 25.0001 19.79C25.0101 19.72 25.0201 19.64 25.0201 19.57V10.01C25.0201 9.31004 24.4501 8.73004 23.7401 8.73004H9.04008C8.34008 8.73004 7.76008 9.30004 7.76008 10.01V19.57C7.76008 20.27 8.33008 20.85 9.04008 20.85H15.8001C15.9201 20.85 16.0201 20.95 16.0201 21.07C16.0201 21.19 15.9201 21.29 15.8001 21.29H15.8101Z" fill="#075896"/>
<path d="M25.1303 10.95H7.56031C7.43031 10.95 7.32031 10.85 7.32031 10.73C7.32031 10.61 7.43031 10.51 7.56031 10.51H25.1303C25.2603 10.51 25.3703 10.61 25.3703 10.73C25.3703 10.85 25.2603 10.95 25.1303 10.95Z" fill="#075896"/>
<path d="M25.1303 13.3699H7.56031C7.43031 13.3699 7.32031 13.2699 7.32031 13.1499C7.32031 13.0299 7.43031 12.9299 7.56031 12.9299H25.1303C25.2603 12.9299 25.3703 13.0299 25.3703 13.1499C25.3703 13.2699 25.2603 13.3699 25.1303 13.3699Z" fill="#075896"/>
<path d="M13.9802 16.4H9.9202C9.8002 16.4 9.7002 16.3 9.7002 16.18C9.7002 16.06 9.8002 15.96 9.9202 15.96H13.9802C14.1002 15.96 14.2002 16.06 14.2002 16.18C14.2002 16.3 14.1002 16.4 13.9802 16.4Z" fill="#075896"/>
<path d="M11.9502 17.95H9.9202C9.8002 17.95 9.7002 17.85 9.7002 17.73C9.7002 17.61 9.8002 17.51 9.9202 17.51H11.9502C12.0702 17.51 12.1702 17.61 12.1702 17.73C12.1702 17.85 12.0702 17.95 11.9502 17.95Z" fill="#075896"/>
<path d="M19.5 25.7835C18.3465 24.784 17.4853 23.862 16.9164 23.0175C16.3474 22.1729 16.0628 21.3921 16.0625 20.6749C16.0625 19.5994 16.409 18.7423 17.102 18.1037C17.7953 17.4651 18.5946 17.1458 19.5 17.1458C20.4937 17.1458 21.337 17.5033 22.03 18.2183C22.723 18.9333 23.0255 19.9373 22.9375 21.2304L24.1292 20.0388L24.4445 20.3541L22.7083 22.0903L20.9722 20.3541L21.2875 20.0388L22.4792 21.2304C22.5672 20.1213 22.3252 19.2397 21.7532 18.5858C21.1812 17.9313 20.4301 17.6041 19.5 17.6041C18.6637 17.6041 17.9582 17.8901 17.3834 18.4621C16.8084 19.0341 16.5208 19.7717 16.5208 20.6749C16.5208 21.2466 16.7638 21.9084 17.2496 22.6604C17.7354 23.4121 18.4856 24.251 19.5 25.1771C19.6528 25.0396 19.8338 24.8693 20.0431 24.6661C20.2521 24.4626 20.4217 24.2961 20.5519 24.1665C20.484 24.0724 20.4358 23.974 20.407 23.8713C20.3783 23.7687 20.364 23.6657 20.364 23.5624C20.364 23.2944 20.4585 23.0659 20.6477 22.8768C20.8368 22.6876 21.0654 22.5929 21.3333 22.5926C21.6013 22.5926 21.8299 22.6873 22.019 22.8768C22.2081 23.0662 22.3029 23.2948 22.3032 23.5624C22.3032 23.8304 22.2084 24.0589 22.019 24.2481C21.8296 24.4372 21.601 24.5319 21.3333 24.5323C21.2606 24.5323 21.1861 24.5254 21.1097 24.5116C21.0336 24.4982 20.9659 24.475 20.9066 24.442C20.697 24.6595 20.474 24.8807 20.2375 25.1056C20.001 25.3308 19.7551 25.5565 19.5 25.7835Z" fill="#075896"/>
</g>
<defs>
<clipPath id="clip0_3815_19434">
<rect width="32.64" height="32.64" fill="white"/>
</clipPath>
</defs>
</svg>
