<svg width="25" height="25" viewBox="0 0 25 25" fill="none" xmlns="http://www.w3.org/2000/svg" id="CBUnselectedFavorite">
                            <path fill-rule="evenodd" clip-rule="evenodd"
                                d="M12.5 0C19.401 0 25 5.59895 25 12.5C25 19.401 19.401 25 12.5 25C5.59896 25 0 19.401 0 12.5C0 5.59129 5.5913 0 12.5 0Z"
                                fill="#E3EFF8" />
                            <path
                                d="M16.6157 7.1439C15.2868 6.78439 13.5251 7.21582 12.4924 8.70182C11.3838 7.12794 9.61448 6.76842 8.33878 7.12794C6.89603 7.53539 6 8.81366 6 10.4515C6 14.2064 12.052 18.7443 12.3102 18.9361C12.3633 18.976 12.4317 19 12.5 19C12.5683 19 12.6291 18.976 12.6898 18.9361C12.948 18.7443 19 14.2064 19 10.4515C18.9924 8.81366 18.0812 7.55136 16.6157 7.1439ZM15.3627 15.6525C14.163 16.8908 12.9556 17.8655 12.5 18.225C12.0444 17.8735 10.837 16.8988 9.64486 15.6605C7.69334 13.6392 6.66063 11.8336 6.66063 10.4515C6.66063 9.11726 7.35164 8.12659 8.51344 7.79903C8.75643 7.72713 9.0222 7.69517 9.29556 7.69517C10.3283 7.69517 11.5128 8.21447 12.2114 9.51672C12.2722 9.62857 12.3785 9.69249 12.5 9.69249C12.6215 9.69249 12.7278 9.62059 12.781 9.50874C13.5859 7.95882 15.2336 7.48745 16.4486 7.823C17.6256 8.14257 18.3318 9.12525 18.3318 10.4515C18.3394 11.8336 17.3067 13.6312 15.3627 15.6525Z"
                                fill="#075896" />
                        </svg>