<svg width="33" height="33" viewBox="0 0 33 33" fill="none" xmlns="http://www.w3.org/2000/svg" id="CBViewStopIssuedCheques">
<path fill-rule="evenodd" clip-rule="evenodd" d="M16.32 0C25.33 0 32.64 7.31001 32.64 16.32C32.64 25.33 25.33 32.64 16.32 32.64C7.31001 32.64 0 25.33 0 16.32C0.01 7.31001 7.31001 0 16.32 0Z" fill="#E3EFF8"/>
<ellipse cx="23.8892" cy="23.5001" rx="2.22222" ry="1.94444" fill="white"/>
<path d="M23.8889 22.5C23.6076 22.5 23.3378 22.6054 23.1389 22.7929C22.94 22.9804 22.8283 23.2348 22.8283 23.5C22.8283 23.7652 22.94 24.0196 23.1389 24.2071C23.3378 24.3946 23.6076 24.5 23.8889 24.5C24.1702 24.5 24.4399 24.3946 24.6389 24.2071C24.8378 24.0196 24.9495 23.7652 24.9495 23.5C24.9495 23.2348 24.8378 22.9804 24.6389 22.7929C24.4399 22.6054 24.1702 22.5 23.8889 22.5ZM23.8889 25.1667C23.4201 25.1667 22.9705 24.9911 22.639 24.6785C22.3074 24.366 22.1212 23.942 22.1212 23.5C22.1212 23.058 22.3074 22.634 22.639 22.3215C22.9705 22.0089 23.4201 21.8333 23.8889 21.8333C24.3577 21.8333 24.8073 22.0089 25.1388 22.3215C25.4703 22.634 25.6566 23.058 25.6566 23.5C25.6566 23.942 25.4703 24.366 25.1388 24.6785C24.8073 24.9911 24.3577 25.1667 23.8889 25.1667ZM23.8889 21C22.1212 21 20.6116 22.0367 20 23.5C20.6116 24.9633 22.1212 26 23.8889 26C25.6566 26 27.1662 24.9633 27.7778 23.5C27.1662 22.0367 25.6566 21 23.8889 21Z" fill="#006394"/>
<path d="M23.3636 20.5357H23.6136V20.2857V12.5714V12.3214H23.3636H8.63636H8.38636V12.5714V20.2857V20.5357H8.63636H23.3636ZM21.4773 17.9643V18.3214H10.5227V17.9643H21.4773ZM7.25 10.25H24.75V21.75H7.25V10.25ZM10.5227 14.5357H15.75V15.75H10.5227V14.5357Z" stroke="#006394" stroke-width="0.5"/>
</svg>
