<svg width="26" height="25" viewBox="0 0 26 25" fill="none" xmlns="http://www.w3.org/2000/svg">
<path d="M24.9 24.78H0.470001C0.280001 24.78 0.130005 24.63 0.130005 24.44V3.06C0.130005 2.87 0.280001 2.72 0.470001 2.72H24.9C25.09 2.72 25.24 2.87 25.24 3.06V24.44C25.24 24.63 25.09 24.78 24.9 24.78ZM24.56 3.41H0.809998V24.11H24.56V3.41ZM24.9 24.91H0.470001C0.210001 24.91 0 24.7 0 24.44V3.06C0 2.8 0.210001 2.59 0.470001 2.59H24.9C25.16 2.59 25.37 2.8 25.37 3.06V24.44C25.37 24.7 25.16 24.91 24.9 24.91ZM25.11 3.07001C25.11 2.95001 25.01 2.85999 24.9 2.85999H0.470001C0.350001 2.85999 0.26001 2.95001 0.26001 3.07001V24.45C0.26001 24.57 0.360001 24.66 0.470001 24.66H24.9C25.02 24.66 25.11 24.56 25.11 24.45V3.07001ZM24.56 24.23H0.809998C0.739998 24.23 0.680023 24.17 0.680023 24.1V3.39999C0.680023 3.32999 0.739998 3.26999 0.809998 3.26999H24.56C24.63 3.26999 24.69 3.32999 24.69 3.39999V24.1C24.68 24.17 24.63 24.23 24.56 24.23ZM24.43 3.53H0.940002V23.97H24.43V3.53ZM18.87 5.23001C18.68 5.23001 18.53 5.08001 18.53 4.89001V0.470001C18.53 0.280001 18.68 0.130005 18.87 0.130005C19.06 0.130005 19.21 0.280001 19.21 0.470001V4.89001C19.21 5.08001 19.06 5.23001 18.87 5.23001ZM18.87 5.35999C18.61 5.35999 18.4 5.15001 18.4 4.89001V0.470001C18.4 0.210001 18.61 0 18.87 0C19.13 0 19.34 0.210001 19.34 0.470001V4.89001C19.34 5.15001 19.13 5.35999 18.87 5.35999ZM19.08 0.470001C19.08 0.350001 18.98 0.26001 18.87 0.26001C18.75 0.26001 18.66 0.360001 18.66 0.470001V4.89001C18.66 5.01001 18.76 5.10001 18.87 5.10001C18.99 5.10001 19.08 5.00001 19.08 4.89001V0.470001ZM6.32001 5.23001C6.13001 5.23001 5.98001 5.08001 5.98001 4.89001V0.470001C5.98001 0.280001 6.13001 0.130005 6.32001 0.130005C6.51001 0.130005 6.66 0.280001 6.66 0.470001V4.89001C6.66 5.08001 6.51001 5.23001 6.32001 5.23001ZM6.32001 5.35999C6.06001 5.35999 5.85001 5.15001 5.85001 4.89001V0.470001C5.85001 0.210001 6.06001 0 6.32001 0C6.58001 0 6.79001 0.210001 6.79001 0.470001V4.89001C6.79001 5.15001 6.58001 5.35999 6.32001 5.35999ZM6.53 0.470001C6.53 0.350001 6.43001 0.26001 6.32001 0.26001C6.21001 0.26001 6.11002 0.360001 6.11002 0.470001V4.89001C6.11002 5.01001 6.21001 5.10001 6.32001 5.10001C6.43001 5.10001 6.53 5.00001 6.53 4.89001V0.470001ZM12.59 5.39999C12.4 5.39999 12.25 5.25 12.25 5.06V0.640015C12.25 0.450015 12.4 0.299988 12.59 0.299988C12.78 0.299988 12.93 0.450015 12.93 0.640015V5.06C12.94 5.25 12.78 5.39999 12.59 5.39999ZM12.59 5.53C12.33 5.53 12.12 5.32 12.12 5.06V0.640015C12.12 0.380015 12.33 0.170013 12.59 0.170013C12.85 0.170013 13.06 0.380015 13.06 0.640015V5.06C13.07 5.32 12.85 5.53 12.59 5.53ZM12.81 0.640015C12.81 0.520015 12.71 0.429993 12.6 0.429993C12.48 0.429993 12.39 0.530015 12.39 0.640015V5.06C12.39 5.18 12.48 5.26999 12.6 5.26999C12.72 5.26999 12.81 5.17 12.81 5.06V0.640015ZM5 11.42V9.12H8.48001V11.42H5ZM10.94 11.43V9.13H14.42V11.43H10.94ZM16.89 11.43V9.13H20.37V11.43H16.89ZM5 15.24V12.94H8.48001V15.24H5ZM10.94 15.26V12.96H14.42V15.26H10.94ZM16.89 15.26V12.96H20.37V15.26H16.89ZM5 19.07V16.77H8.48001V19.07H5ZM10.94 19.08V16.78H14.42V19.08H10.94ZM16.89 19.08V16.78H20.37V19.08H16.89Z" fill="#0062A7"/>
</svg>
