<svg width="31" height="33" viewBox="0 0 31 33" fill="none" xmlns="http://www.w3.org/2000/svg" id="CBAccountsDeposits">
<g clip-path="url(#clip0_1465_6639)">
<path d="M20.2158 28.7827C19.7293 28.7827 19.3015 28.5114 19.0289 28.0717H27.76C29.1608 28.0717 30.2943 26.9211 30.2943 25.499V8.75477C30.2943 7.33273 29.1608 6.18207 27.76 6.18207H23.5575V3.22944C23.5575 1.47632 22.1567 0.0542755 20.4297 0.0542755C10.8912 0.0542755 11.3724 0.0542755 11.212 0.108552C11.1051 0.162828 10.9982 0.217104 10.9447 0.271381C10.9447 0.271381 7.54955 3.71793 7.49608 3.7722C7.44262 3.88076 7.38915 3.93503 7.38915 4.04359V6.23092H3.18667C1.78584 6.23092 0.652344 7.38158 0.652344 8.80362V25.5479C0.652344 26.9699 1.78584 28.1206 3.18667 28.1206H11.9178C11.7039 28.5059 11.2708 28.8316 10.7308 28.8316C9.59732 28.8316 8.68304 29.7597 8.68304 30.9104C8.68304 32.061 9.59732 32.9891 10.7308 32.9891H20.1623C21.2958 32.9891 22.2101 32.061 22.2101 30.9104C22.2636 29.7054 21.3493 28.7773 20.2158 28.7773V28.7827ZM23.6109 9.62862H27.0061V22.6007H23.6109V9.62862ZM22.2636 3.22944V22.6007H8.78463V4.86859H11.4794C11.859 4.86859 12.1798 4.54293 12.1798 4.15757V1.42204H20.4831C21.4509 1.42204 22.2636 2.24161 22.2636 3.22944ZM4.04213 22.6549V9.62862H7.3838V22.6007H4.04213V22.6549ZM9.75772 3.50082L10.8378 2.40444V3.50082H9.75772ZM2.04782 25.5533V8.75477C2.04782 8.09803 2.58784 7.54984 3.23479 7.54984H7.43727V8.26086H3.39519C3.01557 8.26086 2.69477 8.59194 2.69477 8.97188V23.3117C2.69477 23.697 3.02092 24.0227 3.39519 24.0227H27.653C28.0326 24.0227 28.3534 23.6916 28.3534 23.3117V8.97188C28.3534 8.58651 28.0273 8.26086 27.653 8.26086H23.6109V7.54984H27.8134C28.4604 7.54984 29.0004 8.09803 29.0004 8.75477V25.499C29.0004 26.1558 28.4604 26.704 27.8134 26.704H3.23479C2.58784 26.7582 2.04782 26.21 2.04782 25.5533ZM20.2158 31.5183H10.7843C10.4047 31.5183 10.0839 31.1872 10.0839 30.8072C10.0839 30.4273 10.41 30.0962 10.7843 30.0962C12.0247 30.0962 13.1047 29.2224 13.3721 28.0174H17.5746C17.8954 29.2224 18.9219 30.0962 20.1623 30.0962C20.542 30.0962 20.8628 30.4219 20.8628 30.8072C20.9162 31.1926 20.5954 31.5183 20.2158 31.5183Z" fill="#044B7F"/>
<path d="M24.3113 30.8615C23.9316 30.8615 23.6108 31.1872 23.6108 31.5725C23.6108 31.9579 23.937 32.2836 24.3113 32.2836C24.6855 32.2836 24.9582 31.8982 24.9582 31.5183C24.9582 31.1383 24.6374 30.8615 24.3113 30.8615Z" fill="#044B7F"/>
<path d="M5.3895 29.4938C5.00989 29.4938 4.68909 29.8248 4.68909 30.2048C4.68909 30.5847 5.00989 30.9158 5.3895 30.9158C5.76911 30.9158 6.08991 30.5901 6.08991 30.2048C6.08991 29.7651 5.76911 29.4938 5.3895 29.4938Z" fill="#044B7F"/>
<path d="M29.7008 4.15757C30.0857 4.15757 30.4012 4.4778 30.4012 4.86859C30.4012 5.25938 30.0857 5.57961 29.7008 5.57961C29.3158 5.57961 29.0004 5.25938 29.0004 4.86859C29.0004 4.4778 29.3158 4.15757 29.7008 4.15757Z" fill="#044B7F"/>
<path d="M6.08982 4.15757C6.47478 4.15757 6.79023 4.4778 6.79023 4.86859C6.79023 5.25938 6.47478 5.57961 6.08982 5.57961C5.70486 5.57961 5.3894 5.25938 5.3894 4.86859C5.3894 4.4778 5.70486 4.15757 6.08982 4.15757Z" fill="#044B7F"/>
<path d="M2.04778 28.7827C0.914281 28.7827 0 29.7109 0 30.8615C0 32.0122 0.914281 32.9403 2.04778 32.9403C3.18127 32.9403 4.09555 32.0122 4.09555 30.8615C4.04208 29.7109 3.18127 28.7827 2.04778 28.7827ZM2.04778 31.5183C1.66816 31.5183 1.34736 31.1872 1.34736 30.8072C1.34736 30.4273 1.66816 30.0962 2.04778 30.0962C2.42739 30.0962 2.74819 30.4219 2.74819 30.8072C2.69472 31.1926 2.42739 31.5183 2.04778 31.5183Z" fill="#044B7F"/>
<path d="M29.3265 29.4938C28.4122 29.4938 27.653 30.259 27.653 31.1872C27.653 32.1153 28.4068 32.886 29.3265 32.886C30.2461 32.886 31 32.1207 31 31.1872C31.0534 30.259 30.2461 29.4938 29.3265 29.4938ZM29.3265 31.5183C29.1661 31.5183 29.0057 31.3554 29.0057 31.1872C29.0057 31.0189 29.1661 30.8615 29.3265 30.8615C29.4869 30.8615 29.6526 31.0243 29.6526 31.1872C29.7061 31.35 29.5457 31.5183 29.3265 31.5183Z" fill="#044B7F"/>
<path d="M26.6318 4.86858C27.546 4.86858 28.3053 4.10329 28.3053 3.17516C28.3053 2.24704 27.5514 1.47631 26.6318 1.47631C25.7121 1.47631 24.9583 2.18733 24.9583 3.12089C24.9583 4.05444 25.7121 4.87401 26.6318 4.87401V4.86858ZM26.6318 2.7898C26.7922 2.7898 26.9526 2.95263 26.9526 3.12089C26.9526 3.28914 26.7922 3.44654 26.6318 3.44654C26.4714 3.44654 26.3056 3.28372 26.3056 3.12089C26.3056 2.95806 26.466 2.7898 26.6318 2.7898Z" fill="#044B7F"/>
<path d="M3.39519 4.15757C4.52868 4.15757 5.44296 3.22944 5.44296 2.07878C5.44296 0.928125 4.52868 0 3.39519 0C2.26169 0 1.34741 0.928125 1.34741 2.07878C1.34741 3.22944 2.26169 4.15757 3.39519 4.15757ZM3.39519 1.42204C3.7748 1.42204 4.0956 1.7477 4.0956 2.13306C4.0956 2.51842 3.76945 2.84408 3.39519 2.84408C3.02092 2.84408 2.69477 2.51842 2.69477 2.13306C2.69477 1.7477 3.02092 1.42204 3.39519 1.42204Z" fill="#044B7F"/>
<path d="M27.0061 26.0472C27.3857 26.0472 27.7065 25.7161 27.7065 25.3362C27.7065 24.9563 27.3857 24.6252 27.0061 24.6252C26.6265 24.6252 26.3057 24.9508 26.3057 25.3362C26.3057 25.7216 26.6318 26.0472 27.0061 26.0472Z" fill="#044B7F"/>
<path d="M24.9582 26.0472C25.3378 26.0472 25.6586 25.7161 25.6586 25.3362C25.6586 24.9563 25.3325 24.6252 24.9582 24.6252C24.584 24.6252 24.2578 24.9508 24.2578 25.3362C24.3113 25.7216 24.584 26.0472 24.9582 26.0472Z" fill="#044B7F"/>
<path d="M22.964 26.0472C23.3436 26.0472 23.6644 25.7161 23.6644 25.3362C23.6644 24.9563 23.3382 24.6252 22.964 24.6252C22.5897 24.6252 22.2635 24.9508 22.2635 25.3362C22.2635 25.7216 22.5844 26.0472 22.964 26.0472Z" fill="#044B7F"/>
<path d="M15.2541 13.5691C15.0937 13.5148 14.8745 13.5148 14.7141 13.5691C14.4467 13.6776 14.3344 13.9544 14.3344 14.0087C12.014 13.6234 10.132 15.4308 10.132 17.6181C10.132 19.6426 11.7467 21.2817 13.741 21.2817C15.9491 21.2817 17.6761 19.2572 17.2965 16.9614C17.6761 16.8528 17.8365 16.4132 17.6761 16.0875C17.243 14.8826 16.3822 14.0087 15.2487 13.5691H15.2541ZM16.1202 15.9247L14.9333 16.3643L15.3663 15.1594C15.6337 15.3765 15.9064 15.599 16.1202 15.9247ZM13.7463 19.9194C12.5059 19.9194 11.4847 18.8773 11.4847 17.6235C11.4847 16.3697 12.5112 15.2679 13.8586 15.3222L13.1582 17.2924C13.0512 17.5638 13.1047 17.8406 13.3186 18.0035C13.479 18.1663 13.8051 18.2748 14.019 18.1663L16.0133 17.4553V17.6181C16.0133 18.8773 14.9867 19.914 13.7517 19.914L13.7463 19.9194Z" fill="#F58027"/>
<path d="M15.5267 9.62862H14.1793V10.9964H15.5267V9.62862Z" fill="#0092FC"/>
<path d="M19.5688 7.60411H18.2214V8.97187H19.5688V7.60411Z" fill="#0092FC"/>
<path d="M20.9162 9.62862H16.1737V10.9964H20.9162V9.62862Z" fill="#0092FC"/>
<path d="M15.5214 5.52533H10.7789V6.89309H15.5214V5.52533Z" fill="#0092FC"/>
<path d="M18.2215 11.7128H12.1316V13.0806H18.2215V11.7128Z" fill="#0092FC"/>
<path d="M17.5157 7.60411H10.7789V8.97187H17.5157V7.60411Z" fill="#0092FC"/>
</g>
<defs>
<clipPath id="clip0_1465_6639">
<rect width="31" height="33" fill="white"/>
</clipPath>
</defs>
</svg>
