<svg width="40" height="40" viewBox="0 0 40 40" fill="none" xmlns="http://www.w3.org/2000/svg" id="CBApprovals">
<path d="M14.3301 24.73C20.002 24.73 24.6001 20.132 24.6001 14.46C24.6001 8.78804 20.002 4.19 14.3301 4.19C8.65809 4.19 4.06006 8.78804 4.06006 14.46C4.06006 20.132 8.65809 24.73 14.3301 24.73Z" fill="#F58027"/>
<path d="M14.3301 28.42C10.6001 28.42 7.10012 26.97 4.46012 24.33C1.82012 21.69 0.370117 18.19 0.370117 14.46C0.370117 10.73 1.82012 7.23 4.46012 4.59C7.10012 1.95 10.6001 0.5 14.3301 0.5C18.0601 0.5 21.5601 1.95 24.2001 4.59C29.6401 10.03 29.6401 18.88 24.2001 24.32C21.5701 26.95 18.0601 28.41 14.3301 28.41V28.42ZM14.3301 2.14C11.0401 2.14 7.94012 3.42 5.62012 5.75C3.29012 8.08 2.01012 11.17 2.01012 14.46C2.01012 17.75 3.29012 20.85 5.62012 23.17C7.95012 25.5 11.0401 26.78 14.3301 26.78C17.6201 26.78 20.7201 25.5 23.0401 23.17C27.8401 18.37 27.8401 10.55 23.0401 5.74C20.7101 3.41 17.6201 2.13 14.3301 2.13V2.14Z" fill="#005896"/>
<path d="M24.1999 23.1819L23.0474 24.3345L25.8334 27.1205L26.9859 25.9679L24.1999 23.1819Z" fill="#005896"/>
<path d="M35.7002 39.27C34.7802 39.27 33.9202 38.91 33.2702 38.26L23.4102 28.39L28.2802 23.52L38.1502 33.39C38.8002 34.04 39.1602 34.91 39.1602 35.82C39.1602 36.74 38.8002 37.6 38.1502 38.25C37.5002 38.9 36.6402 39.26 35.7202 39.26L35.7002 39.27ZM25.7002 28.4L34.4102 37.11C34.7502 37.45 35.2102 37.64 35.6902 37.64C36.1702 37.64 36.6302 37.45 36.9702 37.11C37.3102 36.77 37.5002 36.31 37.5002 35.83C37.5002 35.35 37.3102 34.89 36.9702 34.55L28.2602 25.84L25.7002 28.4Z" fill="#005896"/>
<path d="M12.3798 19.77C12.2398 19.77 12.0998 19.72 11.9898 19.61L8.0898 15.71C7.8698 15.49 7.8698 15.14 8.0898 14.93C8.3098 14.72 8.65981 14.71 8.86981 14.93L12.3798 18.44L19.7898 11.03C20.0098 10.81 20.3598 10.81 20.5698 11.03C20.7798 11.25 20.7898 11.6 20.5698 11.81L12.7698 19.61C12.6598 19.72 12.5198 19.77 12.3798 19.77Z" fill="white" stroke="white" stroke-width="0.5" stroke-miterlimit="10"/>
</svg>
