<svg width="43" height="28" viewBox="0 0 43 28" fill="none" xmlns="http://www.w3.org/2000/svg" id="CBApplyForLoans">
<path d="M8.92987 7.76866H0.379883V24.9837H8.92987V7.76866Z" fill="#259CEE"/>
<path d="M7.43985 20.9156H5.95984V22.3841H7.43985V20.9156Z" fill="#045896"/>
<path d="M42.1398 13.4739L42.1198 13.4442C41.7198 12.9183 41.1398 12.5611 40.4898 12.442C39.8398 12.323 39.1698 12.452 38.6098 12.7992L32.9098 16.3216C32.7498 15.0516 31.6598 14.0594 30.3298 14.0594H20.7798L17.5598 12.0154C16.7198 11.4796 15.7998 11.0728 14.8498 10.7949C13.8898 10.5171 12.8998 10.3782 11.8998 10.3782H8.93982V11.8467H11.8998C12.7598 11.8467 13.6098 11.9658 14.4298 12.2039C15.2498 12.442 16.0398 12.7992 16.7598 13.2557L20.3498 15.5378H30.3398C30.9598 15.5378 31.4598 16.0339 31.4598 16.649C31.4598 17.2642 30.9598 17.7604 30.3398 17.7604H20.5698C19.1298 17.7604 17.9698 18.9212 17.9698 20.3401H19.4498C19.4498 19.7249 19.9498 19.2288 20.5698 19.2288H30.3398C30.9698 19.2288 31.5498 19.0006 32.0098 18.6335L39.4098 14.0594C39.6598 13.9105 39.9498 13.851 40.2398 13.9006C40.5298 13.9502 40.7798 14.109 40.9598 14.3372L40.9798 14.3669C41.1698 14.615 41.2498 14.9226 41.1998 15.2302C41.1498 15.5378 40.9898 15.8057 40.7398 15.9843L26.7698 25.0631C26.2598 25.3905 25.6898 25.579 25.0798 25.6485C24.4698 25.708 23.8798 25.6386 23.3298 25.4302L11.9898 20.9156H8.93982V22.3841H11.6998L22.7898 26.7995C23.3998 27.0277 24.0298 27.1368 24.6698 27.1368C24.8598 27.1368 25.0498 27.1269 25.2398 27.1071C26.0798 27.0178 26.8598 26.7499 27.5798 26.3034L41.5698 17.2047L41.5998 17.1848C42.1798 16.7681 42.5598 16.1529 42.6698 15.4485C42.7598 14.744 42.5798 14.0395 42.1398 13.4739Z" fill="#045896"/>
<path d="M26.6899 11.0331C29.6667 11.0331 32.0799 8.63867 32.0799 5.68501C32.0799 2.73134 29.6667 0.336914 26.6899 0.336914C23.7131 0.336914 21.2999 2.73134 21.2999 5.68501C21.2999 8.63867 23.7131 11.0331 26.6899 11.0331Z" fill="#F58027"/>
<path d="M27.0499 8.10601H26.3398C25.9698 8.10601 25.6298 7.96711 25.3698 7.70913C25.1098 7.45115 24.9698 7.1138 24.9698 6.74667H25.5699C25.5699 6.95504 25.6499 7.14355 25.7999 7.29238C25.9499 7.44122 26.1398 7.52061 26.3398 7.52061H27.0499C27.2599 7.52061 27.4499 7.44122 27.5999 7.29238C27.7399 7.14355 27.8199 6.95502 27.8199 6.75657C27.8199 6.54821 27.7398 6.35971 27.5898 6.2208C27.4398 6.07196 27.2499 5.99257 27.0399 5.99257H26.3299C25.9599 5.99257 25.6199 5.85367 25.3599 5.59569C25.0999 5.33771 24.9598 5.00036 24.9598 4.63323C24.9598 4.26611 25.0999 3.92876 25.3599 3.67078C25.6199 3.4128 25.9599 3.2739 26.3299 3.2739H27.0399C27.4099 3.2739 27.7499 3.4128 28.0099 3.67078C28.2699 3.92876 28.4099 4.26611 28.4099 4.63323H27.8098C27.8098 4.42487 27.7299 4.23636 27.5799 4.08752C27.4299 3.93869 27.2399 3.8593 27.0399 3.8593H26.3299C26.1199 3.8593 25.9299 3.93869 25.7899 4.08752C25.6399 4.23636 25.5598 4.42486 25.5598 4.6233C25.5598 4.83167 25.6399 5.0202 25.7899 5.15911C25.9399 5.30794 26.1299 5.38733 26.3299 5.38733H27.0399C27.4099 5.38733 27.7499 5.52624 28.0099 5.78422C28.2699 6.04219 28.4099 6.37955 28.4099 6.74667C28.4099 7.1138 28.2699 7.45115 28.0099 7.70913C27.7599 7.96711 27.4099 8.10601 27.0499 8.10601Z" fill="white"/>
<path d="M26.9899 2.70833H26.3899V3.56162H26.9899V2.70833Z" fill="white"/>
<path d="M26.9899 7.80836H26.3899V8.66166H26.9899V7.80836Z" fill="white"/>
</svg>
