<svg width="33" height="34" viewBox="0 0 33 34" fill="none" xmlns="http://www.w3.org/2000/svg" id="CBBankAccounts">
<g clip-path="url(#clip0_1465_6598)">
<path d="M21.0481 29.1201C20.5415 29.1201 20.0962 28.845 19.8123 28.3994H28.9028C30.3613 28.3994 31.5415 27.233 31.5415 25.7916V8.81909C31.5415 7.37767 30.3613 6.21133 28.9028 6.21133H24.5273V3.99417C24.5273 3.88414 24.416 3.71909 24.3603 3.66408C20.5972 -0.0550164 20.8198 0.165049 20.7642 0.165049C20.6528 0.0550162 20.4858 0 20.3133 0H8.41701C8.02176 0 7.68775 0.335599 7.68775 0.720712V6.26634H3.31225C1.85375 6.26634 0.673584 7.43269 0.673584 8.87411V25.8466C0.673584 27.288 1.85375 28.4544 3.31225 28.4544H12.4028C12.1802 28.845 11.7293 29.1751 11.167 29.1751C9.98684 29.1751 9.03492 30.1159 9.03492 31.2822C9.03492 32.4485 9.98684 33.3893 11.167 33.3893H20.9868C22.167 33.3893 23.1189 32.4485 23.1189 31.2822C23.1746 30.0608 22.2227 29.1201 21.0425 29.1201H21.0481ZM21.0481 2.32718L22.1726 3.43851H21.0481V2.32718ZM24.583 9.70485H28.1179V22.9087H24.583V9.70485ZM19.6452 1.38641V4.15922C19.6452 4.54984 19.9793 4.87994 20.3745 4.87994H23.1802V22.9087H9.14626V4.82492H16.8897C17.2849 4.82492 17.6189 4.49482 17.6189 4.10421C17.6189 3.71359 17.2849 3.3835 16.8897 3.3835H9.14626V1.27638H19.6397V1.38641H19.6452ZM4.2085 22.8537V9.71036H7.68775V22.9142H4.2085V22.8592V22.8537ZM2.13209 25.7916V8.81909C2.13209 8.1534 2.69433 7.59774 3.36792 7.59774H7.74342V8.31845H3.53492C3.13968 8.31845 2.80567 8.65405 2.80567 9.03916V23.6295C2.80567 24.0201 3.13968 24.3502 3.53492 24.3502H28.7915C29.1867 24.3502 29.5208 24.0201 29.5208 23.6295V8.98414C29.5208 8.59353 29.1867 8.26343 28.7915 8.26343H24.583V7.54272H28.9585C29.6321 7.54272 30.1943 8.09838 30.1943 8.76408V25.7366C30.1943 26.4023 29.6321 26.9579 28.9585 26.9579H3.36792C2.69433 27.0129 2.13209 26.4573 2.13209 25.7916ZM21.0481 31.8929H11.2282C10.833 31.8929 10.499 31.5573 10.499 31.1722C10.499 30.7871 10.833 30.4515 11.2282 30.4515C12.5197 30.4515 13.6442 29.5657 13.9226 28.3443H18.2981C18.6377 29.5657 19.7009 30.4515 20.9924 30.4515C21.3877 30.4515 21.7217 30.7816 21.7217 31.1722C21.7773 31.5628 21.4433 31.8929 21.0481 31.8929Z" fill="#005A9B"/>
<path d="M27.3887 29.1201C26.9934 29.1201 26.6594 29.4557 26.6594 29.8408C26.6594 30.2259 26.9934 30.5615 27.3887 30.5615C27.7839 30.5615 28.1179 30.2259 28.1179 29.8408C28.0623 29.3951 27.7839 29.1201 27.3887 29.1201Z" fill="#005A9B"/>
<path d="M30.1943 3.43851C30.5896 3.43851 30.9236 3.10291 30.9236 2.7178C30.9236 2.33268 30.5896 1.99709 30.1943 1.99709C29.7991 1.99709 29.4651 2.33268 29.4651 2.7178C29.4651 3.16343 29.8047 3.43851 30.1943 3.43851Z" fill="#005A9B"/>
<path d="M26.6594 4.82492C27.0547 4.82492 27.3887 4.49482 27.3887 4.10421C27.3887 3.71359 27.0491 3.3835 26.6594 3.3835C26.2697 3.3835 25.9302 3.71359 25.9302 4.10421C25.9858 4.54984 26.2697 4.82492 26.6594 4.82492Z" fill="#005A9B"/>
<path d="M3.31224 4.10421C3.70748 4.21424 4.09716 4.04919 4.20849 3.65858C4.31983 3.26796 4.15283 2.88285 3.75758 2.77282C3.36234 2.66278 2.97266 2.82783 2.86133 3.21845C2.74999 3.60906 2.917 3.99418 3.31224 4.10421Z" fill="#005A9B"/>
<path d="M25.2566 31.1722C24.8614 31.1722 24.5273 31.5023 24.5273 31.8929C24.5273 32.2835 24.8614 32.6136 25.2566 32.6136C25.6518 32.6136 25.9858 32.2835 25.9858 31.8929C25.9858 31.5023 25.6518 31.1722 25.2566 31.1722Z" fill="#005A9B"/>
<path d="M5.61133 29.7858C5.21609 29.7858 4.88208 30.1214 4.88208 30.5065C4.88208 30.8916 5.22165 31.2272 5.61133 31.2272C6.00101 31.2272 6.34058 30.8971 6.34058 30.5065C6.34058 30.1159 6.00101 29.7858 5.61133 29.7858Z" fill="#005A9B"/>
<path d="M2.13209 29.1201C0.951923 29.1201 0 30.0608 0 31.2272C0 32.3935 0.951923 33.3343 2.13209 33.3343C3.31225 33.3343 4.26417 32.3935 4.26417 31.2272C4.2085 30.0608 3.25658 29.1201 2.13209 29.1201ZM2.13209 31.8929C1.73684 31.8929 1.40283 31.5573 1.40283 31.1722C1.40283 30.7871 1.73684 30.4515 2.13209 30.4515C2.52733 30.4515 2.86134 30.7816 2.86134 31.1722C2.80567 31.5628 2.52733 31.8929 2.13209 31.8929Z" fill="#005A9B"/>
<path d="M30.8679 29.7858C29.6878 29.7858 28.7358 30.7265 28.7358 31.8929C28.7358 33.0592 29.6878 34 30.8679 34C32.0481 34 33 33.0592 33 31.8929C33 30.7265 32.0481 29.7858 30.8679 29.7858ZM30.8679 32.5586C30.4727 32.5586 30.1387 32.223 30.1387 31.8379C30.1387 31.4527 30.4727 31.1172 30.8679 31.1172C31.2632 31.1172 31.5972 31.4472 31.5972 31.8379C31.5972 32.2835 31.2632 32.5586 30.8679 32.5586Z" fill="#005A9B"/>
<path d="M28.0623 26.3472C28.4575 26.3472 28.7915 26.0172 28.7915 25.6265C28.7915 25.2359 28.4575 24.9058 28.0623 24.9058C27.667 24.9058 27.333 25.2359 27.333 25.6265C27.3887 26.0172 27.667 26.3472 28.0623 26.3472Z" fill="#005A9B"/>
<path d="M25.9858 26.3472C26.3811 26.3472 26.7151 26.0172 26.7151 25.6265C26.7151 25.2359 26.3755 24.9058 25.9858 24.9058C25.5962 24.9058 25.2566 25.2359 25.2566 25.6265C25.2566 26.0172 25.5906 26.3472 25.9858 26.3472Z" fill="#005A9B"/>
<path d="M23.8538 26.3472C24.249 26.3472 24.583 26.0172 24.583 25.6265C24.583 25.2359 24.2434 24.9058 23.8538 24.9058C23.4641 24.9058 23.1245 25.2359 23.1245 25.6265C23.1802 26.0172 23.4641 26.3472 23.8538 26.3472Z" fill="#005A9B"/>
<path d="M21.1594 17.7482H14.6462V16.9175H18.2368C18.6321 16.9175 18.9661 16.5819 18.9661 16.1968C18.9661 15.8116 18.6321 15.4761 18.2368 15.4761H14.6462V14.4803C14.6462 14.2052 14.4792 13.9796 14.251 13.8696C14.0283 13.7595 13.6887 13.8146 13.5217 13.9796L10.1538 16.7524C9.81982 17.0275 9.81982 17.5282 10.1538 17.8087L13.5217 20.5816C13.6331 20.6916 13.8001 20.7466 13.9727 20.7466C14.3679 20.7466 14.6462 20.411 14.6462 20.0259V19.0851H21.0982C21.4934 19.0851 21.8274 18.7495 21.8274 18.3644C21.8274 18.0288 21.4934 17.7537 21.1538 17.7537L21.1594 17.7482ZM13.2434 18.6395L11.7292 17.3081L13.2991 16.0317C13.2434 16.9725 13.2434 17.6382 13.2434 18.6395Z" fill="#F68A33"/>
<path d="M14.0339 9.26473C13.6387 9.26473 13.3047 9.59482 13.3047 9.98544C13.3047 10.3761 13.6387 10.7061 14.0339 10.7061H17.6802V11.5369H11.2283C10.833 11.5369 10.499 11.8725 10.499 12.2576C10.499 12.6427 10.833 12.9783 11.2283 12.9783H17.6802V13.9741C17.6802 14.3647 18.0142 14.6948 18.3538 14.6948C18.5208 14.6948 18.6878 14.6398 18.8047 14.5298L22.1726 11.757C22.5066 11.4819 22.5066 10.9812 22.1726 10.7006L18.8047 7.92783C18.582 7.76278 18.2981 7.70777 18.0754 7.8178C17.8528 7.92783 17.6802 8.1479 17.6802 8.42848V9.42427L14.0339 9.25922V9.26473ZM19.083 9.75987L20.6529 11.0362L19.083 12.3126V9.75987Z" fill="#F68A33"/>
<path d="M21.7773 20.8016H20.3745V22.188H21.7773V20.8016Z" fill="#005A9B"/>
<path d="M19.6453 20.8016H18.2424V22.188H19.6453V20.8016Z" fill="#005A9B"/>
<path d="M17.5688 20.8016H16.166V22.188H17.5688V20.8016Z" fill="#005A9B"/>
</g>
<defs>
<clipPath id="clip0_1465_6598">
<rect width="33" height="34" fill="white"/>
</clipPath>
</defs>
</svg>
