<svg width="39" height="41" viewBox="0 0 39 41" fill="none" xmlns="http://www.w3.org/2000/svg" id="CBBillPayments">
<path d="M15.5799 6.76465H5.50989V8.32244H15.5799V6.76465Z" fill="#045896"/>
<path d="M25.8098 21.6777H5.34985V23.2355H25.8098V21.6777Z" fill="#045896"/>
<path d="M25.8098 24.8033H5.34985V26.361H25.8098V24.8033Z" fill="#045896"/>
<path d="M25.8098 27.9288H5.34985V29.4865H25.8098V27.9288Z" fill="#045896"/>
<path d="M25.8098 31.0443H5.34985V32.6021H25.8098V31.0443Z" fill="#045896"/>
<path d="M25.8098 34.1698H5.34985V35.7276H25.8098V34.1698Z" fill="#045896"/>
<path d="M6.69984 18.6812L5.58984 17.5699L10.3398 12.8569L13.4899 15.9824L17.6799 11.815L20.8298 14.9406L24.4698 11.3289L25.5898 12.4302L20.8298 17.1433L17.6799 14.0277L13.4899 18.1851L10.3398 15.0596L6.69984 18.6812Z" fill="#259CEE"/>
<path d="M25.8198 15.0695H24.2398V12.6584H21.8198V11.1006H25.8198V15.0695Z" fill="#259CEE"/>
<path d="M28.9699 38.8531H2.20988V2.07147H22.6599V8.32246H28.9599V15.913C29.4799 15.8336 29.9999 15.784 30.5299 15.784V7.2211L23.7699 0.513672H0.629883V40.4209H30.5399V36.9381C29.9999 36.9381 29.4799 36.8885 28.9699 36.8091V38.8531ZM24.2399 3.17282L27.8499 6.75476H24.2399V3.17282Z" fill="#045896"/>
<path d="M29.3699 35.2613C34.3239 35.2613 38.3399 31.2765 38.3399 26.361C38.3399 21.4456 34.3239 17.4608 29.3699 17.4608C24.4159 17.4608 20.3999 21.4456 20.3999 26.361C20.3999 31.2765 24.4159 35.2613 29.3699 35.2613Z" fill="#F58027"/>
<path d="M29.9599 30.3895H28.7699C28.1599 30.3895 27.5899 30.1513 27.1599 29.7247C26.7299 29.298 26.4899 28.7325 26.4899 28.1272H27.4899C27.4899 28.4646 27.6199 28.7821 27.8699 29.0301C28.1099 29.2683 28.4299 29.4072 28.7799 29.4072H29.9699C30.3099 29.4072 30.6299 29.2782 30.8799 29.0301C31.1199 28.792 31.2499 28.4745 31.2499 28.1272C31.2499 27.7898 31.1199 27.4723 30.8799 27.2243C30.6399 26.9861 30.3199 26.8473 29.9699 26.8473H28.7799C28.1699 26.8473 27.5999 26.6091 27.1699 26.1825C26.7399 25.7558 26.4999 25.1902 26.4999 24.585C26.4999 23.9797 26.7399 23.4142 27.1699 22.9875C27.5999 22.5608 28.1699 22.3227 28.7799 22.3227H29.9699C30.5799 22.3227 31.1499 22.5608 31.5799 22.9875C32.0099 23.4142 32.2499 23.9797 32.2499 24.585H31.2499C31.2499 24.2476 31.1199 23.9301 30.8699 23.6821C30.6299 23.4439 30.3099 23.305 29.9599 23.305H28.7699C28.4299 23.305 28.1099 23.434 27.8599 23.6821C27.6199 23.9202 27.4799 24.2377 27.4799 24.585C27.4799 24.9223 27.6099 25.2398 27.8599 25.4879C28.0999 25.726 28.4199 25.8649 28.7699 25.8649H29.9599C30.5699 25.8649 31.1399 26.1031 31.5699 26.5297C31.9999 26.9564 32.2399 27.5219 32.2399 28.1272C32.2399 28.7325 31.9999 29.298 31.5699 29.7247C31.1399 30.1513 30.5699 30.3895 29.9599 30.3895Z" fill="white"/>
<path d="M29.8699 21.4198H28.8699V22.8287H29.8699V21.4198Z" fill="white"/>
<path d="M29.8699 29.8934H28.8699V31.3023H29.8699V29.8934Z" fill="white"/>
</svg>
