<svg width="34" height="33" viewBox="0 0 34 33" fill="none" xmlns="http://www.w3.org/2000/svg" id="CBChequebookServices">
<g clip-path="url(#clip0_1466_6661)">
<path d="M30.3542 13.9535H25.1302V10.2616C25.1302 9.84883 24.7807 9.5 24.3672 9.5H21.432C21.0185 9.5 20.6691 9.84883 20.6691 10.2616V11.7267H19.2014V8.79651C19.2014 8.38372 18.852 8.03488 18.4385 8.03488H15.5033C15.0898 8.03488 14.7403 8.38953 14.7403 8.79651V13.4302H13.2727V11.7326C13.2727 11.3198 12.9233 10.9709 12.5098 10.9709H9.57451C9.16101 10.9709 8.81158 11.3256 8.81158 11.7326V13.9593H3.58171C1.5841 13.9593 0 15.5407 0 17.5349V29.436C0 31.4302 1.5841 33.0116 3.58171 33.0116H30.1795C32.1771 33.0116 33.7612 31.4302 33.7612 29.436V17.593C33.9942 15.5988 32.3518 13.9593 30.3542 13.9593V13.9535ZM22.1949 11.0174H23.6626V22.7384H22.1949V11.0174ZM20.7273 13.25V22.8023H19.2597V13.25H20.7273ZM16.3244 9.55232H17.7921V22.7384H16.3244V9.55232ZM14.8568 14.9477V22.8023H13.3892V14.9477H14.8568ZM10.4539 12.4884H11.9215V22.7442H10.4539V12.4884ZM8.9863 15.4186V22.7442H8.22336C7.80987 22.7442 7.46043 23.0988 7.46043 23.5058C7.46043 23.9128 7.80987 24.2674 8.22336 24.2674H25.8407C26.2542 24.2674 26.6036 23.9128 26.6036 23.5058C26.6036 23.0988 26.2542 22.7442 25.8407 22.7442H25.0778V15.4186H28.013V31.5407H6.04522V15.4186H8.98047H8.9863ZM1.64234 29.4244V17.5814C1.64234 16.407 2.57999 15.4709 3.75642 15.4709H4.57759V31.593H3.75642C2.63823 31.5349 1.64234 30.5988 1.64234 29.4244ZM32.5324 29.4244C32.5324 30.5988 31.5947 31.5349 30.4183 31.5349H29.5971V15.4128H30.4183C31.5947 15.4128 32.5324 16.3488 32.5324 17.5233V29.4244Z" fill="#0767AD"/>
<path d="M3.87292 7.38372H12.6787C13.0922 7.38372 13.4416 7.03488 13.4416 6.62209C13.4416 6.2093 13.0922 5.86047 12.6787 5.86047H3.87292C3.45942 5.86047 3.10999 6.2093 3.10999 6.62209C3.10999 7.03488 3.45942 7.38372 3.87292 7.38372Z" fill="#008BF1"/>
<path d="M9.74926 5.15698H14.1521C14.5656 5.15698 14.9151 4.80814 14.9151 4.39535C14.9151 3.98256 14.5656 3.63372 14.1521 3.63372H9.74926C9.33576 3.63372 8.98633 3.98256 8.98633 4.39535C8.98633 4.86628 9.33576 5.15698 9.74926 5.15698Z" fill="#F68A33"/>
<path d="M25.8931 8.08721C25.8931 8.5 26.2425 8.84884 26.656 8.84884H33.2312C33.6447 8.84884 33.9941 8.5 33.9941 8.08721C33.9941 7.67442 33.6447 7.32558 33.2312 7.32558H26.656C26.2425 7.38372 25.8931 7.67442 25.8931 8.08721Z" fill="#008BF1"/>
<path d="M23.7208 6.62209H26.6561C27.0696 6.62209 27.419 6.26744 27.419 5.9186C27.419 5.50581 27.0696 5.15697 26.6561 5.15697H23.7208C23.3073 5.15697 22.9579 5.50581 22.9579 5.9186C22.9579 6.33139 23.3073 6.62209 23.7208 6.62209Z" fill="#008BF1"/>
<path d="M2.40527 3.69186C2.81876 3.69186 3.1682 3.34302 3.1682 2.93023C3.1682 2.51744 2.81876 2.16861 2.40527 2.16861C1.99177 2.16861 1.64233 2.51744 1.64233 2.93023C1.64233 3.40116 1.99177 3.69186 2.40527 3.69186Z" fill="#0767AD"/>
<path d="M13.3891 1.52326C13.8026 1.52326 14.1521 1.1686 14.1521 0.761628C14.1521 0.354651 13.7968 0 13.3891 0C12.9815 0 12.6844 0.354651 12.6844 0.761628C12.6844 1.1686 13.0339 1.52326 13.3891 1.52326Z" fill="#F68A33"/>
<path d="M27.3607 11.7849C27.3607 12.1977 27.7102 12.5465 28.1237 12.5465C28.5371 12.5465 28.8866 12.1977 28.8866 11.7849C28.8866 11.3721 28.5371 11.0233 28.1237 11.0233C27.7102 11.0233 27.3607 11.3779 27.3607 11.7849Z" fill="#0767AD"/>
<path d="M8.28162 9.55232C8.28162 9.96511 8.63105 10.314 9.04455 10.314C9.45805 10.314 9.80748 9.96511 9.80748 9.55232C9.80748 9.13953 9.45805 8.7907 9.04455 8.7907C8.63105 8.7907 8.28162 9.14535 8.28162 9.55232Z" fill="#0767AD"/>
<path d="M24.4255 3.69186C24.839 3.69186 25.1885 3.34302 25.1885 2.93023C25.1885 2.51744 24.839 2.16861 24.4255 2.16861C24.012 2.16861 23.6626 2.51744 23.6626 2.93023C23.7208 3.40116 24.0179 3.69186 24.4255 3.69186Z" fill="#0767AD"/>
<path d="M0.937615 9.55232C1.35111 9.55232 1.70055 9.19767 1.70055 8.7907C1.70055 8.38372 1.35111 8.02907 0.937615 8.02907C0.524117 8.02907 0.174683 8.38372 0.174683 8.7907C0.174683 9.26163 0.524117 9.55232 0.937615 9.55232Z" fill="#0767AD"/>
<path d="M2.40527 10.6686C2.40527 11.6628 3.22645 12.4884 4.22816 12.4884C5.22987 12.4884 6.05104 11.6686 6.05104 10.6686C6.05104 9.66861 5.22987 8.84884 4.22816 8.84884C3.22645 8.84884 2.40527 9.66861 2.40527 10.6686ZM4.57759 10.6686C4.57759 10.843 4.40288 11.0174 4.22816 11.0174C4.05344 11.0174 3.8729 10.843 3.8729 10.6686C3.8729 10.4942 4.04762 10.3198 4.22816 10.3198C4.4087 10.3198 4.57759 10.4942 4.57759 10.6686Z" fill="#008BF1"/>
<path d="M18.9044 5.15698C19.9003 5.15698 20.7273 4.33721 20.7273 3.34302C20.7273 2.34884 19.9061 1.52325 18.9044 1.52325C17.9027 1.52325 17.0815 2.34302 17.0815 3.34302C17.0815 4.34302 17.9027 5.15698 18.9044 5.15698ZM18.9044 2.98837C19.0791 2.98837 19.2539 3.16279 19.2539 3.34302C19.2539 3.52325 19.0791 3.69186 18.9044 3.69186C18.7297 3.69186 18.555 3.51744 18.555 3.34302C18.555 3.1686 18.7297 2.98837 18.9044 2.98837Z" fill="#F68A33"/>
<path d="M29.5913 4.45349C30.8259 4.45349 31.8218 3.4593 31.8218 2.22674C31.8218 0.994186 30.8259 0 29.5913 0C28.3566 0 27.3607 1.05814 27.3607 2.22674C27.3607 3.39535 28.3566 4.45349 29.5913 4.45349ZM29.5913 1.52326C30.0048 1.52326 30.3542 1.87209 30.3542 2.28488C30.3542 2.69767 30.0048 3.04651 29.5913 3.04651C29.1778 3.04651 28.8283 2.69767 28.8283 2.28488C28.8283 1.81395 29.1778 1.52326 29.5913 1.52326Z" fill="#F68A33"/>
<path d="M10.454 24.9709H8.98633V26.436H10.454V24.9709Z" fill="#0767AD"/>
<path d="M16.3826 24.9709H11.2168V26.436H16.3826V24.9709Z" fill="#0767AD"/>
<path d="M19.2596 24.9709H17.792V26.436H19.2596V24.9709Z" fill="#0767AD"/>
<path d="M25.1884 24.9709H20.0226V26.436H25.1884V24.9709Z" fill="#0767AD"/>
<path d="M10.454 27.1395H8.98633V28.6047H10.454V27.1395Z" fill="#0767AD"/>
<path d="M16.3826 27.1395H11.2168V28.6047H16.3826V27.1395Z" fill="#0767AD"/>
<path d="M19.2596 27.1395H17.792V28.6047H19.2596V27.1395Z" fill="#0767AD"/>
<path d="M25.1884 27.1395H20.0226V28.6047H25.1884V27.1395Z" fill="#0767AD"/>
<path d="M10.454 29.3663H8.98633V30.8314H10.454V29.3663Z" fill="#0767AD"/>
<path d="M16.3826 29.3663H11.2168V30.8314H16.3826V29.3663Z" fill="#0767AD"/>
<path d="M19.2596 29.3663H17.792V30.8314H19.2596V29.3663Z" fill="#0767AD"/>
<path d="M25.1884 29.3663H20.0226V30.8314H25.1884V29.3663Z" fill="#0767AD"/>
</g>
<defs>
<clipPath id="clip0_1466_6661">
<rect width="34" height="33" fill="white"/>
</clipPath>
</defs>
</svg>
