<svg width="43" height="34" viewBox="0 0 43 34" fill="none" xmlns="http://www.w3.org/2000/svg" id="CBInvestmentProfiles">
<path d="M5.20976 28.4083H3.62976V29.976H5.20976V28.4083Z" fill="#045896"/>
<path d="M5.20976 25.5606H3.62976V26.9795H5.20976V25.5606Z" fill="#045896"/>
<path d="M5.20976 22.713H3.62976V24.1318H5.20976V22.713Z" fill="#045896"/>
<path d="M5.20976 17.0275H3.62976V18.4464H5.20976V17.0275Z" fill="#045896"/>
<path d="M5.20976 14.1798H3.62976V15.5987H5.20976V14.1798Z" fill="#045896"/>
<path d="M5.20976 19.8653H3.62976V21.2842H5.20976V19.8653Z" fill="#045896"/>
<path d="M5.20976 11.1933H3.62976V12.761H5.20976V11.1933Z" fill="#045896"/>
<path d="M18.2297 11.1933H16.5997V12.761H18.2297V11.1933Z" fill="#045896"/>
<path d="M14.9697 11.1933H13.3397V12.761H14.9697V11.1933Z" fill="#045896"/>
<path d="M34.4897 11.1933H32.8597V12.761H34.4897V11.1933Z" fill="#045896"/>
<path d="M11.7197 11.1933H10.0897V12.761H11.7197V11.1933Z" fill="#045896"/>
<path d="M8.46973 11.1933H6.83972V12.761H8.46973V11.1933Z" fill="#045896"/>
<path d="M27.9897 11.1933H26.3597V12.761H27.9897V11.1933Z" fill="#045896"/>
<path d="M24.7297 11.1933H23.0997V12.761H24.7297V11.1933Z" fill="#045896"/>
<path d="M31.2397 11.1933H29.6097V12.761H31.2397V11.1933Z" fill="#045896"/>
<path d="M21.4797 11.1933H19.8497V12.761H21.4797V11.1933Z" fill="#045896"/>
<path d="M37.6997 11.1933H36.1198V12.761H37.6997V11.1933Z" fill="#045896"/>
<path d="M37.6997 14.1798H36.1198V15.5987H37.6997V14.1798Z" fill="#045896"/>
<path d="M37.6997 25.5606H36.1198V26.9795H37.6997V25.5606Z" fill="#045896"/>
<path d="M37.6997 28.4083H36.1198V29.976H37.6997V28.4083Z" fill="#045896"/>
<path d="M31.2397 28.4083H29.6097V29.976H31.2397V28.4083Z" fill="#045896"/>
<path d="M34.4897 28.4083H32.8597V29.976H34.4897V28.4083Z" fill="#045896"/>
<path d="M27.9897 28.4083H26.3597V29.976H27.9897V28.4083Z" fill="#045896"/>
<path d="M21.4797 28.4083H19.8497V29.976H21.4797V28.4083Z" fill="#045896"/>
<path d="M14.9697 28.4083H13.3397V29.976H14.9697V28.4083Z" fill="#045896"/>
<path d="M24.7297 28.4083H23.0997V29.976H24.7297V28.4083Z" fill="#045896"/>
<path d="M11.7197 28.4083H10.0897V29.976H11.7197V28.4083Z" fill="#045896"/>
<path d="M8.46973 28.4083H6.83972V29.976H8.46973V28.4083Z" fill="#045896"/>
<path d="M18.2297 28.4083H16.5997V29.976H18.2297V28.4083Z" fill="#045896"/>
<path d="M42.4297 16.8291H40.8497V8.06775H37.6997V4.31715H3.15973C2.43973 4.31715 1.76974 4.59498 1.25974 5.10102C0.749735 5.60705 0.469727 6.27183 0.469727 6.98623V30.4523C0.469727 31.1667 0.749735 31.8315 1.25974 32.3375C1.76974 32.8435 2.43973 33.1214 3.15973 33.1214H40.8497V24.3601H42.4297V16.8291ZM2.37973 6.19247C2.58973 5.9841 2.86973 5.87495 3.15973 5.87495H36.1197V8.06775H3.15973C2.86973 8.06775 2.58973 7.9586 2.37973 7.75023C2.16973 7.54187 2.05972 7.26405 2.05972 6.9763C2.05972 6.68856 2.16973 6.40084 2.37973 6.19247ZM39.2697 31.5338H3.15973C2.86973 31.5338 2.58973 31.4247 2.37973 31.2163C2.16973 31.0079 2.05972 30.7301 2.05972 30.4424V9.39733C2.39972 9.54616 2.77973 9.63548 3.15973 9.63548H39.2697V16.8291H33.5897C32.5797 16.8291 31.6297 17.216 30.9097 17.9304C30.1997 18.6448 29.7997 19.5874 29.7997 20.5896C29.7997 21.5917 30.1897 22.5344 30.9097 23.2488C31.6297 23.9532 32.5797 24.3501 33.5897 24.3501H39.2697V31.5338ZM40.8497 22.7725H33.5997C33.0097 22.7725 32.4597 22.5443 32.0397 22.1276C31.6197 21.7108 31.3897 21.1651 31.3897 20.5797C31.3897 19.9943 31.6197 19.4486 32.0397 19.0318C32.4597 18.6151 33.0097 18.3869 33.5997 18.3869H40.8497V22.7725Z" fill="#045896"/>
<path d="M34.3997 19.7958H32.8197V21.3635H34.3997V19.7958Z" fill="#045896"/>
<path d="M31.9398 0.556641H4.49976V8.06777H31.9398V0.556641Z" fill="#259CEE"/>
</svg>
