<svg width="34" height="35" viewBox="0 0 34 35" fill="none" xmlns="http://www.w3.org/2000/svg" id="CBServiceRequest">
<g clip-path="url(#clip0_1465_6581)">
<path d="M16.9725 18.4003C19.5003 18.4003 21.5384 16.3469 21.5384 13.8002C21.5384 11.2535 19.5003 9.20014 16.9725 9.20014C14.4447 9.20014 12.4065 11.2535 12.4065 13.8002C12.4065 16.3469 14.4447 18.4003 16.9725 18.4003ZM16.9725 10.7541C18.6373 10.7541 19.9961 12.123 19.9961 13.8002C19.9961 15.4774 18.6373 16.8464 16.9725 16.8464C15.3077 16.8464 13.9489 15.4774 13.9489 13.8002C13.9489 12.123 15.3077 10.7541 16.9725 10.7541Z" fill="#F68A33"/>
<path d="M32.274 24.8687C30.1134 22.692 27.5856 21.0148 24.7456 19.8925L24.868 19.7692C25.1741 19.4609 25.1741 19.0231 24.9292 18.7148L23.5705 17.0375C23.6929 16.7292 23.8153 16.4147 23.9377 16.1064L26.0371 15.8598C26.4043 15.7981 26.7165 15.4898 26.7165 15.1136V12.3141C26.7165 11.9441 26.4104 11.568 26.0371 11.568L23.9377 11.3214C23.8153 11.013 23.6929 10.6986 23.5705 10.3902L24.9292 8.713C25.1741 8.40469 25.1741 7.96688 24.868 7.65856L22.8911 5.66684C22.585 5.35853 22.1505 5.35853 21.8444 5.60518L20.1796 6.9741C19.8736 6.85077 19.5615 6.72745 19.2554 6.60412L19.133 4.6124C19.0718 4.23626 18.7658 3.92794 18.3924 3.92794H15.6137C15.2403 3.92794 14.8731 4.23626 14.8731 4.6124L14.6282 6.72745C14.3222 6.85077 14.0101 6.9741 13.704 7.09743L12.0392 5.7285C11.7332 5.48185 11.2986 5.48185 10.9926 5.79017L9.01565 7.78189C8.70961 8.0902 8.70961 8.52801 8.95444 8.83633L10.3132 10.5136C10.1908 10.8219 10.0684 11.1364 9.93986 11.4447L7.84049 11.6297C7.47325 11.6913 7.1611 11.9996 7.1611 12.3758V15.1753C7.1611 15.5453 7.46713 15.9214 7.84049 15.9214L9.93986 16.1681C10.0623 16.4764 10.1847 16.7909 10.3132 17.0992L8.95444 18.7764C8.70961 19.0847 8.70961 19.5226 9.01565 19.8309L9.26047 20.0775C5.67991 21.5081 2.53392 23.9315 0.128516 27.0393C0.0673096 27.1626 0.00610352 27.3476 0.00610352 27.4771V34.1922C0.00610352 34.63 0.37334 35 0.807904 35H33.2043C33.6389 35 34.0061 34.6239 34.0061 34.1922V27.4771C34.0061 27.2921 33.9449 27.1688 33.8225 26.9776C33.2655 26.3548 32.9595 25.6087 32.2801 24.8626L32.274 24.8687ZM8.70349 14.4847V13.1157L10.6131 12.9308C10.9192 12.8691 11.2313 12.6841 11.2925 12.3696C11.4149 11.8702 11.6597 11.3152 11.9107 10.8774C12.0943 10.5691 12.0331 10.2546 11.8495 10.0079L10.6131 8.45402L11.5985 7.46124L13.1409 8.70683C13.3858 8.89182 13.7591 8.95349 14.0039 8.7685C14.4997 8.46018 14.9894 8.26903 15.4851 8.1457C15.7912 8.08404 16.0421 7.77572 16.0421 7.46124L16.2257 5.53118H17.5845L17.7681 7.46124C17.8293 7.76955 18.0129 8.08404 18.3251 8.1457C18.8209 8.26903 19.3717 8.45402 19.8063 8.7685C20.1123 8.95349 20.4245 8.89182 20.6693 8.70683L22.2117 7.46124L23.1971 8.45402L21.9607 10.0079C21.7771 10.2546 21.7159 10.6307 21.8995 10.8774C22.2056 11.3768 22.3953 11.8702 22.5177 12.3696C22.5789 12.6779 22.885 12.9308 23.1971 12.9308L25.1129 13.1157V14.4847L23.1971 14.6697C22.8911 14.7313 22.5789 14.9163 22.5177 15.2308C22.3953 15.7303 22.2117 16.2852 21.8995 16.723C21.7159 17.0314 21.7771 17.3458 21.9607 17.5925L23.1971 19.1464L22.2117 20.1392L20.6693 18.8936C20.4245 18.7086 20.0511 18.6469 19.8063 18.8319C19.3105 19.1402 18.8209 19.3314 18.3251 19.4547C18.0191 19.5164 17.7681 19.8247 17.7681 20.1392L17.5845 22.0692H16.2257L16.0421 20.1392C15.9809 19.8309 15.7973 19.5164 15.4851 19.4547C14.9894 19.3314 14.4385 19.0786 14.0039 18.8319C13.6979 18.6469 13.3858 18.7086 13.1409 18.8936L11.5985 20.1392L10.6131 19.1464L11.8495 17.5925C12.0331 17.3458 12.0943 16.9697 11.9107 16.723C11.6047 16.2236 11.4149 15.7303 11.2925 15.2308C11.2313 14.9225 10.9192 14.6697 10.6131 14.6697L8.70349 14.4847ZM32.3964 33.4461H27.7692V27.9766C27.7692 27.5388 27.402 27.1688 26.9674 27.1688C26.5328 27.1688 26.1656 27.5388 26.1656 27.9766V33.4461H7.65075V27.9766C7.65075 27.5388 7.28351 27.1688 6.84895 27.1688C6.41438 27.1688 6.16956 27.6066 6.16956 28.0382V33.5078H1.54238V27.7854C3.82537 24.8626 6.84895 22.5625 10.4907 21.2553L10.9865 21.7548C11.2925 22.0631 11.7271 22.0631 12.0331 21.8164L13.6979 20.4475C14.0039 20.5708 14.3161 20.6942 14.6221 20.8175L14.867 22.9325C14.9282 23.3025 15.2342 23.617 15.6075 23.617H18.3863C18.7597 23.617 19.1269 23.3087 19.1269 22.9325L19.3717 20.8175C19.6778 20.6942 19.9899 20.5708 20.2959 20.4475L21.9607 21.8164C22.2668 22.0631 22.7013 22.0631 23.0074 21.7548L23.6255 21.132C26.5267 22.1247 29.0545 23.7403 31.2763 25.9787C31.7721 26.4782 32.0169 27.101 32.5127 27.7176L32.3903 33.4399L32.3964 33.4461Z" fill="#035B9B"/>
<path d="M33.1982 3.35447C32.274 3.35447 31.4722 2.54669 31.4722 1.61557C31.4722 1.17776 31.0989 0.807785 30.6704 0.807785H20.0573C19.6227 0.807785 19.2555 1.18393 19.2555 1.61557C19.2555 2.04721 19.6227 2.42336 20.0573 2.42336H29.991C30.2971 3.60729 31.2274 4.53841 32.3964 4.84672V19.5164C32.3964 19.9542 32.7698 20.3242 33.1982 20.3242C33.6267 20.3242 34 19.9542 34 19.5164V4.1006C33.9388 3.66279 33.5655 3.35447 33.1982 3.35447Z" fill="#0283E1"/>
<path d="M29.3116 4.7234H25.425C24.9904 4.7234 24.6232 5.09338 24.6232 5.53118C24.6232 5.96899 24.9904 6.33897 25.425 6.33897H29.3116C29.7461 6.33897 30.1134 5.96283 30.1134 5.53118C30.1134 5.03171 29.7461 4.7234 29.3116 4.7234Z" fill="#035B9B"/>
<path d="M27.0286 8.57734H28.571C29.0056 8.57734 29.3728 8.20736 29.3728 7.76956C29.3728 7.33175 29.0056 6.96177 28.571 6.96177H27.0286C26.594 6.96177 26.2268 7.33175 26.2268 7.76956C26.2268 8.26903 26.6002 8.57734 27.0286 8.57734Z" fill="#035B9B"/>
<path d="M30.1134 9.38513H27.0286C26.594 9.38513 26.2268 9.76128 26.2268 10.1929C26.2268 10.6246 26.6002 11.0007 27.0286 11.0007H30.1134C30.548 11.0007 30.9152 10.6307 30.9152 10.1929C30.854 9.69345 30.4806 9.38513 30.1134 9.38513Z" fill="#035B9B"/>
<path d="M31.6558 12.4991C31.6558 12.0613 31.2886 11.6913 30.854 11.6913H28.5098C28.0752 11.6913 27.708 12.0613 27.708 12.4991C27.708 12.9369 28.0752 13.3069 28.5098 13.3069H30.854C31.2886 13.2452 31.6558 12.9369 31.6558 12.4991Z" fill="#035B9B"/>
<path d="M0.740601 17.1609C0.740601 18.4681 1.78723 19.5226 3.08479 19.5226C4.38236 19.5226 5.42899 18.4681 5.42899 17.1609C5.42899 15.8536 4.38236 14.7992 3.08479 14.7992C1.78723 14.7992 0.740601 15.8536 0.740601 17.1609ZM3.82539 17.1609C3.82539 17.5987 3.45815 17.9686 3.02359 17.9686C2.58903 17.9686 2.22179 17.5925 2.22179 17.1609C2.22179 16.7292 2.59515 16.3531 3.02359 16.3531C3.45203 16.3531 3.82539 16.7292 3.82539 17.1609Z" fill="#035B9B"/>
<path d="M4.62715 4.7234C5.92472 4.7234 6.91014 3.66896 6.91014 2.3617C6.91014 1.05444 5.86352 0 4.62715 0C3.39079 0 2.28296 1.05444 2.28296 2.3617C2.28296 3.66896 3.32958 4.7234 4.62715 4.7234ZM4.62715 1.61557C5.06172 1.61557 5.42895 1.98555 5.42895 2.42336C5.42895 2.86117 5.0556 3.23115 4.62715 3.23115C4.19871 3.23115 3.82535 2.86117 3.82535 2.42336C3.82535 1.92389 4.19871 1.61557 4.62715 1.61557Z" fill="#F58027"/>
<path d="M28.571 17.1609C28.571 17.5987 28.9444 17.9686 29.3728 17.9686C29.8013 17.9686 30.1746 17.5925 30.1746 17.1609C30.1746 16.7292 29.8013 16.3531 29.3728 16.3531C28.9444 16.3531 28.571 16.7292 28.571 17.1609Z" fill="#035B9B"/>
<path d="M5.3678 10.1313C5.3678 10.5691 5.73503 10.939 6.1696 10.939C6.60416 10.939 6.91019 10.5629 6.91019 10.1313C6.91019 9.69961 6.53683 9.32347 6.1696 9.32347C5.73503 9.38513 5.3678 9.69961 5.3678 10.1313Z" fill="#035B9B"/>
<path d="M0.740594 7.83122C1.17516 7.83122 1.54239 7.46124 1.54239 7.02343C1.54239 6.58562 1.16904 6.21564 0.740594 6.21564C0.312151 6.21564 0 6.59179 0 7.02343C0 7.45507 0.367237 7.83122 0.740594 7.83122Z" fill="#035B9B"/>
<path d="M11.5374 2.3617C11.972 2.3617 12.3392 1.98555 12.3392 1.55391C12.3392 1.12227 11.9658 0.746124 11.5374 0.746124C11.109 0.746124 10.7356 1.1161 10.7356 1.55391C10.7968 2.05338 11.164 2.3617 11.5374 2.3617Z" fill="#035B9B"/>
<path d="M0.740594 22.5687C1.17516 22.5687 1.54239 22.1987 1.54239 21.7609C1.54239 21.3231 1.16904 20.9531 0.740594 20.9531C0.312151 20.9531 0 21.3909 0 21.8226C0 22.2542 0.367237 22.5687 0.740594 22.5687Z" fill="#035B9B"/>
</g>
<defs>
<clipPath id="clip0_1465_6581">
<rect width="34" height="35" fill="white"/>
</clipPath>
</defs>
</svg>
