<svg width="33" height="33" viewBox="0 0 33 33" fill="none" xmlns="http://www.w3.org/2000/svg" id="CBAddressIcon">
                                <path fill-rule="evenodd" clip-rule="evenodd" d="M16.32 0C25.33 0 32.64 7.31001 32.64 16.32C32.64 25.33 25.33 32.64 16.32 32.64C7.31 32.64 0 25.33 0 16.32C0 7.31001 7.3 0 16.32 0Z" fill="#E3EFF8"/>
                                <path d="M19.0859 18.1523C19.6103 17.8336 20.0161 17.352 20.2413 16.7811C20.4665 16.2103 20.4988 15.5814 20.3333 14.9905C20.1677 14.3995 19.8135 13.8789 19.3245 13.5081C18.8355 13.1373 18.2387 12.9366 17.625 12.9366C17.0113 12.9366 16.4145 13.1373 15.9255 13.5081C15.4365 13.8789 15.0823 14.3995 14.9167 14.9905C14.7512 15.5814 14.7835 16.2103 15.0087 16.7811C15.2339 17.352 15.6397 17.8336 16.1641 18.1523C15.1488 18.4611 14.2591 19.0866 13.625 19.9375C13.6004 19.9703 13.5825 20.0077 13.5723 20.0474C13.5621 20.0872 13.5598 20.1286 13.5656 20.1692C13.5714 20.2098 13.5852 20.2489 13.6061 20.2842C13.627 20.3195 13.6547 20.3504 13.6875 20.375C13.7203 20.3996 13.7577 20.4175 13.7974 20.4277C13.8372 20.4379 13.8786 20.4402 13.9192 20.4344C14.0012 20.4226 14.0753 20.3788 14.125 20.3125C14.5325 19.7691 15.0609 19.3281 15.6684 19.0244C16.2759 18.7206 16.9458 18.5625 17.625 18.5625C18.3042 18.5625 18.9741 18.7206 19.5816 19.0244C20.1891 19.3281 20.7175 19.7691 21.125 20.3125C21.1747 20.3788 21.2488 20.4226 21.3308 20.4344C21.4129 20.4461 21.4962 20.4247 21.5625 20.375C21.6288 20.3253 21.6726 20.2512 21.6844 20.1692C21.6961 20.0871 21.6747 20.0038 21.625 19.9375C20.9908 19.0868 20.1011 18.4613 19.0859 18.1523ZM15.4375 15.75C15.4375 15.3174 15.5658 14.8944 15.8062 14.5347C16.0465 14.175 16.3882 13.8946 16.7879 13.729C17.1876 13.5634 17.6274 13.5201 18.0518 13.6045C18.4761 13.6889 18.8659 13.8973 19.1718 14.2032C19.4777 14.5091 19.6861 14.8989 19.7705 15.3232C19.8549 15.7476 19.8116 16.1874 19.646 16.5871C19.4804 16.9868 19.2 17.3285 18.8403 17.5688C18.4806 17.8092 18.0576 17.9375 17.625 17.9375C17.0448 17.9375 16.4884 17.707 16.0782 17.2968C15.668 16.8866 15.4375 16.3302 15.4375 15.75ZM23.25 9.1875H12C11.7514 9.1875 11.5129 9.28627 11.3371 9.46209C11.1613 9.6379 11.0625 9.87636 11.0625 10.125V12.3125H9.5C9.41712 12.3125 9.33763 12.3454 9.27903 12.404C9.22042 12.4626 9.1875 12.5421 9.1875 12.625C9.1875 12.7079 9.22042 12.7874 9.27903 12.846C9.33763 12.9046 9.41712 12.9375 9.5 12.9375H11.0625V16.6875H9.5C9.41712 16.6875 9.33763 16.7204 9.27903 16.779C9.22042 16.8376 9.1875 16.9171 9.1875 17C9.1875 17.0829 9.22042 17.1624 9.27903 17.221C9.33763 17.2796 9.41712 17.3125 9.5 17.3125H11.0625V21.0625H9.5C9.41712 21.0625 9.33763 21.0954 9.27903 21.154C9.22042 21.2126 9.1875 21.2921 9.1875 21.375C9.1875 21.4579 9.22042 21.5374 9.27903 21.596C9.33763 21.6546 9.41712 21.6875 9.5 21.6875H11.0625V23.875C11.0625 24.1236 11.1613 24.3621 11.3371 24.5379C11.5129 24.7137 11.7514 24.8125 12 24.8125H23.25C23.4986 24.8125 23.7371 24.7137 23.9129 24.5379C24.0887 24.3621 24.1875 24.1236 24.1875 23.875V10.125C24.1875 9.87636 24.0887 9.6379 23.9129 9.46209C23.7371 9.28627 23.4986 9.1875 23.25 9.1875ZM23.5625 23.875C23.5625 23.9579 23.5296 24.0374 23.471 24.096C23.4124 24.1546 23.3329 24.1875 23.25 24.1875H12C11.9171 24.1875 11.8376 24.1546 11.779 24.096C11.7204 24.0374 11.6875 23.9579 11.6875 23.875V10.125C11.6875 10.0421 11.7204 9.96263 11.779 9.90403C11.8376 9.84542 11.9171 9.8125 12 9.8125H23.25C23.3329 9.8125 23.4124 9.84542 23.471 9.90403C23.5296 9.96263 23.5625 10.0421 23.5625 10.125V23.875Z" fill="#045896"/>
                            </svg>