<svg width="33" height="34" viewBox="0 0 33 34" fill="none" xmlns="http://www.w3.org/2000/svg" id="CBApplyNow">
                                <path fill-rule="evenodd" clip-rule="evenodd" d="M16.4099 0.588013C25.4199 0.588013 32.7299 7.89802 32.7299 16.908C32.7299 25.918 25.4199 33.228 16.4099 33.228C7.39985 33.228 0.0898438 25.918 0.0898438 16.908C0.0998437 7.89802 7.39985 0.588013 16.4099 0.588013Z" fill="#E3EFF8"/>
                                <path d="M15.2298 21.928C15.1798 21.928 15.1398 21.918 15.0898 21.888C15.0198 21.848 14.9798 21.768 14.9798 21.698L14.7998 18.808C14.7998 18.758 14.8098 18.698 14.8398 18.658L21.8898 7.77802C21.9598 7.65802 22.1198 7.62805 22.2398 7.70805L25.1198 9.57804C25.1798 9.61804 25.2098 9.66805 25.2298 9.73805C25.2398 9.79805 25.2298 9.86805 25.1998 9.92805L18.1498 20.808C18.1198 20.848 18.0798 20.888 18.0298 20.908L15.3298 21.928C15.2898 21.928 15.2598 21.928 15.2298 21.928ZM15.2998 18.858L15.4498 21.328L17.7598 20.458L24.6298 9.84803L22.1698 8.24803L15.2998 18.858Z" fill="#045896"/>
                                <path d="M15.2302 22.028C15.1602 22.028 15.1002 22.008 15.0402 21.978C14.9502 21.918 14.8902 21.818 14.8802 21.708L14.7002 18.818C14.7002 18.748 14.7102 18.668 14.7502 18.608L21.8002 7.72803C21.8502 7.64803 21.9302 7.59804 22.0202 7.57804C22.1102 7.55804 22.2002 7.57803 22.2802 7.62803L25.1602 9.49802C25.2402 9.54802 25.2902 9.62802 25.3102 9.71802C25.3302 9.80802 25.3102 9.89803 25.2602 9.97803L18.2102 20.858C18.1702 20.918 18.1102 20.968 18.0402 20.988L15.3402 22.008C15.3102 22.018 15.2702 22.028 15.2302 22.028ZM22.1002 7.74802C22.0902 7.74802 22.0802 7.74802 22.0702 7.74802C22.0302 7.75802 21.9902 7.77803 21.9702 7.81803L14.9202 18.698C14.9002 18.728 14.8902 18.758 14.9002 18.788L15.0802 21.678C15.0802 21.728 15.1102 21.768 15.1502 21.798C15.1902 21.828 15.2402 21.828 15.2902 21.808L17.9902 20.788C18.0202 20.778 18.0502 20.758 18.0702 20.728L25.1202 9.84803C25.1402 9.81803 25.1502 9.76803 25.1402 9.72803C25.1302 9.68803 25.1102 9.64803 25.0702 9.62803L22.1902 7.75803C22.1602 7.75803 22.1302 7.74802 22.1002 7.74802ZM15.4602 21.418C15.4402 21.418 15.4202 21.408 15.4102 21.398C15.3802 21.378 15.3702 21.358 15.3702 21.328L15.2202 18.858C15.2202 18.838 15.2202 18.818 15.2302 18.798L22.1002 8.18802C22.1302 8.14802 22.1902 8.12803 22.2302 8.15803L24.6902 9.75803C24.7102 9.76803 24.7302 9.78803 24.7302 9.81803C24.7402 9.83803 24.7302 9.86804 24.7202 9.88804L17.8502 20.498C17.8402 20.518 17.8202 20.528 17.8002 20.538L15.4902 21.408C15.4802 21.418 15.4702 21.418 15.4602 21.418ZM15.4002 18.888L15.5402 21.198L17.7002 20.378L24.5102 9.87803L22.2002 8.38804L15.4002 18.888ZM17.9302 20.758C17.8802 20.758 17.8402 20.718 17.8402 20.668C17.8402 20.618 17.8802 20.578 17.9302 20.578C17.9802 20.578 18.0202 20.618 18.0202 20.668C18.0302 20.708 17.9902 20.758 17.9302 20.758Z" fill="#045896"/>
                                <path d="M23.5701 16.818V24.868C23.5701 24.908 23.5401 24.948 23.4901 24.948H9.45011C9.41011 24.948 9.37012 24.918 9.37012 24.868V10.998C9.37012 10.958 9.40011 10.918 9.45011 10.918H17.5901V10.668H9.25011C9.18011 10.668 9.12012 10.728 9.12012 10.798V25.068C9.12012 25.138 9.18011 25.198 9.25011 25.198H23.7001C23.7701 25.198 23.8301 25.138 23.8301 25.068V16.818H23.5701Z" fill="#045896" stroke="#075896" stroke-width="0.5" stroke-miterlimit="10"/>
</svg> 