<svg class="camera-svg" width="18" height="18" viewBox="0 0 18 18" fill="none" xmlns="http://www.w3.org/2000/svg" id="CBCameraIcon">
                            <path d="M16.1945 2.55546C15.6788 2.03973 14.9793 1.75 14.25 1.75H3.75C3.02065 1.75 2.32118 2.03973 1.80546 2.55546C1.28973 3.07118 1 3.77065 1 4.5V13.5C1 14.2293 1.28973 14.9288 1.80546 15.4445C2.32118 15.9603 3.02065 16.25 3.75 16.25H14.25C14.9793 16.25 15.6788 15.9603 16.1945 15.4445C16.7103 14.9288 17 14.2293 17 13.5V4.5C17 3.77065 16.7103 3.07118 16.1945 2.55546ZM6.7019 6.7019C7.3114 6.09241 8.13805 5.75 9 5.75C9.86195 5.75 10.6886 6.09241 11.2981 6.7019C11.9076 7.3114 12.25 8.13805 12.25 9C12.25 9.86195 11.9076 10.6886 11.2981 11.2981C10.6886 11.9076 9.86195 12.25 9 12.25C8.13805 12.25 7.3114 11.9076 6.7019 11.2981C6.09241 10.6886 5.75 9.86195 5.75 9C5.75 8.13805 6.09241 7.3114 6.7019 6.7019ZM10.9445 7.05546C10.4288 6.53973 9.72934 6.25 9 6.25C8.27066 6.25 7.57118 6.53973 7.05546 7.05546C6.53973 7.57118 6.25 8.27066 6.25 9C6.25 9.72934 6.53973 10.4288 7.05546 10.9445C7.57118 11.4603 8.27065 11.75 9 11.75C9.72935 11.75 10.4288 11.4603 10.9445 10.9445C11.4603 10.4288 11.75 9.72935 11.75 9C11.75 8.27065 11.4603 7.57118 10.9445 7.05546ZM13.5006 5L14.2351 5L14.2893 5.00325C14.3484 5.01287 14.4023 5.04343 14.4409 5.08954C14.4818 5.1384 14.5025 5.20104 14.4987 5.26465C14.495 5.32826 14.4671 5.38805 14.4208 5.43179C14.3745 5.47549 14.3133 5.49989 14.2496 5.5C14.2496 5.5 14.2495 5.5 14.2494 5.5L13.5149 5.5L13.4607 5.49675C13.4016 5.48713 13.3477 5.45657 13.3091 5.41046C13.2682 5.3616 13.2475 5.29896 13.2513 5.23535C13.255 5.17174 13.2829 5.11195 13.3292 5.06821C13.3755 5.02451 13.4367 5.00011 13.5004 5C13.5004 5 13.5005 5 13.5006 5Z" fill="#007AD4" stroke="white"/>
                        </svg> 