<svg width="34" height="33" viewBox="0 0 34 33" fill="none" xmlns="http://www.w3.org/2000/svg" id="CBChangePassword">
                                <path fill-rule="evenodd" clip-rule="evenodd" d="M17.2302 0.0854492C26.2402 0.0854492 33.5502 7.39546 33.5502 16.4055C33.5502 25.4155 26.2402 32.7254 17.2302 32.7254C8.22016 32.7254 0.910156 25.4155 0.910156 16.4055C0.910156 7.39546 8.21016 0.0854492 17.2302 0.0854492Z" fill="#E3EFF8"/>
                                <path d="M18.5899 21.5755H16.7999C16.5999 21.5755 16.4399 21.4155 16.4399 21.2155V17.1055C16.4399 16.9055 16.5999 16.7455 16.7999 16.7455H18.5899C18.7899 16.7455 18.9499 16.9055 18.9499 17.1055V21.2155C18.9499 21.4155 18.7899 21.5755 18.5899 21.5755ZM18.2299 17.4655H17.1599V20.8655H18.2299V17.4655ZM22.8299 24.7855H12.5699C11.2399 24.7855 10.1699 23.7155 10.1699 22.4055V15.9055C10.1699 14.7055 11.0799 13.7055 12.2599 13.5555V13.5355H13.1599H13.8799H14.7799H16.7899H20.6399V10.9855C20.6399 9.38547 19.3199 8.08546 17.7099 8.08546C16.0899 8.08546 14.7799 9.38547 14.7799 10.9855V11.7455H13.8799V10.9855C13.8799 8.89547 15.5999 7.19547 17.7099 7.19547C19.8199 7.19547 21.5399 8.89547 21.5399 10.9855V13.5355H22.2599V10.9855C22.2599 8.50547 20.2199 6.48547 17.7099 6.48547C15.1999 6.48547 13.1599 8.50547 13.1599 10.9855V11.7455H12.2599V10.9855C12.2599 8.01547 14.6999 5.60547 17.7099 5.60547C20.7099 5.60547 23.1599 8.02547 23.1599 10.9855V13.5555C24.3399 13.7055 25.2499 14.7055 25.2499 15.9055V22.4055C25.2299 23.7255 24.1499 24.7855 22.8299 24.7855ZM24.3299 15.9155C24.3299 15.0955 23.6499 14.4255 22.8299 14.4255H12.5699C11.7399 14.4255 11.0699 15.0955 11.0699 15.9155V22.4155C11.0699 23.2355 11.7499 23.9055 12.5699 23.9055H22.8299C23.6599 23.9055 24.3299 23.2355 24.3299 22.4155V15.9155Z" fill="#075896" stroke="#075896" stroke-width="0.25" stroke-miterlimit="10"/>
                            </svg>