<svg width="34" height="33" viewBox="0 0 34 33" fill="none" xmlns="http://www.w3.org/2000/svg" id="CBEmailIcon">
                                <path fill-rule="evenodd" clip-rule="evenodd" d="M17.2302 0.0854492C26.2402 0.0854492 33.5502 7.39546 33.5502 16.4055C33.5502 25.4155 26.2402 32.7254 17.2302 32.7254C8.22016 32.7254 0.910156 25.4155 0.910156 16.4055C0.910156 7.39546 8.21016 0.0854492 17.2302 0.0854492Z" fill="#E3EFF8"/>
                                <path d="M10.8458 22.8333C10.4625 22.8333 10.1425 22.705 9.88583 22.4483C9.62861 22.1911 9.5 21.8708 9.5 21.4875V12.5125C9.5 12.1292 9.62861 11.8092 9.88583 11.5525C10.1425 11.2953 10.4625 11.1667 10.8458 11.1667H23.1542C23.5375 11.1667 23.8575 11.2953 24.1142 11.5525C24.3714 11.8092 24.5 12.1292 24.5 12.5125V21.4875C24.5 21.8708 24.3717 22.1908 24.115 22.4475C23.8578 22.7047 23.5375 22.8333 23.1542 22.8333H10.8458ZM17 17.0958L10.3333 12.7375V21.4875C10.3333 21.6369 10.3814 21.7597 10.4775 21.8558C10.5736 21.9519 10.6964 22 10.8458 22H23.1542C23.3036 22 23.4264 21.9519 23.5225 21.8558C23.6186 21.7597 23.6667 21.6369 23.6667 21.4875V12.7375L17 17.0958ZM17 16.1667L23.41 12H10.59L17 16.1667ZM10.3333 12.7375V12V21.4875C10.3333 21.6369 10.3814 21.7597 10.4775 21.8558C10.5736 21.9519 10.6964 22 10.8458 22H10.3333V12.7375Z" fill="#045896"/>
                            </svg>