<svg width="34" height="33" viewBox="0 0 34 33" fill="none" xmlns="http://www.w3.org/2000/svg" id="CBFavoriteAccounts">
                                <path fill-rule="evenodd" clip-rule="evenodd" d="M17.2302 0.235474C26.2402 0.235474 33.5502 7.54547 33.5502 16.5555C33.5502 25.5655 26.2402 32.8755 17.2302 32.8755C8.22016 32.8755 0.910156 25.5655 0.910156 16.5555C0.910156 7.53547 8.21016 0.235474 17.2302 0.235474Z" fill="#E3EFF8"/>
                                <path d="M22.6499 9.22541C20.8999 8.77541 18.5799 9.31542 17.2199 11.1754C15.7599 9.20542 13.4299 8.75542 11.7499 9.20542C9.84992 9.71542 8.66992 11.3154 8.66992 13.3654C8.66992 18.0654 16.6399 23.7454 16.9799 23.9854C17.0499 24.0354 17.1399 24.0654 17.2299 24.0654C17.3199 24.0654 17.3999 24.0354 17.4799 23.9854C17.8199 23.7454 25.7899 18.0654 25.7899 13.3654C25.7799 11.3154 24.5799 9.73541 22.6499 9.22541ZM20.9999 19.8754C19.4199 21.4254 17.8299 22.6454 17.2299 23.0954C16.6299 22.6554 15.0399 21.4354 13.4699 19.8854C10.8999 17.3554 9.53992 15.0954 9.53992 13.3654C9.53992 11.6954 10.4499 10.4554 11.9799 10.0454C12.2999 9.95542 12.6499 9.91541 13.0099 9.91541C14.3699 9.91541 15.9299 10.5654 16.8499 12.1954C16.9299 12.3354 17.0699 12.4154 17.2299 12.4154C17.3899 12.4154 17.5299 12.3254 17.5999 12.1854C18.6599 10.2454 20.8299 9.65542 22.4299 10.0754C23.9799 10.4754 24.9099 11.7054 24.9099 13.3654C24.9199 15.0954 23.5599 17.3454 20.9999 19.8754Z" fill="#075896"/>
                            </svg>