<svg width="33" height="34" viewBox="0 0 33 34" fill="none" xmlns="http://www.w3.org/2000/svg" id="CBLogout">
                                <path fill-rule="evenodd" clip-rule="evenodd" d="M16.4099 0.66803C25.4199 0.66803 32.7299 7.97804 32.7299 16.988C32.7299 25.998 25.4199 33.308 16.4099 33.308C7.39985 33.308 0.0898438 25.998 0.0898438 16.988C0.0898438 7.97804 7.39985 0.66803 16.4099 0.66803Z" fill="#E3EFF8"/>
                                <path d="M18.7502 9.36804H11.1902V24.618H18.7502C18.8702 24.618 18.9702 24.718 18.9702 24.838C18.9702 24.958 18.8702 25.058 18.7502 25.058H10.9602C10.8402 25.058 10.7402 24.958 10.7402 24.838V9.138C10.7402 9.018 10.8402 8.91803 10.9602 8.91803H18.7502C18.8702 8.91803 18.9702 9.018 18.9702 9.138C18.9702 9.268 18.8702 9.36804 18.7502 9.36804ZM18.7502 9.448H11.2701V24.528H18.7502C18.9202 24.528 19.0502 24.668 19.0502 24.838C19.0502 25.008 18.9102 25.148 18.7502 25.148H10.9602C10.7902 25.148 10.6602 25.008 10.6602 24.838V9.138C10.6602 8.968 10.8002 8.828 10.9602 8.828H18.7502C18.9202 8.828 19.0502 8.968 19.0502 9.138C19.0502 9.308 18.9102 9.448 18.7502 9.448ZM18.7502 8.99805H10.9602C10.8802 8.99805 10.8202 9.058 10.8202 9.138V24.838C10.8202 24.918 10.8802 24.978 10.9602 24.978H18.7502C18.8302 24.978 18.8902 24.918 18.8902 24.838C18.8902 24.758 18.8302 24.698 18.7502 24.698H11.1902C11.1402 24.698 11.1102 24.658 11.1102 24.618V9.36804C11.1102 9.31804 11.1502 9.28802 11.1902 9.28802H18.7502C18.8302 9.28802 18.8902 9.22801 18.8902 9.14801C18.8902 9.05801 18.8202 8.99805 18.7502 8.99805ZM26.3401 17.218H14.3902C14.2702 17.218 14.1702 17.118 14.1702 16.998C14.1702 16.878 14.2702 16.768 14.3902 16.768H26.3502C26.4702 16.768 26.5702 16.868 26.5702 16.998C26.5602 17.108 26.4601 17.218 26.3401 17.218ZM26.3401 17.298H14.3902C14.2202 17.298 14.0901 17.158 14.0901 16.988C14.0901 16.818 14.2302 16.678 14.3902 16.678H26.3502C26.5202 16.678 26.6502 16.818 26.6502 16.988C26.6502 17.158 26.5101 17.298 26.3401 17.298ZM26.3401 16.848H14.3902C14.3102 16.848 14.2502 16.908 14.2502 16.988C14.2502 17.068 14.3102 17.1281 14.3902 17.1281H26.3502C26.4302 17.1281 26.4902 17.068 26.4902 16.988C26.4802 16.908 26.4201 16.848 26.3401 16.848ZM26.8102 17.168L24.5102 18.828C24.4102 18.898 24.2701 18.878 24.2001 18.778C24.1701 18.738 24.1602 18.698 24.1602 18.648C24.1602 18.578 24.1902 18.508 24.2502 18.468L26.3002 16.988L24.2502 15.5081C24.1502 15.4381 24.1301 15.298 24.2001 15.198C24.2701 15.098 24.4102 15.078 24.5102 15.148L26.8102 16.808C26.9202 16.888 26.9202 17.088 26.8102 17.168ZM26.8602 17.238L24.5602 18.898C24.4902 18.948 24.4102 18.968 24.3302 18.948C24.2502 18.938 24.1802 18.8881 24.1301 18.8181C24.0401 18.6881 24.0701 18.488 24.2001 18.388L26.1602 16.978L24.2001 15.5681C24.1301 15.5181 24.0902 15.448 24.0802 15.368C24.0802 15.348 24.0802 15.3381 24.0802 15.3181C24.0802 15.2581 24.1002 15.188 24.1402 15.138C24.1902 15.068 24.2601 15.0281 24.3401 15.0081C24.4201 14.9981 24.5002 15.018 24.5702 15.058L26.8702 16.718C27.0102 16.848 27.0102 17.128 26.8602 17.238ZM26.7602 16.8781L24.4602 15.218C24.4302 15.198 24.3902 15.188 24.3602 15.198C24.3202 15.208 24.2901 15.2281 24.2701 15.2581C24.2501 15.2881 24.2402 15.328 24.2502 15.358C24.2602 15.398 24.2802 15.428 24.3102 15.448L26.3602 16.928C26.4002 16.958 26.4002 17.0381 26.3602 17.0681L24.3102 18.548C24.2501 18.588 24.2302 18.678 24.2802 18.738C24.3002 18.768 24.3302 18.788 24.3702 18.798C24.4102 18.808 24.4402 18.798 24.4702 18.778L26.7701 17.118C26.8001 17.098 26.8202 17.0481 26.8202 17.0081C26.8102 16.9381 26.7902 16.8981 26.7602 16.8781Z" fill="#075896" stroke="#075896" stroke-width="0.5" stroke-miterlimit="10"/>
                            </svg>  