<svg width="17" height="18" viewBox="0 0 17 18" fill="none" xmlns="http://www.w3.org/2000/svg" id="CBRightArrow">
                                <path d="M9.0681 17.308C9.1781 17.308 9.2881 17.258 9.3681 17.168L16.1681 9.188C16.2981 9.038 16.2881 8.81799 16.1581 8.66799L9.3581 1.128C9.2081 0.967999 8.9681 0.958001 8.7981 1.098C8.6381 1.248 8.6281 1.488 8.7681 1.658L15.3381 8.938L8.7681 16.648C8.6281 16.818 8.6481 17.058 8.8081 17.198C8.8881 17.278 8.9781 17.308 9.0681 17.308Z" fill="#787878" stroke="#787878" stroke-miterlimit="10"/>
                                <path d="M1.39818 17.308C1.50818 17.308 1.61818 17.258 1.69818 17.168L8.49818 9.188C8.62818 9.038 8.61818 8.81799 8.48818 8.66799L1.68817 1.128C1.53817 0.967999 1.29818 0.958001 1.12818 1.098C0.968177 1.248 0.958175 1.488 1.09817 1.658L7.66818 8.938L1.09817 16.648C0.958175 16.818 0.978176 17.058 1.13818 17.198C1.21818 17.278 1.30818 17.308 1.39818 17.308Z" fill="#787878" stroke="#787878" stroke-miterlimit="10"/>
                            </svg>