<svg width="33" height="34" viewBox="0 0 33 34" fill="none" xmlns="http://www.w3.org/2000/svg" id="CBServiceRequest">
                                <path fill-rule="evenodd" clip-rule="evenodd" d="M16.4099 0.868042C25.4199 0.868042 32.7299 8.17802 32.7299 17.188C32.7299 26.198 25.4199 33.508 16.4099 33.508C7.39985 33.508 0.0898438 26.198 0.0898438 17.188C0.0998437 8.17802 7.39985 0.868042 16.4099 0.868042Z" fill="#E3EFF8"/>
                                <path d="M26.3708 18.658L26.3608 18.638C26.1608 18.378 25.8708 18.198 25.5508 18.138C25.2308 18.078 24.8908 18.138 24.6108 18.318L21.7708 20.088C21.6908 19.448 21.1508 18.948 20.4908 18.948H15.7408L14.1308 17.918C13.7108 17.648 13.2608 17.448 12.7808 17.308C12.3008 17.168 11.8108 17.098 11.3108 17.098H9.84082V17.838H11.3108C11.7408 17.838 12.1608 17.898 12.5708 18.018C12.9808 18.138 13.3708 18.318 13.7308 18.548L15.5208 19.688H20.4908C20.8008 19.688 21.0508 19.938 21.0508 20.248C21.0508 20.558 20.8008 20.808 20.4908 20.808H15.6308C14.9208 20.808 14.3308 21.388 14.3308 22.108H15.0708C15.0708 21.798 15.3208 21.548 15.6308 21.548H20.4908C20.8108 21.548 21.0908 21.438 21.3208 21.248L25.0108 18.958C25.1308 18.878 25.2808 18.858 25.4208 18.878C25.5608 18.908 25.6908 18.978 25.7808 19.098L25.7908 19.108C25.8808 19.238 25.9208 19.388 25.9008 19.538C25.8808 19.688 25.8008 19.828 25.6708 19.918L18.7208 24.478C18.4608 24.638 18.1808 24.738 17.8808 24.768C17.5808 24.798 17.2808 24.758 17.0108 24.658L11.3608 22.398H9.84082V23.138H11.2208L16.7408 25.348C17.0408 25.458 17.3608 25.518 17.6708 25.518C17.7608 25.518 17.8608 25.518 17.9508 25.508C18.3708 25.468 18.7608 25.328 19.1108 25.098L26.0808 20.538L26.0908 20.528C26.3808 20.318 26.5708 20.008 26.6208 19.658C26.6808 19.298 26.5908 18.938 26.3708 18.658Z" fill="#045896"/>
                                <path d="M9.83039 15.948H5.90039V24.338H9.83039V15.948Z" stroke="#045896" stroke-width="0.75" stroke-miterlimit="10"/>
                                <path d="M21.6405 14.048H21.2305C21.0405 14.048 20.8805 14.168 20.8205 14.348C20.7705 14.488 20.7105 14.628 20.6505 14.758C20.5705 14.918 20.6005 15.118 20.7305 15.248L21.0205 15.538C21.1505 15.668 21.1505 15.868 21.0205 15.998L20.3605 16.658C20.2305 16.788 20.0305 16.788 19.9005 16.658L19.6105 16.368C19.4805 16.238 19.2805 16.208 19.1205 16.288C18.9905 16.358 18.8505 16.408 18.7105 16.458C18.5305 16.518 18.4105 16.688 18.4105 16.878V17.278C18.4105 17.458 18.2605 17.608 18.0805 17.608H17.1505C16.9705 17.608 16.8205 17.458 16.8205 17.278V16.878C16.8205 16.688 16.7005 16.518 16.5205 16.458C16.3805 16.408 16.2405 16.348 16.1105 16.288C15.9405 16.208 15.7505 16.238 15.6205 16.368L15.3305 16.658C15.2105 16.778 14.9905 16.778 14.8705 16.658L14.2105 15.998C14.0805 15.868 14.0805 15.668 14.2105 15.538L14.5005 15.248C14.6305 15.118 14.6605 14.918 14.5805 14.758C14.5105 14.628 14.4605 14.488 14.4105 14.348C14.3505 14.168 14.1805 14.048 14.0005 14.048H13.6005C13.4205 14.048 13.2705 13.898 13.2705 13.718V12.788C13.2705 12.608 13.4205 12.458 13.6005 12.458H14.0105C14.2005 12.458 14.3605 12.338 14.4205 12.158C14.4705 12.018 14.5205 11.878 14.5905 11.748C14.6705 11.578 14.6405 11.388 14.5105 11.258L14.2105 10.958C14.1505 10.898 14.1105 10.818 14.1105 10.728C14.1105 10.638 14.1405 10.558 14.2105 10.498L14.8705 9.83801C14.9905 9.71801 15.2105 9.71801 15.3305 9.83801L15.6305 10.138C15.7605 10.268 15.9605 10.298 16.1205 10.218C16.2505 10.148 16.3905 10.098 16.5305 10.048C16.7105 9.98803 16.8205 9.82803 16.8205 9.63803V9.20804C16.8205 9.02804 16.9705 8.87802 17.1505 8.87802H18.0805C18.2605 8.87802 18.4105 9.02804 18.4105 9.20804V9.63803C18.4105 9.81803 18.5305 9.98803 18.7005 10.048C18.8405 10.098 18.9805 10.148 19.1105 10.218C19.2805 10.298 19.4705 10.268 19.6005 10.138L19.9005 9.83801C20.0305 9.70801 20.2305 9.70801 20.3605 9.83801L21.0205 10.498C21.0805 10.558 21.1205 10.638 21.1205 10.728C21.1205 10.818 21.0905 10.898 21.0205 10.958L20.7205 11.258C20.5905 11.388 20.5605 11.588 20.6405 11.748C20.7105 11.878 20.7605 12.018 20.8105 12.158C20.8705 12.338 21.0405 12.458 21.2205 12.458H21.6305C21.8105 12.458 21.9605 12.608 21.9605 12.788V13.718C21.9705 13.898 21.8205 14.048 21.6405 14.048ZM21.7205 12.788C21.7205 12.738 21.6805 12.708 21.6405 12.708H21.2305C20.9405 12.708 20.6805 12.518 20.5905 12.248C20.5505 12.118 20.4905 11.988 20.4305 11.868C20.3005 11.608 20.3505 11.298 20.5505 11.098L20.8505 10.798C20.8705 10.778 20.8705 10.758 20.8705 10.738C20.8705 10.718 20.8605 10.698 20.8505 10.678L20.1905 10.018C20.1605 9.98804 20.1005 9.98804 20.0705 10.018L19.7705 10.318C19.5705 10.518 19.2605 10.568 19.0005 10.438C18.8805 10.378 18.7505 10.328 18.6205 10.278C18.3405 10.188 18.1605 9.92803 18.1605 9.63803V9.20804C18.1605 9.15804 18.1205 9.12802 18.0805 9.12802H17.1505C17.1005 9.12802 17.0705 9.16804 17.0705 9.20804V9.63803C17.0705 9.92803 16.8905 10.178 16.6105 10.278C16.4805 10.318 16.3505 10.378 16.2305 10.438C15.9705 10.568 15.6605 10.518 15.4605 10.318L15.1605 10.018C15.1305 9.98804 15.0705 9.98804 15.0405 10.018L14.3805 10.678C14.3605 10.698 14.3605 10.718 14.3605 10.738C14.3605 10.758 14.3705 10.778 14.3805 10.798L14.6805 11.098C14.8805 11.298 14.9305 11.608 14.8005 11.868C14.7405 11.988 14.6905 12.118 14.6405 12.248C14.5505 12.528 14.2905 12.708 14.0005 12.708H13.6005C13.5505 12.708 13.5205 12.748 13.5205 12.788V13.718C13.5205 13.768 13.5605 13.798 13.6005 13.798H14.0005C14.2905 13.798 14.5505 13.988 14.6405 14.258C14.6805 14.388 14.7405 14.518 14.8005 14.638C14.9305 14.898 14.8805 15.208 14.6705 15.408L14.3805 15.698C14.3605 15.718 14.3605 15.738 14.3605 15.758C14.3605 15.778 14.3705 15.798 14.3805 15.818L15.0405 16.478C15.0705 16.508 15.1305 16.508 15.1605 16.478L15.4505 16.188C15.5805 16.058 15.7505 15.998 15.9205 15.998C16.0205 15.998 16.1205 16.018 16.2205 16.068C16.3405 16.128 16.4705 16.188 16.6005 16.228C16.8805 16.318 17.0705 16.588 17.0705 16.878V17.278C17.0705 17.328 17.1105 17.358 17.1505 17.358H18.0805C18.1305 17.358 18.1605 17.318 18.1605 17.278V16.878C18.1605 16.588 18.3505 16.328 18.6305 16.228C18.7605 16.188 18.8905 16.128 19.0105 16.068C19.2705 15.938 19.5805 15.988 19.7805 16.188L20.0705 16.478C20.1005 16.508 20.1505 16.508 20.1905 16.478L20.8505 15.818C20.8705 15.798 20.8705 15.778 20.8705 15.758C20.8705 15.738 20.8605 15.718 20.8505 15.698L20.5605 15.408C20.3605 15.208 20.3105 14.898 20.4305 14.638C20.4905 14.518 20.5505 14.388 20.5905 14.258C20.6805 13.978 20.9405 13.798 21.2305 13.798H21.6405C21.6905 13.798 21.7205 13.758 21.7205 13.718V12.788ZM21.6405 14.088H21.2305C21.0605 14.088 20.9105 14.198 20.8605 14.358C20.8105 14.498 20.7505 14.638 20.6905 14.778C20.6205 14.928 20.6505 15.098 20.7605 15.218L21.0505 15.508C21.1905 15.648 21.1905 15.888 21.0505 16.028L20.3905 16.688C20.2505 16.828 20.0105 16.828 19.8705 16.688L19.5805 16.398C19.4605 16.278 19.2905 16.258 19.1405 16.328C19.0105 16.398 18.8605 16.458 18.7205 16.508C18.5605 16.568 18.4505 16.718 18.4505 16.888V17.288C18.4505 17.488 18.2805 17.658 18.0805 17.658H17.1505C16.9505 17.658 16.7805 17.488 16.7805 17.288V16.888C16.7805 16.718 16.6705 16.568 16.5105 16.508C16.3705 16.458 16.2305 16.398 16.0905 16.328C15.9405 16.258 15.7705 16.278 15.6505 16.398L15.3605 16.688C15.2905 16.758 15.2005 16.798 15.1005 16.798C15.0005 16.798 14.9005 16.758 14.8405 16.688L14.1805 16.028C14.0405 15.888 14.0405 15.648 14.1805 15.508L14.4705 15.218C14.5905 15.108 14.6105 14.928 14.5405 14.778C14.4705 14.638 14.4105 14.498 14.3705 14.358C14.3205 14.198 14.1705 14.088 14.0005 14.088H13.6005C13.4005 14.088 13.2305 13.918 13.2305 13.718V12.788C13.2305 12.588 13.4005 12.418 13.6005 12.418H14.0105C14.1805 12.418 14.3205 12.308 14.3805 12.148C14.4305 12.008 14.4905 11.868 14.5505 11.738C14.6205 11.588 14.6005 11.418 14.4805 11.298L14.1805 10.998C14.1105 10.928 14.0705 10.838 14.0705 10.738C14.0705 10.638 14.1105 10.548 14.1805 10.478L14.8405 9.81802C14.9105 9.74802 15.0005 9.70804 15.1005 9.70804C15.2005 9.70804 15.3005 9.74802 15.3605 9.81802L15.6605 10.118C15.7705 10.228 15.9505 10.258 16.1005 10.188C16.2305 10.118 16.3705 10.068 16.5105 10.018C16.6705 9.96804 16.7705 9.81802 16.7705 9.65802V9.22803C16.7705 9.02803 16.9405 8.85803 17.1405 8.85803H18.0705C18.2705 8.85803 18.4405 9.02803 18.4405 9.22803V9.65802C18.4405 9.81802 18.5505 9.96804 18.7005 10.018C18.8405 10.068 18.9805 10.128 19.1105 10.188C19.2605 10.258 19.4305 10.228 19.5505 10.118L19.8505 9.81802C19.9905 9.67802 20.2305 9.67802 20.3705 9.81802L21.0305 10.478C21.1005 10.548 21.1405 10.638 21.1405 10.738C21.1405 10.838 21.1005 10.928 21.0305 10.998L20.7305 11.298C20.6105 11.418 20.5905 11.588 20.6605 11.738C20.7305 11.868 20.7805 12.008 20.8305 12.148C20.8905 12.308 21.0305 12.418 21.2005 12.418H21.6105C21.8105 12.418 21.9805 12.588 21.9805 12.788V13.718C22.0105 13.918 21.8405 14.088 21.6405 14.088ZM21.9205 12.788C21.9205 12.638 21.7905 12.508 21.6405 12.508H21.2305C21.0205 12.508 20.8405 12.378 20.7705 12.178C20.7205 12.038 20.6705 11.908 20.6005 11.778C20.5105 11.598 20.5405 11.378 20.6905 11.238L20.9905 10.938C21.0405 10.888 21.0705 10.818 21.0705 10.738C21.0705 10.658 21.0405 10.598 20.9905 10.538L20.3305 9.87802C20.2205 9.76802 20.0405 9.76802 19.9305 9.87802L19.6305 10.178C19.4905 10.318 19.2705 10.358 19.0905 10.268C18.9605 10.208 18.8205 10.148 18.6905 10.098C18.5005 10.028 18.3605 9.84804 18.3605 9.64804V9.21802C18.3605 9.06802 18.2305 8.93802 18.0805 8.93802H17.1505C17.0005 8.93802 16.8705 9.06802 16.8705 9.21802V9.64804C16.8705 9.84804 16.7405 10.038 16.5405 10.098C16.4005 10.148 16.2705 10.198 16.1405 10.268C15.9605 10.358 15.7405 10.328 15.6005 10.178L15.3005 9.87802C15.2505 9.82802 15.1805 9.79803 15.1005 9.79803C15.0205 9.79803 14.9505 9.82802 14.9005 9.87802L14.2405 10.538C14.1905 10.588 14.1605 10.658 14.1605 10.738C14.1605 10.818 14.1905 10.888 14.2405 10.938L14.5405 11.238C14.6805 11.378 14.7205 11.598 14.6305 11.778C14.5705 11.908 14.5105 12.038 14.4605 12.178C14.3905 12.378 14.2105 12.508 14.0005 12.508H13.6005C13.4505 12.508 13.3205 12.638 13.3205 12.788V13.718C13.3205 13.868 13.4505 13.998 13.6005 13.998H14.0005C14.2105 13.998 14.3905 14.128 14.4605 14.328C14.5105 14.468 14.5605 14.608 14.6305 14.738C14.7205 14.918 14.6905 15.138 14.5405 15.278L14.2505 15.568C14.1405 15.678 14.1405 15.858 14.2505 15.968L14.9105 16.628C14.9605 16.678 15.0305 16.708 15.1105 16.708C15.1905 16.708 15.2605 16.678 15.3105 16.628L15.6005 16.338C15.6905 16.248 15.8105 16.198 15.9305 16.198C16.0005 16.198 16.0705 16.218 16.1405 16.248C16.2705 16.318 16.4105 16.368 16.5505 16.418C16.7505 16.488 16.8805 16.668 16.8805 16.878V17.278C16.8805 17.428 17.0105 17.558 17.1605 17.558H18.0905C18.2405 17.558 18.3705 17.428 18.3705 17.278V16.878C18.3705 16.668 18.5005 16.488 18.7005 16.418C18.8405 16.368 18.9805 16.308 19.1105 16.248C19.2905 16.158 19.5105 16.188 19.6505 16.338L19.9405 16.628C20.0505 16.738 20.2305 16.738 20.3405 16.628L21.0005 15.968C21.1105 15.858 21.1105 15.678 21.0005 15.568L20.7105 15.278C20.5705 15.138 20.5305 14.918 20.6205 14.738C20.6905 14.608 20.7405 14.468 20.7905 14.328C20.8605 14.128 21.0405 13.998 21.2505 13.998H21.6605C21.8105 13.998 21.9405 13.868 21.9405 13.718V12.788H21.9205ZM21.6405 13.848H21.2305C20.9605 13.848 20.7205 14.018 20.6305 14.278C20.5805 14.408 20.5305 14.538 20.4705 14.668C20.3505 14.908 20.4005 15.198 20.5905 15.388L20.8805 15.678C20.9005 15.698 20.9205 15.738 20.9205 15.768C20.9205 15.798 20.9105 15.838 20.8805 15.858L20.2205 16.518C20.1705 16.568 20.0905 16.568 20.0405 16.518L19.7505 16.228C19.5605 16.038 19.2705 15.988 19.0305 16.108C18.9005 16.168 18.7705 16.228 18.6405 16.268C18.3805 16.358 18.2005 16.598 18.2005 16.868V17.268C18.2005 17.338 18.1405 17.398 18.0705 17.398H17.1405C17.0705 17.398 17.0105 17.338 17.0105 17.268V16.868C17.0105 16.598 16.8305 16.348 16.5705 16.268C16.4405 16.218 16.3105 16.168 16.1805 16.108C16.0905 16.068 16.0005 16.038 15.9005 16.038C15.7305 16.038 15.5805 16.108 15.4605 16.218L15.1705 16.508C15.1505 16.528 15.1105 16.548 15.0805 16.548C15.0505 16.548 15.0105 16.538 14.9905 16.508L14.3305 15.848C14.3105 15.828 14.2905 15.788 14.2905 15.758C14.2905 15.728 14.3005 15.688 14.3305 15.668L14.6205 15.378C14.8105 15.188 14.8605 14.898 14.7405 14.658C14.6805 14.538 14.6205 14.398 14.5805 14.268C14.4905 14.008 14.2505 13.838 13.9805 13.838H13.6005C13.5305 13.838 13.4705 13.778 13.4705 13.708V12.778C13.4705 12.708 13.5305 12.648 13.6005 12.648H14.0105C14.2805 12.648 14.5205 12.478 14.6105 12.218C14.6505 12.088 14.7105 11.958 14.7705 11.838C14.8905 11.598 14.8405 11.308 14.6505 11.118L14.3505 10.818C14.3305 10.798 14.3105 10.758 14.3105 10.728C14.3105 10.698 14.3205 10.658 14.3505 10.638L15.0105 9.97803C15.0605 9.92803 15.1405 9.92803 15.1905 9.97803L15.4905 10.278C15.6805 10.468 15.9705 10.518 16.2105 10.398C16.3305 10.338 16.4605 10.278 16.5905 10.238C16.8505 10.148 17.0205 9.90804 17.0205 9.64804V9.21802C17.0205 9.14802 17.0805 9.08801 17.1505 9.08801H18.0805C18.1505 9.08801 18.2105 9.14802 18.2105 9.21802V9.64804C18.2105 9.91804 18.3805 10.158 18.6405 10.238C18.7705 10.278 18.9005 10.338 19.0205 10.398C19.2605 10.518 19.5505 10.468 19.7405 10.278L20.0405 9.97803C20.0605 9.95803 20.1005 9.93802 20.1305 9.93802C20.1605 9.93802 20.2005 9.94803 20.2205 9.97803L20.8805 10.638C20.9005 10.658 20.9205 10.698 20.9205 10.728C20.9205 10.758 20.9105 10.798 20.8805 10.818L20.5805 11.118C20.3905 11.308 20.3405 11.598 20.4705 11.838C20.5305 11.958 20.5905 12.088 20.6305 12.218C20.7205 12.478 20.9605 12.648 21.2305 12.648H21.6405C21.7105 12.648 21.7705 12.708 21.7705 12.778V13.708C21.7705 13.788 21.7105 13.848 21.6405 13.848ZM21.6805 12.788C21.6805 12.768 21.6605 12.748 21.6405 12.748H21.2305C20.9205 12.748 20.6505 12.548 20.5405 12.258C20.5005 12.128 20.4405 12.008 20.3805 11.888C20.2405 11.608 20.3005 11.278 20.5105 11.058L20.8105 10.758C20.8205 10.748 20.8205 10.738 20.8205 10.728C20.8205 10.718 20.8205 10.708 20.8105 10.698L20.1505 10.038C20.1405 10.028 20.1305 10.028 20.1205 10.028C20.1105 10.028 20.1005 10.028 20.0905 10.038L19.7905 10.338C19.5705 10.558 19.2405 10.608 18.9705 10.468C18.8505 10.408 18.7205 10.358 18.6005 10.318C18.3105 10.218 18.1105 9.94803 18.1105 9.63803V9.20804C18.1105 9.18804 18.0905 9.16803 18.0705 9.16803H17.1405C17.1205 9.16803 17.1005 9.18804 17.1005 9.20804V9.63803C17.1005 9.94803 16.9005 10.218 16.6105 10.318C16.4805 10.358 16.3605 10.408 16.2405 10.468C15.9605 10.608 15.6305 10.548 15.4205 10.338L15.1205 10.038C15.1105 10.028 15.0805 10.028 15.0705 10.038L14.4105 10.698C14.4005 10.708 14.4005 10.718 14.4005 10.728C14.4005 10.738 14.4005 10.748 14.4105 10.758L14.7105 11.058C14.9305 11.278 14.9805 11.608 14.8405 11.888C14.7805 12.008 14.7305 12.138 14.6805 12.258C14.5805 12.548 14.3005 12.748 13.9905 12.748H13.6005C13.5805 12.748 13.5605 12.768 13.5605 12.788V13.718C13.5605 13.738 13.5805 13.758 13.6005 13.758H14.0005C14.3105 13.758 14.5905 13.958 14.6905 14.258C14.7305 14.388 14.7905 14.518 14.8505 14.638C14.9905 14.918 14.9305 15.248 14.7205 15.458L14.4305 15.748C14.4205 15.758 14.4205 15.768 14.4205 15.778C14.4205 15.788 14.4205 15.798 14.4305 15.808L15.0905 16.468C15.1005 16.478 15.1105 16.478 15.1205 16.478C15.1305 16.478 15.1405 16.478 15.1505 16.468L15.4405 16.178C15.5705 16.048 15.7505 15.968 15.9405 15.968C16.0505 15.968 16.1605 15.998 16.2605 16.048C16.3805 16.108 16.5105 16.158 16.6405 16.208C16.9405 16.308 17.1405 16.588 17.1405 16.898V17.298C17.1405 17.318 17.1605 17.338 17.1805 17.338H18.1105C18.1305 17.338 18.1505 17.318 18.1505 17.298V16.898C18.1505 16.588 18.3505 16.308 18.6505 16.208C18.7805 16.168 18.9105 16.108 19.0305 16.048C19.3105 15.908 19.6405 15.968 19.8505 16.178L20.1405 16.468C20.1505 16.478 20.1805 16.478 20.1905 16.468L20.8505 15.808C20.8605 15.798 20.8605 15.788 20.8605 15.778C20.8605 15.768 20.8605 15.758 20.8505 15.748L20.5605 15.458C20.3405 15.238 20.2905 14.908 20.4305 14.638C20.4905 14.518 20.5405 14.388 20.5905 14.258C20.6905 13.958 20.9705 13.758 21.2805 13.758H21.6905C21.7105 13.758 21.7305 13.738 21.7305 13.718V12.788H21.6805ZM17.6205 15.678C16.2805 15.678 15.1905 14.588 15.1905 13.248C15.1905 11.908 16.2805 10.818 17.6205 10.818C18.9605 10.818 20.0505 11.908 20.0505 13.248C20.0505 14.588 18.9605 15.678 17.6205 15.678ZM17.6205 11.068C16.4205 11.068 15.4405 12.048 15.4405 13.248C15.4405 14.448 16.4205 15.428 17.6205 15.428C18.8205 15.428 19.8005 14.448 19.8005 13.248C19.8005 12.048 18.8205 11.068 17.6205 11.068ZM17.6205 15.728C16.2605 15.728 15.1505 14.618 15.1505 13.258C15.1505 11.898 16.2605 10.788 17.6205 10.788C18.9805 10.788 20.0905 11.898 20.0905 13.258C20.0905 14.618 18.9805 15.728 17.6205 15.728ZM17.6205 10.878C16.3105 10.878 15.2405 11.948 15.2405 13.258C15.2405 14.568 16.3105 15.638 17.6205 15.638C18.9305 15.638 20.0005 14.568 20.0005 13.258C20.0005 11.938 18.9305 10.878 17.6205 10.878ZM17.6205 15.478C16.3905 15.478 15.3905 14.478 15.3905 13.248C15.3905 12.018 16.3905 11.018 17.6205 11.018C18.8505 11.018 19.8505 12.018 19.8505 13.248C19.8505 14.478 18.8505 15.478 17.6205 15.478ZM17.6205 11.118C16.4405 11.118 15.4805 12.078 15.4805 13.258C15.4805 14.438 16.4405 15.398 17.6205 15.398C18.8005 15.398 19.7605 14.438 19.7605 13.258C19.7605 12.078 18.8005 11.118 17.6205 11.118Z" fill="#075896"/>
                                <path d="M20.4305 14.638C20.3105 14.898 20.3605 15.208 20.5605 15.408L20.8505 15.698C20.8605 15.718 20.8705 15.738 20.8705 15.758C20.8705 15.778 20.8705 15.798 20.8505 15.818L20.1905 16.478C20.1505 16.508 20.1005 16.508 20.0705 16.478L19.7805 16.188C19.5805 15.988 19.2705 15.938 19.0105 16.068C18.8905 16.128 18.7605 16.188 18.6305 16.228C18.3505 16.328 18.1605 16.588 18.1605 16.878V17.278C18.1605 17.318 18.1305 17.358 18.0805 17.358H17.1505C17.1105 17.358 17.0705 17.328 17.0705 17.278V16.878C17.0705 16.588 16.8805 16.318 16.6005 16.228C16.4705 16.188 16.3405 16.128 16.2205 16.068C16.1205 16.018 16.0205 15.998 15.9205 15.998C15.7505 15.998 15.5805 16.058 15.4505 16.188L15.1605 16.478C15.1305 16.508 15.0705 16.508 15.0405 16.478L14.3805 15.818C14.3705 15.798 14.3605 15.778 14.3605 15.758C14.3605 15.738 14.3605 15.718 14.3805 15.698L14.6705 15.408C14.8805 15.208 14.9305 14.898 14.8005 14.638C14.7405 14.518 14.6805 14.388 14.6405 14.258C14.5505 13.988 14.2905 13.798 14.0005 13.798H13.6005C13.5605 13.798 13.5205 13.768 13.5205 13.718V12.788C13.5205 12.748 13.5505 12.708 13.6005 12.708H14.0005C14.2905 12.708 14.5505 12.528 14.6405 12.248C14.6905 12.118 14.7405 11.988 14.8005 11.868C14.9305 11.608 14.8805 11.298 14.6805 11.098L14.3805 10.798C14.3705 10.778 14.3605 10.758 14.3605 10.738C14.3605 10.718 14.3605 10.698 14.3805 10.678L15.0405 10.018C15.0705 9.98804 15.1305 9.98804 15.1605 10.018L15.4605 10.318C15.6605 10.518 15.9705 10.568 16.2305 10.438C16.3505 10.378 16.4805 10.318 16.6105 10.278C16.8905 10.178 17.0705 9.92803 17.0705 9.63803V9.20804C17.0705 9.16804 17.1005 9.12802 17.1505 9.12802H18.0805C18.1205 9.12802 18.1605 9.15804 18.1605 9.20804V9.63803C18.1605 9.92803 18.3405 10.188 18.6205 10.278C18.7505 10.328 18.8805 10.378 19.0005 10.438C19.2605 10.568 19.5705 10.518 19.7705 10.318L20.0705 10.018C20.1005 9.98804 20.1605 9.98804 20.1905 10.018L20.8505 10.678C20.8605 10.698 20.8705 10.718 20.8705 10.738C20.8705 10.758 20.8705 10.778 20.8505 10.798L20.5505 11.098C20.3505 11.298 20.3005 11.608 20.4305 11.868C20.4905 11.988 20.5505 12.118 20.5905 12.248C20.6805 12.518 20.9405 12.708 21.2305 12.708H21.6405C21.6805 12.708 21.7205 12.738 21.7205 12.788V13.718C21.7205 13.758 21.6905 13.798 21.6405 13.798H21.2305C20.9405 13.798 20.6805 13.978 20.5905 14.258M20.4305 14.638C20.4905 14.518 20.5505 14.388 20.5905 14.258M20.4305 14.638C20.2905 14.908 20.3405 15.238 20.5605 15.458L20.8505 15.748C20.8605 15.758 20.8605 15.768 20.8605 15.778C20.8605 15.788 20.8605 15.798 20.8505 15.808L20.1905 16.468C20.1805 16.478 20.1505 16.478 20.1405 16.468L19.8505 16.178C19.6405 15.968 19.3105 15.908 19.0305 16.048C18.9105 16.108 18.7805 16.168 18.6505 16.208C18.3505 16.308 18.1505 16.588 18.1505 16.898V17.298C18.1505 17.318 18.1305 17.338 18.1105 17.338H17.1805C17.1605 17.338 17.1405 17.318 17.1405 17.298V16.898C17.1405 16.588 16.9405 16.308 16.6405 16.208C16.5105 16.158 16.3805 16.108 16.2605 16.048C16.1605 15.998 16.0505 15.968 15.9405 15.968C15.7505 15.968 15.5705 16.048 15.4405 16.178L15.1505 16.468C15.1405 16.478 15.1305 16.478 15.1205 16.478C15.1105 16.478 15.1005 16.478 15.0905 16.468L14.4305 15.808C14.4205 15.798 14.4205 15.788 14.4205 15.778C14.4205 15.768 14.4205 15.758 14.4305 15.748L14.7205 15.458C14.9305 15.248 14.9905 14.918 14.8505 14.638C14.7905 14.518 14.7305 14.388 14.6905 14.258C14.5905 13.958 14.3105 13.758 14.0005 13.758H13.6005C13.5805 13.758 13.5605 13.738 13.5605 13.718V12.788C13.5605 12.768 13.5805 12.748 13.6005 12.748H13.9905C14.3005 12.748 14.5805 12.548 14.6805 12.258C14.7305 12.138 14.7805 12.008 14.8405 11.888C14.9805 11.608 14.9305 11.278 14.7105 11.058L14.4105 10.758C14.4005 10.748 14.4005 10.738 14.4005 10.728C14.4005 10.718 14.4005 10.708 14.4105 10.698L15.0705 10.038C15.0805 10.028 15.1105 10.028 15.1205 10.038L15.4205 10.338C15.6305 10.548 15.9605 10.608 16.2405 10.468C16.3605 10.408 16.4805 10.358 16.6105 10.318C16.9005 10.218 17.1005 9.94803 17.1005 9.63803V9.20804C17.1005 9.18804 17.1205 9.16803 17.1405 9.16803H18.0705C18.0905 9.16803 18.1105 9.18804 18.1105 9.20804V9.63803C18.1105 9.94803 18.3105 10.218 18.6005 10.318C18.7205 10.358 18.8505 10.408 18.9705 10.468C19.2405 10.608 19.5705 10.558 19.7905 10.338L20.0905 10.038C20.1005 10.028 20.1105 10.028 20.1205 10.028C20.1305 10.028 20.1405 10.028 20.1505 10.038L20.8105 10.698C20.8205 10.708 20.8205 10.718 20.8205 10.728C20.8205 10.738 20.8205 10.748 20.8105 10.758L20.5105 11.058C20.3005 11.278 20.2405 11.608 20.3805 11.888C20.4405 12.008 20.5005 12.128 20.5405 12.258C20.6505 12.548 20.9205 12.748 21.2305 12.748H21.6405C21.6605 12.748 21.6805 12.768 21.6805 12.788H21.7305V13.718C21.7305 13.738 21.7105 13.758 21.6905 13.758H21.2805C20.9705 13.758 20.6905 13.958 20.5905 14.258M20.4305 14.638C20.4905 14.518 20.5405 14.388 20.5905 14.258M21.6405 14.048H21.2305C21.0405 14.048 20.8805 14.168 20.8205 14.348C20.7705 14.488 20.7105 14.628 20.6505 14.758C20.5705 14.918 20.6005 15.118 20.7305 15.248L21.0205 15.538C21.1505 15.668 21.1505 15.868 21.0205 15.998L20.3605 16.658C20.2305 16.788 20.0305 16.788 19.9005 16.658L19.6105 16.368C19.4805 16.238 19.2805 16.208 19.1205 16.288C18.9905 16.358 18.8505 16.408 18.7105 16.458C18.5305 16.518 18.4105 16.688 18.4105 16.878V17.278C18.4105 17.458 18.2605 17.608 18.0805 17.608H17.1505C16.9705 17.608 16.8205 17.458 16.8205 17.278V16.878C16.8205 16.688 16.7005 16.518 16.5205 16.458C16.3805 16.408 16.2405 16.348 16.1105 16.288C15.9405 16.208 15.7505 16.238 15.6205 16.368L15.3305 16.658C15.2105 16.778 14.9905 16.778 14.8705 16.658L14.2105 15.998C14.0805 15.868 14.0805 15.668 14.2105 15.538L14.5005 15.248C14.6305 15.118 14.6605 14.918 14.5805 14.758C14.5105 14.628 14.4605 14.488 14.4105 14.348C14.3505 14.168 14.1805 14.048 14.0005 14.048H13.6005C13.4205 14.048 13.2705 13.898 13.2705 13.718V12.788C13.2705 12.608 13.4205 12.458 13.6005 12.458H14.0105C14.2005 12.458 14.3605 12.338 14.4205 12.158C14.4705 12.018 14.5205 11.878 14.5905 11.748C14.6705 11.578 14.6405 11.388 14.5105 11.258L14.2105 10.958C14.1505 10.898 14.1105 10.818 14.1105 10.728C14.1105 10.638 14.1405 10.558 14.2105 10.498L14.8705 9.83801C14.9905 9.71801 15.2105 9.71801 15.3305 9.83801L15.6305 10.138C15.7605 10.268 15.9605 10.298 16.1205 10.218C16.2505 10.148 16.3905 10.098 16.5305 10.048C16.7105 9.98803 16.8205 9.82803 16.8205 9.63803V9.20804C16.8205 9.02804 16.9705 8.87802 17.1505 8.87802H18.0805C18.2605 8.87802 18.4105 9.02804 18.4105 9.20804V9.63803C18.4105 9.81803 18.5305 9.98803 18.7005 10.048C18.8405 10.098 18.9805 10.148 19.1105 10.218C19.2805 10.298 19.4705 10.268 19.6005 10.138L19.9005 9.83801C20.0305 9.70801 20.2305 9.70801 20.3605 9.83801L21.0205 10.498C21.0805 10.558 21.1205 10.638 21.1205 10.728C21.1205 10.818 21.0905 10.898 21.0205 10.958L20.7205 11.258C20.5905 11.388 20.5605 11.588 20.6405 11.748C20.7105 11.878 20.7605 12.018 20.8105 12.158C20.8705 12.338 21.0405 12.458 21.2205 12.458H21.6305C21.8105 12.458 21.9605 12.608 21.9605 12.788V13.718C21.9705 13.898 21.8205 14.048 21.6405 14.048ZM21.6405 14.088H21.2305C21.0605 14.088 20.9105 14.198 20.8605 14.358C20.8105 14.498 20.7505 14.638 20.6905 14.778C20.6205 14.928 20.6505 15.098 20.7605 15.218L21.0505 15.508C21.1905 15.648 21.1905 15.888 21.0505 16.028L20.3905 16.688C20.2505 16.828 20.0105 16.828 19.8705 16.688L19.5805 16.398C19.4605 16.278 19.2905 16.258 19.1405 16.328C19.0105 16.398 18.8605 16.458 18.7205 16.508C18.5605 16.568 18.4505 16.718 18.4505 16.888V17.288C18.4505 17.488 18.2805 17.658 18.0805 17.658H17.1505C16.9505 17.658 16.7805 17.488 16.7805 17.288V16.888C16.7805 16.718 16.6705 16.568 16.5105 16.508C16.3705 16.458 16.2305 16.398 16.0905 16.328C15.9405 16.258 15.7705 16.278 15.6505 16.398L15.3605 16.688C15.2905 16.758 15.2005 16.798 15.1005 16.798C15.0005 16.798 14.9005 16.758 14.8405 16.688L14.1805 16.028C14.0405 15.888 14.0405 15.648 14.1805 15.508L14.4705 15.218C14.5905 15.108 14.6105 14.928 14.5405 14.778C14.4705 14.638 14.4105 14.498 14.3705 14.358C14.3205 14.198 14.1705 14.088 14.0005 14.088H13.6005C13.4005 14.088 13.2305 13.918 13.2305 13.718V12.788C13.2305 12.588 13.4005 12.418 13.6005 12.418H14.0105C14.1805 12.418 14.3205 12.308 14.3805 12.148C14.4305 12.008 14.4905 11.868 14.5505 11.738C14.6205 11.588 14.6005 11.418 14.4805 11.298L14.1805 10.998C14.1105 10.928 14.0705 10.838 14.0705 10.738C14.0705 10.638 14.1105 10.548 14.1805 10.478L14.8405 9.81802C14.9105 9.74802 15.0005 9.70804 15.1005 9.70804C15.2005 9.70804 15.3005 9.74802 15.3605 9.81802L15.6605 10.118C15.7705 10.228 15.9505 10.258 16.1005 10.188C16.2305 10.118 16.3705 10.068 16.5105 10.018C16.6705 9.96804 16.7705 9.81802 16.7705 9.65802V9.22803C16.7705 9.02803 16.9405 8.85803 17.1405 8.85803H18.0705C18.2705 8.85803 18.4405 9.02803 18.4405 9.22803V9.65802C18.4405 9.81802 18.5505 9.96804 18.7005 10.018C18.8405 10.068 18.9805 10.128 19.1105 10.188C19.2605 10.258 19.4305 10.228 19.5505 10.118L19.8505 9.81802C19.9905 9.67802 20.2305 9.67802 20.3705 9.81802L21.0305 10.478C21.1005 10.548 21.1405 10.638 21.1405 10.738C21.1405 10.838 21.1005 10.928 21.0305 10.998L20.7305 11.298C20.6105 11.418 20.5905 11.588 20.6605 11.738C20.7305 11.868 20.7805 12.008 20.8305 12.148C20.8905 12.308 21.0305 12.418 21.2005 12.418H21.6105C21.8105 12.418 21.9805 12.588 21.9805 12.788V13.718C22.0105 13.918 21.8405 14.088 21.6405 14.088ZM21.9205 12.788C21.9205 12.638 21.7905 12.508 21.6405 12.508H21.2305C21.0205 12.508 20.8405 12.378 20.7705 12.178C20.7205 12.038 20.6705 11.908 20.6005 11.778C20.5105 11.598 20.5405 11.378 20.6905 11.238L20.9905 10.938C21.0405 10.888 21.0705 10.818 21.0705 10.738C21.0705 10.658 21.0405 10.598 20.9905 10.538L20.3305 9.87802C20.2205 9.76802 20.0405 9.76802 19.9305 9.87802L19.6305 10.178C19.4905 10.318 19.2705 10.358 19.0905 10.268C18.9605 10.208 18.8205 10.148 18.6905 10.098C18.5005 10.028 18.3605 9.84804 18.3605 9.64804V9.21802C18.3605 9.06802 18.2305 8.93802 18.0805 8.93802H17.1505C17.0005 8.93802 16.8705 9.06802 16.8705 9.21802V9.64804C16.8705 9.84804 16.7405 10.038 16.5405 10.098C16.4005 10.148 16.2705 10.198 16.1405 10.268C15.9605 10.358 15.7405 10.328 15.6005 10.178L15.3005 9.87802C15.2505 9.82802 15.1805 9.79803 15.1005 9.79803C15.0205 9.79803 14.9505 9.82802 14.9005 9.87802L14.2405 10.538C14.1905 10.588 14.1605 10.658 14.1605 10.738C14.1605 10.818 14.1905 10.888 14.2405 10.938L14.5405 11.238C14.6805 11.378 14.7205 11.598 14.6305 11.778C14.5705 11.908 14.5105 12.038 14.4605 12.178C14.3905 12.378 14.2105 12.508 14.0005 12.508H13.6005C13.4505 12.508 13.3205 12.638 13.3205 12.788V13.718C13.3205 13.868 13.4505 13.998 13.6005 13.998H14.0005C14.2105 13.998 14.3905 14.128 14.4605 14.328C14.5105 14.468 14.5605 14.608 14.6305 14.738C14.7205 14.918 14.6905 15.138 14.5405 15.278L14.2505 15.568C14.1405 15.678 14.1405 15.858 14.2505 15.968L14.9105 16.628C14.9605 16.678 15.0305 16.708 15.1105 16.708C15.1905 16.708 15.2605 16.678 15.3105 16.628L15.6005 16.338C15.6905 16.248 15.8105 16.198 15.9305 16.198C16.0005 16.198 16.0705 16.218 16.1405 16.248C16.2705 16.318 16.4105 16.368 16.5505 16.418C16.7505 16.488 16.8805 16.668 16.8805 16.878V17.278C16.8805 17.428 17.0105 17.558 17.1605 17.558H18.0905C18.2405 17.558 18.3705 17.428 18.3705 17.278V16.878C18.3705 16.668 18.5005 16.488 18.7005 16.418C18.8405 16.368 18.9805 16.308 19.1105 16.248C19.2905 16.158 19.5105 16.188 19.6505 16.338L19.9405 16.628C20.0505 16.738 20.2305 16.738 20.3405 16.628L21.0005 15.968C21.1105 15.858 21.1105 15.678 21.0005 15.568L20.7105 15.278C20.5705 15.138 20.5305 14.918 20.6205 14.738C20.6905 14.608 20.7405 14.468 20.7905 14.328C20.8605 14.128 21.0405 13.998 21.2505 13.998H21.6605C21.8105 13.998 21.9405 13.868 21.9405 13.718V12.788H21.9205ZM21.6405 13.848H21.2305C20.9605 13.848 20.7205 14.018 20.6305 14.278C20.5805 14.408 20.5305 14.538 20.4705 14.668C20.3505 14.908 20.4005 15.198 20.5905 15.388L20.8805 15.678C20.9005 15.698 20.9205 15.738 20.9205 15.768C20.9205 15.798 20.9105 15.838 20.8805 15.858L20.2205 16.518C20.1705 16.568 20.0905 16.568 20.0405 16.518L19.7505 16.228C19.5605 16.038 19.2705 15.988 19.0305 16.108C18.9005 16.168 18.7705 16.228 18.6405 16.268C18.3805 16.358 18.2005 16.598 18.2005 16.868V17.268C18.2005 17.338 18.1405 17.398 18.0705 17.398H17.1405C17.0705 17.398 17.0105 17.338 17.0105 17.268V16.868C17.0105 16.598 16.8305 16.348 16.5705 16.268C16.4405 16.218 16.3105 16.168 16.1805 16.108C16.0905 16.068 16.0005 16.038 15.9005 16.038C15.7305 16.038 15.5805 16.108 15.4605 16.218L15.1705 16.508C15.1505 16.528 15.1105 16.548 15.0805 16.548C15.0505 16.548 15.0105 16.538 14.9905 16.508L14.3305 15.848C14.3105 15.828 14.2905 15.788 14.2905 15.758C14.2905 15.728 14.3005 15.688 14.3305 15.668L14.6205 15.378C14.8105 15.188 14.8605 14.898 14.7405 14.658C14.6805 14.538 14.6205 14.398 14.5805 14.268C14.4905 14.008 14.2505 13.838 13.9805 13.838H13.6005C13.5305 13.838 13.4705 13.778 13.4705 13.708V12.778C13.4705 12.708 13.5305 12.648 13.6005 12.648H14.0105C14.2805 12.648 14.5205 12.478 14.6105 12.218C14.6505 12.088 14.7105 11.958 14.7705 11.838C14.8905 11.598 14.8405 11.308 14.6505 11.118L14.3505 10.818C14.3305 10.798 14.3105 10.758 14.3105 10.728C14.3105 10.698 14.3205 10.658 14.3505 10.638L15.0105 9.97803C15.0605 9.92803 15.1405 9.92803 15.1905 9.97803L15.4905 10.278C15.6805 10.468 15.9705 10.518 16.2105 10.398C16.3305 10.338 16.4605 10.278 16.5905 10.238C16.8505 10.148 17.0205 9.90804 17.0205 9.64804V9.21802C17.0205 9.14802 17.0805 9.08801 17.1505 9.08801H18.0805C18.1505 9.08801 18.2105 9.14802 18.2105 9.21802V9.64804C18.2105 9.91804 18.3805 10.158 18.6405 10.238C18.7705 10.278 18.9005 10.338 19.0205 10.398C19.2605 10.518 19.5505 10.468 19.7405 10.278L20.0405 9.97803C20.0605 9.95803 20.1005 9.93802 20.1305 9.93802C20.1605 9.93802 20.2005 9.94803 20.2205 9.97803L20.8805 10.638C20.9005 10.658 20.9205 10.698 20.9205 10.728C20.9205 10.758 20.9105 10.798 20.8805 10.818L20.5805 11.118C20.3905 11.308 20.3405 11.598 20.4705 11.838C20.5305 11.958 20.5905 12.088 20.6305 12.218C20.7205 12.478 20.9605 12.648 21.2305 12.648H21.6405C21.7105 12.648 21.7705 12.708 21.7705 12.778V13.708C21.7705 13.788 21.7105 13.848 21.6405 13.848ZM17.6205 15.678C16.2805 15.678 15.1905 14.588 15.1905 13.248C15.1905 11.908 16.2805 10.818 17.6205 10.818C18.9605 10.818 20.0505 11.908 20.0505 13.248C20.0505 14.588 18.9605 15.678 17.6205 15.678ZM17.6205 11.068C16.4205 11.068 15.4405 12.048 15.4405 13.248C15.4405 14.448 16.4205 15.428 17.6205 15.428C18.8205 15.428 19.8005 14.448 19.8005 13.248C19.8005 12.048 18.8205 11.068 17.6205 11.068ZM17.6205 15.728C16.2605 15.728 15.1505 14.618 15.1505 13.258C15.1505 11.898 16.2605 10.788 17.6205 10.788C18.9805 10.788 20.0905 11.898 20.0905 13.258C20.0905 14.618 18.9805 15.728 17.6205 15.728ZM17.6205 10.878C16.3105 10.878 15.2405 11.948 15.2405 13.258C15.2405 14.568 16.3105 15.638 17.6205 15.638C18.9305 15.638 20.0005 14.568 20.0005 13.258C20.0005 11.938 18.9305 10.878 17.6205 10.878ZM17.6205 15.478C16.3905 15.478 15.3905 14.478 15.3905 13.248C15.3905 12.018 16.3905 11.018 17.6205 11.018C18.8505 11.018 19.8505 12.018 19.8505 13.248C19.8505 14.478 18.8505 15.478 17.6205 15.478ZM17.6205 11.118C16.4405 11.118 15.4805 12.078 15.4805 13.258C15.4805 14.438 16.4405 15.398 17.6205 15.398C18.8005 15.398 19.7605 14.438 19.7605 13.258C19.7605 12.078 18.8005 11.118 17.6205 11.118Z" stroke="#045896" stroke-width="0.3" stroke-miterlimit="10"/>
</svg>