<svg width="33" height="33" viewBox="0 0 33 33" fill="none" xmlns="http://www.w3.org/2000/svg" id="CBSoftTokenHardToken">
                                    <path fill-rule="evenodd" clip-rule="evenodd" d="M16.32 0C25.33 0 32.64 7.30998 32.64 16.32C32.64 25.33 25.33 32.64 16.32 32.64C7.31 32.64 0 25.33 0 16.32C0 7.30998 7.31 0 16.32 0Z" fill="#E3EFF8"/>
                                    <g clip-path="url(#clip0_1762_6435)">
                                    <path d="M9.77016 11.4863C9.06195 11.4863 8.36272 11.2084 7.84277 10.6885C7.32282 10.1686 7.04492 9.49621 7.04492 8.77008C7.04492 8.04395 7.33179 7.35367 7.84277 6.84269C8.90059 5.77591 10.6308 5.77591 11.6975 6.84269C12.4057 7.55089 12.6657 8.58182 12.3878 9.54103C12.343 9.7024 12.1727 9.79204 12.0113 9.74722C11.8499 9.7024 11.7603 9.53207 11.8051 9.37071C12.0292 8.62665 11.823 7.81983 11.2672 7.27299C10.4425 6.44825 9.09781 6.44825 8.26411 7.27299C7.8607 7.6764 7.64555 8.20531 7.64555 8.77008C7.64555 9.33485 7.86966 9.87272 8.26411 10.2672C8.81095 10.814 9.61776 11.0202 10.3618 10.805C10.5232 10.7602 10.6845 10.8499 10.7383 11.0112C10.7832 11.1726 10.6935 11.334 10.5321 11.3877C10.2811 11.4595 10.0212 11.4953 9.76119 11.4953L9.77016 11.4863Z" fill="#075896" stroke="#075896" stroke-width="0.1" stroke-miterlimit="10"/>
                                    <path d="M10.7477 11.6925C10.667 11.6925 10.5953 11.6656 10.5326 11.6029L9.52853 10.5988C9.36717 10.4375 9.26855 10.2134 9.26855 9.98029C9.26855 9.74721 9.3582 9.5231 9.52853 9.36173L10.3443 8.54596C10.685 8.2053 11.2408 8.2053 11.5904 8.54596L12.5944 9.54999C12.711 9.66653 12.711 9.85479 12.5944 9.97133C12.4779 10.0879 12.2896 10.0879 12.1731 9.97133L11.169 8.96729C11.0615 8.85972 10.8822 8.85972 10.7746 8.96729L9.95883 9.78307C9.90504 9.83686 9.87815 9.90857 9.87815 9.98029C9.87815 10.052 9.90504 10.1237 9.95883 10.1775L10.9629 11.1815C11.0794 11.2981 11.0794 11.4863 10.9629 11.6029C10.9001 11.6656 10.8284 11.6925 10.7477 11.6925Z" fill="#075896" stroke="#075896" stroke-width="0.1" stroke-miterlimit="10"/>
                                    <path d="M20.8683 25.9552C20.4828 25.9552 20.1152 25.8028 19.8463 25.5339L14.091 19.7786C13.0242 19.5545 12.0471 19.0256 11.2761 18.2457C9.07983 16.0493 9.07983 12.4725 11.2761 10.2761C12.3429 9.20935 13.7593 8.62665 15.2654 8.62665C16.7714 8.62665 18.1878 9.20935 19.2546 10.2761C20.0346 11.0561 20.5635 12.0242 20.7876 13.091L26.5428 18.8463C26.8118 19.1152 26.9642 19.4828 26.9642 19.8682C26.9642 20.2537 26.8118 20.6213 26.5428 20.8902L21.8992 25.5339C21.6303 25.8028 21.2627 25.9552 20.8772 25.9552H20.8683ZM15.2564 9.21831C13.9117 9.21831 12.6477 9.73826 11.6975 10.6975C9.73424 12.6607 9.73424 15.8611 11.6975 17.8243C12.4147 18.5415 13.3111 19.0166 14.2972 19.2049C14.36 19.2138 14.4138 19.2407 14.4496 19.2855L20.2676 25.1036C20.5904 25.4263 21.1462 25.4263 21.4599 25.1036L26.1036 20.4599C26.2649 20.2985 26.3546 20.0834 26.3546 19.8593C26.3546 19.6352 26.2649 19.42 26.1036 19.2587L20.2856 13.4406C20.2856 13.4406 20.2138 13.342 20.2049 13.2882C20.0166 12.3021 19.5325 11.4057 18.8243 10.6885C17.8741 9.73826 16.6101 9.20935 15.2654 9.20935L15.2564 9.21831Z" fill="#075896" stroke="#075896" stroke-width="0.1" stroke-miterlimit="10"/>
                                    <path d="M20.9403 20.4957C20.8597 20.4957 20.7879 20.4688 20.7252 20.4061L20.2052 19.8861L19.5688 20.2447C19.4522 20.3075 19.2998 20.2895 19.2102 20.1909L16.5746 17.5553C16.216 17.6809 15.8484 17.7526 15.463 17.7526C14.5844 17.7526 13.7597 17.4119 13.1411 16.7934C11.8592 15.5114 11.8592 13.4316 13.1411 12.1497C13.7597 11.5311 14.5844 11.1905 15.463 11.1905C16.3415 11.1905 17.1662 11.5311 17.7848 12.1497C18.6902 13.0551 18.9861 14.3819 18.5558 15.5831L22.0519 19.0793C22.1057 19.1331 22.1416 19.2138 22.1416 19.2945C22.1416 19.3752 22.1057 19.4469 22.0519 19.5096L21.1376 20.424C21.0748 20.4868 21.0031 20.5137 20.9224 20.5137L20.9403 20.4957ZM20.268 19.2228C20.3487 19.2228 20.4204 19.2497 20.4831 19.3124L20.9493 19.7786L21.4334 19.2945L18.0089 15.87C17.9193 15.7804 17.8924 15.6549 17.9462 15.5383C18.3854 14.5253 18.1613 13.3599 17.3814 12.58C16.8704 12.069 16.1981 11.7911 15.4809 11.7911C14.7637 11.7911 14.0914 12.069 13.5804 12.58C12.5315 13.6289 12.5315 15.3321 13.5804 16.381C14.0914 16.892 14.7637 17.1699 15.4809 17.1699C15.8484 17.1699 16.207 17.0982 16.5477 16.9458C16.6642 16.9009 16.7897 16.9189 16.8794 17.0085L19.4881 19.6172L20.1246 19.2586C20.1694 19.2317 20.2232 19.2228 20.268 19.2228Z" fill="#075896" stroke="#075896" stroke-width="0.1" stroke-miterlimit="10"/>
                                    <path d="M14.8173 14.9018C14.5304 14.9018 14.2525 14.7853 14.0553 14.5881C13.6339 14.1667 13.6339 13.4765 14.0553 13.0551C14.4676 12.6428 15.1758 12.6428 15.5882 13.0551C16.0095 13.4765 16.0095 14.1667 15.5882 14.5881C15.382 14.7943 15.1131 14.9018 14.8262 14.9018H14.8173ZM14.8173 13.333C14.6917 13.333 14.5662 13.3868 14.4766 13.4765C14.2883 13.6647 14.2883 13.9695 14.4766 14.1578C14.6559 14.3371 14.9786 14.3371 15.1579 14.1578C15.3462 13.9695 15.3462 13.6647 15.1579 13.4765C15.0683 13.3868 14.9428 13.333 14.8173 13.333Z" fill="#075896" stroke="#075896" stroke-width="0.1" stroke-miterlimit="10"/>
                                    </g>
                                    <defs>
                                    <clipPath id="clip0_1762_6435">
                                    <rect width="20" height="20" fill="white" transform="translate(7 6)"/>
                                    </clipPath>
                                    </defs>
                                </svg>